%TF.GenerationSoftware,KiCad,Pcbnew,(6.0.1)*%
%TF.CreationDate,2022-07-30T21:00:21-07:00*%
%TF.ProjectId,M27C322-to-KM23C32000AG-adapter,4d323743-3332-4322-9d74-6f2d4b4d3233,rev?*%
%TF.SameCoordinates,Original*%
%TF.FileFunction,Copper,L1,Top*%
%TF.FilePolarity,Positive*%
%FSLAX46Y46*%
G04 Gerber Fmt 4.6, Leading zero omitted, Abs format (unit mm)*
G04 Created by KiCad (PCBNEW (6.0.1)) date 2022-07-30 21:00:21*
%MOMM*%
%LPD*%
G01*
G04 APERTURE LIST*
%TA.AperFunction,ComponentPad*%
%ADD10R,1.000000X1.000000*%
%TD*%
%TA.AperFunction,ComponentPad*%
%ADD11O,1.000000X1.000000*%
%TD*%
%TA.AperFunction,ComponentPad*%
%ADD12R,1.700000X1.700000*%
%TD*%
%TA.AperFunction,ComponentPad*%
%ADD13O,1.700000X1.700000*%
%TD*%
%TA.AperFunction,Conductor*%
%ADD14C,0.250000*%
%TD*%
G04 APERTURE END LIST*
D10*
%TO.P,U1,1,NC*%
%TO.N,unconnected-(U1-Pad1)*%
X143890000Y-67360000D03*
D11*
%TO.P,U1,44,A20*%
%TO.N,/A20*%
X145160000Y-67360000D03*
%TO.P,U1,2,A18*%
%TO.N,/A18*%
X143890000Y-68630000D03*
%TO.P,U1,43,A19*%
%TO.N,/A19*%
X145160000Y-68630000D03*
%TO.P,U1,3,A17*%
%TO.N,/A17*%
X143890000Y-69900000D03*
%TO.P,U1,42,A8*%
%TO.N,/A8*%
X145160000Y-69900000D03*
%TO.P,U1,4,A7*%
%TO.N,/A7*%
X143890000Y-71170000D03*
%TO.P,U1,41,A9*%
%TO.N,/A9*%
X145160000Y-71170000D03*
%TO.P,U1,5,A6*%
%TO.N,/A6*%
X143890000Y-72440000D03*
%TO.P,U1,40,A10*%
%TO.N,/A10*%
X145160000Y-72440000D03*
%TO.P,U1,6,A5*%
%TO.N,/A5*%
X143890000Y-73710000D03*
%TO.P,U1,39,A11*%
%TO.N,/A11*%
X145160000Y-73710000D03*
%TO.P,U1,7,A4*%
%TO.N,/A4*%
X143890000Y-74980000D03*
%TO.P,U1,38,A12*%
%TO.N,/A12*%
X145160000Y-74980000D03*
%TO.P,U1,8,A3*%
%TO.N,/A3*%
X143890000Y-76250000D03*
%TO.P,U1,37,A13*%
%TO.N,/A13*%
X145160000Y-76250000D03*
%TO.P,U1,9,A2*%
%TO.N,/A2*%
X143890000Y-77520000D03*
%TO.P,U1,36,A14*%
%TO.N,/A14*%
X145160000Y-77520000D03*
%TO.P,U1,10,A1*%
%TO.N,/A1*%
X143890000Y-78790000D03*
%TO.P,U1,35,A15*%
%TO.N,/A15*%
X145160000Y-78790000D03*
%TO.P,U1,11,A0*%
%TO.N,/A0*%
X143890000Y-80060000D03*
%TO.P,U1,34,A16*%
%TO.N,/A16*%
X145160000Y-80060000D03*
%TO.P,U1,12,~{E}*%
%TO.N,/~{CE}*%
X143890000Y-81330000D03*
%TO.P,U1,33,BHE*%
%TO.N,unconnected-(U1-Pad33)*%
X145160000Y-81330000D03*
%TO.P,U1,13,GND*%
%TO.N,/VSS*%
X143890000Y-82600000D03*
%TO.P,U1,32,GND*%
X145160000Y-82600000D03*
%TO.P,U1,14,~{GVPP}*%
%TO.N,/~{OE}*%
X143890000Y-83870000D03*
%TO.P,U1,31,D15*%
%TO.N,/D15*%
X145160000Y-83870000D03*
%TO.P,U1,15,D0*%
%TO.N,/D0*%
X143890000Y-85140000D03*
%TO.P,U1,30,D7*%
%TO.N,/D7*%
X145160000Y-85140000D03*
%TO.P,U1,16,D8*%
%TO.N,/D8*%
X143890000Y-86410000D03*
%TO.P,U1,29,D14*%
%TO.N,/D14*%
X145160000Y-86410000D03*
%TO.P,U1,17,D1*%
%TO.N,/D1*%
X143890000Y-87680000D03*
%TO.P,U1,28,D6*%
%TO.N,/D6*%
X145160000Y-87680000D03*
%TO.P,U1,18,D9*%
%TO.N,/D9*%
X143890000Y-88950000D03*
%TO.P,U1,27,D13*%
%TO.N,/D13*%
X145160000Y-88950000D03*
%TO.P,U1,19,D2*%
%TO.N,/D2*%
X143890000Y-90220000D03*
%TO.P,U1,26,D5*%
%TO.N,/D5*%
X145160000Y-90220000D03*
%TO.P,U1,20,D10*%
%TO.N,/D10*%
X143890000Y-91490000D03*
%TO.P,U1,25,D12*%
%TO.N,/D12*%
X145160000Y-91490000D03*
%TO.P,U1,21,D3*%
%TO.N,/D3*%
X143890000Y-92760000D03*
%TO.P,U1,24,D4*%
%TO.N,/D4*%
X145160000Y-92760000D03*
%TO.P,U1,22,D11*%
%TO.N,/D11*%
X143890000Y-94030000D03*
%TO.P,U1,23,VCC*%
%TO.N,/VCC*%
X145160000Y-94030000D03*
%TD*%
D12*
%TO.P,U2,1,A18*%
%TO.N,/A18*%
X136842000Y-55508000D03*
D13*
%TO.P,U2,2,A17*%
%TO.N,/A17*%
X136842000Y-58048000D03*
%TO.P,U2,3,A7*%
%TO.N,/A7*%
X136842000Y-60588000D03*
%TO.P,U2,4,A6*%
%TO.N,/A6*%
X136842000Y-63128000D03*
%TO.P,U2,5,A5*%
%TO.N,/A5*%
X136842000Y-65668000D03*
%TO.P,U2,6,A4*%
%TO.N,/A4*%
X136842000Y-68208000D03*
%TO.P,U2,7,A3*%
%TO.N,/A3*%
X136842000Y-70748000D03*
%TO.P,U2,8,A2*%
%TO.N,/A2*%
X136842000Y-73288000D03*
%TO.P,U2,9,A1*%
%TO.N,/A1*%
X136842000Y-75828000D03*
%TO.P,U2,10,A0*%
%TO.N,/A0*%
X136842000Y-78368000D03*
%TO.P,U2,11,~{E}*%
%TO.N,/~{CE}*%
X136842000Y-80908000D03*
%TO.P,U2,12,GND*%
%TO.N,/VSS*%
X136842000Y-83448000D03*
%TO.P,U2,13,~{GVPP}*%
%TO.N,/~{OE}*%
X136842000Y-85988000D03*
%TO.P,U2,14,D0*%
%TO.N,/D0*%
X136842000Y-88528000D03*
%TO.P,U2,15,D8*%
%TO.N,/D8*%
X136842000Y-91068000D03*
%TO.P,U2,16,D1*%
%TO.N,/D1*%
X136842000Y-93608000D03*
%TO.P,U2,17,D9*%
%TO.N,/D9*%
X136842000Y-96148000D03*
%TO.P,U2,18,D2*%
%TO.N,/D2*%
X136842000Y-98688000D03*
%TO.P,U2,19,D10*%
%TO.N,/D10*%
X136842000Y-101228000D03*
%TO.P,U2,20,D3*%
%TO.N,/D3*%
X136842000Y-103768000D03*
%TO.P,U2,21,D11*%
%TO.N,/D11*%
X136842000Y-106308000D03*
%TO.P,U2,22,VCC*%
%TO.N,/VCC*%
X152082000Y-106308000D03*
%TO.P,U2,23,D4*%
%TO.N,/D4*%
X152082000Y-103768000D03*
%TO.P,U2,24,D12*%
%TO.N,/D12*%
X152082000Y-101228000D03*
%TO.P,U2,25,D5*%
%TO.N,/D5*%
X152082000Y-98688000D03*
%TO.P,U2,26,D13*%
%TO.N,/D13*%
X152082000Y-96148000D03*
%TO.P,U2,27,D6*%
%TO.N,/D6*%
X152082000Y-93608000D03*
%TO.P,U2,28,D14*%
%TO.N,/D14*%
X152082000Y-91068000D03*
%TO.P,U2,29,D7*%
%TO.N,/D7*%
X152082000Y-88528000D03*
%TO.P,U2,30,D15*%
%TO.N,/D15*%
X152082000Y-85988000D03*
%TO.P,U2,31,GND*%
%TO.N,/VSS*%
X152082000Y-83448000D03*
%TO.P,U2,32,A20*%
%TO.N,/A20*%
X152082000Y-80908000D03*
%TO.P,U2,33,A16*%
%TO.N,/A16*%
X152082000Y-78368000D03*
%TO.P,U2,34,A15*%
%TO.N,/A15*%
X152082000Y-75828000D03*
%TO.P,U2,35,A14*%
%TO.N,/A14*%
X152082000Y-73288000D03*
%TO.P,U2,36,A13*%
%TO.N,/A13*%
X152082000Y-70748000D03*
%TO.P,U2,37,A12*%
%TO.N,/A12*%
X152082000Y-68208000D03*
%TO.P,U2,38,A11*%
%TO.N,/A11*%
X152082000Y-65668000D03*
%TO.P,U2,39,A10*%
%TO.N,/A10*%
X152082000Y-63128000D03*
%TO.P,U2,40,A9*%
%TO.N,/A9*%
X152082000Y-60588000D03*
%TO.P,U2,41,A8*%
%TO.N,/A8*%
X152082000Y-58048000D03*
%TO.P,U2,42,A19*%
%TO.N,/A19*%
X152082000Y-55508000D03*
%TD*%
D14*
%TO.N,/A7*%
X139690000Y-62860000D02*
X137418000Y-60588000D01*
X143890000Y-71170000D02*
X139690000Y-66970000D01*
X139690000Y-66970000D02*
X139690000Y-62860000D01*
X137418000Y-60588000D02*
X136842000Y-60588000D01*
%TO.N,/A20*%
X148290000Y-69664900D02*
X145985100Y-67360000D01*
X148290000Y-79460000D02*
X148290000Y-69664900D01*
X145985100Y-67360000D02*
X145160000Y-67360000D01*
X149738000Y-80908000D02*
X148290000Y-79460000D01*
X152082000Y-80908000D02*
X149738000Y-80908000D01*
%TD*%
M02*
