%TF.GenerationSoftware,KiCad,Pcbnew,(6.0.1)*%
%TF.CreationDate,2022-07-30T21:00:21-07:00*%
%TF.ProjectId,M27C322-to-KM23C32000AG-adapter,4d323743-3332-4322-9d74-6f2d4b4d3233,rev?*%
%TF.SameCoordinates,Original*%
%TF.FileFunction,Copper,L2,Bot*%
%TF.FilePolarity,Positive*%
%FSLAX46Y46*%
G04 Gerber Fmt 4.6, Leading zero omitted, Abs format (unit mm)*
G04 Created by KiCad (PCBNEW (6.0.1)) date 2022-07-30 21:00:21*
%MOMM*%
%LPD*%
G01*
G04 APERTURE LIST*
%TA.AperFunction,ComponentPad*%
%ADD10R,1.000000X1.000000*%
%TD*%
%TA.AperFunction,ComponentPad*%
%ADD11O,1.000000X1.000000*%
%TD*%
%TA.AperFunction,ComponentPad*%
%ADD12R,1.700000X1.700000*%
%TD*%
%TA.AperFunction,ComponentPad*%
%ADD13O,1.700000X1.700000*%
%TD*%
%TA.AperFunction,Conductor*%
%ADD14C,0.250000*%
%TD*%
%TA.AperFunction,Conductor*%
%ADD15C,0.400000*%
%TD*%
G04 APERTURE END LIST*
D10*
%TO.P,U1,1,NC*%
%TO.N,unconnected-(U1-Pad1)*%
X143890000Y-67360000D03*
D11*
%TO.P,U1,44,A20*%
%TO.N,/A20*%
X145160000Y-67360000D03*
%TO.P,U1,2,A18*%
%TO.N,/A18*%
X143890000Y-68630000D03*
%TO.P,U1,43,A19*%
%TO.N,/A19*%
X145160000Y-68630000D03*
%TO.P,U1,3,A17*%
%TO.N,/A17*%
X143890000Y-69900000D03*
%TO.P,U1,42,A8*%
%TO.N,/A8*%
X145160000Y-69900000D03*
%TO.P,U1,4,A7*%
%TO.N,/A7*%
X143890000Y-71170000D03*
%TO.P,U1,41,A9*%
%TO.N,/A9*%
X145160000Y-71170000D03*
%TO.P,U1,5,A6*%
%TO.N,/A6*%
X143890000Y-72440000D03*
%TO.P,U1,40,A10*%
%TO.N,/A10*%
X145160000Y-72440000D03*
%TO.P,U1,6,A5*%
%TO.N,/A5*%
X143890000Y-73710000D03*
%TO.P,U1,39,A11*%
%TO.N,/A11*%
X145160000Y-73710000D03*
%TO.P,U1,7,A4*%
%TO.N,/A4*%
X143890000Y-74980000D03*
%TO.P,U1,38,A12*%
%TO.N,/A12*%
X145160000Y-74980000D03*
%TO.P,U1,8,A3*%
%TO.N,/A3*%
X143890000Y-76250000D03*
%TO.P,U1,37,A13*%
%TO.N,/A13*%
X145160000Y-76250000D03*
%TO.P,U1,9,A2*%
%TO.N,/A2*%
X143890000Y-77520000D03*
%TO.P,U1,36,A14*%
%TO.N,/A14*%
X145160000Y-77520000D03*
%TO.P,U1,10,A1*%
%TO.N,/A1*%
X143890000Y-78790000D03*
%TO.P,U1,35,A15*%
%TO.N,/A15*%
X145160000Y-78790000D03*
%TO.P,U1,11,A0*%
%TO.N,/A0*%
X143890000Y-80060000D03*
%TO.P,U1,34,A16*%
%TO.N,/A16*%
X145160000Y-80060000D03*
%TO.P,U1,12,~{E}*%
%TO.N,/~{CE}*%
X143890000Y-81330000D03*
%TO.P,U1,33,BHE*%
%TO.N,unconnected-(U1-Pad33)*%
X145160000Y-81330000D03*
%TO.P,U1,13,GND*%
%TO.N,/VSS*%
X143890000Y-82600000D03*
%TO.P,U1,32,GND*%
X145160000Y-82600000D03*
%TO.P,U1,14,~{GVPP}*%
%TO.N,/~{OE}*%
X143890000Y-83870000D03*
%TO.P,U1,31,D15*%
%TO.N,/D15*%
X145160000Y-83870000D03*
%TO.P,U1,15,D0*%
%TO.N,/D0*%
X143890000Y-85140000D03*
%TO.P,U1,30,D7*%
%TO.N,/D7*%
X145160000Y-85140000D03*
%TO.P,U1,16,D8*%
%TO.N,/D8*%
X143890000Y-86410000D03*
%TO.P,U1,29,D14*%
%TO.N,/D14*%
X145160000Y-86410000D03*
%TO.P,U1,17,D1*%
%TO.N,/D1*%
X143890000Y-87680000D03*
%TO.P,U1,28,D6*%
%TO.N,/D6*%
X145160000Y-87680000D03*
%TO.P,U1,18,D9*%
%TO.N,/D9*%
X143890000Y-88950000D03*
%TO.P,U1,27,D13*%
%TO.N,/D13*%
X145160000Y-88950000D03*
%TO.P,U1,19,D2*%
%TO.N,/D2*%
X143890000Y-90220000D03*
%TO.P,U1,26,D5*%
%TO.N,/D5*%
X145160000Y-90220000D03*
%TO.P,U1,20,D10*%
%TO.N,/D10*%
X143890000Y-91490000D03*
%TO.P,U1,25,D12*%
%TO.N,/D12*%
X145160000Y-91490000D03*
%TO.P,U1,21,D3*%
%TO.N,/D3*%
X143890000Y-92760000D03*
%TO.P,U1,24,D4*%
%TO.N,/D4*%
X145160000Y-92760000D03*
%TO.P,U1,22,D11*%
%TO.N,/D11*%
X143890000Y-94030000D03*
%TO.P,U1,23,VCC*%
%TO.N,/VCC*%
X145160000Y-94030000D03*
%TD*%
D12*
%TO.P,U2,1,A18*%
%TO.N,/A18*%
X136842000Y-55508000D03*
D13*
%TO.P,U2,2,A17*%
%TO.N,/A17*%
X136842000Y-58048000D03*
%TO.P,U2,3,A7*%
%TO.N,/A7*%
X136842000Y-60588000D03*
%TO.P,U2,4,A6*%
%TO.N,/A6*%
X136842000Y-63128000D03*
%TO.P,U2,5,A5*%
%TO.N,/A5*%
X136842000Y-65668000D03*
%TO.P,U2,6,A4*%
%TO.N,/A4*%
X136842000Y-68208000D03*
%TO.P,U2,7,A3*%
%TO.N,/A3*%
X136842000Y-70748000D03*
%TO.P,U2,8,A2*%
%TO.N,/A2*%
X136842000Y-73288000D03*
%TO.P,U2,9,A1*%
%TO.N,/A1*%
X136842000Y-75828000D03*
%TO.P,U2,10,A0*%
%TO.N,/A0*%
X136842000Y-78368000D03*
%TO.P,U2,11,~{E}*%
%TO.N,/~{CE}*%
X136842000Y-80908000D03*
%TO.P,U2,12,GND*%
%TO.N,/VSS*%
X136842000Y-83448000D03*
%TO.P,U2,13,~{GVPP}*%
%TO.N,/~{OE}*%
X136842000Y-85988000D03*
%TO.P,U2,14,D0*%
%TO.N,/D0*%
X136842000Y-88528000D03*
%TO.P,U2,15,D8*%
%TO.N,/D8*%
X136842000Y-91068000D03*
%TO.P,U2,16,D1*%
%TO.N,/D1*%
X136842000Y-93608000D03*
%TO.P,U2,17,D9*%
%TO.N,/D9*%
X136842000Y-96148000D03*
%TO.P,U2,18,D2*%
%TO.N,/D2*%
X136842000Y-98688000D03*
%TO.P,U2,19,D10*%
%TO.N,/D10*%
X136842000Y-101228000D03*
%TO.P,U2,20,D3*%
%TO.N,/D3*%
X136842000Y-103768000D03*
%TO.P,U2,21,D11*%
%TO.N,/D11*%
X136842000Y-106308000D03*
%TO.P,U2,22,VCC*%
%TO.N,/VCC*%
X152082000Y-106308000D03*
%TO.P,U2,23,D4*%
%TO.N,/D4*%
X152082000Y-103768000D03*
%TO.P,U2,24,D12*%
%TO.N,/D12*%
X152082000Y-101228000D03*
%TO.P,U2,25,D5*%
%TO.N,/D5*%
X152082000Y-98688000D03*
%TO.P,U2,26,D13*%
%TO.N,/D13*%
X152082000Y-96148000D03*
%TO.P,U2,27,D6*%
%TO.N,/D6*%
X152082000Y-93608000D03*
%TO.P,U2,28,D14*%
%TO.N,/D14*%
X152082000Y-91068000D03*
%TO.P,U2,29,D7*%
%TO.N,/D7*%
X152082000Y-88528000D03*
%TO.P,U2,30,D15*%
%TO.N,/D15*%
X152082000Y-85988000D03*
%TO.P,U2,31,GND*%
%TO.N,/VSS*%
X152082000Y-83448000D03*
%TO.P,U2,32,A20*%
%TO.N,/A20*%
X152082000Y-80908000D03*
%TO.P,U2,33,A16*%
%TO.N,/A16*%
X152082000Y-78368000D03*
%TO.P,U2,34,A15*%
%TO.N,/A15*%
X152082000Y-75828000D03*
%TO.P,U2,35,A14*%
%TO.N,/A14*%
X152082000Y-73288000D03*
%TO.P,U2,36,A13*%
%TO.N,/A13*%
X152082000Y-70748000D03*
%TO.P,U2,37,A12*%
%TO.N,/A12*%
X152082000Y-68208000D03*
%TO.P,U2,38,A11*%
%TO.N,/A11*%
X152082000Y-65668000D03*
%TO.P,U2,39,A10*%
%TO.N,/A10*%
X152082000Y-63128000D03*
%TO.P,U2,40,A9*%
%TO.N,/A9*%
X152082000Y-60588000D03*
%TO.P,U2,41,A8*%
%TO.N,/A8*%
X152082000Y-58048000D03*
%TO.P,U2,42,A19*%
%TO.N,/A19*%
X152082000Y-55508000D03*
%TD*%
D14*
%TO.N,/D4*%
X145300200Y-92760000D02*
X145160000Y-92760000D01*
X146095200Y-93555000D02*
X145300200Y-92760000D01*
X146095200Y-97865200D02*
X146095200Y-93555000D01*
X150822900Y-102592900D02*
X146095200Y-97865200D01*
X152082000Y-102592900D02*
X150822900Y-102592900D01*
X152082000Y-103768000D02*
X152082000Y-102592900D01*
%TO.N,/A17*%
X138017100Y-60030900D02*
X138017100Y-64027100D01*
X137209300Y-59223100D02*
X138017100Y-60030900D01*
X136842000Y-58048000D02*
X136842000Y-59223100D01*
X136842000Y-59223100D02*
X137209300Y-59223100D01*
X138017100Y-64027100D02*
X143890000Y-69900000D01*
%TO.N,/D2*%
X136842000Y-97512900D02*
X137230400Y-97512900D01*
X136842000Y-98688000D02*
X136842000Y-97512900D01*
X137230400Y-97512900D02*
X141616600Y-93126700D01*
X141616600Y-93126700D02*
X141616600Y-92493400D01*
X141616600Y-92493400D02*
X143890000Y-90220000D01*
%TO.N,/D9*%
X136842000Y-96148000D02*
X136842000Y-94972900D01*
X136842000Y-94972900D02*
X137867100Y-94972900D01*
X137867100Y-94972900D02*
X143890000Y-88950000D01*
%TO.N,/A6*%
X136842000Y-63128000D02*
X136842000Y-64303100D01*
X138017100Y-66567100D02*
X143890000Y-72440000D01*
X136842000Y-64303100D02*
X137209300Y-64303100D01*
X138017100Y-65110900D02*
X138017100Y-66567100D01*
X137209300Y-64303100D02*
X138017100Y-65110900D01*
%TO.N,/A8*%
X152082000Y-58048000D02*
X152082000Y-59223100D01*
X149556600Y-65503400D02*
X145160000Y-69900000D01*
X149556600Y-61386100D02*
X149556600Y-65503400D01*
X151719600Y-59223100D02*
X149556600Y-61386100D01*
X152082000Y-59223100D02*
X151719600Y-59223100D01*
%TO.N,/A9*%
X152082000Y-60588000D02*
X152082000Y-61763100D01*
X150456800Y-65873200D02*
X145160000Y-71170000D01*
X150456800Y-63016900D02*
X150456800Y-65873200D01*
X151710600Y-61763100D02*
X150456800Y-63016900D01*
X152082000Y-61763100D02*
X151710600Y-61763100D01*
%TO.N,/A10*%
X150906900Y-66693100D02*
X145160000Y-72440000D01*
X150906900Y-65110900D02*
X150906900Y-66693100D01*
X151714700Y-64303100D02*
X150906900Y-65110900D01*
X152082000Y-64303100D02*
X151714700Y-64303100D01*
X152082000Y-63128000D02*
X152082000Y-64303100D01*
%TO.N,/A11*%
X147391400Y-71478600D02*
X145160000Y-73710000D01*
X147391400Y-71181600D02*
X147391400Y-71478600D01*
X151729900Y-66843100D02*
X147391400Y-71181600D01*
X152082000Y-66843100D02*
X151729900Y-66843100D01*
X152082000Y-65668000D02*
X152082000Y-66843100D01*
%TO.N,/A12*%
X151582000Y-69383100D02*
X145985100Y-74980000D01*
X152082000Y-69383100D02*
X151582000Y-69383100D01*
X145160000Y-74980000D02*
X145985100Y-74980000D01*
X152082000Y-68208000D02*
X152082000Y-69383100D01*
%TO.N,/A13*%
X145985100Y-75669800D02*
X145985100Y-76250000D01*
X150906900Y-70748000D02*
X145985100Y-75669800D01*
X152082000Y-70748000D02*
X150906900Y-70748000D01*
X145160000Y-76250000D02*
X145985100Y-76250000D01*
%TO.N,/A14*%
X146674900Y-77520000D02*
X145160000Y-77520000D01*
X150906900Y-73288000D02*
X146674900Y-77520000D01*
X152082000Y-73288000D02*
X150906900Y-73288000D01*
%TO.N,/A15*%
X147944900Y-78790000D02*
X145160000Y-78790000D01*
X150906900Y-75828000D02*
X147944900Y-78790000D01*
X152082000Y-75828000D02*
X150906900Y-75828000D01*
%TO.N,/A16*%
X149214900Y-80060000D02*
X145160000Y-80060000D01*
X150906900Y-78368000D02*
X149214900Y-80060000D01*
X152082000Y-78368000D02*
X150906900Y-78368000D01*
%TO.N,/D15*%
X148788900Y-83870000D02*
X145160000Y-83870000D01*
X150906900Y-85988000D02*
X148788900Y-83870000D01*
X152082000Y-85988000D02*
X150906900Y-85988000D01*
%TO.N,/D7*%
X147518900Y-85140000D02*
X145160000Y-85140000D01*
X150906900Y-88528000D02*
X147518900Y-85140000D01*
X152082000Y-88528000D02*
X150906900Y-88528000D01*
%TO.N,/D14*%
X150643100Y-91068000D02*
X145985100Y-86410000D01*
X152082000Y-91068000D02*
X150643100Y-91068000D01*
X145160000Y-86410000D02*
X145985100Y-86410000D01*
%TO.N,/D6*%
X150906900Y-93426900D02*
X145160000Y-87680000D01*
X150906900Y-93608000D02*
X150906900Y-93426900D01*
X152082000Y-93608000D02*
X150906900Y-93608000D01*
%TO.N,/D13*%
X151182900Y-94972900D02*
X145160000Y-88950000D01*
X152082000Y-94972900D02*
X151182900Y-94972900D01*
X152082000Y-96148000D02*
X152082000Y-94972900D01*
%TO.N,/D5*%
X150906900Y-95966900D02*
X145160000Y-90220000D01*
X150906900Y-96705100D02*
X150906900Y-95966900D01*
X151714700Y-97512900D02*
X150906900Y-96705100D01*
X152082000Y-97512900D02*
X151714700Y-97512900D01*
X152082000Y-98688000D02*
X152082000Y-97512900D01*
%TO.N,/D12*%
X152082000Y-101228000D02*
X152082000Y-100052900D01*
X146545300Y-92875300D02*
X145160000Y-91490000D01*
X146545300Y-94883400D02*
X146545300Y-92875300D01*
X151714800Y-100052900D02*
X146545300Y-94883400D01*
X152082000Y-100052900D02*
X151714800Y-100052900D01*
%TO.N,/D11*%
X143890000Y-98452100D02*
X143890000Y-94030000D01*
X137209200Y-105132900D02*
X143890000Y-98452100D01*
X136842000Y-105132900D02*
X137209200Y-105132900D01*
X136842000Y-106308000D02*
X136842000Y-105132900D01*
%TO.N,/D3*%
X142954900Y-93695100D02*
X143890000Y-92760000D01*
X142954900Y-96847200D02*
X142954900Y-93695100D01*
X137209200Y-102592900D02*
X142954900Y-96847200D01*
X136842000Y-102592900D02*
X137209200Y-102592900D01*
X136842000Y-103768000D02*
X136842000Y-102592900D01*
%TO.N,/D10*%
X138017100Y-97362900D02*
X143890000Y-91490000D01*
X138017100Y-99249800D02*
X138017100Y-97362900D01*
X137214000Y-100052900D02*
X138017100Y-99249800D01*
X136842000Y-100052900D02*
X137214000Y-100052900D01*
X136842000Y-101228000D02*
X136842000Y-100052900D01*
%TO.N,/D1*%
X138017100Y-93552900D02*
X143890000Y-87680000D01*
X138017100Y-93608000D02*
X138017100Y-93552900D01*
X136842000Y-93608000D02*
X138017100Y-93608000D01*
%TO.N,/D8*%
X142675100Y-86410000D02*
X143890000Y-86410000D01*
X138017100Y-91068000D02*
X142675100Y-86410000D01*
X136842000Y-91068000D02*
X138017100Y-91068000D01*
%TO.N,/D0*%
X141405100Y-85140000D02*
X143890000Y-85140000D01*
X138017100Y-88528000D02*
X141405100Y-85140000D01*
X136842000Y-88528000D02*
X138017100Y-88528000D01*
%TO.N,/~{OE}*%
X140135100Y-83870000D02*
X143890000Y-83870000D01*
X138017100Y-85988000D02*
X140135100Y-83870000D01*
X136842000Y-85988000D02*
X138017100Y-85988000D01*
%TO.N,/~{CE}*%
X142642900Y-80908000D02*
X143064900Y-81330000D01*
X136842000Y-80908000D02*
X142642900Y-80908000D01*
X143890000Y-81330000D02*
X143064900Y-81330000D01*
%TO.N,/A0*%
X143890000Y-80060000D02*
X143064900Y-80060000D01*
X141372900Y-78368000D02*
X143064900Y-80060000D01*
X136842000Y-78368000D02*
X141372900Y-78368000D01*
%TO.N,/A1*%
X140102900Y-75828000D02*
X143064900Y-78790000D01*
X136842000Y-75828000D02*
X140102900Y-75828000D01*
X143890000Y-78790000D02*
X143064900Y-78790000D01*
%TO.N,/A2*%
X138832900Y-73288000D02*
X143064900Y-77520000D01*
X136842000Y-73288000D02*
X138832900Y-73288000D01*
X143890000Y-77520000D02*
X143064900Y-77520000D01*
%TO.N,/A3*%
X138017100Y-71202200D02*
X143064900Y-76250000D01*
X138017100Y-70748000D02*
X138017100Y-71202200D01*
X143890000Y-76250000D02*
X143064900Y-76250000D01*
X136842000Y-70748000D02*
X138017100Y-70748000D01*
%TO.N,/A4*%
X138017100Y-69107100D02*
X143890000Y-74980000D01*
X138017100Y-68208000D02*
X138017100Y-69107100D01*
X136842000Y-68208000D02*
X138017100Y-68208000D01*
%TO.N,/A5*%
X142954900Y-72774900D02*
X143890000Y-73710000D01*
X142954900Y-72495400D02*
X142954900Y-72774900D01*
X137302600Y-66843100D02*
X142954900Y-72495400D01*
X136842000Y-66843100D02*
X137302600Y-66843100D01*
X136842000Y-65668000D02*
X136842000Y-66843100D01*
%TO.N,/A18*%
X143652400Y-68630000D02*
X143890000Y-68630000D01*
X142811900Y-67789500D02*
X143652400Y-68630000D01*
X142811900Y-62285800D02*
X142811900Y-67789500D01*
X137209200Y-56683100D02*
X142811900Y-62285800D01*
X136842000Y-56683100D02*
X137209200Y-56683100D01*
X136842000Y-55508000D02*
X136842000Y-56683100D01*
D15*
%TO.N,/VCC*%
X145160000Y-99386000D02*
X145160000Y-94030000D01*
X152082000Y-106308000D02*
X145160000Y-99386000D01*
%TO.N,/VSS*%
X152082000Y-83448000D02*
X150731900Y-83448000D01*
X139040100Y-82600000D02*
X143890000Y-82600000D01*
X138192100Y-83448000D02*
X139040100Y-82600000D01*
X136842000Y-83448000D02*
X138192100Y-83448000D01*
X149883900Y-82600000D02*
X145160000Y-82600000D01*
X150731900Y-83448000D02*
X149883900Y-82600000D01*
X145160000Y-82600000D02*
X143890000Y-82600000D01*
D14*
%TO.N,/A19*%
X152082000Y-55508000D02*
X152082000Y-56683100D01*
X148980000Y-64810000D02*
X145160000Y-68630000D01*
X148980000Y-59417800D02*
X148980000Y-64810000D01*
X151714700Y-56683100D02*
X148980000Y-59417800D01*
X152082000Y-56683100D02*
X151714700Y-56683100D01*
%TD*%
M02*
