M48
; DRILL file {KiCad (6.0.1)} date Sat Jul 30 21:00:21 2022
; FORMAT={-:-/ absolute / inch / decimal}
; #@! TF.CreationDate,2022-07-30T21:00:21-07:00
; #@! TF.GenerationSoftware,Kicad,Pcbnew,(6.0.1)
; #@! TF.FileFunction,Plated,1,2,PTH
FMAT,2
INCH
; #@! TA.AperFunction,Plated,PTH,ComponentDrill
T1C0.0256
; #@! TA.AperFunction,Plated,PTH,ComponentDrill
T2C0.0394
%
G90
G05
T1
X5.665Y-2.652
X5.665Y-2.702
X5.665Y-2.752
X5.665Y-2.802
X5.665Y-2.852
X5.665Y-2.902
X5.665Y-2.952
X5.665Y-3.002
X5.665Y-3.052
X5.665Y-3.102
X5.665Y-3.152
X5.665Y-3.202
X5.665Y-3.252
X5.665Y-3.302
X5.665Y-3.352
X5.665Y-3.402
X5.665Y-3.452
X5.665Y-3.502
X5.665Y-3.552
X5.665Y-3.602
X5.665Y-3.652
X5.665Y-3.702
X5.715Y-2.652
X5.715Y-2.702
X5.715Y-2.752
X5.715Y-2.802
X5.715Y-2.852
X5.715Y-2.902
X5.715Y-2.952
X5.715Y-3.002
X5.715Y-3.052
X5.715Y-3.102
X5.715Y-3.152
X5.715Y-3.202
X5.715Y-3.252
X5.715Y-3.302
X5.715Y-3.352
X5.715Y-3.402
X5.715Y-3.452
X5.715Y-3.502
X5.715Y-3.552
X5.715Y-3.602
X5.715Y-3.652
X5.715Y-3.702
T2
X5.3875Y-2.1854
X5.3875Y-2.2854
X5.3875Y-2.3854
X5.3875Y-2.4854
X5.3875Y-2.5854
X5.3875Y-2.6854
X5.3875Y-2.7854
X5.3875Y-2.8854
X5.3875Y-2.9854
X5.3875Y-3.0854
X5.3875Y-3.1854
X5.3875Y-3.2854
X5.3875Y-3.3854
X5.3875Y-3.4854
X5.3875Y-3.5854
X5.3875Y-3.6854
X5.3875Y-3.7854
X5.3875Y-3.8854
X5.3875Y-3.9854
X5.3875Y-4.0854
X5.3875Y-4.1854
X5.9875Y-2.1854
X5.9875Y-2.2854
X5.9875Y-2.3854
X5.9875Y-2.4854
X5.9875Y-2.5854
X5.9875Y-2.6854
X5.9875Y-2.7854
X5.9875Y-2.8854
X5.9875Y-2.9854
X5.9875Y-3.0854
X5.9875Y-3.1854
X5.9875Y-3.2854
X5.9875Y-3.3854
X5.9875Y-3.4854
X5.9875Y-3.5854
X5.9875Y-3.6854
X5.9875Y-3.7854
X5.9875Y-3.8854
X5.9875Y-3.9854
X5.9875Y-4.0854
X5.9875Y-4.1854
T0
M30
