%TF.GenerationSoftware,KiCad,Pcbnew,(6.0.1)*%
%TF.CreationDate,2022-07-30T21:00:21-07:00*%
%TF.ProjectId,M27C322-to-KM23C32000AG-adapter,4d323743-3332-4322-9d74-6f2d4b4d3233,rev?*%
%TF.SameCoordinates,Original*%
%TF.FileFunction,Soldermask,Top*%
%TF.FilePolarity,Negative*%
%FSLAX46Y46*%
G04 Gerber Fmt 4.6, Leading zero omitted, Abs format (unit mm)*
G04 Created by KiCad (PCBNEW (6.0.1)) date 2022-07-30 21:00:21*
%MOMM*%
%LPD*%
G01*
G04 APERTURE LIST*
%ADD10R,1.000000X1.000000*%
%ADD11O,1.000000X1.000000*%
%ADD12R,1.700000X1.700000*%
%ADD13O,1.700000X1.700000*%
G04 APERTURE END LIST*
D10*
%TO.C,U1*%
X143890000Y-67360000D03*
D11*
X145160000Y-67360000D03*
X143890000Y-68630000D03*
X145160000Y-68630000D03*
X143890000Y-69900000D03*
X145160000Y-69900000D03*
X143890000Y-71170000D03*
X145160000Y-71170000D03*
X143890000Y-72440000D03*
X145160000Y-72440000D03*
X143890000Y-73710000D03*
X145160000Y-73710000D03*
X143890000Y-74980000D03*
X145160000Y-74980000D03*
X143890000Y-76250000D03*
X145160000Y-76250000D03*
X143890000Y-77520000D03*
X145160000Y-77520000D03*
X143890000Y-78790000D03*
X145160000Y-78790000D03*
X143890000Y-80060000D03*
X145160000Y-80060000D03*
X143890000Y-81330000D03*
X145160000Y-81330000D03*
X143890000Y-82600000D03*
X145160000Y-82600000D03*
X143890000Y-83870000D03*
X145160000Y-83870000D03*
X143890000Y-85140000D03*
X145160000Y-85140000D03*
X143890000Y-86410000D03*
X145160000Y-86410000D03*
X143890000Y-87680000D03*
X145160000Y-87680000D03*
X143890000Y-88950000D03*
X145160000Y-88950000D03*
X143890000Y-90220000D03*
X145160000Y-90220000D03*
X143890000Y-91490000D03*
X145160000Y-91490000D03*
X143890000Y-92760000D03*
X145160000Y-92760000D03*
X143890000Y-94030000D03*
X145160000Y-94030000D03*
%TD*%
D12*
%TO.C,U2*%
X136842000Y-55508000D03*
D13*
X136842000Y-58048000D03*
X136842000Y-60588000D03*
X136842000Y-63128000D03*
X136842000Y-65668000D03*
X136842000Y-68208000D03*
X136842000Y-70748000D03*
X136842000Y-73288000D03*
X136842000Y-75828000D03*
X136842000Y-78368000D03*
X136842000Y-80908000D03*
X136842000Y-83448000D03*
X136842000Y-85988000D03*
X136842000Y-88528000D03*
X136842000Y-91068000D03*
X136842000Y-93608000D03*
X136842000Y-96148000D03*
X136842000Y-98688000D03*
X136842000Y-101228000D03*
X136842000Y-103768000D03*
X136842000Y-106308000D03*
X152082000Y-106308000D03*
X152082000Y-103768000D03*
X152082000Y-101228000D03*
X152082000Y-98688000D03*
X152082000Y-96148000D03*
X152082000Y-93608000D03*
X152082000Y-91068000D03*
X152082000Y-88528000D03*
X152082000Y-85988000D03*
X152082000Y-83448000D03*
X152082000Y-80908000D03*
X152082000Y-78368000D03*
X152082000Y-75828000D03*
X152082000Y-73288000D03*
X152082000Y-70748000D03*
X152082000Y-68208000D03*
X152082000Y-65668000D03*
X152082000Y-63128000D03*
X152082000Y-60588000D03*
X152082000Y-58048000D03*
X152082000Y-55508000D03*
%TD*%
M02*
