%TF.GenerationSoftware,KiCad,Pcbnew,(6.0.7)*%
%TF.CreationDate,2022-08-07T18:47:35-07:00*%
%TF.ProjectId,SDIP42-adapter,53444950-3432-42d6-9164-61707465722e,rev?*%
%TF.SameCoordinates,Original*%
%TF.FileFunction,Soldermask,Bot*%
%TF.FilePolarity,Negative*%
%FSLAX46Y46*%
G04 Gerber Fmt 4.6, Leading zero omitted, Abs format (unit mm)*
G04 Created by KiCad (PCBNEW (6.0.7)) date 2022-08-07 18:47:35*
%MOMM*%
%LPD*%
G01*
G04 APERTURE LIST*
%ADD10R,1.346200X1.346200*%
%ADD11C,1.346200*%
%ADD12R,1.000000X1.000000*%
%ADD13O,1.000000X1.000000*%
%ADD14C,1.000000*%
G04 APERTURE END LIST*
D10*
%TO.C,U2*%
X136895000Y-62930000D03*
D11*
X136895000Y-64708000D03*
X136895000Y-66486000D03*
X136895000Y-68264000D03*
X136895000Y-70042000D03*
X136895000Y-71820000D03*
X136895000Y-73598000D03*
X136895000Y-75376000D03*
X136895000Y-77154000D03*
X136895000Y-78932000D03*
X136895000Y-80710000D03*
X136895000Y-82488000D03*
X136895000Y-84266000D03*
X136895000Y-86044000D03*
X136895000Y-87822000D03*
X136895000Y-89600000D03*
X136895000Y-91378000D03*
X136895000Y-93156000D03*
X136895000Y-94934000D03*
X136895000Y-96712000D03*
X136895000Y-98490000D03*
X152135000Y-98490000D03*
X152135000Y-96712000D03*
X152135000Y-94934000D03*
X152135000Y-93156000D03*
X152135000Y-91378000D03*
X152135000Y-89600000D03*
X152135000Y-87822000D03*
X152135000Y-86044000D03*
X152135000Y-84266000D03*
X152135000Y-82488000D03*
X152135000Y-80710000D03*
X152135000Y-78932000D03*
X152135000Y-77154000D03*
X152135000Y-75376000D03*
X152135000Y-73598000D03*
X152135000Y-71820000D03*
X152135000Y-70042000D03*
X152135000Y-68264000D03*
X152135000Y-66486000D03*
X152135000Y-64708000D03*
X152135000Y-62930000D03*
%TD*%
D12*
%TO.C,U1*%
X143890000Y-71337000D03*
D13*
X143890000Y-72607000D03*
X143890000Y-73877000D03*
X143890000Y-75147000D03*
X143890000Y-76417000D03*
X143890000Y-77687000D03*
X143890000Y-78957000D03*
X143890000Y-80227000D03*
X143890000Y-81497000D03*
X143890000Y-82767000D03*
X143890000Y-84037000D03*
X143890000Y-85307000D03*
X143890000Y-86577000D03*
X143890000Y-87847000D03*
X143890000Y-89117000D03*
X143890000Y-90387000D03*
X143890000Y-91657000D03*
X143890000Y-92927000D03*
X143890000Y-94197000D03*
X143890000Y-95467000D03*
X143890000Y-96737000D03*
X145160000Y-96737000D03*
X145160000Y-95467000D03*
X145160000Y-94197000D03*
X145160000Y-92927000D03*
X145160000Y-91657000D03*
X145160000Y-90387000D03*
X145160000Y-89117000D03*
X145160000Y-87847000D03*
X145160000Y-86577000D03*
X145160000Y-85307000D03*
X145160000Y-84037000D03*
X145160000Y-82767000D03*
X145160000Y-81497000D03*
X145160000Y-80227000D03*
X145160000Y-78957000D03*
X145160000Y-77687000D03*
X145160000Y-76417000D03*
X145160000Y-75147000D03*
X145160000Y-73877000D03*
X145160000Y-72607000D03*
D14*
X145160000Y-71337000D03*
%TD*%
M02*
