%TF.GenerationSoftware,KiCad,Pcbnew,(6.0.7)*%
%TF.CreationDate,2022-08-07T18:47:35-07:00*%
%TF.ProjectId,SDIP42-adapter,53444950-3432-42d6-9164-61707465722e,rev?*%
%TF.SameCoordinates,Original*%
%TF.FileFunction,Legend,Top*%
%TF.FilePolarity,Positive*%
%FSLAX46Y46*%
G04 Gerber Fmt 4.6, Leading zero omitted, Abs format (unit mm)*
G04 Created by KiCad (PCBNEW (6.0.7)) date 2022-08-07 18:47:35*
%MOMM*%
%LPD*%
G01*
G04 APERTURE LIST*
%ADD10C,0.250000*%
%ADD11R,1.346200X1.346200*%
%ADD12C,1.346200*%
%ADD13R,1.000000X1.000000*%
%ADD14O,1.000000X1.000000*%
%ADD15C,1.000000*%
G04 APERTURE END LIST*
D10*
X138320476Y-63994761D02*
X138463333Y-64042380D01*
X138701428Y-64042380D01*
X138796666Y-63994761D01*
X138844285Y-63947142D01*
X138891904Y-63851904D01*
X138891904Y-63756666D01*
X138844285Y-63661428D01*
X138796666Y-63613809D01*
X138701428Y-63566190D01*
X138510952Y-63518571D01*
X138415714Y-63470952D01*
X138368095Y-63423333D01*
X138320476Y-63328095D01*
X138320476Y-63232857D01*
X138368095Y-63137619D01*
X138415714Y-63090000D01*
X138510952Y-63042380D01*
X138749047Y-63042380D01*
X138891904Y-63090000D01*
X139320476Y-64042380D02*
X139320476Y-63042380D01*
X139558571Y-63042380D01*
X139701428Y-63090000D01*
X139796666Y-63185238D01*
X139844285Y-63280476D01*
X139891904Y-63470952D01*
X139891904Y-63613809D01*
X139844285Y-63804285D01*
X139796666Y-63899523D01*
X139701428Y-63994761D01*
X139558571Y-64042380D01*
X139320476Y-64042380D01*
X140320476Y-64042380D02*
X140320476Y-63042380D01*
X140796666Y-64042380D02*
X140796666Y-63042380D01*
X141177619Y-63042380D01*
X141272857Y-63090000D01*
X141320476Y-63137619D01*
X141368095Y-63232857D01*
X141368095Y-63375714D01*
X141320476Y-63470952D01*
X141272857Y-63518571D01*
X141177619Y-63566190D01*
X140796666Y-63566190D01*
X141796666Y-63661428D02*
X142558571Y-63661428D01*
X143463333Y-63375714D02*
X143463333Y-64042380D01*
X143225238Y-62994761D02*
X142987142Y-63709047D01*
X143606190Y-63709047D01*
X143939523Y-63137619D02*
X143987142Y-63090000D01*
X144082380Y-63042380D01*
X144320476Y-63042380D01*
X144415714Y-63090000D01*
X144463333Y-63137619D01*
X144510952Y-63232857D01*
X144510952Y-63328095D01*
X144463333Y-63470952D01*
X143891904Y-64042380D01*
X144510952Y-64042380D01*
X146130000Y-64042380D02*
X146130000Y-63518571D01*
X146082380Y-63423333D01*
X145987142Y-63375714D01*
X145796666Y-63375714D01*
X145701428Y-63423333D01*
X146130000Y-63994761D02*
X146034761Y-64042380D01*
X145796666Y-64042380D01*
X145701428Y-63994761D01*
X145653809Y-63899523D01*
X145653809Y-63804285D01*
X145701428Y-63709047D01*
X145796666Y-63661428D01*
X146034761Y-63661428D01*
X146130000Y-63613809D01*
X147034761Y-64042380D02*
X147034761Y-63042380D01*
X147034761Y-63994761D02*
X146939523Y-64042380D01*
X146749047Y-64042380D01*
X146653809Y-63994761D01*
X146606190Y-63947142D01*
X146558571Y-63851904D01*
X146558571Y-63566190D01*
X146606190Y-63470952D01*
X146653809Y-63423333D01*
X146749047Y-63375714D01*
X146939523Y-63375714D01*
X147034761Y-63423333D01*
X147939523Y-64042380D02*
X147939523Y-63518571D01*
X147891904Y-63423333D01*
X147796666Y-63375714D01*
X147606190Y-63375714D01*
X147510952Y-63423333D01*
X147939523Y-63994761D02*
X147844285Y-64042380D01*
X147606190Y-64042380D01*
X147510952Y-63994761D01*
X147463333Y-63899523D01*
X147463333Y-63804285D01*
X147510952Y-63709047D01*
X147606190Y-63661428D01*
X147844285Y-63661428D01*
X147939523Y-63613809D01*
X148415714Y-63375714D02*
X148415714Y-64375714D01*
X148415714Y-63423333D02*
X148510952Y-63375714D01*
X148701428Y-63375714D01*
X148796666Y-63423333D01*
X148844285Y-63470952D01*
X148891904Y-63566190D01*
X148891904Y-63851904D01*
X148844285Y-63947142D01*
X148796666Y-63994761D01*
X148701428Y-64042380D01*
X148510952Y-64042380D01*
X148415714Y-63994761D01*
X149177619Y-63375714D02*
X149558571Y-63375714D01*
X149320476Y-63042380D02*
X149320476Y-63899523D01*
X149368095Y-63994761D01*
X149463333Y-64042380D01*
X149558571Y-64042380D01*
X150272857Y-63994761D02*
X150177619Y-64042380D01*
X149987142Y-64042380D01*
X149891904Y-63994761D01*
X149844285Y-63899523D01*
X149844285Y-63518571D01*
X149891904Y-63423333D01*
X149987142Y-63375714D01*
X150177619Y-63375714D01*
X150272857Y-63423333D01*
X150320476Y-63518571D01*
X150320476Y-63613809D01*
X149844285Y-63709047D01*
X150749047Y-64042380D02*
X150749047Y-63375714D01*
X150749047Y-63566190D02*
X150796666Y-63470952D01*
X150844285Y-63423333D01*
X150939523Y-63375714D01*
X151034761Y-63375714D01*
X144201428Y-65652380D02*
X143630000Y-65652380D01*
X143915714Y-65652380D02*
X143915714Y-64652380D01*
X143820476Y-64795238D01*
X143725238Y-64890476D01*
X143630000Y-64938095D01*
X144630000Y-65557142D02*
X144677619Y-65604761D01*
X144630000Y-65652380D01*
X144582380Y-65604761D01*
X144630000Y-65557142D01*
X144630000Y-65652380D01*
X144630000Y-65033333D02*
X144677619Y-65080952D01*
X144630000Y-65128571D01*
X144582380Y-65080952D01*
X144630000Y-65033333D01*
X144630000Y-65128571D01*
X145630000Y-65652380D02*
X145058571Y-65652380D01*
X145344285Y-65652380D02*
X145344285Y-64652380D01*
X145249047Y-64795238D01*
X145153809Y-64890476D01*
X145058571Y-64938095D01*
X141225238Y-67262380D02*
X141225238Y-66595714D01*
X141225238Y-66786190D02*
X141272857Y-66690952D01*
X141320476Y-66643333D01*
X141415714Y-66595714D01*
X141510952Y-66595714D01*
X142225238Y-67214761D02*
X142130000Y-67262380D01*
X141939523Y-67262380D01*
X141844285Y-67214761D01*
X141796666Y-67119523D01*
X141796666Y-66738571D01*
X141844285Y-66643333D01*
X141939523Y-66595714D01*
X142130000Y-66595714D01*
X142225238Y-66643333D01*
X142272857Y-66738571D01*
X142272857Y-66833809D01*
X141796666Y-66929047D01*
X142606190Y-66595714D02*
X142844285Y-67262380D01*
X143082380Y-66595714D01*
X143844285Y-67214761D02*
X143749047Y-67262380D01*
X143558571Y-67262380D01*
X143463333Y-67214761D01*
X143415714Y-67119523D01*
X143415714Y-66738571D01*
X143463333Y-66643333D01*
X143558571Y-66595714D01*
X143749047Y-66595714D01*
X143844285Y-66643333D01*
X143891904Y-66738571D01*
X143891904Y-66833809D01*
X143415714Y-66929047D01*
X144320476Y-67262380D02*
X144320476Y-66595714D01*
X144320476Y-66786190D02*
X144368095Y-66690952D01*
X144415714Y-66643333D01*
X144510952Y-66595714D01*
X144606190Y-66595714D01*
X144891904Y-67214761D02*
X144987142Y-67262380D01*
X145177619Y-67262380D01*
X145272857Y-67214761D01*
X145320476Y-67119523D01*
X145320476Y-67071904D01*
X145272857Y-66976666D01*
X145177619Y-66929047D01*
X145034761Y-66929047D01*
X144939523Y-66881428D01*
X144891904Y-66786190D01*
X144891904Y-66738571D01*
X144939523Y-66643333D01*
X145034761Y-66595714D01*
X145177619Y-66595714D01*
X145272857Y-66643333D01*
X145749047Y-67262380D02*
X145749047Y-66595714D01*
X145749047Y-66262380D02*
X145701428Y-66310000D01*
X145749047Y-66357619D01*
X145796666Y-66310000D01*
X145749047Y-66262380D01*
X145749047Y-66357619D01*
X146225238Y-67262380D02*
X146225238Y-66262380D01*
X146225238Y-66643333D02*
X146320476Y-66595714D01*
X146510952Y-66595714D01*
X146606190Y-66643333D01*
X146653809Y-66690952D01*
X146701428Y-66786190D01*
X146701428Y-67071904D01*
X146653809Y-67167142D01*
X146606190Y-67214761D01*
X146510952Y-67262380D01*
X146320476Y-67262380D01*
X146225238Y-67214761D01*
X147272857Y-67262380D02*
X147177619Y-67214761D01*
X147130000Y-67119523D01*
X147130000Y-66262380D01*
X148034761Y-67214761D02*
X147939523Y-67262380D01*
X147749047Y-67262380D01*
X147653809Y-67214761D01*
X147606190Y-67119523D01*
X147606190Y-66738571D01*
X147653809Y-66643333D01*
X147749047Y-66595714D01*
X147939523Y-66595714D01*
X148034761Y-66643333D01*
X148082380Y-66738571D01*
X148082380Y-66833809D01*
X147606190Y-66929047D01*
%LPC*%
D11*
%TO.C,U2*%
X136895000Y-62930000D03*
D12*
X136895000Y-64708000D03*
X136895000Y-66486000D03*
X136895000Y-68264000D03*
X136895000Y-70042000D03*
X136895000Y-71820000D03*
X136895000Y-73598000D03*
X136895000Y-75376000D03*
X136895000Y-77154000D03*
X136895000Y-78932000D03*
X136895000Y-80710000D03*
X136895000Y-82488000D03*
X136895000Y-84266000D03*
X136895000Y-86044000D03*
X136895000Y-87822000D03*
X136895000Y-89600000D03*
X136895000Y-91378000D03*
X136895000Y-93156000D03*
X136895000Y-94934000D03*
X136895000Y-96712000D03*
X136895000Y-98490000D03*
X152135000Y-98490000D03*
X152135000Y-96712000D03*
X152135000Y-94934000D03*
X152135000Y-93156000D03*
X152135000Y-91378000D03*
X152135000Y-89600000D03*
X152135000Y-87822000D03*
X152135000Y-86044000D03*
X152135000Y-84266000D03*
X152135000Y-82488000D03*
X152135000Y-80710000D03*
X152135000Y-78932000D03*
X152135000Y-77154000D03*
X152135000Y-75376000D03*
X152135000Y-73598000D03*
X152135000Y-71820000D03*
X152135000Y-70042000D03*
X152135000Y-68264000D03*
X152135000Y-66486000D03*
X152135000Y-64708000D03*
X152135000Y-62930000D03*
%TD*%
D13*
%TO.C,U1*%
X143890000Y-71337000D03*
D14*
X143890000Y-72607000D03*
X143890000Y-73877000D03*
X143890000Y-75147000D03*
X143890000Y-76417000D03*
X143890000Y-77687000D03*
X143890000Y-78957000D03*
X143890000Y-80227000D03*
X143890000Y-81497000D03*
X143890000Y-82767000D03*
X143890000Y-84037000D03*
X143890000Y-85307000D03*
X143890000Y-86577000D03*
X143890000Y-87847000D03*
X143890000Y-89117000D03*
X143890000Y-90387000D03*
X143890000Y-91657000D03*
X143890000Y-92927000D03*
X143890000Y-94197000D03*
X143890000Y-95467000D03*
X143890000Y-96737000D03*
X145160000Y-96737000D03*
X145160000Y-95467000D03*
X145160000Y-94197000D03*
X145160000Y-92927000D03*
X145160000Y-91657000D03*
X145160000Y-90387000D03*
X145160000Y-89117000D03*
X145160000Y-87847000D03*
X145160000Y-86577000D03*
X145160000Y-85307000D03*
X145160000Y-84037000D03*
X145160000Y-82767000D03*
X145160000Y-81497000D03*
X145160000Y-80227000D03*
X145160000Y-78957000D03*
X145160000Y-77687000D03*
X145160000Y-76417000D03*
X145160000Y-75147000D03*
X145160000Y-73877000D03*
X145160000Y-72607000D03*
D15*
X145160000Y-71337000D03*
%TD*%
M02*
