M48
; DRILL file {KiCad (6.0.7)} date Sun Aug  7 18:47:35 2022
; FORMAT={-:-/ absolute / inch / decimal}
; #@! TF.CreationDate,2022-08-07T18:47:35-07:00
; #@! TF.GenerationSoftware,Kicad,Pcbnew,(6.0.7)
; #@! TF.FileFunction,Plated,1,2,PTH
FMAT,2
INCH
; #@! TA.AperFunction,Plated,PTH,ComponentDrill
T1C0.0256
; #@! TA.AperFunction,Plated,PTH,ComponentDrill
T2C0.0330
%
G90
G05
T1
X5.665Y-2.8085
X5.665Y-2.8585
X5.665Y-2.9085
X5.665Y-2.9585
X5.665Y-3.0085
X5.665Y-3.0585
X5.665Y-3.1085
X5.665Y-3.1585
X5.665Y-3.2085
X5.665Y-3.2585
X5.665Y-3.3085
X5.665Y-3.3585
X5.665Y-3.4085
X5.665Y-3.4585
X5.665Y-3.5085
X5.665Y-3.5585
X5.665Y-3.6085
X5.665Y-3.6585
X5.665Y-3.7085
X5.665Y-3.7585
X5.665Y-3.8085
X5.715Y-2.8085
X5.715Y-2.8585
X5.715Y-2.9085
X5.715Y-2.9585
X5.715Y-3.0085
X5.715Y-3.0585
X5.715Y-3.1085
X5.715Y-3.1585
X5.715Y-3.2085
X5.715Y-3.2585
X5.715Y-3.3085
X5.715Y-3.3585
X5.715Y-3.4085
X5.715Y-3.4585
X5.715Y-3.5085
X5.715Y-3.5585
X5.715Y-3.6085
X5.715Y-3.6585
X5.715Y-3.7085
X5.715Y-3.7585
X5.715Y-3.8085
T2
X5.3896Y-2.4776
X5.3896Y-2.5476
X5.3896Y-2.6176
X5.3896Y-2.6876
X5.3896Y-2.7576
X5.3896Y-2.8276
X5.3896Y-2.8976
X5.3896Y-2.9676
X5.3896Y-3.0376
X5.3896Y-3.1076
X5.3896Y-3.1776
X5.3896Y-3.2476
X5.3896Y-3.3176
X5.3896Y-3.3876
X5.3896Y-3.4576
X5.3896Y-3.5276
X5.3896Y-3.5976
X5.3896Y-3.6676
X5.3896Y-3.7376
X5.3896Y-3.8076
X5.3896Y-3.8776
X5.9896Y-2.4776
X5.9896Y-2.5476
X5.9896Y-2.6176
X5.9896Y-2.6876
X5.9896Y-2.7576
X5.9896Y-2.8276
X5.9896Y-2.8976
X5.9896Y-2.9676
X5.9896Y-3.0376
X5.9896Y-3.1076
X5.9896Y-3.1776
X5.9896Y-3.2476
X5.9896Y-3.3176
X5.9896Y-3.3876
X5.9896Y-3.4576
X5.9896Y-3.5276
X5.9896Y-3.5976
X5.9896Y-3.6676
X5.9896Y-3.7376
X5.9896Y-3.8076
X5.9896Y-3.8776
T0
M30
