%TF.GenerationSoftware,KiCad,Pcbnew,(6.0.7)*%
%TF.CreationDate,2022-08-09T00:19:31-07:00*%
%TF.ProjectId,panelized-M27C322-to-KM23C32000AG-adapter,70616e65-6c69-47a6-9564-2d4d32374333,rev?*%
%TF.SameCoordinates,Original*%
%TF.FileFunction,Legend,Top*%
%TF.FilePolarity,Positive*%
%FSLAX46Y46*%
G04 Gerber Fmt 4.6, Leading zero omitted, Abs format (unit mm)*
G04 Created by KiCad (PCBNEW (6.0.7)) date 2022-08-09 00:19:31*
%MOMM*%
%LPD*%
G01*
G04 APERTURE LIST*
G04 Aperture macros list*
%AMFreePoly0*
4,1,43,0.067453,0.524421,0.088820,0.521227,0.211929,0.484410,0.231542,0.475348,0.339368,0.405458,0.352846,0.393700,0.635000,0.393700,0.683980,0.375873,0.710042,0.330732,0.711200,0.317500,0.711200,-0.317500,0.693373,-0.366480,0.648232,-0.392542,0.635000,-0.393700,0.351531,-0.393700,0.345985,-0.399827,0.329361,-0.413629,0.219858,-0.480863,0.200030,-0.489443,0.076059,-0.523242,
0.054619,-0.525912,-0.073855,-0.523557,-0.095181,-0.520103,-0.217831,-0.481785,-0.237332,-0.472484,-0.344297,-0.401282,-0.352777,-0.393700,-0.635000,-0.393700,-0.683980,-0.375873,-0.710042,-0.330732,-0.711200,-0.317500,-0.711200,0.317500,-0.693373,0.366480,-0.648232,0.392542,-0.635000,0.393700,-0.352495,0.393700,-0.350843,0.395571,-0.334389,0.409574,-0.225716,0.478141,-0.205995,0.486962,
-0.082446,0.522273,-0.061040,0.525206,0.067453,0.524421,0.067453,0.524421,$1*%
G04 Aperture macros list end*
%ADD10C,0.150000*%
%ADD11C,0.120000*%
%ADD12C,0.500000*%
%ADD13C,1.152000*%
%ADD14C,1.000000*%
%ADD15FreePoly0,180.000000*%
%ADD16R,2.100000X0.750000*%
G04 APERTURE END LIST*
D10*
X93606714Y-56167380D02*
X93035285Y-56167380D01*
X93321000Y-56167380D02*
X93321000Y-55167380D01*
X93225761Y-55310238D01*
X93130523Y-55405476D01*
X93035285Y-55453095D01*
X76684214Y-56167380D02*
X76112785Y-56167380D01*
X76398500Y-56167380D02*
X76398500Y-55167380D01*
X76303261Y-55310238D01*
X76208023Y-55405476D01*
X76112785Y-55453095D01*
X59761714Y-56167380D02*
X59190285Y-56167380D01*
X59476000Y-56167380D02*
X59476000Y-55167380D01*
X59380761Y-55310238D01*
X59285523Y-55405476D01*
X59190285Y-55453095D01*
X42839214Y-56167380D02*
X42267785Y-56167380D01*
X42553500Y-56167380D02*
X42553500Y-55167380D01*
X42458261Y-55310238D01*
X42363023Y-55405476D01*
X42267785Y-55453095D01*
X25916714Y-56167380D02*
X25345285Y-56167380D01*
X25631000Y-56167380D02*
X25631000Y-55167380D01*
X25535761Y-55310238D01*
X25440523Y-55405476D01*
X25345285Y-55453095D01*
X76684214Y-24497380D02*
X76112785Y-24497380D01*
X76398500Y-24497380D02*
X76398500Y-23497380D01*
X76303261Y-23640238D01*
X76208023Y-23735476D01*
X76112785Y-23783095D01*
X93606714Y-24497380D02*
X93035285Y-24497380D01*
X93321000Y-24497380D02*
X93321000Y-23497380D01*
X93225761Y-23640238D01*
X93130523Y-23735476D01*
X93035285Y-23783095D01*
X59761714Y-24497380D02*
X59190285Y-24497380D01*
X59476000Y-24497380D02*
X59476000Y-23497380D01*
X59380761Y-23640238D01*
X59285523Y-23735476D01*
X59190285Y-23783095D01*
X42839214Y-24497380D02*
X42267785Y-24497380D01*
X42553500Y-24497380D02*
X42553500Y-23497380D01*
X42458261Y-23640238D01*
X42363023Y-23735476D01*
X42267785Y-23783095D01*
X25916714Y-24497380D02*
X25345285Y-24497380D01*
X25631000Y-24497380D02*
X25631000Y-23497380D01*
X25535761Y-23640238D01*
X25440523Y-23735476D01*
X25345285Y-23783095D01*
X93988619Y-63642619D02*
X92988619Y-63880714D01*
X93702904Y-64071190D01*
X92988619Y-64261666D01*
X93988619Y-64499761D01*
X92988619Y-65023571D02*
X93036238Y-64928333D01*
X93083857Y-64880714D01*
X93179095Y-64833095D01*
X93464809Y-64833095D01*
X93560047Y-64880714D01*
X93607666Y-64928333D01*
X93655285Y-65023571D01*
X93655285Y-65166428D01*
X93607666Y-65261666D01*
X93560047Y-65309285D01*
X93464809Y-65356904D01*
X93179095Y-65356904D01*
X93083857Y-65309285D01*
X93036238Y-65261666D01*
X92988619Y-65166428D01*
X92988619Y-65023571D01*
X92988619Y-65785476D02*
X93655285Y-65785476D01*
X93464809Y-65785476D02*
X93560047Y-65833095D01*
X93607666Y-65880714D01*
X93655285Y-65975952D01*
X93655285Y-66071190D01*
X92988619Y-66833095D02*
X93988619Y-66833095D01*
X93036238Y-66833095D02*
X92988619Y-66737857D01*
X92988619Y-66547380D01*
X93036238Y-66452142D01*
X93083857Y-66404523D01*
X93179095Y-66356904D01*
X93464809Y-66356904D01*
X93560047Y-66404523D01*
X93607666Y-66452142D01*
X93655285Y-66547380D01*
X93655285Y-66737857D01*
X93607666Y-66833095D01*
X92988619Y-68071190D02*
X93655285Y-68071190D01*
X93560047Y-68071190D02*
X93607666Y-68118809D01*
X93655285Y-68214047D01*
X93655285Y-68356904D01*
X93607666Y-68452142D01*
X93512428Y-68499761D01*
X92988619Y-68499761D01*
X93512428Y-68499761D02*
X93607666Y-68547380D01*
X93655285Y-68642619D01*
X93655285Y-68785476D01*
X93607666Y-68880714D01*
X93512428Y-68928333D01*
X92988619Y-68928333D01*
X92988619Y-69547380D02*
X93036238Y-69452142D01*
X93083857Y-69404523D01*
X93179095Y-69356904D01*
X93464809Y-69356904D01*
X93560047Y-69404523D01*
X93607666Y-69452142D01*
X93655285Y-69547380D01*
X93655285Y-69690238D01*
X93607666Y-69785476D01*
X93560047Y-69833095D01*
X93464809Y-69880714D01*
X93179095Y-69880714D01*
X93083857Y-69833095D01*
X93036238Y-69785476D01*
X92988619Y-69690238D01*
X92988619Y-69547380D01*
X92988619Y-70737857D02*
X93988619Y-70737857D01*
X93036238Y-70737857D02*
X92988619Y-70642619D01*
X92988619Y-70452142D01*
X93036238Y-70356904D01*
X93083857Y-70309285D01*
X93179095Y-70261666D01*
X93464809Y-70261666D01*
X93560047Y-70309285D01*
X93607666Y-70356904D01*
X93655285Y-70452142D01*
X93655285Y-70642619D01*
X93607666Y-70737857D01*
X93036238Y-71595000D02*
X92988619Y-71499761D01*
X92988619Y-71309285D01*
X93036238Y-71214047D01*
X93131476Y-71166428D01*
X93512428Y-71166428D01*
X93607666Y-71214047D01*
X93655285Y-71309285D01*
X93655285Y-71499761D01*
X93607666Y-71595000D01*
X93512428Y-71642619D01*
X93417190Y-71642619D01*
X93321952Y-71166428D01*
X92988619Y-72975952D02*
X93036238Y-72880714D01*
X93083857Y-72833095D01*
X93179095Y-72785476D01*
X93464809Y-72785476D01*
X93560047Y-72833095D01*
X93607666Y-72880714D01*
X93655285Y-72975952D01*
X93655285Y-73118809D01*
X93607666Y-73214047D01*
X93560047Y-73261666D01*
X93464809Y-73309285D01*
X93179095Y-73309285D01*
X93083857Y-73261666D01*
X93036238Y-73214047D01*
X92988619Y-73118809D01*
X92988619Y-72975952D01*
X93655285Y-73737857D02*
X92988619Y-73737857D01*
X93560047Y-73737857D02*
X93607666Y-73785476D01*
X93655285Y-73880714D01*
X93655285Y-74023571D01*
X93607666Y-74118809D01*
X93512428Y-74166428D01*
X92988619Y-74166428D01*
X92988619Y-74785476D02*
X93036238Y-74690238D01*
X93131476Y-74642619D01*
X93988619Y-74642619D01*
X93655285Y-75071190D02*
X92988619Y-75309285D01*
X93655285Y-75547380D02*
X92988619Y-75309285D01*
X92750523Y-75214047D01*
X92702904Y-75166428D01*
X92655285Y-75071190D01*
X77066119Y-63642619D02*
X76066119Y-63880714D01*
X76780404Y-64071190D01*
X76066119Y-64261666D01*
X77066119Y-64499761D01*
X76066119Y-65023571D02*
X76113738Y-64928333D01*
X76161357Y-64880714D01*
X76256595Y-64833095D01*
X76542309Y-64833095D01*
X76637547Y-64880714D01*
X76685166Y-64928333D01*
X76732785Y-65023571D01*
X76732785Y-65166428D01*
X76685166Y-65261666D01*
X76637547Y-65309285D01*
X76542309Y-65356904D01*
X76256595Y-65356904D01*
X76161357Y-65309285D01*
X76113738Y-65261666D01*
X76066119Y-65166428D01*
X76066119Y-65023571D01*
X76066119Y-65785476D02*
X76732785Y-65785476D01*
X76542309Y-65785476D02*
X76637547Y-65833095D01*
X76685166Y-65880714D01*
X76732785Y-65975952D01*
X76732785Y-66071190D01*
X76066119Y-66833095D02*
X77066119Y-66833095D01*
X76113738Y-66833095D02*
X76066119Y-66737857D01*
X76066119Y-66547380D01*
X76113738Y-66452142D01*
X76161357Y-66404523D01*
X76256595Y-66356904D01*
X76542309Y-66356904D01*
X76637547Y-66404523D01*
X76685166Y-66452142D01*
X76732785Y-66547380D01*
X76732785Y-66737857D01*
X76685166Y-66833095D01*
X76066119Y-68071190D02*
X76732785Y-68071190D01*
X76637547Y-68071190D02*
X76685166Y-68118809D01*
X76732785Y-68214047D01*
X76732785Y-68356904D01*
X76685166Y-68452142D01*
X76589928Y-68499761D01*
X76066119Y-68499761D01*
X76589928Y-68499761D02*
X76685166Y-68547380D01*
X76732785Y-68642619D01*
X76732785Y-68785476D01*
X76685166Y-68880714D01*
X76589928Y-68928333D01*
X76066119Y-68928333D01*
X76066119Y-69547380D02*
X76113738Y-69452142D01*
X76161357Y-69404523D01*
X76256595Y-69356904D01*
X76542309Y-69356904D01*
X76637547Y-69404523D01*
X76685166Y-69452142D01*
X76732785Y-69547380D01*
X76732785Y-69690238D01*
X76685166Y-69785476D01*
X76637547Y-69833095D01*
X76542309Y-69880714D01*
X76256595Y-69880714D01*
X76161357Y-69833095D01*
X76113738Y-69785476D01*
X76066119Y-69690238D01*
X76066119Y-69547380D01*
X76066119Y-70737857D02*
X77066119Y-70737857D01*
X76113738Y-70737857D02*
X76066119Y-70642619D01*
X76066119Y-70452142D01*
X76113738Y-70356904D01*
X76161357Y-70309285D01*
X76256595Y-70261666D01*
X76542309Y-70261666D01*
X76637547Y-70309285D01*
X76685166Y-70356904D01*
X76732785Y-70452142D01*
X76732785Y-70642619D01*
X76685166Y-70737857D01*
X76113738Y-71595000D02*
X76066119Y-71499761D01*
X76066119Y-71309285D01*
X76113738Y-71214047D01*
X76208976Y-71166428D01*
X76589928Y-71166428D01*
X76685166Y-71214047D01*
X76732785Y-71309285D01*
X76732785Y-71499761D01*
X76685166Y-71595000D01*
X76589928Y-71642619D01*
X76494690Y-71642619D01*
X76399452Y-71166428D01*
X76066119Y-72975952D02*
X76113738Y-72880714D01*
X76161357Y-72833095D01*
X76256595Y-72785476D01*
X76542309Y-72785476D01*
X76637547Y-72833095D01*
X76685166Y-72880714D01*
X76732785Y-72975952D01*
X76732785Y-73118809D01*
X76685166Y-73214047D01*
X76637547Y-73261666D01*
X76542309Y-73309285D01*
X76256595Y-73309285D01*
X76161357Y-73261666D01*
X76113738Y-73214047D01*
X76066119Y-73118809D01*
X76066119Y-72975952D01*
X76732785Y-73737857D02*
X76066119Y-73737857D01*
X76637547Y-73737857D02*
X76685166Y-73785476D01*
X76732785Y-73880714D01*
X76732785Y-74023571D01*
X76685166Y-74118809D01*
X76589928Y-74166428D01*
X76066119Y-74166428D01*
X76066119Y-74785476D02*
X76113738Y-74690238D01*
X76208976Y-74642619D01*
X77066119Y-74642619D01*
X76732785Y-75071190D02*
X76066119Y-75309285D01*
X76732785Y-75547380D02*
X76066119Y-75309285D01*
X75828023Y-75214047D01*
X75780404Y-75166428D01*
X75732785Y-75071190D01*
X60143619Y-63642619D02*
X59143619Y-63880714D01*
X59857904Y-64071190D01*
X59143619Y-64261666D01*
X60143619Y-64499761D01*
X59143619Y-65023571D02*
X59191238Y-64928333D01*
X59238857Y-64880714D01*
X59334095Y-64833095D01*
X59619809Y-64833095D01*
X59715047Y-64880714D01*
X59762666Y-64928333D01*
X59810285Y-65023571D01*
X59810285Y-65166428D01*
X59762666Y-65261666D01*
X59715047Y-65309285D01*
X59619809Y-65356904D01*
X59334095Y-65356904D01*
X59238857Y-65309285D01*
X59191238Y-65261666D01*
X59143619Y-65166428D01*
X59143619Y-65023571D01*
X59143619Y-65785476D02*
X59810285Y-65785476D01*
X59619809Y-65785476D02*
X59715047Y-65833095D01*
X59762666Y-65880714D01*
X59810285Y-65975952D01*
X59810285Y-66071190D01*
X59143619Y-66833095D02*
X60143619Y-66833095D01*
X59191238Y-66833095D02*
X59143619Y-66737857D01*
X59143619Y-66547380D01*
X59191238Y-66452142D01*
X59238857Y-66404523D01*
X59334095Y-66356904D01*
X59619809Y-66356904D01*
X59715047Y-66404523D01*
X59762666Y-66452142D01*
X59810285Y-66547380D01*
X59810285Y-66737857D01*
X59762666Y-66833095D01*
X59143619Y-68071190D02*
X59810285Y-68071190D01*
X59715047Y-68071190D02*
X59762666Y-68118809D01*
X59810285Y-68214047D01*
X59810285Y-68356904D01*
X59762666Y-68452142D01*
X59667428Y-68499761D01*
X59143619Y-68499761D01*
X59667428Y-68499761D02*
X59762666Y-68547380D01*
X59810285Y-68642619D01*
X59810285Y-68785476D01*
X59762666Y-68880714D01*
X59667428Y-68928333D01*
X59143619Y-68928333D01*
X59143619Y-69547380D02*
X59191238Y-69452142D01*
X59238857Y-69404523D01*
X59334095Y-69356904D01*
X59619809Y-69356904D01*
X59715047Y-69404523D01*
X59762666Y-69452142D01*
X59810285Y-69547380D01*
X59810285Y-69690238D01*
X59762666Y-69785476D01*
X59715047Y-69833095D01*
X59619809Y-69880714D01*
X59334095Y-69880714D01*
X59238857Y-69833095D01*
X59191238Y-69785476D01*
X59143619Y-69690238D01*
X59143619Y-69547380D01*
X59143619Y-70737857D02*
X60143619Y-70737857D01*
X59191238Y-70737857D02*
X59143619Y-70642619D01*
X59143619Y-70452142D01*
X59191238Y-70356904D01*
X59238857Y-70309285D01*
X59334095Y-70261666D01*
X59619809Y-70261666D01*
X59715047Y-70309285D01*
X59762666Y-70356904D01*
X59810285Y-70452142D01*
X59810285Y-70642619D01*
X59762666Y-70737857D01*
X59191238Y-71595000D02*
X59143619Y-71499761D01*
X59143619Y-71309285D01*
X59191238Y-71214047D01*
X59286476Y-71166428D01*
X59667428Y-71166428D01*
X59762666Y-71214047D01*
X59810285Y-71309285D01*
X59810285Y-71499761D01*
X59762666Y-71595000D01*
X59667428Y-71642619D01*
X59572190Y-71642619D01*
X59476952Y-71166428D01*
X59143619Y-72975952D02*
X59191238Y-72880714D01*
X59238857Y-72833095D01*
X59334095Y-72785476D01*
X59619809Y-72785476D01*
X59715047Y-72833095D01*
X59762666Y-72880714D01*
X59810285Y-72975952D01*
X59810285Y-73118809D01*
X59762666Y-73214047D01*
X59715047Y-73261666D01*
X59619809Y-73309285D01*
X59334095Y-73309285D01*
X59238857Y-73261666D01*
X59191238Y-73214047D01*
X59143619Y-73118809D01*
X59143619Y-72975952D01*
X59810285Y-73737857D02*
X59143619Y-73737857D01*
X59715047Y-73737857D02*
X59762666Y-73785476D01*
X59810285Y-73880714D01*
X59810285Y-74023571D01*
X59762666Y-74118809D01*
X59667428Y-74166428D01*
X59143619Y-74166428D01*
X59143619Y-74785476D02*
X59191238Y-74690238D01*
X59286476Y-74642619D01*
X60143619Y-74642619D01*
X59810285Y-75071190D02*
X59143619Y-75309285D01*
X59810285Y-75547380D02*
X59143619Y-75309285D01*
X58905523Y-75214047D01*
X58857904Y-75166428D01*
X58810285Y-75071190D01*
X43221119Y-63642619D02*
X42221119Y-63880714D01*
X42935404Y-64071190D01*
X42221119Y-64261666D01*
X43221119Y-64499761D01*
X42221119Y-65023571D02*
X42268738Y-64928333D01*
X42316357Y-64880714D01*
X42411595Y-64833095D01*
X42697309Y-64833095D01*
X42792547Y-64880714D01*
X42840166Y-64928333D01*
X42887785Y-65023571D01*
X42887785Y-65166428D01*
X42840166Y-65261666D01*
X42792547Y-65309285D01*
X42697309Y-65356904D01*
X42411595Y-65356904D01*
X42316357Y-65309285D01*
X42268738Y-65261666D01*
X42221119Y-65166428D01*
X42221119Y-65023571D01*
X42221119Y-65785476D02*
X42887785Y-65785476D01*
X42697309Y-65785476D02*
X42792547Y-65833095D01*
X42840166Y-65880714D01*
X42887785Y-65975952D01*
X42887785Y-66071190D01*
X42221119Y-66833095D02*
X43221119Y-66833095D01*
X42268738Y-66833095D02*
X42221119Y-66737857D01*
X42221119Y-66547380D01*
X42268738Y-66452142D01*
X42316357Y-66404523D01*
X42411595Y-66356904D01*
X42697309Y-66356904D01*
X42792547Y-66404523D01*
X42840166Y-66452142D01*
X42887785Y-66547380D01*
X42887785Y-66737857D01*
X42840166Y-66833095D01*
X42221119Y-68071190D02*
X42887785Y-68071190D01*
X42792547Y-68071190D02*
X42840166Y-68118809D01*
X42887785Y-68214047D01*
X42887785Y-68356904D01*
X42840166Y-68452142D01*
X42744928Y-68499761D01*
X42221119Y-68499761D01*
X42744928Y-68499761D02*
X42840166Y-68547380D01*
X42887785Y-68642619D01*
X42887785Y-68785476D01*
X42840166Y-68880714D01*
X42744928Y-68928333D01*
X42221119Y-68928333D01*
X42221119Y-69547380D02*
X42268738Y-69452142D01*
X42316357Y-69404523D01*
X42411595Y-69356904D01*
X42697309Y-69356904D01*
X42792547Y-69404523D01*
X42840166Y-69452142D01*
X42887785Y-69547380D01*
X42887785Y-69690238D01*
X42840166Y-69785476D01*
X42792547Y-69833095D01*
X42697309Y-69880714D01*
X42411595Y-69880714D01*
X42316357Y-69833095D01*
X42268738Y-69785476D01*
X42221119Y-69690238D01*
X42221119Y-69547380D01*
X42221119Y-70737857D02*
X43221119Y-70737857D01*
X42268738Y-70737857D02*
X42221119Y-70642619D01*
X42221119Y-70452142D01*
X42268738Y-70356904D01*
X42316357Y-70309285D01*
X42411595Y-70261666D01*
X42697309Y-70261666D01*
X42792547Y-70309285D01*
X42840166Y-70356904D01*
X42887785Y-70452142D01*
X42887785Y-70642619D01*
X42840166Y-70737857D01*
X42268738Y-71595000D02*
X42221119Y-71499761D01*
X42221119Y-71309285D01*
X42268738Y-71214047D01*
X42363976Y-71166428D01*
X42744928Y-71166428D01*
X42840166Y-71214047D01*
X42887785Y-71309285D01*
X42887785Y-71499761D01*
X42840166Y-71595000D01*
X42744928Y-71642619D01*
X42649690Y-71642619D01*
X42554452Y-71166428D01*
X42221119Y-72975952D02*
X42268738Y-72880714D01*
X42316357Y-72833095D01*
X42411595Y-72785476D01*
X42697309Y-72785476D01*
X42792547Y-72833095D01*
X42840166Y-72880714D01*
X42887785Y-72975952D01*
X42887785Y-73118809D01*
X42840166Y-73214047D01*
X42792547Y-73261666D01*
X42697309Y-73309285D01*
X42411595Y-73309285D01*
X42316357Y-73261666D01*
X42268738Y-73214047D01*
X42221119Y-73118809D01*
X42221119Y-72975952D01*
X42887785Y-73737857D02*
X42221119Y-73737857D01*
X42792547Y-73737857D02*
X42840166Y-73785476D01*
X42887785Y-73880714D01*
X42887785Y-74023571D01*
X42840166Y-74118809D01*
X42744928Y-74166428D01*
X42221119Y-74166428D01*
X42221119Y-74785476D02*
X42268738Y-74690238D01*
X42363976Y-74642619D01*
X43221119Y-74642619D01*
X42887785Y-75071190D02*
X42221119Y-75309285D01*
X42887785Y-75547380D02*
X42221119Y-75309285D01*
X41983023Y-75214047D01*
X41935404Y-75166428D01*
X41887785Y-75071190D01*
X26298619Y-63642619D02*
X25298619Y-63880714D01*
X26012904Y-64071190D01*
X25298619Y-64261666D01*
X26298619Y-64499761D01*
X25298619Y-65023571D02*
X25346238Y-64928333D01*
X25393857Y-64880714D01*
X25489095Y-64833095D01*
X25774809Y-64833095D01*
X25870047Y-64880714D01*
X25917666Y-64928333D01*
X25965285Y-65023571D01*
X25965285Y-65166428D01*
X25917666Y-65261666D01*
X25870047Y-65309285D01*
X25774809Y-65356904D01*
X25489095Y-65356904D01*
X25393857Y-65309285D01*
X25346238Y-65261666D01*
X25298619Y-65166428D01*
X25298619Y-65023571D01*
X25298619Y-65785476D02*
X25965285Y-65785476D01*
X25774809Y-65785476D02*
X25870047Y-65833095D01*
X25917666Y-65880714D01*
X25965285Y-65975952D01*
X25965285Y-66071190D01*
X25298619Y-66833095D02*
X26298619Y-66833095D01*
X25346238Y-66833095D02*
X25298619Y-66737857D01*
X25298619Y-66547380D01*
X25346238Y-66452142D01*
X25393857Y-66404523D01*
X25489095Y-66356904D01*
X25774809Y-66356904D01*
X25870047Y-66404523D01*
X25917666Y-66452142D01*
X25965285Y-66547380D01*
X25965285Y-66737857D01*
X25917666Y-66833095D01*
X25298619Y-68071190D02*
X25965285Y-68071190D01*
X25870047Y-68071190D02*
X25917666Y-68118809D01*
X25965285Y-68214047D01*
X25965285Y-68356904D01*
X25917666Y-68452142D01*
X25822428Y-68499761D01*
X25298619Y-68499761D01*
X25822428Y-68499761D02*
X25917666Y-68547380D01*
X25965285Y-68642619D01*
X25965285Y-68785476D01*
X25917666Y-68880714D01*
X25822428Y-68928333D01*
X25298619Y-68928333D01*
X25298619Y-69547380D02*
X25346238Y-69452142D01*
X25393857Y-69404523D01*
X25489095Y-69356904D01*
X25774809Y-69356904D01*
X25870047Y-69404523D01*
X25917666Y-69452142D01*
X25965285Y-69547380D01*
X25965285Y-69690238D01*
X25917666Y-69785476D01*
X25870047Y-69833095D01*
X25774809Y-69880714D01*
X25489095Y-69880714D01*
X25393857Y-69833095D01*
X25346238Y-69785476D01*
X25298619Y-69690238D01*
X25298619Y-69547380D01*
X25298619Y-70737857D02*
X26298619Y-70737857D01*
X25346238Y-70737857D02*
X25298619Y-70642619D01*
X25298619Y-70452142D01*
X25346238Y-70356904D01*
X25393857Y-70309285D01*
X25489095Y-70261666D01*
X25774809Y-70261666D01*
X25870047Y-70309285D01*
X25917666Y-70356904D01*
X25965285Y-70452142D01*
X25965285Y-70642619D01*
X25917666Y-70737857D01*
X25346238Y-71595000D02*
X25298619Y-71499761D01*
X25298619Y-71309285D01*
X25346238Y-71214047D01*
X25441476Y-71166428D01*
X25822428Y-71166428D01*
X25917666Y-71214047D01*
X25965285Y-71309285D01*
X25965285Y-71499761D01*
X25917666Y-71595000D01*
X25822428Y-71642619D01*
X25727190Y-71642619D01*
X25631952Y-71166428D01*
X25298619Y-72975952D02*
X25346238Y-72880714D01*
X25393857Y-72833095D01*
X25489095Y-72785476D01*
X25774809Y-72785476D01*
X25870047Y-72833095D01*
X25917666Y-72880714D01*
X25965285Y-72975952D01*
X25965285Y-73118809D01*
X25917666Y-73214047D01*
X25870047Y-73261666D01*
X25774809Y-73309285D01*
X25489095Y-73309285D01*
X25393857Y-73261666D01*
X25346238Y-73214047D01*
X25298619Y-73118809D01*
X25298619Y-72975952D01*
X25965285Y-73737857D02*
X25298619Y-73737857D01*
X25870047Y-73737857D02*
X25917666Y-73785476D01*
X25965285Y-73880714D01*
X25965285Y-74023571D01*
X25917666Y-74118809D01*
X25822428Y-74166428D01*
X25298619Y-74166428D01*
X25298619Y-74785476D02*
X25346238Y-74690238D01*
X25441476Y-74642619D01*
X26298619Y-74642619D01*
X25965285Y-75071190D02*
X25298619Y-75309285D01*
X25965285Y-75547380D02*
X25298619Y-75309285D01*
X25060523Y-75214047D01*
X25012904Y-75166428D01*
X24965285Y-75071190D01*
X93988619Y-31972619D02*
X92988619Y-32210714D01*
X93702904Y-32401190D01*
X92988619Y-32591666D01*
X93988619Y-32829761D01*
X92988619Y-33353571D02*
X93036238Y-33258333D01*
X93083857Y-33210714D01*
X93179095Y-33163095D01*
X93464809Y-33163095D01*
X93560047Y-33210714D01*
X93607666Y-33258333D01*
X93655285Y-33353571D01*
X93655285Y-33496428D01*
X93607666Y-33591666D01*
X93560047Y-33639285D01*
X93464809Y-33686904D01*
X93179095Y-33686904D01*
X93083857Y-33639285D01*
X93036238Y-33591666D01*
X92988619Y-33496428D01*
X92988619Y-33353571D01*
X92988619Y-34115476D02*
X93655285Y-34115476D01*
X93464809Y-34115476D02*
X93560047Y-34163095D01*
X93607666Y-34210714D01*
X93655285Y-34305952D01*
X93655285Y-34401190D01*
X92988619Y-35163095D02*
X93988619Y-35163095D01*
X93036238Y-35163095D02*
X92988619Y-35067857D01*
X92988619Y-34877380D01*
X93036238Y-34782142D01*
X93083857Y-34734523D01*
X93179095Y-34686904D01*
X93464809Y-34686904D01*
X93560047Y-34734523D01*
X93607666Y-34782142D01*
X93655285Y-34877380D01*
X93655285Y-35067857D01*
X93607666Y-35163095D01*
X92988619Y-36401190D02*
X93655285Y-36401190D01*
X93560047Y-36401190D02*
X93607666Y-36448809D01*
X93655285Y-36544047D01*
X93655285Y-36686904D01*
X93607666Y-36782142D01*
X93512428Y-36829761D01*
X92988619Y-36829761D01*
X93512428Y-36829761D02*
X93607666Y-36877380D01*
X93655285Y-36972619D01*
X93655285Y-37115476D01*
X93607666Y-37210714D01*
X93512428Y-37258333D01*
X92988619Y-37258333D01*
X92988619Y-37877380D02*
X93036238Y-37782142D01*
X93083857Y-37734523D01*
X93179095Y-37686904D01*
X93464809Y-37686904D01*
X93560047Y-37734523D01*
X93607666Y-37782142D01*
X93655285Y-37877380D01*
X93655285Y-38020238D01*
X93607666Y-38115476D01*
X93560047Y-38163095D01*
X93464809Y-38210714D01*
X93179095Y-38210714D01*
X93083857Y-38163095D01*
X93036238Y-38115476D01*
X92988619Y-38020238D01*
X92988619Y-37877380D01*
X92988619Y-39067857D02*
X93988619Y-39067857D01*
X93036238Y-39067857D02*
X92988619Y-38972619D01*
X92988619Y-38782142D01*
X93036238Y-38686904D01*
X93083857Y-38639285D01*
X93179095Y-38591666D01*
X93464809Y-38591666D01*
X93560047Y-38639285D01*
X93607666Y-38686904D01*
X93655285Y-38782142D01*
X93655285Y-38972619D01*
X93607666Y-39067857D01*
X93036238Y-39925000D02*
X92988619Y-39829761D01*
X92988619Y-39639285D01*
X93036238Y-39544047D01*
X93131476Y-39496428D01*
X93512428Y-39496428D01*
X93607666Y-39544047D01*
X93655285Y-39639285D01*
X93655285Y-39829761D01*
X93607666Y-39925000D01*
X93512428Y-39972619D01*
X93417190Y-39972619D01*
X93321952Y-39496428D01*
X92988619Y-41305952D02*
X93036238Y-41210714D01*
X93083857Y-41163095D01*
X93179095Y-41115476D01*
X93464809Y-41115476D01*
X93560047Y-41163095D01*
X93607666Y-41210714D01*
X93655285Y-41305952D01*
X93655285Y-41448809D01*
X93607666Y-41544047D01*
X93560047Y-41591666D01*
X93464809Y-41639285D01*
X93179095Y-41639285D01*
X93083857Y-41591666D01*
X93036238Y-41544047D01*
X92988619Y-41448809D01*
X92988619Y-41305952D01*
X93655285Y-42067857D02*
X92988619Y-42067857D01*
X93560047Y-42067857D02*
X93607666Y-42115476D01*
X93655285Y-42210714D01*
X93655285Y-42353571D01*
X93607666Y-42448809D01*
X93512428Y-42496428D01*
X92988619Y-42496428D01*
X92988619Y-43115476D02*
X93036238Y-43020238D01*
X93131476Y-42972619D01*
X93988619Y-42972619D01*
X93655285Y-43401190D02*
X92988619Y-43639285D01*
X93655285Y-43877380D02*
X92988619Y-43639285D01*
X92750523Y-43544047D01*
X92702904Y-43496428D01*
X92655285Y-43401190D01*
X60143619Y-31972619D02*
X59143619Y-32210714D01*
X59857904Y-32401190D01*
X59143619Y-32591666D01*
X60143619Y-32829761D01*
X59143619Y-33353571D02*
X59191238Y-33258333D01*
X59238857Y-33210714D01*
X59334095Y-33163095D01*
X59619809Y-33163095D01*
X59715047Y-33210714D01*
X59762666Y-33258333D01*
X59810285Y-33353571D01*
X59810285Y-33496428D01*
X59762666Y-33591666D01*
X59715047Y-33639285D01*
X59619809Y-33686904D01*
X59334095Y-33686904D01*
X59238857Y-33639285D01*
X59191238Y-33591666D01*
X59143619Y-33496428D01*
X59143619Y-33353571D01*
X59143619Y-34115476D02*
X59810285Y-34115476D01*
X59619809Y-34115476D02*
X59715047Y-34163095D01*
X59762666Y-34210714D01*
X59810285Y-34305952D01*
X59810285Y-34401190D01*
X59143619Y-35163095D02*
X60143619Y-35163095D01*
X59191238Y-35163095D02*
X59143619Y-35067857D01*
X59143619Y-34877380D01*
X59191238Y-34782142D01*
X59238857Y-34734523D01*
X59334095Y-34686904D01*
X59619809Y-34686904D01*
X59715047Y-34734523D01*
X59762666Y-34782142D01*
X59810285Y-34877380D01*
X59810285Y-35067857D01*
X59762666Y-35163095D01*
X59143619Y-36401190D02*
X59810285Y-36401190D01*
X59715047Y-36401190D02*
X59762666Y-36448809D01*
X59810285Y-36544047D01*
X59810285Y-36686904D01*
X59762666Y-36782142D01*
X59667428Y-36829761D01*
X59143619Y-36829761D01*
X59667428Y-36829761D02*
X59762666Y-36877380D01*
X59810285Y-36972619D01*
X59810285Y-37115476D01*
X59762666Y-37210714D01*
X59667428Y-37258333D01*
X59143619Y-37258333D01*
X59143619Y-37877380D02*
X59191238Y-37782142D01*
X59238857Y-37734523D01*
X59334095Y-37686904D01*
X59619809Y-37686904D01*
X59715047Y-37734523D01*
X59762666Y-37782142D01*
X59810285Y-37877380D01*
X59810285Y-38020238D01*
X59762666Y-38115476D01*
X59715047Y-38163095D01*
X59619809Y-38210714D01*
X59334095Y-38210714D01*
X59238857Y-38163095D01*
X59191238Y-38115476D01*
X59143619Y-38020238D01*
X59143619Y-37877380D01*
X59143619Y-39067857D02*
X60143619Y-39067857D01*
X59191238Y-39067857D02*
X59143619Y-38972619D01*
X59143619Y-38782142D01*
X59191238Y-38686904D01*
X59238857Y-38639285D01*
X59334095Y-38591666D01*
X59619809Y-38591666D01*
X59715047Y-38639285D01*
X59762666Y-38686904D01*
X59810285Y-38782142D01*
X59810285Y-38972619D01*
X59762666Y-39067857D01*
X59191238Y-39925000D02*
X59143619Y-39829761D01*
X59143619Y-39639285D01*
X59191238Y-39544047D01*
X59286476Y-39496428D01*
X59667428Y-39496428D01*
X59762666Y-39544047D01*
X59810285Y-39639285D01*
X59810285Y-39829761D01*
X59762666Y-39925000D01*
X59667428Y-39972619D01*
X59572190Y-39972619D01*
X59476952Y-39496428D01*
X59143619Y-41305952D02*
X59191238Y-41210714D01*
X59238857Y-41163095D01*
X59334095Y-41115476D01*
X59619809Y-41115476D01*
X59715047Y-41163095D01*
X59762666Y-41210714D01*
X59810285Y-41305952D01*
X59810285Y-41448809D01*
X59762666Y-41544047D01*
X59715047Y-41591666D01*
X59619809Y-41639285D01*
X59334095Y-41639285D01*
X59238857Y-41591666D01*
X59191238Y-41544047D01*
X59143619Y-41448809D01*
X59143619Y-41305952D01*
X59810285Y-42067857D02*
X59143619Y-42067857D01*
X59715047Y-42067857D02*
X59762666Y-42115476D01*
X59810285Y-42210714D01*
X59810285Y-42353571D01*
X59762666Y-42448809D01*
X59667428Y-42496428D01*
X59143619Y-42496428D01*
X59143619Y-43115476D02*
X59191238Y-43020238D01*
X59286476Y-42972619D01*
X60143619Y-42972619D01*
X59810285Y-43401190D02*
X59143619Y-43639285D01*
X59810285Y-43877380D02*
X59143619Y-43639285D01*
X58905523Y-43544047D01*
X58857904Y-43496428D01*
X58810285Y-43401190D01*
X77066119Y-31972619D02*
X76066119Y-32210714D01*
X76780404Y-32401190D01*
X76066119Y-32591666D01*
X77066119Y-32829761D01*
X76066119Y-33353571D02*
X76113738Y-33258333D01*
X76161357Y-33210714D01*
X76256595Y-33163095D01*
X76542309Y-33163095D01*
X76637547Y-33210714D01*
X76685166Y-33258333D01*
X76732785Y-33353571D01*
X76732785Y-33496428D01*
X76685166Y-33591666D01*
X76637547Y-33639285D01*
X76542309Y-33686904D01*
X76256595Y-33686904D01*
X76161357Y-33639285D01*
X76113738Y-33591666D01*
X76066119Y-33496428D01*
X76066119Y-33353571D01*
X76066119Y-34115476D02*
X76732785Y-34115476D01*
X76542309Y-34115476D02*
X76637547Y-34163095D01*
X76685166Y-34210714D01*
X76732785Y-34305952D01*
X76732785Y-34401190D01*
X76066119Y-35163095D02*
X77066119Y-35163095D01*
X76113738Y-35163095D02*
X76066119Y-35067857D01*
X76066119Y-34877380D01*
X76113738Y-34782142D01*
X76161357Y-34734523D01*
X76256595Y-34686904D01*
X76542309Y-34686904D01*
X76637547Y-34734523D01*
X76685166Y-34782142D01*
X76732785Y-34877380D01*
X76732785Y-35067857D01*
X76685166Y-35163095D01*
X76066119Y-36401190D02*
X76732785Y-36401190D01*
X76637547Y-36401190D02*
X76685166Y-36448809D01*
X76732785Y-36544047D01*
X76732785Y-36686904D01*
X76685166Y-36782142D01*
X76589928Y-36829761D01*
X76066119Y-36829761D01*
X76589928Y-36829761D02*
X76685166Y-36877380D01*
X76732785Y-36972619D01*
X76732785Y-37115476D01*
X76685166Y-37210714D01*
X76589928Y-37258333D01*
X76066119Y-37258333D01*
X76066119Y-37877380D02*
X76113738Y-37782142D01*
X76161357Y-37734523D01*
X76256595Y-37686904D01*
X76542309Y-37686904D01*
X76637547Y-37734523D01*
X76685166Y-37782142D01*
X76732785Y-37877380D01*
X76732785Y-38020238D01*
X76685166Y-38115476D01*
X76637547Y-38163095D01*
X76542309Y-38210714D01*
X76256595Y-38210714D01*
X76161357Y-38163095D01*
X76113738Y-38115476D01*
X76066119Y-38020238D01*
X76066119Y-37877380D01*
X76066119Y-39067857D02*
X77066119Y-39067857D01*
X76113738Y-39067857D02*
X76066119Y-38972619D01*
X76066119Y-38782142D01*
X76113738Y-38686904D01*
X76161357Y-38639285D01*
X76256595Y-38591666D01*
X76542309Y-38591666D01*
X76637547Y-38639285D01*
X76685166Y-38686904D01*
X76732785Y-38782142D01*
X76732785Y-38972619D01*
X76685166Y-39067857D01*
X76113738Y-39925000D02*
X76066119Y-39829761D01*
X76066119Y-39639285D01*
X76113738Y-39544047D01*
X76208976Y-39496428D01*
X76589928Y-39496428D01*
X76685166Y-39544047D01*
X76732785Y-39639285D01*
X76732785Y-39829761D01*
X76685166Y-39925000D01*
X76589928Y-39972619D01*
X76494690Y-39972619D01*
X76399452Y-39496428D01*
X76066119Y-41305952D02*
X76113738Y-41210714D01*
X76161357Y-41163095D01*
X76256595Y-41115476D01*
X76542309Y-41115476D01*
X76637547Y-41163095D01*
X76685166Y-41210714D01*
X76732785Y-41305952D01*
X76732785Y-41448809D01*
X76685166Y-41544047D01*
X76637547Y-41591666D01*
X76542309Y-41639285D01*
X76256595Y-41639285D01*
X76161357Y-41591666D01*
X76113738Y-41544047D01*
X76066119Y-41448809D01*
X76066119Y-41305952D01*
X76732785Y-42067857D02*
X76066119Y-42067857D01*
X76637547Y-42067857D02*
X76685166Y-42115476D01*
X76732785Y-42210714D01*
X76732785Y-42353571D01*
X76685166Y-42448809D01*
X76589928Y-42496428D01*
X76066119Y-42496428D01*
X76066119Y-43115476D02*
X76113738Y-43020238D01*
X76208976Y-42972619D01*
X77066119Y-42972619D01*
X76732785Y-43401190D02*
X76066119Y-43639285D01*
X76732785Y-43877380D02*
X76066119Y-43639285D01*
X75828023Y-43544047D01*
X75780404Y-43496428D01*
X75732785Y-43401190D01*
X43221119Y-31972619D02*
X42221119Y-32210714D01*
X42935404Y-32401190D01*
X42221119Y-32591666D01*
X43221119Y-32829761D01*
X42221119Y-33353571D02*
X42268738Y-33258333D01*
X42316357Y-33210714D01*
X42411595Y-33163095D01*
X42697309Y-33163095D01*
X42792547Y-33210714D01*
X42840166Y-33258333D01*
X42887785Y-33353571D01*
X42887785Y-33496428D01*
X42840166Y-33591666D01*
X42792547Y-33639285D01*
X42697309Y-33686904D01*
X42411595Y-33686904D01*
X42316357Y-33639285D01*
X42268738Y-33591666D01*
X42221119Y-33496428D01*
X42221119Y-33353571D01*
X42221119Y-34115476D02*
X42887785Y-34115476D01*
X42697309Y-34115476D02*
X42792547Y-34163095D01*
X42840166Y-34210714D01*
X42887785Y-34305952D01*
X42887785Y-34401190D01*
X42221119Y-35163095D02*
X43221119Y-35163095D01*
X42268738Y-35163095D02*
X42221119Y-35067857D01*
X42221119Y-34877380D01*
X42268738Y-34782142D01*
X42316357Y-34734523D01*
X42411595Y-34686904D01*
X42697309Y-34686904D01*
X42792547Y-34734523D01*
X42840166Y-34782142D01*
X42887785Y-34877380D01*
X42887785Y-35067857D01*
X42840166Y-35163095D01*
X42221119Y-36401190D02*
X42887785Y-36401190D01*
X42792547Y-36401190D02*
X42840166Y-36448809D01*
X42887785Y-36544047D01*
X42887785Y-36686904D01*
X42840166Y-36782142D01*
X42744928Y-36829761D01*
X42221119Y-36829761D01*
X42744928Y-36829761D02*
X42840166Y-36877380D01*
X42887785Y-36972619D01*
X42887785Y-37115476D01*
X42840166Y-37210714D01*
X42744928Y-37258333D01*
X42221119Y-37258333D01*
X42221119Y-37877380D02*
X42268738Y-37782142D01*
X42316357Y-37734523D01*
X42411595Y-37686904D01*
X42697309Y-37686904D01*
X42792547Y-37734523D01*
X42840166Y-37782142D01*
X42887785Y-37877380D01*
X42887785Y-38020238D01*
X42840166Y-38115476D01*
X42792547Y-38163095D01*
X42697309Y-38210714D01*
X42411595Y-38210714D01*
X42316357Y-38163095D01*
X42268738Y-38115476D01*
X42221119Y-38020238D01*
X42221119Y-37877380D01*
X42221119Y-39067857D02*
X43221119Y-39067857D01*
X42268738Y-39067857D02*
X42221119Y-38972619D01*
X42221119Y-38782142D01*
X42268738Y-38686904D01*
X42316357Y-38639285D01*
X42411595Y-38591666D01*
X42697309Y-38591666D01*
X42792547Y-38639285D01*
X42840166Y-38686904D01*
X42887785Y-38782142D01*
X42887785Y-38972619D01*
X42840166Y-39067857D01*
X42268738Y-39925000D02*
X42221119Y-39829761D01*
X42221119Y-39639285D01*
X42268738Y-39544047D01*
X42363976Y-39496428D01*
X42744928Y-39496428D01*
X42840166Y-39544047D01*
X42887785Y-39639285D01*
X42887785Y-39829761D01*
X42840166Y-39925000D01*
X42744928Y-39972619D01*
X42649690Y-39972619D01*
X42554452Y-39496428D01*
X42221119Y-41305952D02*
X42268738Y-41210714D01*
X42316357Y-41163095D01*
X42411595Y-41115476D01*
X42697309Y-41115476D01*
X42792547Y-41163095D01*
X42840166Y-41210714D01*
X42887785Y-41305952D01*
X42887785Y-41448809D01*
X42840166Y-41544047D01*
X42792547Y-41591666D01*
X42697309Y-41639285D01*
X42411595Y-41639285D01*
X42316357Y-41591666D01*
X42268738Y-41544047D01*
X42221119Y-41448809D01*
X42221119Y-41305952D01*
X42887785Y-42067857D02*
X42221119Y-42067857D01*
X42792547Y-42067857D02*
X42840166Y-42115476D01*
X42887785Y-42210714D01*
X42887785Y-42353571D01*
X42840166Y-42448809D01*
X42744928Y-42496428D01*
X42221119Y-42496428D01*
X42221119Y-43115476D02*
X42268738Y-43020238D01*
X42363976Y-42972619D01*
X43221119Y-42972619D01*
X42887785Y-43401190D02*
X42221119Y-43639285D01*
X42887785Y-43877380D02*
X42221119Y-43639285D01*
X41983023Y-43544047D01*
X41935404Y-43496428D01*
X41887785Y-43401190D01*
X26298619Y-31972619D02*
X25298619Y-32210714D01*
X26012904Y-32401190D01*
X25298619Y-32591666D01*
X26298619Y-32829761D01*
X25298619Y-33353571D02*
X25346238Y-33258333D01*
X25393857Y-33210714D01*
X25489095Y-33163095D01*
X25774809Y-33163095D01*
X25870047Y-33210714D01*
X25917666Y-33258333D01*
X25965285Y-33353571D01*
X25965285Y-33496428D01*
X25917666Y-33591666D01*
X25870047Y-33639285D01*
X25774809Y-33686904D01*
X25489095Y-33686904D01*
X25393857Y-33639285D01*
X25346238Y-33591666D01*
X25298619Y-33496428D01*
X25298619Y-33353571D01*
X25298619Y-34115476D02*
X25965285Y-34115476D01*
X25774809Y-34115476D02*
X25870047Y-34163095D01*
X25917666Y-34210714D01*
X25965285Y-34305952D01*
X25965285Y-34401190D01*
X25298619Y-35163095D02*
X26298619Y-35163095D01*
X25346238Y-35163095D02*
X25298619Y-35067857D01*
X25298619Y-34877380D01*
X25346238Y-34782142D01*
X25393857Y-34734523D01*
X25489095Y-34686904D01*
X25774809Y-34686904D01*
X25870047Y-34734523D01*
X25917666Y-34782142D01*
X25965285Y-34877380D01*
X25965285Y-35067857D01*
X25917666Y-35163095D01*
X25298619Y-36401190D02*
X25965285Y-36401190D01*
X25870047Y-36401190D02*
X25917666Y-36448809D01*
X25965285Y-36544047D01*
X25965285Y-36686904D01*
X25917666Y-36782142D01*
X25822428Y-36829761D01*
X25298619Y-36829761D01*
X25822428Y-36829761D02*
X25917666Y-36877380D01*
X25965285Y-36972619D01*
X25965285Y-37115476D01*
X25917666Y-37210714D01*
X25822428Y-37258333D01*
X25298619Y-37258333D01*
X25298619Y-37877380D02*
X25346238Y-37782142D01*
X25393857Y-37734523D01*
X25489095Y-37686904D01*
X25774809Y-37686904D01*
X25870047Y-37734523D01*
X25917666Y-37782142D01*
X25965285Y-37877380D01*
X25965285Y-38020238D01*
X25917666Y-38115476D01*
X25870047Y-38163095D01*
X25774809Y-38210714D01*
X25489095Y-38210714D01*
X25393857Y-38163095D01*
X25346238Y-38115476D01*
X25298619Y-38020238D01*
X25298619Y-37877380D01*
X25298619Y-39067857D02*
X26298619Y-39067857D01*
X25346238Y-39067857D02*
X25298619Y-38972619D01*
X25298619Y-38782142D01*
X25346238Y-38686904D01*
X25393857Y-38639285D01*
X25489095Y-38591666D01*
X25774809Y-38591666D01*
X25870047Y-38639285D01*
X25917666Y-38686904D01*
X25965285Y-38782142D01*
X25965285Y-38972619D01*
X25917666Y-39067857D01*
X25346238Y-39925000D02*
X25298619Y-39829761D01*
X25298619Y-39639285D01*
X25346238Y-39544047D01*
X25441476Y-39496428D01*
X25822428Y-39496428D01*
X25917666Y-39544047D01*
X25965285Y-39639285D01*
X25965285Y-39829761D01*
X25917666Y-39925000D01*
X25822428Y-39972619D01*
X25727190Y-39972619D01*
X25631952Y-39496428D01*
X25298619Y-41305952D02*
X25346238Y-41210714D01*
X25393857Y-41163095D01*
X25489095Y-41115476D01*
X25774809Y-41115476D01*
X25870047Y-41163095D01*
X25917666Y-41210714D01*
X25965285Y-41305952D01*
X25965285Y-41448809D01*
X25917666Y-41544047D01*
X25870047Y-41591666D01*
X25774809Y-41639285D01*
X25489095Y-41639285D01*
X25393857Y-41591666D01*
X25346238Y-41544047D01*
X25298619Y-41448809D01*
X25298619Y-41305952D01*
X25965285Y-42067857D02*
X25298619Y-42067857D01*
X25870047Y-42067857D02*
X25917666Y-42115476D01*
X25965285Y-42210714D01*
X25965285Y-42353571D01*
X25917666Y-42448809D01*
X25822428Y-42496428D01*
X25298619Y-42496428D01*
X25298619Y-43115476D02*
X25346238Y-43020238D01*
X25441476Y-42972619D01*
X26298619Y-42972619D01*
X25965285Y-43401190D02*
X25298619Y-43639285D01*
X25965285Y-43877380D02*
X25298619Y-43639285D01*
X25060523Y-43544047D01*
X25012904Y-43496428D01*
X24965285Y-43401190D01*
X103353619Y-58616428D02*
X104353619Y-58616428D01*
X103639333Y-58949761D01*
X104353619Y-59283095D01*
X103353619Y-59283095D01*
X104258380Y-59711666D02*
X104306000Y-59759285D01*
X104353619Y-59854523D01*
X104353619Y-60092619D01*
X104306000Y-60187857D01*
X104258380Y-60235476D01*
X104163142Y-60283095D01*
X104067904Y-60283095D01*
X103925047Y-60235476D01*
X103353619Y-59664047D01*
X103353619Y-60283095D01*
X104353619Y-60616428D02*
X104353619Y-61283095D01*
X103353619Y-60854523D01*
X103448857Y-62235476D02*
X103401238Y-62187857D01*
X103353619Y-62045000D01*
X103353619Y-61949761D01*
X103401238Y-61806904D01*
X103496476Y-61711666D01*
X103591714Y-61664047D01*
X103782190Y-61616428D01*
X103925047Y-61616428D01*
X104115523Y-61664047D01*
X104210761Y-61711666D01*
X104306000Y-61806904D01*
X104353619Y-61949761D01*
X104353619Y-62045000D01*
X104306000Y-62187857D01*
X104258380Y-62235476D01*
X104353619Y-62568809D02*
X104353619Y-63187857D01*
X103972666Y-62854523D01*
X103972666Y-62997380D01*
X103925047Y-63092619D01*
X103877428Y-63140238D01*
X103782190Y-63187857D01*
X103544095Y-63187857D01*
X103448857Y-63140238D01*
X103401238Y-63092619D01*
X103353619Y-62997380D01*
X103353619Y-62711666D01*
X103401238Y-62616428D01*
X103448857Y-62568809D01*
X104258380Y-63568809D02*
X104306000Y-63616428D01*
X104353619Y-63711666D01*
X104353619Y-63949761D01*
X104306000Y-64045000D01*
X104258380Y-64092619D01*
X104163142Y-64140238D01*
X104067904Y-64140238D01*
X103925047Y-64092619D01*
X103353619Y-63521190D01*
X103353619Y-64140238D01*
X104258380Y-64521190D02*
X104306000Y-64568809D01*
X104353619Y-64664047D01*
X104353619Y-64902142D01*
X104306000Y-64997380D01*
X104258380Y-65045000D01*
X104163142Y-65092619D01*
X104067904Y-65092619D01*
X103925047Y-65045000D01*
X103353619Y-64473571D01*
X103353619Y-65092619D01*
X104020285Y-66140238D02*
X104020285Y-66521190D01*
X104353619Y-66283095D02*
X103496476Y-66283095D01*
X103401238Y-66330714D01*
X103353619Y-66425952D01*
X103353619Y-66521190D01*
X103353619Y-66997380D02*
X103401238Y-66902142D01*
X103448857Y-66854523D01*
X103544095Y-66806904D01*
X103829809Y-66806904D01*
X103925047Y-66854523D01*
X103972666Y-66902142D01*
X104020285Y-66997380D01*
X104020285Y-67140238D01*
X103972666Y-67235476D01*
X103925047Y-67283095D01*
X103829809Y-67330714D01*
X103544095Y-67330714D01*
X103448857Y-67283095D01*
X103401238Y-67235476D01*
X103353619Y-67140238D01*
X103353619Y-66997380D01*
X103353619Y-68521190D02*
X104353619Y-68521190D01*
X103353619Y-69092619D02*
X103925047Y-68664047D01*
X104353619Y-69092619D02*
X103782190Y-68521190D01*
X103353619Y-69521190D02*
X104353619Y-69521190D01*
X103639333Y-69854523D01*
X104353619Y-70187857D01*
X103353619Y-70187857D01*
X104258380Y-70616428D02*
X104306000Y-70664047D01*
X104353619Y-70759285D01*
X104353619Y-70997380D01*
X104306000Y-71092619D01*
X104258380Y-71140238D01*
X104163142Y-71187857D01*
X104067904Y-71187857D01*
X103925047Y-71140238D01*
X103353619Y-70568809D01*
X103353619Y-71187857D01*
X104353619Y-71521190D02*
X104353619Y-72140238D01*
X103972666Y-71806904D01*
X103972666Y-71949761D01*
X103925047Y-72045000D01*
X103877428Y-72092619D01*
X103782190Y-72140238D01*
X103544095Y-72140238D01*
X103448857Y-72092619D01*
X103401238Y-72045000D01*
X103353619Y-71949761D01*
X103353619Y-71664047D01*
X103401238Y-71568809D01*
X103448857Y-71521190D01*
X103448857Y-73140238D02*
X103401238Y-73092619D01*
X103353619Y-72949761D01*
X103353619Y-72854523D01*
X103401238Y-72711666D01*
X103496476Y-72616428D01*
X103591714Y-72568809D01*
X103782190Y-72521190D01*
X103925047Y-72521190D01*
X104115523Y-72568809D01*
X104210761Y-72616428D01*
X104306000Y-72711666D01*
X104353619Y-72854523D01*
X104353619Y-72949761D01*
X104306000Y-73092619D01*
X104258380Y-73140238D01*
X104353619Y-73473571D02*
X104353619Y-74092619D01*
X103972666Y-73759285D01*
X103972666Y-73902142D01*
X103925047Y-73997380D01*
X103877428Y-74045000D01*
X103782190Y-74092619D01*
X103544095Y-74092619D01*
X103448857Y-74045000D01*
X103401238Y-73997380D01*
X103353619Y-73902142D01*
X103353619Y-73616428D01*
X103401238Y-73521190D01*
X103448857Y-73473571D01*
X104258380Y-74473571D02*
X104306000Y-74521190D01*
X104353619Y-74616428D01*
X104353619Y-74854523D01*
X104306000Y-74949761D01*
X104258380Y-74997380D01*
X104163142Y-75045000D01*
X104067904Y-75045000D01*
X103925047Y-74997380D01*
X103353619Y-74425952D01*
X103353619Y-75045000D01*
X104353619Y-75664047D02*
X104353619Y-75759285D01*
X104306000Y-75854523D01*
X104258380Y-75902142D01*
X104163142Y-75949761D01*
X103972666Y-75997380D01*
X103734571Y-75997380D01*
X103544095Y-75949761D01*
X103448857Y-75902142D01*
X103401238Y-75854523D01*
X103353619Y-75759285D01*
X103353619Y-75664047D01*
X103401238Y-75568809D01*
X103448857Y-75521190D01*
X103544095Y-75473571D01*
X103734571Y-75425952D01*
X103972666Y-75425952D01*
X104163142Y-75473571D01*
X104258380Y-75521190D01*
X104306000Y-75568809D01*
X104353619Y-75664047D01*
X104353619Y-76616428D02*
X104353619Y-76711666D01*
X104306000Y-76806904D01*
X104258380Y-76854523D01*
X104163142Y-76902142D01*
X103972666Y-76949761D01*
X103734571Y-76949761D01*
X103544095Y-76902142D01*
X103448857Y-76854523D01*
X103401238Y-76806904D01*
X103353619Y-76711666D01*
X103353619Y-76616428D01*
X103401238Y-76521190D01*
X103448857Y-76473571D01*
X103544095Y-76425952D01*
X103734571Y-76378333D01*
X103972666Y-76378333D01*
X104163142Y-76425952D01*
X104258380Y-76473571D01*
X104306000Y-76521190D01*
X104353619Y-76616428D01*
X104353619Y-77568809D02*
X104353619Y-77664047D01*
X104306000Y-77759285D01*
X104258380Y-77806904D01*
X104163142Y-77854523D01*
X103972666Y-77902142D01*
X103734571Y-77902142D01*
X103544095Y-77854523D01*
X103448857Y-77806904D01*
X103401238Y-77759285D01*
X103353619Y-77664047D01*
X103353619Y-77568809D01*
X103401238Y-77473571D01*
X103448857Y-77425952D01*
X103544095Y-77378333D01*
X103734571Y-77330714D01*
X103972666Y-77330714D01*
X104163142Y-77378333D01*
X104258380Y-77425952D01*
X104306000Y-77473571D01*
X104353619Y-77568809D01*
X103639333Y-78283095D02*
X103639333Y-78759285D01*
X103353619Y-78187857D02*
X104353619Y-78521190D01*
X103353619Y-78854523D01*
X104306000Y-79711666D02*
X104353619Y-79616428D01*
X104353619Y-79473571D01*
X104306000Y-79330714D01*
X104210761Y-79235476D01*
X104115523Y-79187857D01*
X103925047Y-79140238D01*
X103782190Y-79140238D01*
X103591714Y-79187857D01*
X103496476Y-79235476D01*
X103401238Y-79330714D01*
X103353619Y-79473571D01*
X103353619Y-79568809D01*
X103401238Y-79711666D01*
X103448857Y-79759285D01*
X103782190Y-79759285D01*
X103782190Y-79568809D01*
X101743619Y-67378333D02*
X102267428Y-67378333D01*
X102362666Y-67330714D01*
X102410285Y-67235476D01*
X102410285Y-67045000D01*
X102362666Y-66949761D01*
X101791238Y-67378333D02*
X101743619Y-67283095D01*
X101743619Y-67045000D01*
X101791238Y-66949761D01*
X101886476Y-66902142D01*
X101981714Y-66902142D01*
X102076952Y-66949761D01*
X102124571Y-67045000D01*
X102124571Y-67283095D01*
X102172190Y-67378333D01*
X101743619Y-68283095D02*
X102743619Y-68283095D01*
X101791238Y-68283095D02*
X101743619Y-68187857D01*
X101743619Y-67997380D01*
X101791238Y-67902142D01*
X101838857Y-67854523D01*
X101934095Y-67806904D01*
X102219809Y-67806904D01*
X102315047Y-67854523D01*
X102362666Y-67902142D01*
X102410285Y-67997380D01*
X102410285Y-68187857D01*
X102362666Y-68283095D01*
X101743619Y-69187857D02*
X102267428Y-69187857D01*
X102362666Y-69140238D01*
X102410285Y-69045000D01*
X102410285Y-68854523D01*
X102362666Y-68759285D01*
X101791238Y-69187857D02*
X101743619Y-69092619D01*
X101743619Y-68854523D01*
X101791238Y-68759285D01*
X101886476Y-68711666D01*
X101981714Y-68711666D01*
X102076952Y-68759285D01*
X102124571Y-68854523D01*
X102124571Y-69092619D01*
X102172190Y-69187857D01*
X102410285Y-69664047D02*
X101410285Y-69664047D01*
X102362666Y-69664047D02*
X102410285Y-69759285D01*
X102410285Y-69949761D01*
X102362666Y-70045000D01*
X102315047Y-70092619D01*
X102219809Y-70140238D01*
X101934095Y-70140238D01*
X101838857Y-70092619D01*
X101791238Y-70045000D01*
X101743619Y-69949761D01*
X101743619Y-69759285D01*
X101791238Y-69664047D01*
X102410285Y-70425952D02*
X102410285Y-70806904D01*
X102743619Y-70568809D02*
X101886476Y-70568809D01*
X101791238Y-70616428D01*
X101743619Y-70711666D01*
X101743619Y-70806904D01*
X101791238Y-71521190D02*
X101743619Y-71425952D01*
X101743619Y-71235476D01*
X101791238Y-71140238D01*
X101886476Y-71092619D01*
X102267428Y-71092619D01*
X102362666Y-71140238D01*
X102410285Y-71235476D01*
X102410285Y-71425952D01*
X102362666Y-71521190D01*
X102267428Y-71568809D01*
X102172190Y-71568809D01*
X102076952Y-71092619D01*
X101743619Y-71997380D02*
X102410285Y-71997380D01*
X102219809Y-71997380D02*
X102315047Y-72045000D01*
X102362666Y-72092619D01*
X102410285Y-72187857D01*
X102410285Y-72283095D01*
X86431119Y-58616428D02*
X87431119Y-58616428D01*
X86716833Y-58949761D01*
X87431119Y-59283095D01*
X86431119Y-59283095D01*
X87335880Y-59711666D02*
X87383500Y-59759285D01*
X87431119Y-59854523D01*
X87431119Y-60092619D01*
X87383500Y-60187857D01*
X87335880Y-60235476D01*
X87240642Y-60283095D01*
X87145404Y-60283095D01*
X87002547Y-60235476D01*
X86431119Y-59664047D01*
X86431119Y-60283095D01*
X87431119Y-60616428D02*
X87431119Y-61283095D01*
X86431119Y-60854523D01*
X86526357Y-62235476D02*
X86478738Y-62187857D01*
X86431119Y-62045000D01*
X86431119Y-61949761D01*
X86478738Y-61806904D01*
X86573976Y-61711666D01*
X86669214Y-61664047D01*
X86859690Y-61616428D01*
X87002547Y-61616428D01*
X87193023Y-61664047D01*
X87288261Y-61711666D01*
X87383500Y-61806904D01*
X87431119Y-61949761D01*
X87431119Y-62045000D01*
X87383500Y-62187857D01*
X87335880Y-62235476D01*
X87431119Y-62568809D02*
X87431119Y-63187857D01*
X87050166Y-62854523D01*
X87050166Y-62997380D01*
X87002547Y-63092619D01*
X86954928Y-63140238D01*
X86859690Y-63187857D01*
X86621595Y-63187857D01*
X86526357Y-63140238D01*
X86478738Y-63092619D01*
X86431119Y-62997380D01*
X86431119Y-62711666D01*
X86478738Y-62616428D01*
X86526357Y-62568809D01*
X87335880Y-63568809D02*
X87383500Y-63616428D01*
X87431119Y-63711666D01*
X87431119Y-63949761D01*
X87383500Y-64045000D01*
X87335880Y-64092619D01*
X87240642Y-64140238D01*
X87145404Y-64140238D01*
X87002547Y-64092619D01*
X86431119Y-63521190D01*
X86431119Y-64140238D01*
X87335880Y-64521190D02*
X87383500Y-64568809D01*
X87431119Y-64664047D01*
X87431119Y-64902142D01*
X87383500Y-64997380D01*
X87335880Y-65045000D01*
X87240642Y-65092619D01*
X87145404Y-65092619D01*
X87002547Y-65045000D01*
X86431119Y-64473571D01*
X86431119Y-65092619D01*
X87097785Y-66140238D02*
X87097785Y-66521190D01*
X87431119Y-66283095D02*
X86573976Y-66283095D01*
X86478738Y-66330714D01*
X86431119Y-66425952D01*
X86431119Y-66521190D01*
X86431119Y-66997380D02*
X86478738Y-66902142D01*
X86526357Y-66854523D01*
X86621595Y-66806904D01*
X86907309Y-66806904D01*
X87002547Y-66854523D01*
X87050166Y-66902142D01*
X87097785Y-66997380D01*
X87097785Y-67140238D01*
X87050166Y-67235476D01*
X87002547Y-67283095D01*
X86907309Y-67330714D01*
X86621595Y-67330714D01*
X86526357Y-67283095D01*
X86478738Y-67235476D01*
X86431119Y-67140238D01*
X86431119Y-66997380D01*
X86431119Y-68521190D02*
X87431119Y-68521190D01*
X86431119Y-69092619D02*
X87002547Y-68664047D01*
X87431119Y-69092619D02*
X86859690Y-68521190D01*
X86431119Y-69521190D02*
X87431119Y-69521190D01*
X86716833Y-69854523D01*
X87431119Y-70187857D01*
X86431119Y-70187857D01*
X87335880Y-70616428D02*
X87383500Y-70664047D01*
X87431119Y-70759285D01*
X87431119Y-70997380D01*
X87383500Y-71092619D01*
X87335880Y-71140238D01*
X87240642Y-71187857D01*
X87145404Y-71187857D01*
X87002547Y-71140238D01*
X86431119Y-70568809D01*
X86431119Y-71187857D01*
X87431119Y-71521190D02*
X87431119Y-72140238D01*
X87050166Y-71806904D01*
X87050166Y-71949761D01*
X87002547Y-72045000D01*
X86954928Y-72092619D01*
X86859690Y-72140238D01*
X86621595Y-72140238D01*
X86526357Y-72092619D01*
X86478738Y-72045000D01*
X86431119Y-71949761D01*
X86431119Y-71664047D01*
X86478738Y-71568809D01*
X86526357Y-71521190D01*
X86526357Y-73140238D02*
X86478738Y-73092619D01*
X86431119Y-72949761D01*
X86431119Y-72854523D01*
X86478738Y-72711666D01*
X86573976Y-72616428D01*
X86669214Y-72568809D01*
X86859690Y-72521190D01*
X87002547Y-72521190D01*
X87193023Y-72568809D01*
X87288261Y-72616428D01*
X87383500Y-72711666D01*
X87431119Y-72854523D01*
X87431119Y-72949761D01*
X87383500Y-73092619D01*
X87335880Y-73140238D01*
X87431119Y-73473571D02*
X87431119Y-74092619D01*
X87050166Y-73759285D01*
X87050166Y-73902142D01*
X87002547Y-73997380D01*
X86954928Y-74045000D01*
X86859690Y-74092619D01*
X86621595Y-74092619D01*
X86526357Y-74045000D01*
X86478738Y-73997380D01*
X86431119Y-73902142D01*
X86431119Y-73616428D01*
X86478738Y-73521190D01*
X86526357Y-73473571D01*
X87335880Y-74473571D02*
X87383500Y-74521190D01*
X87431119Y-74616428D01*
X87431119Y-74854523D01*
X87383500Y-74949761D01*
X87335880Y-74997380D01*
X87240642Y-75045000D01*
X87145404Y-75045000D01*
X87002547Y-74997380D01*
X86431119Y-74425952D01*
X86431119Y-75045000D01*
X87431119Y-75664047D02*
X87431119Y-75759285D01*
X87383500Y-75854523D01*
X87335880Y-75902142D01*
X87240642Y-75949761D01*
X87050166Y-75997380D01*
X86812071Y-75997380D01*
X86621595Y-75949761D01*
X86526357Y-75902142D01*
X86478738Y-75854523D01*
X86431119Y-75759285D01*
X86431119Y-75664047D01*
X86478738Y-75568809D01*
X86526357Y-75521190D01*
X86621595Y-75473571D01*
X86812071Y-75425952D01*
X87050166Y-75425952D01*
X87240642Y-75473571D01*
X87335880Y-75521190D01*
X87383500Y-75568809D01*
X87431119Y-75664047D01*
X87431119Y-76616428D02*
X87431119Y-76711666D01*
X87383500Y-76806904D01*
X87335880Y-76854523D01*
X87240642Y-76902142D01*
X87050166Y-76949761D01*
X86812071Y-76949761D01*
X86621595Y-76902142D01*
X86526357Y-76854523D01*
X86478738Y-76806904D01*
X86431119Y-76711666D01*
X86431119Y-76616428D01*
X86478738Y-76521190D01*
X86526357Y-76473571D01*
X86621595Y-76425952D01*
X86812071Y-76378333D01*
X87050166Y-76378333D01*
X87240642Y-76425952D01*
X87335880Y-76473571D01*
X87383500Y-76521190D01*
X87431119Y-76616428D01*
X87431119Y-77568809D02*
X87431119Y-77664047D01*
X87383500Y-77759285D01*
X87335880Y-77806904D01*
X87240642Y-77854523D01*
X87050166Y-77902142D01*
X86812071Y-77902142D01*
X86621595Y-77854523D01*
X86526357Y-77806904D01*
X86478738Y-77759285D01*
X86431119Y-77664047D01*
X86431119Y-77568809D01*
X86478738Y-77473571D01*
X86526357Y-77425952D01*
X86621595Y-77378333D01*
X86812071Y-77330714D01*
X87050166Y-77330714D01*
X87240642Y-77378333D01*
X87335880Y-77425952D01*
X87383500Y-77473571D01*
X87431119Y-77568809D01*
X86716833Y-78283095D02*
X86716833Y-78759285D01*
X86431119Y-78187857D02*
X87431119Y-78521190D01*
X86431119Y-78854523D01*
X87383500Y-79711666D02*
X87431119Y-79616428D01*
X87431119Y-79473571D01*
X87383500Y-79330714D01*
X87288261Y-79235476D01*
X87193023Y-79187857D01*
X87002547Y-79140238D01*
X86859690Y-79140238D01*
X86669214Y-79187857D01*
X86573976Y-79235476D01*
X86478738Y-79330714D01*
X86431119Y-79473571D01*
X86431119Y-79568809D01*
X86478738Y-79711666D01*
X86526357Y-79759285D01*
X86859690Y-79759285D01*
X86859690Y-79568809D01*
X84821119Y-67378333D02*
X85344928Y-67378333D01*
X85440166Y-67330714D01*
X85487785Y-67235476D01*
X85487785Y-67045000D01*
X85440166Y-66949761D01*
X84868738Y-67378333D02*
X84821119Y-67283095D01*
X84821119Y-67045000D01*
X84868738Y-66949761D01*
X84963976Y-66902142D01*
X85059214Y-66902142D01*
X85154452Y-66949761D01*
X85202071Y-67045000D01*
X85202071Y-67283095D01*
X85249690Y-67378333D01*
X84821119Y-68283095D02*
X85821119Y-68283095D01*
X84868738Y-68283095D02*
X84821119Y-68187857D01*
X84821119Y-67997380D01*
X84868738Y-67902142D01*
X84916357Y-67854523D01*
X85011595Y-67806904D01*
X85297309Y-67806904D01*
X85392547Y-67854523D01*
X85440166Y-67902142D01*
X85487785Y-67997380D01*
X85487785Y-68187857D01*
X85440166Y-68283095D01*
X84821119Y-69187857D02*
X85344928Y-69187857D01*
X85440166Y-69140238D01*
X85487785Y-69045000D01*
X85487785Y-68854523D01*
X85440166Y-68759285D01*
X84868738Y-69187857D02*
X84821119Y-69092619D01*
X84821119Y-68854523D01*
X84868738Y-68759285D01*
X84963976Y-68711666D01*
X85059214Y-68711666D01*
X85154452Y-68759285D01*
X85202071Y-68854523D01*
X85202071Y-69092619D01*
X85249690Y-69187857D01*
X85487785Y-69664047D02*
X84487785Y-69664047D01*
X85440166Y-69664047D02*
X85487785Y-69759285D01*
X85487785Y-69949761D01*
X85440166Y-70045000D01*
X85392547Y-70092619D01*
X85297309Y-70140238D01*
X85011595Y-70140238D01*
X84916357Y-70092619D01*
X84868738Y-70045000D01*
X84821119Y-69949761D01*
X84821119Y-69759285D01*
X84868738Y-69664047D01*
X85487785Y-70425952D02*
X85487785Y-70806904D01*
X85821119Y-70568809D02*
X84963976Y-70568809D01*
X84868738Y-70616428D01*
X84821119Y-70711666D01*
X84821119Y-70806904D01*
X84868738Y-71521190D02*
X84821119Y-71425952D01*
X84821119Y-71235476D01*
X84868738Y-71140238D01*
X84963976Y-71092619D01*
X85344928Y-71092619D01*
X85440166Y-71140238D01*
X85487785Y-71235476D01*
X85487785Y-71425952D01*
X85440166Y-71521190D01*
X85344928Y-71568809D01*
X85249690Y-71568809D01*
X85154452Y-71092619D01*
X84821119Y-71997380D02*
X85487785Y-71997380D01*
X85297309Y-71997380D02*
X85392547Y-72045000D01*
X85440166Y-72092619D01*
X85487785Y-72187857D01*
X85487785Y-72283095D01*
X52586119Y-58616428D02*
X53586119Y-58616428D01*
X52871833Y-58949761D01*
X53586119Y-59283095D01*
X52586119Y-59283095D01*
X53490880Y-59711666D02*
X53538500Y-59759285D01*
X53586119Y-59854523D01*
X53586119Y-60092619D01*
X53538500Y-60187857D01*
X53490880Y-60235476D01*
X53395642Y-60283095D01*
X53300404Y-60283095D01*
X53157547Y-60235476D01*
X52586119Y-59664047D01*
X52586119Y-60283095D01*
X53586119Y-60616428D02*
X53586119Y-61283095D01*
X52586119Y-60854523D01*
X52681357Y-62235476D02*
X52633738Y-62187857D01*
X52586119Y-62044999D01*
X52586119Y-61949761D01*
X52633738Y-61806904D01*
X52728976Y-61711666D01*
X52824214Y-61664047D01*
X53014690Y-61616428D01*
X53157547Y-61616428D01*
X53348023Y-61664047D01*
X53443261Y-61711666D01*
X53538500Y-61806904D01*
X53586119Y-61949761D01*
X53586119Y-62044999D01*
X53538500Y-62187857D01*
X53490880Y-62235476D01*
X53586119Y-62568809D02*
X53586119Y-63187857D01*
X53205166Y-62854523D01*
X53205166Y-62997380D01*
X53157547Y-63092619D01*
X53109928Y-63140238D01*
X53014690Y-63187857D01*
X52776595Y-63187857D01*
X52681357Y-63140238D01*
X52633738Y-63092619D01*
X52586119Y-62997380D01*
X52586119Y-62711666D01*
X52633738Y-62616428D01*
X52681357Y-62568809D01*
X53490880Y-63568809D02*
X53538500Y-63616428D01*
X53586119Y-63711666D01*
X53586119Y-63949761D01*
X53538500Y-64044999D01*
X53490880Y-64092619D01*
X53395642Y-64140238D01*
X53300404Y-64140238D01*
X53157547Y-64092619D01*
X52586119Y-63521190D01*
X52586119Y-64140238D01*
X53490880Y-64521190D02*
X53538500Y-64568809D01*
X53586119Y-64664047D01*
X53586119Y-64902142D01*
X53538500Y-64997380D01*
X53490880Y-65044999D01*
X53395642Y-65092619D01*
X53300404Y-65092619D01*
X53157547Y-65044999D01*
X52586119Y-64473571D01*
X52586119Y-65092619D01*
X53252785Y-66140238D02*
X53252785Y-66521190D01*
X53586119Y-66283095D02*
X52728976Y-66283095D01*
X52633738Y-66330714D01*
X52586119Y-66425952D01*
X52586119Y-66521190D01*
X52586119Y-66997380D02*
X52633738Y-66902142D01*
X52681357Y-66854523D01*
X52776595Y-66806904D01*
X53062309Y-66806904D01*
X53157547Y-66854523D01*
X53205166Y-66902142D01*
X53252785Y-66997380D01*
X53252785Y-67140238D01*
X53205166Y-67235476D01*
X53157547Y-67283095D01*
X53062309Y-67330714D01*
X52776595Y-67330714D01*
X52681357Y-67283095D01*
X52633738Y-67235476D01*
X52586119Y-67140238D01*
X52586119Y-66997380D01*
X52586119Y-68521190D02*
X53586119Y-68521190D01*
X52586119Y-69092619D02*
X53157547Y-68664047D01*
X53586119Y-69092619D02*
X53014690Y-68521190D01*
X52586119Y-69521190D02*
X53586119Y-69521190D01*
X52871833Y-69854523D01*
X53586119Y-70187857D01*
X52586119Y-70187857D01*
X53490880Y-70616428D02*
X53538500Y-70664047D01*
X53586119Y-70759285D01*
X53586119Y-70997380D01*
X53538500Y-71092619D01*
X53490880Y-71140238D01*
X53395642Y-71187857D01*
X53300404Y-71187857D01*
X53157547Y-71140238D01*
X52586119Y-70568809D01*
X52586119Y-71187857D01*
X53586119Y-71521190D02*
X53586119Y-72140238D01*
X53205166Y-71806904D01*
X53205166Y-71949761D01*
X53157547Y-72045000D01*
X53109928Y-72092619D01*
X53014690Y-72140238D01*
X52776595Y-72140238D01*
X52681357Y-72092619D01*
X52633738Y-72045000D01*
X52586119Y-71949761D01*
X52586119Y-71664047D01*
X52633738Y-71568809D01*
X52681357Y-71521190D01*
X52681357Y-73140238D02*
X52633738Y-73092619D01*
X52586119Y-72949761D01*
X52586119Y-72854523D01*
X52633738Y-72711666D01*
X52728976Y-72616428D01*
X52824214Y-72568809D01*
X53014690Y-72521190D01*
X53157547Y-72521190D01*
X53348023Y-72568809D01*
X53443261Y-72616428D01*
X53538500Y-72711666D01*
X53586119Y-72854523D01*
X53586119Y-72949761D01*
X53538500Y-73092619D01*
X53490880Y-73140238D01*
X53586119Y-73473571D02*
X53586119Y-74092619D01*
X53205166Y-73759285D01*
X53205166Y-73902142D01*
X53157547Y-73997380D01*
X53109928Y-74045000D01*
X53014690Y-74092619D01*
X52776595Y-74092619D01*
X52681357Y-74045000D01*
X52633738Y-73997380D01*
X52586119Y-73902142D01*
X52586119Y-73616428D01*
X52633738Y-73521190D01*
X52681357Y-73473571D01*
X53490880Y-74473571D02*
X53538500Y-74521190D01*
X53586119Y-74616428D01*
X53586119Y-74854523D01*
X53538500Y-74949761D01*
X53490880Y-74997380D01*
X53395642Y-75045000D01*
X53300404Y-75045000D01*
X53157547Y-74997380D01*
X52586119Y-74425952D01*
X52586119Y-75045000D01*
X53586119Y-75664047D02*
X53586119Y-75759285D01*
X53538500Y-75854523D01*
X53490880Y-75902142D01*
X53395642Y-75949761D01*
X53205166Y-75997380D01*
X52967071Y-75997380D01*
X52776595Y-75949761D01*
X52681357Y-75902142D01*
X52633738Y-75854523D01*
X52586119Y-75759285D01*
X52586119Y-75664047D01*
X52633738Y-75568809D01*
X52681357Y-75521190D01*
X52776595Y-75473571D01*
X52967071Y-75425952D01*
X53205166Y-75425952D01*
X53395642Y-75473571D01*
X53490880Y-75521190D01*
X53538500Y-75568809D01*
X53586119Y-75664047D01*
X53586119Y-76616428D02*
X53586119Y-76711666D01*
X53538500Y-76806904D01*
X53490880Y-76854523D01*
X53395642Y-76902142D01*
X53205166Y-76949761D01*
X52967071Y-76949761D01*
X52776595Y-76902142D01*
X52681357Y-76854523D01*
X52633738Y-76806904D01*
X52586119Y-76711666D01*
X52586119Y-76616428D01*
X52633738Y-76521190D01*
X52681357Y-76473571D01*
X52776595Y-76425952D01*
X52967071Y-76378333D01*
X53205166Y-76378333D01*
X53395642Y-76425952D01*
X53490880Y-76473571D01*
X53538500Y-76521190D01*
X53586119Y-76616428D01*
X53586119Y-77568809D02*
X53586119Y-77664047D01*
X53538500Y-77759285D01*
X53490880Y-77806904D01*
X53395642Y-77854523D01*
X53205166Y-77902142D01*
X52967071Y-77902142D01*
X52776595Y-77854523D01*
X52681357Y-77806904D01*
X52633738Y-77759285D01*
X52586119Y-77664047D01*
X52586119Y-77568809D01*
X52633738Y-77473571D01*
X52681357Y-77425952D01*
X52776595Y-77378333D01*
X52967071Y-77330714D01*
X53205166Y-77330714D01*
X53395642Y-77378333D01*
X53490880Y-77425952D01*
X53538500Y-77473571D01*
X53586119Y-77568809D01*
X52871833Y-78283095D02*
X52871833Y-78759285D01*
X52586119Y-78187857D02*
X53586119Y-78521190D01*
X52586119Y-78854523D01*
X53538500Y-79711666D02*
X53586119Y-79616428D01*
X53586119Y-79473571D01*
X53538500Y-79330714D01*
X53443261Y-79235476D01*
X53348023Y-79187857D01*
X53157547Y-79140238D01*
X53014690Y-79140238D01*
X52824214Y-79187857D01*
X52728976Y-79235476D01*
X52633738Y-79330714D01*
X52586119Y-79473571D01*
X52586119Y-79568809D01*
X52633738Y-79711666D01*
X52681357Y-79759285D01*
X53014690Y-79759285D01*
X53014690Y-79568809D01*
X50976119Y-67378333D02*
X51499928Y-67378333D01*
X51595166Y-67330714D01*
X51642785Y-67235476D01*
X51642785Y-67045000D01*
X51595166Y-66949761D01*
X51023738Y-67378333D02*
X50976119Y-67283095D01*
X50976119Y-67045000D01*
X51023738Y-66949761D01*
X51118976Y-66902142D01*
X51214214Y-66902142D01*
X51309452Y-66949761D01*
X51357071Y-67045000D01*
X51357071Y-67283095D01*
X51404690Y-67378333D01*
X50976119Y-68283095D02*
X51976119Y-68283095D01*
X51023738Y-68283095D02*
X50976119Y-68187857D01*
X50976119Y-67997380D01*
X51023738Y-67902142D01*
X51071357Y-67854523D01*
X51166595Y-67806904D01*
X51452309Y-67806904D01*
X51547547Y-67854523D01*
X51595166Y-67902142D01*
X51642785Y-67997380D01*
X51642785Y-68187857D01*
X51595166Y-68283095D01*
X50976119Y-69187857D02*
X51499928Y-69187857D01*
X51595166Y-69140238D01*
X51642785Y-69045000D01*
X51642785Y-68854523D01*
X51595166Y-68759285D01*
X51023738Y-69187857D02*
X50976119Y-69092619D01*
X50976119Y-68854523D01*
X51023738Y-68759285D01*
X51118976Y-68711666D01*
X51214214Y-68711666D01*
X51309452Y-68759285D01*
X51357071Y-68854523D01*
X51357071Y-69092619D01*
X51404690Y-69187857D01*
X51642785Y-69664047D02*
X50642785Y-69664047D01*
X51595166Y-69664047D02*
X51642785Y-69759285D01*
X51642785Y-69949761D01*
X51595166Y-70045000D01*
X51547547Y-70092619D01*
X51452309Y-70140238D01*
X51166595Y-70140238D01*
X51071357Y-70092619D01*
X51023738Y-70045000D01*
X50976119Y-69949761D01*
X50976119Y-69759285D01*
X51023738Y-69664047D01*
X51642785Y-70425952D02*
X51642785Y-70806904D01*
X51976119Y-70568809D02*
X51118976Y-70568809D01*
X51023738Y-70616428D01*
X50976119Y-70711666D01*
X50976119Y-70806904D01*
X51023738Y-71521190D02*
X50976119Y-71425952D01*
X50976119Y-71235476D01*
X51023738Y-71140238D01*
X51118976Y-71092619D01*
X51499928Y-71092619D01*
X51595166Y-71140238D01*
X51642785Y-71235476D01*
X51642785Y-71425952D01*
X51595166Y-71521190D01*
X51499928Y-71568809D01*
X51404690Y-71568809D01*
X51309452Y-71092619D01*
X50976119Y-71997380D02*
X51642785Y-71997380D01*
X51452309Y-71997380D02*
X51547547Y-72045000D01*
X51595166Y-72092619D01*
X51642785Y-72187857D01*
X51642785Y-72283095D01*
X69508619Y-58616428D02*
X70508619Y-58616428D01*
X69794333Y-58949761D01*
X70508619Y-59283095D01*
X69508619Y-59283095D01*
X70413380Y-59711666D02*
X70461000Y-59759285D01*
X70508619Y-59854523D01*
X70508619Y-60092619D01*
X70461000Y-60187857D01*
X70413380Y-60235476D01*
X70318142Y-60283095D01*
X70222904Y-60283095D01*
X70080047Y-60235476D01*
X69508619Y-59664047D01*
X69508619Y-60283095D01*
X70508619Y-60616428D02*
X70508619Y-61283095D01*
X69508619Y-60854523D01*
X69603857Y-62235476D02*
X69556238Y-62187857D01*
X69508619Y-62044999D01*
X69508619Y-61949761D01*
X69556238Y-61806904D01*
X69651476Y-61711666D01*
X69746714Y-61664047D01*
X69937190Y-61616428D01*
X70080047Y-61616428D01*
X70270523Y-61664047D01*
X70365761Y-61711666D01*
X70461000Y-61806904D01*
X70508619Y-61949761D01*
X70508619Y-62044999D01*
X70461000Y-62187857D01*
X70413380Y-62235476D01*
X70508619Y-62568809D02*
X70508619Y-63187857D01*
X70127666Y-62854523D01*
X70127666Y-62997380D01*
X70080047Y-63092619D01*
X70032428Y-63140238D01*
X69937190Y-63187857D01*
X69699095Y-63187857D01*
X69603857Y-63140238D01*
X69556238Y-63092619D01*
X69508619Y-62997380D01*
X69508619Y-62711666D01*
X69556238Y-62616428D01*
X69603857Y-62568809D01*
X70413380Y-63568809D02*
X70461000Y-63616428D01*
X70508619Y-63711666D01*
X70508619Y-63949761D01*
X70461000Y-64044999D01*
X70413380Y-64092619D01*
X70318142Y-64140238D01*
X70222904Y-64140238D01*
X70080047Y-64092619D01*
X69508619Y-63521190D01*
X69508619Y-64140238D01*
X70413380Y-64521190D02*
X70461000Y-64568809D01*
X70508619Y-64664047D01*
X70508619Y-64902142D01*
X70461000Y-64997380D01*
X70413380Y-65044999D01*
X70318142Y-65092619D01*
X70222904Y-65092619D01*
X70080047Y-65044999D01*
X69508619Y-64473571D01*
X69508619Y-65092619D01*
X70175285Y-66140238D02*
X70175285Y-66521190D01*
X70508619Y-66283095D02*
X69651476Y-66283095D01*
X69556238Y-66330714D01*
X69508619Y-66425952D01*
X69508619Y-66521190D01*
X69508619Y-66997380D02*
X69556238Y-66902142D01*
X69603857Y-66854523D01*
X69699095Y-66806904D01*
X69984809Y-66806904D01*
X70080047Y-66854523D01*
X70127666Y-66902142D01*
X70175285Y-66997380D01*
X70175285Y-67140238D01*
X70127666Y-67235476D01*
X70080047Y-67283095D01*
X69984809Y-67330714D01*
X69699095Y-67330714D01*
X69603857Y-67283095D01*
X69556238Y-67235476D01*
X69508619Y-67140238D01*
X69508619Y-66997380D01*
X69508619Y-68521190D02*
X70508619Y-68521190D01*
X69508619Y-69092619D02*
X70080047Y-68664047D01*
X70508619Y-69092619D02*
X69937190Y-68521190D01*
X69508619Y-69521190D02*
X70508619Y-69521190D01*
X69794333Y-69854523D01*
X70508619Y-70187857D01*
X69508619Y-70187857D01*
X70413380Y-70616428D02*
X70461000Y-70664047D01*
X70508619Y-70759285D01*
X70508619Y-70997380D01*
X70461000Y-71092619D01*
X70413380Y-71140238D01*
X70318142Y-71187857D01*
X70222904Y-71187857D01*
X70080047Y-71140238D01*
X69508619Y-70568809D01*
X69508619Y-71187857D01*
X70508619Y-71521190D02*
X70508619Y-72140238D01*
X70127666Y-71806904D01*
X70127666Y-71949761D01*
X70080047Y-72045000D01*
X70032428Y-72092619D01*
X69937190Y-72140238D01*
X69699095Y-72140238D01*
X69603857Y-72092619D01*
X69556238Y-72045000D01*
X69508619Y-71949761D01*
X69508619Y-71664047D01*
X69556238Y-71568809D01*
X69603857Y-71521190D01*
X69603857Y-73140238D02*
X69556238Y-73092619D01*
X69508619Y-72949761D01*
X69508619Y-72854523D01*
X69556238Y-72711666D01*
X69651476Y-72616428D01*
X69746714Y-72568809D01*
X69937190Y-72521190D01*
X70080047Y-72521190D01*
X70270523Y-72568809D01*
X70365761Y-72616428D01*
X70461000Y-72711666D01*
X70508619Y-72854523D01*
X70508619Y-72949761D01*
X70461000Y-73092619D01*
X70413380Y-73140238D01*
X70508619Y-73473571D02*
X70508619Y-74092619D01*
X70127666Y-73759285D01*
X70127666Y-73902142D01*
X70080047Y-73997380D01*
X70032428Y-74045000D01*
X69937190Y-74092619D01*
X69699095Y-74092619D01*
X69603857Y-74045000D01*
X69556238Y-73997380D01*
X69508619Y-73902142D01*
X69508619Y-73616428D01*
X69556238Y-73521190D01*
X69603857Y-73473571D01*
X70413380Y-74473571D02*
X70461000Y-74521190D01*
X70508619Y-74616428D01*
X70508619Y-74854523D01*
X70461000Y-74949761D01*
X70413380Y-74997380D01*
X70318142Y-75045000D01*
X70222904Y-75045000D01*
X70080047Y-74997380D01*
X69508619Y-74425952D01*
X69508619Y-75045000D01*
X70508619Y-75664047D02*
X70508619Y-75759285D01*
X70461000Y-75854523D01*
X70413380Y-75902142D01*
X70318142Y-75949761D01*
X70127666Y-75997380D01*
X69889571Y-75997380D01*
X69699095Y-75949761D01*
X69603857Y-75902142D01*
X69556238Y-75854523D01*
X69508619Y-75759285D01*
X69508619Y-75664047D01*
X69556238Y-75568809D01*
X69603857Y-75521190D01*
X69699095Y-75473571D01*
X69889571Y-75425952D01*
X70127666Y-75425952D01*
X70318142Y-75473571D01*
X70413380Y-75521190D01*
X70461000Y-75568809D01*
X70508619Y-75664047D01*
X70508619Y-76616428D02*
X70508619Y-76711666D01*
X70461000Y-76806904D01*
X70413380Y-76854523D01*
X70318142Y-76902142D01*
X70127666Y-76949761D01*
X69889571Y-76949761D01*
X69699095Y-76902142D01*
X69603857Y-76854523D01*
X69556238Y-76806904D01*
X69508619Y-76711666D01*
X69508619Y-76616428D01*
X69556238Y-76521190D01*
X69603857Y-76473571D01*
X69699095Y-76425952D01*
X69889571Y-76378333D01*
X70127666Y-76378333D01*
X70318142Y-76425952D01*
X70413380Y-76473571D01*
X70461000Y-76521190D01*
X70508619Y-76616428D01*
X70508619Y-77568809D02*
X70508619Y-77664047D01*
X70461000Y-77759285D01*
X70413380Y-77806904D01*
X70318142Y-77854523D01*
X70127666Y-77902142D01*
X69889571Y-77902142D01*
X69699095Y-77854523D01*
X69603857Y-77806904D01*
X69556238Y-77759285D01*
X69508619Y-77664047D01*
X69508619Y-77568809D01*
X69556238Y-77473571D01*
X69603857Y-77425952D01*
X69699095Y-77378333D01*
X69889571Y-77330714D01*
X70127666Y-77330714D01*
X70318142Y-77378333D01*
X70413380Y-77425952D01*
X70461000Y-77473571D01*
X70508619Y-77568809D01*
X69794333Y-78283095D02*
X69794333Y-78759285D01*
X69508619Y-78187857D02*
X70508619Y-78521190D01*
X69508619Y-78854523D01*
X70461000Y-79711666D02*
X70508619Y-79616428D01*
X70508619Y-79473571D01*
X70461000Y-79330714D01*
X70365761Y-79235476D01*
X70270523Y-79187857D01*
X70080047Y-79140238D01*
X69937190Y-79140238D01*
X69746714Y-79187857D01*
X69651476Y-79235476D01*
X69556238Y-79330714D01*
X69508619Y-79473571D01*
X69508619Y-79568809D01*
X69556238Y-79711666D01*
X69603857Y-79759285D01*
X69937190Y-79759285D01*
X69937190Y-79568809D01*
X67898619Y-67378333D02*
X68422428Y-67378333D01*
X68517666Y-67330714D01*
X68565285Y-67235476D01*
X68565285Y-67045000D01*
X68517666Y-66949761D01*
X67946238Y-67378333D02*
X67898619Y-67283095D01*
X67898619Y-67045000D01*
X67946238Y-66949761D01*
X68041476Y-66902142D01*
X68136714Y-66902142D01*
X68231952Y-66949761D01*
X68279571Y-67045000D01*
X68279571Y-67283095D01*
X68327190Y-67378333D01*
X67898619Y-68283095D02*
X68898619Y-68283095D01*
X67946238Y-68283095D02*
X67898619Y-68187857D01*
X67898619Y-67997380D01*
X67946238Y-67902142D01*
X67993857Y-67854523D01*
X68089095Y-67806904D01*
X68374809Y-67806904D01*
X68470047Y-67854523D01*
X68517666Y-67902142D01*
X68565285Y-67997380D01*
X68565285Y-68187857D01*
X68517666Y-68283095D01*
X67898619Y-69187857D02*
X68422428Y-69187857D01*
X68517666Y-69140238D01*
X68565285Y-69045000D01*
X68565285Y-68854523D01*
X68517666Y-68759285D01*
X67946238Y-69187857D02*
X67898619Y-69092619D01*
X67898619Y-68854523D01*
X67946238Y-68759285D01*
X68041476Y-68711666D01*
X68136714Y-68711666D01*
X68231952Y-68759285D01*
X68279571Y-68854523D01*
X68279571Y-69092619D01*
X68327190Y-69187857D01*
X68565285Y-69664047D02*
X67565285Y-69664047D01*
X68517666Y-69664047D02*
X68565285Y-69759285D01*
X68565285Y-69949761D01*
X68517666Y-70045000D01*
X68470047Y-70092619D01*
X68374809Y-70140238D01*
X68089095Y-70140238D01*
X67993857Y-70092619D01*
X67946238Y-70045000D01*
X67898619Y-69949761D01*
X67898619Y-69759285D01*
X67946238Y-69664047D01*
X68565285Y-70425952D02*
X68565285Y-70806904D01*
X68898619Y-70568809D02*
X68041476Y-70568809D01*
X67946238Y-70616428D01*
X67898619Y-70711666D01*
X67898619Y-70806904D01*
X67946238Y-71521190D02*
X67898619Y-71425952D01*
X67898619Y-71235476D01*
X67946238Y-71140238D01*
X68041476Y-71092619D01*
X68422428Y-71092619D01*
X68517666Y-71140238D01*
X68565285Y-71235476D01*
X68565285Y-71425952D01*
X68517666Y-71521190D01*
X68422428Y-71568809D01*
X68327190Y-71568809D01*
X68231952Y-71092619D01*
X67898619Y-71997380D02*
X68565285Y-71997380D01*
X68374809Y-71997380D02*
X68470047Y-72045000D01*
X68517666Y-72092619D01*
X68565285Y-72187857D01*
X68565285Y-72283095D01*
X35663619Y-58616428D02*
X36663619Y-58616428D01*
X35949333Y-58949761D01*
X36663619Y-59283095D01*
X35663619Y-59283095D01*
X36568380Y-59711666D02*
X36616000Y-59759285D01*
X36663619Y-59854523D01*
X36663619Y-60092619D01*
X36616000Y-60187857D01*
X36568380Y-60235476D01*
X36473142Y-60283095D01*
X36377904Y-60283095D01*
X36235047Y-60235476D01*
X35663619Y-59664047D01*
X35663619Y-60283095D01*
X36663619Y-60616428D02*
X36663619Y-61283095D01*
X35663619Y-60854523D01*
X35758857Y-62235476D02*
X35711238Y-62187857D01*
X35663619Y-62045000D01*
X35663619Y-61949761D01*
X35711238Y-61806904D01*
X35806476Y-61711666D01*
X35901714Y-61664047D01*
X36092190Y-61616428D01*
X36235047Y-61616428D01*
X36425523Y-61664047D01*
X36520761Y-61711666D01*
X36616000Y-61806904D01*
X36663619Y-61949761D01*
X36663619Y-62045000D01*
X36616000Y-62187857D01*
X36568380Y-62235476D01*
X36663619Y-62568809D02*
X36663619Y-63187857D01*
X36282666Y-62854523D01*
X36282666Y-62997380D01*
X36235047Y-63092619D01*
X36187428Y-63140238D01*
X36092190Y-63187857D01*
X35854095Y-63187857D01*
X35758857Y-63140238D01*
X35711238Y-63092619D01*
X35663619Y-62997380D01*
X35663619Y-62711666D01*
X35711238Y-62616428D01*
X35758857Y-62568809D01*
X36568380Y-63568809D02*
X36616000Y-63616428D01*
X36663619Y-63711666D01*
X36663619Y-63949761D01*
X36616000Y-64045000D01*
X36568380Y-64092619D01*
X36473142Y-64140238D01*
X36377904Y-64140238D01*
X36235047Y-64092619D01*
X35663619Y-63521190D01*
X35663619Y-64140238D01*
X36568380Y-64521190D02*
X36616000Y-64568809D01*
X36663619Y-64664047D01*
X36663619Y-64902142D01*
X36616000Y-64997380D01*
X36568380Y-65045000D01*
X36473142Y-65092619D01*
X36377904Y-65092619D01*
X36235047Y-65045000D01*
X35663619Y-64473571D01*
X35663619Y-65092619D01*
X36330285Y-66140238D02*
X36330285Y-66521190D01*
X36663619Y-66283095D02*
X35806476Y-66283095D01*
X35711238Y-66330714D01*
X35663619Y-66425952D01*
X35663619Y-66521190D01*
X35663619Y-66997380D02*
X35711238Y-66902142D01*
X35758857Y-66854523D01*
X35854095Y-66806904D01*
X36139809Y-66806904D01*
X36235047Y-66854523D01*
X36282666Y-66902142D01*
X36330285Y-66997380D01*
X36330285Y-67140238D01*
X36282666Y-67235476D01*
X36235047Y-67283095D01*
X36139809Y-67330714D01*
X35854095Y-67330714D01*
X35758857Y-67283095D01*
X35711238Y-67235476D01*
X35663619Y-67140238D01*
X35663619Y-66997380D01*
X35663619Y-68521190D02*
X36663619Y-68521190D01*
X35663619Y-69092619D02*
X36235047Y-68664047D01*
X36663619Y-69092619D02*
X36092190Y-68521190D01*
X35663619Y-69521190D02*
X36663619Y-69521190D01*
X35949333Y-69854523D01*
X36663619Y-70187857D01*
X35663619Y-70187857D01*
X36568380Y-70616428D02*
X36616000Y-70664047D01*
X36663619Y-70759285D01*
X36663619Y-70997380D01*
X36616000Y-71092619D01*
X36568380Y-71140238D01*
X36473142Y-71187857D01*
X36377904Y-71187857D01*
X36235047Y-71140238D01*
X35663619Y-70568809D01*
X35663619Y-71187857D01*
X36663619Y-71521190D02*
X36663619Y-72140238D01*
X36282666Y-71806904D01*
X36282666Y-71949761D01*
X36235047Y-72045000D01*
X36187428Y-72092619D01*
X36092190Y-72140238D01*
X35854095Y-72140238D01*
X35758857Y-72092619D01*
X35711238Y-72045000D01*
X35663619Y-71949761D01*
X35663619Y-71664047D01*
X35711238Y-71568809D01*
X35758857Y-71521190D01*
X35758857Y-73140238D02*
X35711238Y-73092619D01*
X35663619Y-72949761D01*
X35663619Y-72854523D01*
X35711238Y-72711666D01*
X35806476Y-72616428D01*
X35901714Y-72568809D01*
X36092190Y-72521190D01*
X36235047Y-72521190D01*
X36425523Y-72568809D01*
X36520761Y-72616428D01*
X36616000Y-72711666D01*
X36663619Y-72854523D01*
X36663619Y-72949761D01*
X36616000Y-73092619D01*
X36568380Y-73140238D01*
X36663619Y-73473571D02*
X36663619Y-74092619D01*
X36282666Y-73759285D01*
X36282666Y-73902142D01*
X36235047Y-73997380D01*
X36187428Y-74045000D01*
X36092190Y-74092619D01*
X35854095Y-74092619D01*
X35758857Y-74045000D01*
X35711238Y-73997380D01*
X35663619Y-73902142D01*
X35663619Y-73616428D01*
X35711238Y-73521190D01*
X35758857Y-73473571D01*
X36568380Y-74473571D02*
X36616000Y-74521190D01*
X36663619Y-74616428D01*
X36663619Y-74854523D01*
X36616000Y-74949761D01*
X36568380Y-74997380D01*
X36473142Y-75045000D01*
X36377904Y-75045000D01*
X36235047Y-74997380D01*
X35663619Y-74425952D01*
X35663619Y-75045000D01*
X36663619Y-75664047D02*
X36663619Y-75759285D01*
X36616000Y-75854523D01*
X36568380Y-75902142D01*
X36473142Y-75949761D01*
X36282666Y-75997380D01*
X36044571Y-75997380D01*
X35854095Y-75949761D01*
X35758857Y-75902142D01*
X35711238Y-75854523D01*
X35663619Y-75759285D01*
X35663619Y-75664047D01*
X35711238Y-75568809D01*
X35758857Y-75521190D01*
X35854095Y-75473571D01*
X36044571Y-75425952D01*
X36282666Y-75425952D01*
X36473142Y-75473571D01*
X36568380Y-75521190D01*
X36616000Y-75568809D01*
X36663619Y-75664047D01*
X36663619Y-76616428D02*
X36663619Y-76711666D01*
X36616000Y-76806904D01*
X36568380Y-76854523D01*
X36473142Y-76902142D01*
X36282666Y-76949761D01*
X36044571Y-76949761D01*
X35854095Y-76902142D01*
X35758857Y-76854523D01*
X35711238Y-76806904D01*
X35663619Y-76711666D01*
X35663619Y-76616428D01*
X35711238Y-76521190D01*
X35758857Y-76473571D01*
X35854095Y-76425952D01*
X36044571Y-76378333D01*
X36282666Y-76378333D01*
X36473142Y-76425952D01*
X36568380Y-76473571D01*
X36616000Y-76521190D01*
X36663619Y-76616428D01*
X36663619Y-77568809D02*
X36663619Y-77664047D01*
X36616000Y-77759285D01*
X36568380Y-77806904D01*
X36473142Y-77854523D01*
X36282666Y-77902142D01*
X36044571Y-77902142D01*
X35854095Y-77854523D01*
X35758857Y-77806904D01*
X35711238Y-77759285D01*
X35663619Y-77664047D01*
X35663619Y-77568809D01*
X35711238Y-77473571D01*
X35758857Y-77425952D01*
X35854095Y-77378333D01*
X36044571Y-77330714D01*
X36282666Y-77330714D01*
X36473142Y-77378333D01*
X36568380Y-77425952D01*
X36616000Y-77473571D01*
X36663619Y-77568809D01*
X35949333Y-78283095D02*
X35949333Y-78759285D01*
X35663619Y-78187857D02*
X36663619Y-78521190D01*
X35663619Y-78854523D01*
X36616000Y-79711666D02*
X36663619Y-79616428D01*
X36663619Y-79473571D01*
X36616000Y-79330714D01*
X36520761Y-79235476D01*
X36425523Y-79187857D01*
X36235047Y-79140238D01*
X36092190Y-79140238D01*
X35901714Y-79187857D01*
X35806476Y-79235476D01*
X35711238Y-79330714D01*
X35663619Y-79473571D01*
X35663619Y-79568809D01*
X35711238Y-79711666D01*
X35758857Y-79759285D01*
X36092190Y-79759285D01*
X36092190Y-79568809D01*
X34053619Y-67378333D02*
X34577428Y-67378333D01*
X34672666Y-67330714D01*
X34720285Y-67235476D01*
X34720285Y-67045000D01*
X34672666Y-66949761D01*
X34101238Y-67378333D02*
X34053619Y-67283095D01*
X34053619Y-67045000D01*
X34101238Y-66949761D01*
X34196476Y-66902142D01*
X34291714Y-66902142D01*
X34386952Y-66949761D01*
X34434571Y-67045000D01*
X34434571Y-67283095D01*
X34482190Y-67378333D01*
X34053619Y-68283095D02*
X35053619Y-68283095D01*
X34101238Y-68283095D02*
X34053619Y-68187857D01*
X34053619Y-67997380D01*
X34101238Y-67902142D01*
X34148857Y-67854523D01*
X34244095Y-67806904D01*
X34529809Y-67806904D01*
X34625047Y-67854523D01*
X34672666Y-67902142D01*
X34720285Y-67997380D01*
X34720285Y-68187857D01*
X34672666Y-68283095D01*
X34053619Y-69187857D02*
X34577428Y-69187857D01*
X34672666Y-69140238D01*
X34720285Y-69045000D01*
X34720285Y-68854523D01*
X34672666Y-68759285D01*
X34101238Y-69187857D02*
X34053619Y-69092619D01*
X34053619Y-68854523D01*
X34101238Y-68759285D01*
X34196476Y-68711666D01*
X34291714Y-68711666D01*
X34386952Y-68759285D01*
X34434571Y-68854523D01*
X34434571Y-69092619D01*
X34482190Y-69187857D01*
X34720285Y-69664047D02*
X33720285Y-69664047D01*
X34672666Y-69664047D02*
X34720285Y-69759285D01*
X34720285Y-69949761D01*
X34672666Y-70045000D01*
X34625047Y-70092619D01*
X34529809Y-70140238D01*
X34244095Y-70140238D01*
X34148857Y-70092619D01*
X34101238Y-70045000D01*
X34053619Y-69949761D01*
X34053619Y-69759285D01*
X34101238Y-69664047D01*
X34720285Y-70425952D02*
X34720285Y-70806904D01*
X35053619Y-70568809D02*
X34196476Y-70568809D01*
X34101238Y-70616428D01*
X34053619Y-70711666D01*
X34053619Y-70806904D01*
X34101238Y-71521190D02*
X34053619Y-71425952D01*
X34053619Y-71235476D01*
X34101238Y-71140238D01*
X34196476Y-71092619D01*
X34577428Y-71092619D01*
X34672666Y-71140238D01*
X34720285Y-71235476D01*
X34720285Y-71425952D01*
X34672666Y-71521190D01*
X34577428Y-71568809D01*
X34482190Y-71568809D01*
X34386952Y-71092619D01*
X34053619Y-71997380D02*
X34720285Y-71997380D01*
X34529809Y-71997380D02*
X34625047Y-72045000D01*
X34672666Y-72092619D01*
X34720285Y-72187857D01*
X34720285Y-72283095D01*
X103353619Y-26946428D02*
X104353619Y-26946428D01*
X103639333Y-27279761D01*
X104353619Y-27613095D01*
X103353619Y-27613095D01*
X104258380Y-28041666D02*
X104306000Y-28089285D01*
X104353619Y-28184523D01*
X104353619Y-28422619D01*
X104306000Y-28517857D01*
X104258380Y-28565476D01*
X104163142Y-28613095D01*
X104067904Y-28613095D01*
X103925047Y-28565476D01*
X103353619Y-27994047D01*
X103353619Y-28613095D01*
X104353619Y-28946428D02*
X104353619Y-29613095D01*
X103353619Y-29184523D01*
X103448857Y-30565476D02*
X103401238Y-30517857D01*
X103353619Y-30375000D01*
X103353619Y-30279761D01*
X103401238Y-30136904D01*
X103496476Y-30041666D01*
X103591714Y-29994047D01*
X103782190Y-29946428D01*
X103925047Y-29946428D01*
X104115523Y-29994047D01*
X104210761Y-30041666D01*
X104306000Y-30136904D01*
X104353619Y-30279761D01*
X104353619Y-30375000D01*
X104306000Y-30517857D01*
X104258380Y-30565476D01*
X104353619Y-30898809D02*
X104353619Y-31517857D01*
X103972666Y-31184523D01*
X103972666Y-31327380D01*
X103925047Y-31422619D01*
X103877428Y-31470238D01*
X103782190Y-31517857D01*
X103544095Y-31517857D01*
X103448857Y-31470238D01*
X103401238Y-31422619D01*
X103353619Y-31327380D01*
X103353619Y-31041666D01*
X103401238Y-30946428D01*
X103448857Y-30898809D01*
X104258380Y-31898809D02*
X104306000Y-31946428D01*
X104353619Y-32041666D01*
X104353619Y-32279761D01*
X104306000Y-32375000D01*
X104258380Y-32422619D01*
X104163142Y-32470238D01*
X104067904Y-32470238D01*
X103925047Y-32422619D01*
X103353619Y-31851190D01*
X103353619Y-32470238D01*
X104258380Y-32851190D02*
X104306000Y-32898809D01*
X104353619Y-32994047D01*
X104353619Y-33232142D01*
X104306000Y-33327380D01*
X104258380Y-33375000D01*
X104163142Y-33422619D01*
X104067904Y-33422619D01*
X103925047Y-33375000D01*
X103353619Y-32803571D01*
X103353619Y-33422619D01*
X104020285Y-34470238D02*
X104020285Y-34851190D01*
X104353619Y-34613095D02*
X103496476Y-34613095D01*
X103401238Y-34660714D01*
X103353619Y-34755952D01*
X103353619Y-34851190D01*
X103353619Y-35327380D02*
X103401238Y-35232142D01*
X103448857Y-35184523D01*
X103544095Y-35136904D01*
X103829809Y-35136904D01*
X103925047Y-35184523D01*
X103972666Y-35232142D01*
X104020285Y-35327380D01*
X104020285Y-35470238D01*
X103972666Y-35565476D01*
X103925047Y-35613095D01*
X103829809Y-35660714D01*
X103544095Y-35660714D01*
X103448857Y-35613095D01*
X103401238Y-35565476D01*
X103353619Y-35470238D01*
X103353619Y-35327380D01*
X103353619Y-36851190D02*
X104353619Y-36851190D01*
X103353619Y-37422619D02*
X103925047Y-36994047D01*
X104353619Y-37422619D02*
X103782190Y-36851190D01*
X103353619Y-37851190D02*
X104353619Y-37851190D01*
X103639333Y-38184523D01*
X104353619Y-38517857D01*
X103353619Y-38517857D01*
X104258380Y-38946428D02*
X104306000Y-38994047D01*
X104353619Y-39089285D01*
X104353619Y-39327380D01*
X104306000Y-39422619D01*
X104258380Y-39470238D01*
X104163142Y-39517857D01*
X104067904Y-39517857D01*
X103925047Y-39470238D01*
X103353619Y-38898809D01*
X103353619Y-39517857D01*
X104353619Y-39851190D02*
X104353619Y-40470238D01*
X103972666Y-40136904D01*
X103972666Y-40279761D01*
X103925047Y-40375000D01*
X103877428Y-40422619D01*
X103782190Y-40470238D01*
X103544095Y-40470238D01*
X103448857Y-40422619D01*
X103401238Y-40375000D01*
X103353619Y-40279761D01*
X103353619Y-39994047D01*
X103401238Y-39898809D01*
X103448857Y-39851190D01*
X103448857Y-41470238D02*
X103401238Y-41422619D01*
X103353619Y-41279761D01*
X103353619Y-41184523D01*
X103401238Y-41041666D01*
X103496476Y-40946428D01*
X103591714Y-40898809D01*
X103782190Y-40851190D01*
X103925047Y-40851190D01*
X104115523Y-40898809D01*
X104210761Y-40946428D01*
X104306000Y-41041666D01*
X104353619Y-41184523D01*
X104353619Y-41279761D01*
X104306000Y-41422619D01*
X104258380Y-41470238D01*
X104353619Y-41803571D02*
X104353619Y-42422619D01*
X103972666Y-42089285D01*
X103972666Y-42232142D01*
X103925047Y-42327380D01*
X103877428Y-42375000D01*
X103782190Y-42422619D01*
X103544095Y-42422619D01*
X103448857Y-42375000D01*
X103401238Y-42327380D01*
X103353619Y-42232142D01*
X103353619Y-41946428D01*
X103401238Y-41851190D01*
X103448857Y-41803571D01*
X104258380Y-42803571D02*
X104306000Y-42851190D01*
X104353619Y-42946428D01*
X104353619Y-43184523D01*
X104306000Y-43279761D01*
X104258380Y-43327380D01*
X104163142Y-43375000D01*
X104067904Y-43375000D01*
X103925047Y-43327380D01*
X103353619Y-42755952D01*
X103353619Y-43375000D01*
X104353619Y-43994047D02*
X104353619Y-44089285D01*
X104306000Y-44184523D01*
X104258380Y-44232142D01*
X104163142Y-44279761D01*
X103972666Y-44327380D01*
X103734571Y-44327380D01*
X103544095Y-44279761D01*
X103448857Y-44232142D01*
X103401238Y-44184523D01*
X103353619Y-44089285D01*
X103353619Y-43994047D01*
X103401238Y-43898809D01*
X103448857Y-43851190D01*
X103544095Y-43803571D01*
X103734571Y-43755952D01*
X103972666Y-43755952D01*
X104163142Y-43803571D01*
X104258380Y-43851190D01*
X104306000Y-43898809D01*
X104353619Y-43994047D01*
X104353619Y-44946428D02*
X104353619Y-45041666D01*
X104306000Y-45136904D01*
X104258380Y-45184523D01*
X104163142Y-45232142D01*
X103972666Y-45279761D01*
X103734571Y-45279761D01*
X103544095Y-45232142D01*
X103448857Y-45184523D01*
X103401238Y-45136904D01*
X103353619Y-45041666D01*
X103353619Y-44946428D01*
X103401238Y-44851190D01*
X103448857Y-44803571D01*
X103544095Y-44755952D01*
X103734571Y-44708333D01*
X103972666Y-44708333D01*
X104163142Y-44755952D01*
X104258380Y-44803571D01*
X104306000Y-44851190D01*
X104353619Y-44946428D01*
X104353619Y-45898809D02*
X104353619Y-45994047D01*
X104306000Y-46089285D01*
X104258380Y-46136904D01*
X104163142Y-46184523D01*
X103972666Y-46232142D01*
X103734571Y-46232142D01*
X103544095Y-46184523D01*
X103448857Y-46136904D01*
X103401238Y-46089285D01*
X103353619Y-45994047D01*
X103353619Y-45898809D01*
X103401238Y-45803571D01*
X103448857Y-45755952D01*
X103544095Y-45708333D01*
X103734571Y-45660714D01*
X103972666Y-45660714D01*
X104163142Y-45708333D01*
X104258380Y-45755952D01*
X104306000Y-45803571D01*
X104353619Y-45898809D01*
X103639333Y-46613095D02*
X103639333Y-47089285D01*
X103353619Y-46517857D02*
X104353619Y-46851190D01*
X103353619Y-47184523D01*
X104306000Y-48041666D02*
X104353619Y-47946428D01*
X104353619Y-47803571D01*
X104306000Y-47660714D01*
X104210761Y-47565476D01*
X104115523Y-47517857D01*
X103925047Y-47470238D01*
X103782190Y-47470238D01*
X103591714Y-47517857D01*
X103496476Y-47565476D01*
X103401238Y-47660714D01*
X103353619Y-47803571D01*
X103353619Y-47898809D01*
X103401238Y-48041666D01*
X103448857Y-48089285D01*
X103782190Y-48089285D01*
X103782190Y-47898809D01*
X101743619Y-35708333D02*
X102267428Y-35708333D01*
X102362666Y-35660714D01*
X102410285Y-35565476D01*
X102410285Y-35375000D01*
X102362666Y-35279761D01*
X101791238Y-35708333D02*
X101743619Y-35613095D01*
X101743619Y-35375000D01*
X101791238Y-35279761D01*
X101886476Y-35232142D01*
X101981714Y-35232142D01*
X102076952Y-35279761D01*
X102124571Y-35375000D01*
X102124571Y-35613095D01*
X102172190Y-35708333D01*
X101743619Y-36613095D02*
X102743619Y-36613095D01*
X101791238Y-36613095D02*
X101743619Y-36517857D01*
X101743619Y-36327380D01*
X101791238Y-36232142D01*
X101838857Y-36184523D01*
X101934095Y-36136904D01*
X102219809Y-36136904D01*
X102315047Y-36184523D01*
X102362666Y-36232142D01*
X102410285Y-36327380D01*
X102410285Y-36517857D01*
X102362666Y-36613095D01*
X101743619Y-37517857D02*
X102267428Y-37517857D01*
X102362666Y-37470238D01*
X102410285Y-37375000D01*
X102410285Y-37184523D01*
X102362666Y-37089285D01*
X101791238Y-37517857D02*
X101743619Y-37422619D01*
X101743619Y-37184523D01*
X101791238Y-37089285D01*
X101886476Y-37041666D01*
X101981714Y-37041666D01*
X102076952Y-37089285D01*
X102124571Y-37184523D01*
X102124571Y-37422619D01*
X102172190Y-37517857D01*
X102410285Y-37994047D02*
X101410285Y-37994047D01*
X102362666Y-37994047D02*
X102410285Y-38089285D01*
X102410285Y-38279761D01*
X102362666Y-38375000D01*
X102315047Y-38422619D01*
X102219809Y-38470238D01*
X101934095Y-38470238D01*
X101838857Y-38422619D01*
X101791238Y-38375000D01*
X101743619Y-38279761D01*
X101743619Y-38089285D01*
X101791238Y-37994047D01*
X102410285Y-38755952D02*
X102410285Y-39136904D01*
X102743619Y-38898809D02*
X101886476Y-38898809D01*
X101791238Y-38946428D01*
X101743619Y-39041666D01*
X101743619Y-39136904D01*
X101791238Y-39851190D02*
X101743619Y-39755952D01*
X101743619Y-39565476D01*
X101791238Y-39470238D01*
X101886476Y-39422619D01*
X102267428Y-39422619D01*
X102362666Y-39470238D01*
X102410285Y-39565476D01*
X102410285Y-39755952D01*
X102362666Y-39851190D01*
X102267428Y-39898809D01*
X102172190Y-39898809D01*
X102076952Y-39422619D01*
X101743619Y-40327380D02*
X102410285Y-40327380D01*
X102219809Y-40327380D02*
X102315047Y-40375000D01*
X102362666Y-40422619D01*
X102410285Y-40517857D01*
X102410285Y-40613095D01*
X69508619Y-26946428D02*
X70508619Y-26946428D01*
X69794333Y-27279761D01*
X70508619Y-27613095D01*
X69508619Y-27613095D01*
X70413380Y-28041666D02*
X70461000Y-28089285D01*
X70508619Y-28184523D01*
X70508619Y-28422619D01*
X70461000Y-28517857D01*
X70413380Y-28565476D01*
X70318142Y-28613095D01*
X70222904Y-28613095D01*
X70080047Y-28565476D01*
X69508619Y-27994047D01*
X69508619Y-28613095D01*
X70508619Y-28946428D02*
X70508619Y-29613095D01*
X69508619Y-29184523D01*
X69603857Y-30565476D02*
X69556238Y-30517857D01*
X69508619Y-30374999D01*
X69508619Y-30279761D01*
X69556238Y-30136904D01*
X69651476Y-30041666D01*
X69746714Y-29994047D01*
X69937190Y-29946428D01*
X70080047Y-29946428D01*
X70270523Y-29994047D01*
X70365761Y-30041666D01*
X70461000Y-30136904D01*
X70508619Y-30279761D01*
X70508619Y-30374999D01*
X70461000Y-30517857D01*
X70413380Y-30565476D01*
X70508619Y-30898809D02*
X70508619Y-31517857D01*
X70127666Y-31184523D01*
X70127666Y-31327380D01*
X70080047Y-31422619D01*
X70032428Y-31470238D01*
X69937190Y-31517857D01*
X69699095Y-31517857D01*
X69603857Y-31470238D01*
X69556238Y-31422619D01*
X69508619Y-31327380D01*
X69508619Y-31041666D01*
X69556238Y-30946428D01*
X69603857Y-30898809D01*
X70413380Y-31898809D02*
X70461000Y-31946428D01*
X70508619Y-32041666D01*
X70508619Y-32279761D01*
X70461000Y-32374999D01*
X70413380Y-32422619D01*
X70318142Y-32470238D01*
X70222904Y-32470238D01*
X70080047Y-32422619D01*
X69508619Y-31851190D01*
X69508619Y-32470238D01*
X70413380Y-32851190D02*
X70461000Y-32898809D01*
X70508619Y-32994047D01*
X70508619Y-33232142D01*
X70461000Y-33327380D01*
X70413380Y-33374999D01*
X70318142Y-33422619D01*
X70222904Y-33422619D01*
X70080047Y-33374999D01*
X69508619Y-32803571D01*
X69508619Y-33422619D01*
X70175285Y-34470238D02*
X70175285Y-34851190D01*
X70508619Y-34613095D02*
X69651476Y-34613095D01*
X69556238Y-34660714D01*
X69508619Y-34755952D01*
X69508619Y-34851190D01*
X69508619Y-35327380D02*
X69556238Y-35232142D01*
X69603857Y-35184523D01*
X69699095Y-35136904D01*
X69984809Y-35136904D01*
X70080047Y-35184523D01*
X70127666Y-35232142D01*
X70175285Y-35327380D01*
X70175285Y-35470238D01*
X70127666Y-35565476D01*
X70080047Y-35613095D01*
X69984809Y-35660714D01*
X69699095Y-35660714D01*
X69603857Y-35613095D01*
X69556238Y-35565476D01*
X69508619Y-35470238D01*
X69508619Y-35327380D01*
X69508619Y-36851190D02*
X70508619Y-36851190D01*
X69508619Y-37422619D02*
X70080047Y-36994047D01*
X70508619Y-37422619D02*
X69937190Y-36851190D01*
X69508619Y-37851190D02*
X70508619Y-37851190D01*
X69794333Y-38184523D01*
X70508619Y-38517857D01*
X69508619Y-38517857D01*
X70413380Y-38946428D02*
X70461000Y-38994047D01*
X70508619Y-39089285D01*
X70508619Y-39327380D01*
X70461000Y-39422619D01*
X70413380Y-39470238D01*
X70318142Y-39517857D01*
X70222904Y-39517857D01*
X70080047Y-39470238D01*
X69508619Y-38898809D01*
X69508619Y-39517857D01*
X70508619Y-39851190D02*
X70508619Y-40470238D01*
X70127666Y-40136904D01*
X70127666Y-40279761D01*
X70080047Y-40375000D01*
X70032428Y-40422619D01*
X69937190Y-40470238D01*
X69699095Y-40470238D01*
X69603857Y-40422619D01*
X69556238Y-40375000D01*
X69508619Y-40279761D01*
X69508619Y-39994047D01*
X69556238Y-39898809D01*
X69603857Y-39851190D01*
X69603857Y-41470238D02*
X69556238Y-41422619D01*
X69508619Y-41279761D01*
X69508619Y-41184523D01*
X69556238Y-41041666D01*
X69651476Y-40946428D01*
X69746714Y-40898809D01*
X69937190Y-40851190D01*
X70080047Y-40851190D01*
X70270523Y-40898809D01*
X70365761Y-40946428D01*
X70461000Y-41041666D01*
X70508619Y-41184523D01*
X70508619Y-41279761D01*
X70461000Y-41422619D01*
X70413380Y-41470238D01*
X70508619Y-41803571D02*
X70508619Y-42422619D01*
X70127666Y-42089285D01*
X70127666Y-42232142D01*
X70080047Y-42327380D01*
X70032428Y-42375000D01*
X69937190Y-42422619D01*
X69699095Y-42422619D01*
X69603857Y-42375000D01*
X69556238Y-42327380D01*
X69508619Y-42232142D01*
X69508619Y-41946428D01*
X69556238Y-41851190D01*
X69603857Y-41803571D01*
X70413380Y-42803571D02*
X70461000Y-42851190D01*
X70508619Y-42946428D01*
X70508619Y-43184523D01*
X70461000Y-43279761D01*
X70413380Y-43327380D01*
X70318142Y-43375000D01*
X70222904Y-43375000D01*
X70080047Y-43327380D01*
X69508619Y-42755952D01*
X69508619Y-43375000D01*
X70508619Y-43994047D02*
X70508619Y-44089285D01*
X70461000Y-44184523D01*
X70413380Y-44232142D01*
X70318142Y-44279761D01*
X70127666Y-44327380D01*
X69889571Y-44327380D01*
X69699095Y-44279761D01*
X69603857Y-44232142D01*
X69556238Y-44184523D01*
X69508619Y-44089285D01*
X69508619Y-43994047D01*
X69556238Y-43898809D01*
X69603857Y-43851190D01*
X69699095Y-43803571D01*
X69889571Y-43755952D01*
X70127666Y-43755952D01*
X70318142Y-43803571D01*
X70413380Y-43851190D01*
X70461000Y-43898809D01*
X70508619Y-43994047D01*
X70508619Y-44946428D02*
X70508619Y-45041666D01*
X70461000Y-45136904D01*
X70413380Y-45184523D01*
X70318142Y-45232142D01*
X70127666Y-45279761D01*
X69889571Y-45279761D01*
X69699095Y-45232142D01*
X69603857Y-45184523D01*
X69556238Y-45136904D01*
X69508619Y-45041666D01*
X69508619Y-44946428D01*
X69556238Y-44851190D01*
X69603857Y-44803571D01*
X69699095Y-44755952D01*
X69889571Y-44708333D01*
X70127666Y-44708333D01*
X70318142Y-44755952D01*
X70413380Y-44803571D01*
X70461000Y-44851190D01*
X70508619Y-44946428D01*
X70508619Y-45898809D02*
X70508619Y-45994047D01*
X70461000Y-46089285D01*
X70413380Y-46136904D01*
X70318142Y-46184523D01*
X70127666Y-46232142D01*
X69889571Y-46232142D01*
X69699095Y-46184523D01*
X69603857Y-46136904D01*
X69556238Y-46089285D01*
X69508619Y-45994047D01*
X69508619Y-45898809D01*
X69556238Y-45803571D01*
X69603857Y-45755952D01*
X69699095Y-45708333D01*
X69889571Y-45660714D01*
X70127666Y-45660714D01*
X70318142Y-45708333D01*
X70413380Y-45755952D01*
X70461000Y-45803571D01*
X70508619Y-45898809D01*
X69794333Y-46613095D02*
X69794333Y-47089285D01*
X69508619Y-46517857D02*
X70508619Y-46851190D01*
X69508619Y-47184523D01*
X70461000Y-48041666D02*
X70508619Y-47946428D01*
X70508619Y-47803571D01*
X70461000Y-47660714D01*
X70365761Y-47565476D01*
X70270523Y-47517857D01*
X70080047Y-47470238D01*
X69937190Y-47470238D01*
X69746714Y-47517857D01*
X69651476Y-47565476D01*
X69556238Y-47660714D01*
X69508619Y-47803571D01*
X69508619Y-47898809D01*
X69556238Y-48041666D01*
X69603857Y-48089285D01*
X69937190Y-48089285D01*
X69937190Y-47898809D01*
X67898619Y-35708333D02*
X68422428Y-35708333D01*
X68517666Y-35660714D01*
X68565285Y-35565476D01*
X68565285Y-35375000D01*
X68517666Y-35279761D01*
X67946238Y-35708333D02*
X67898619Y-35613095D01*
X67898619Y-35375000D01*
X67946238Y-35279761D01*
X68041476Y-35232142D01*
X68136714Y-35232142D01*
X68231952Y-35279761D01*
X68279571Y-35375000D01*
X68279571Y-35613095D01*
X68327190Y-35708333D01*
X67898619Y-36613095D02*
X68898619Y-36613095D01*
X67946238Y-36613095D02*
X67898619Y-36517857D01*
X67898619Y-36327380D01*
X67946238Y-36232142D01*
X67993857Y-36184523D01*
X68089095Y-36136904D01*
X68374809Y-36136904D01*
X68470047Y-36184523D01*
X68517666Y-36232142D01*
X68565285Y-36327380D01*
X68565285Y-36517857D01*
X68517666Y-36613095D01*
X67898619Y-37517857D02*
X68422428Y-37517857D01*
X68517666Y-37470238D01*
X68565285Y-37375000D01*
X68565285Y-37184523D01*
X68517666Y-37089285D01*
X67946238Y-37517857D02*
X67898619Y-37422619D01*
X67898619Y-37184523D01*
X67946238Y-37089285D01*
X68041476Y-37041666D01*
X68136714Y-37041666D01*
X68231952Y-37089285D01*
X68279571Y-37184523D01*
X68279571Y-37422619D01*
X68327190Y-37517857D01*
X68565285Y-37994047D02*
X67565285Y-37994047D01*
X68517666Y-37994047D02*
X68565285Y-38089285D01*
X68565285Y-38279761D01*
X68517666Y-38375000D01*
X68470047Y-38422619D01*
X68374809Y-38470238D01*
X68089095Y-38470238D01*
X67993857Y-38422619D01*
X67946238Y-38375000D01*
X67898619Y-38279761D01*
X67898619Y-38089285D01*
X67946238Y-37994047D01*
X68565285Y-38755952D02*
X68565285Y-39136904D01*
X68898619Y-38898809D02*
X68041476Y-38898809D01*
X67946238Y-38946428D01*
X67898619Y-39041666D01*
X67898619Y-39136904D01*
X67946238Y-39851190D02*
X67898619Y-39755952D01*
X67898619Y-39565476D01*
X67946238Y-39470238D01*
X68041476Y-39422619D01*
X68422428Y-39422619D01*
X68517666Y-39470238D01*
X68565285Y-39565476D01*
X68565285Y-39755952D01*
X68517666Y-39851190D01*
X68422428Y-39898809D01*
X68327190Y-39898809D01*
X68231952Y-39422619D01*
X67898619Y-40327380D02*
X68565285Y-40327380D01*
X68374809Y-40327380D02*
X68470047Y-40375000D01*
X68517666Y-40422619D01*
X68565285Y-40517857D01*
X68565285Y-40613095D01*
X86431119Y-26946428D02*
X87431119Y-26946428D01*
X86716833Y-27279761D01*
X87431119Y-27613095D01*
X86431119Y-27613095D01*
X87335880Y-28041666D02*
X87383500Y-28089285D01*
X87431119Y-28184523D01*
X87431119Y-28422619D01*
X87383500Y-28517857D01*
X87335880Y-28565476D01*
X87240642Y-28613095D01*
X87145404Y-28613095D01*
X87002547Y-28565476D01*
X86431119Y-27994047D01*
X86431119Y-28613095D01*
X87431119Y-28946428D02*
X87431119Y-29613095D01*
X86431119Y-29184523D01*
X86526357Y-30565476D02*
X86478738Y-30517857D01*
X86431119Y-30375000D01*
X86431119Y-30279761D01*
X86478738Y-30136904D01*
X86573976Y-30041666D01*
X86669214Y-29994047D01*
X86859690Y-29946428D01*
X87002547Y-29946428D01*
X87193023Y-29994047D01*
X87288261Y-30041666D01*
X87383500Y-30136904D01*
X87431119Y-30279761D01*
X87431119Y-30375000D01*
X87383500Y-30517857D01*
X87335880Y-30565476D01*
X87431119Y-30898809D02*
X87431119Y-31517857D01*
X87050166Y-31184523D01*
X87050166Y-31327380D01*
X87002547Y-31422619D01*
X86954928Y-31470238D01*
X86859690Y-31517857D01*
X86621595Y-31517857D01*
X86526357Y-31470238D01*
X86478738Y-31422619D01*
X86431119Y-31327380D01*
X86431119Y-31041666D01*
X86478738Y-30946428D01*
X86526357Y-30898809D01*
X87335880Y-31898809D02*
X87383500Y-31946428D01*
X87431119Y-32041666D01*
X87431119Y-32279761D01*
X87383500Y-32375000D01*
X87335880Y-32422619D01*
X87240642Y-32470238D01*
X87145404Y-32470238D01*
X87002547Y-32422619D01*
X86431119Y-31851190D01*
X86431119Y-32470238D01*
X87335880Y-32851190D02*
X87383500Y-32898809D01*
X87431119Y-32994047D01*
X87431119Y-33232142D01*
X87383500Y-33327380D01*
X87335880Y-33375000D01*
X87240642Y-33422619D01*
X87145404Y-33422619D01*
X87002547Y-33375000D01*
X86431119Y-32803571D01*
X86431119Y-33422619D01*
X87097785Y-34470238D02*
X87097785Y-34851190D01*
X87431119Y-34613095D02*
X86573976Y-34613095D01*
X86478738Y-34660714D01*
X86431119Y-34755952D01*
X86431119Y-34851190D01*
X86431119Y-35327380D02*
X86478738Y-35232142D01*
X86526357Y-35184523D01*
X86621595Y-35136904D01*
X86907309Y-35136904D01*
X87002547Y-35184523D01*
X87050166Y-35232142D01*
X87097785Y-35327380D01*
X87097785Y-35470238D01*
X87050166Y-35565476D01*
X87002547Y-35613095D01*
X86907309Y-35660714D01*
X86621595Y-35660714D01*
X86526357Y-35613095D01*
X86478738Y-35565476D01*
X86431119Y-35470238D01*
X86431119Y-35327380D01*
X86431119Y-36851190D02*
X87431119Y-36851190D01*
X86431119Y-37422619D02*
X87002547Y-36994047D01*
X87431119Y-37422619D02*
X86859690Y-36851190D01*
X86431119Y-37851190D02*
X87431119Y-37851190D01*
X86716833Y-38184523D01*
X87431119Y-38517857D01*
X86431119Y-38517857D01*
X87335880Y-38946428D02*
X87383500Y-38994047D01*
X87431119Y-39089285D01*
X87431119Y-39327380D01*
X87383500Y-39422619D01*
X87335880Y-39470238D01*
X87240642Y-39517857D01*
X87145404Y-39517857D01*
X87002547Y-39470238D01*
X86431119Y-38898809D01*
X86431119Y-39517857D01*
X87431119Y-39851190D02*
X87431119Y-40470238D01*
X87050166Y-40136904D01*
X87050166Y-40279761D01*
X87002547Y-40375000D01*
X86954928Y-40422619D01*
X86859690Y-40470238D01*
X86621595Y-40470238D01*
X86526357Y-40422619D01*
X86478738Y-40375000D01*
X86431119Y-40279761D01*
X86431119Y-39994047D01*
X86478738Y-39898809D01*
X86526357Y-39851190D01*
X86526357Y-41470238D02*
X86478738Y-41422619D01*
X86431119Y-41279761D01*
X86431119Y-41184523D01*
X86478738Y-41041666D01*
X86573976Y-40946428D01*
X86669214Y-40898809D01*
X86859690Y-40851190D01*
X87002547Y-40851190D01*
X87193023Y-40898809D01*
X87288261Y-40946428D01*
X87383500Y-41041666D01*
X87431119Y-41184523D01*
X87431119Y-41279761D01*
X87383500Y-41422619D01*
X87335880Y-41470238D01*
X87431119Y-41803571D02*
X87431119Y-42422619D01*
X87050166Y-42089285D01*
X87050166Y-42232142D01*
X87002547Y-42327380D01*
X86954928Y-42375000D01*
X86859690Y-42422619D01*
X86621595Y-42422619D01*
X86526357Y-42375000D01*
X86478738Y-42327380D01*
X86431119Y-42232142D01*
X86431119Y-41946428D01*
X86478738Y-41851190D01*
X86526357Y-41803571D01*
X87335880Y-42803571D02*
X87383500Y-42851190D01*
X87431119Y-42946428D01*
X87431119Y-43184523D01*
X87383500Y-43279761D01*
X87335880Y-43327380D01*
X87240642Y-43375000D01*
X87145404Y-43375000D01*
X87002547Y-43327380D01*
X86431119Y-42755952D01*
X86431119Y-43375000D01*
X87431119Y-43994047D02*
X87431119Y-44089285D01*
X87383500Y-44184523D01*
X87335880Y-44232142D01*
X87240642Y-44279761D01*
X87050166Y-44327380D01*
X86812071Y-44327380D01*
X86621595Y-44279761D01*
X86526357Y-44232142D01*
X86478738Y-44184523D01*
X86431119Y-44089285D01*
X86431119Y-43994047D01*
X86478738Y-43898809D01*
X86526357Y-43851190D01*
X86621595Y-43803571D01*
X86812071Y-43755952D01*
X87050166Y-43755952D01*
X87240642Y-43803571D01*
X87335880Y-43851190D01*
X87383500Y-43898809D01*
X87431119Y-43994047D01*
X87431119Y-44946428D02*
X87431119Y-45041666D01*
X87383500Y-45136904D01*
X87335880Y-45184523D01*
X87240642Y-45232142D01*
X87050166Y-45279761D01*
X86812071Y-45279761D01*
X86621595Y-45232142D01*
X86526357Y-45184523D01*
X86478738Y-45136904D01*
X86431119Y-45041666D01*
X86431119Y-44946428D01*
X86478738Y-44851190D01*
X86526357Y-44803571D01*
X86621595Y-44755952D01*
X86812071Y-44708333D01*
X87050166Y-44708333D01*
X87240642Y-44755952D01*
X87335880Y-44803571D01*
X87383500Y-44851190D01*
X87431119Y-44946428D01*
X87431119Y-45898809D02*
X87431119Y-45994047D01*
X87383500Y-46089285D01*
X87335880Y-46136904D01*
X87240642Y-46184523D01*
X87050166Y-46232142D01*
X86812071Y-46232142D01*
X86621595Y-46184523D01*
X86526357Y-46136904D01*
X86478738Y-46089285D01*
X86431119Y-45994047D01*
X86431119Y-45898809D01*
X86478738Y-45803571D01*
X86526357Y-45755952D01*
X86621595Y-45708333D01*
X86812071Y-45660714D01*
X87050166Y-45660714D01*
X87240642Y-45708333D01*
X87335880Y-45755952D01*
X87383500Y-45803571D01*
X87431119Y-45898809D01*
X86716833Y-46613095D02*
X86716833Y-47089285D01*
X86431119Y-46517857D02*
X87431119Y-46851190D01*
X86431119Y-47184523D01*
X87383500Y-48041666D02*
X87431119Y-47946428D01*
X87431119Y-47803571D01*
X87383500Y-47660714D01*
X87288261Y-47565476D01*
X87193023Y-47517857D01*
X87002547Y-47470238D01*
X86859690Y-47470238D01*
X86669214Y-47517857D01*
X86573976Y-47565476D01*
X86478738Y-47660714D01*
X86431119Y-47803571D01*
X86431119Y-47898809D01*
X86478738Y-48041666D01*
X86526357Y-48089285D01*
X86859690Y-48089285D01*
X86859690Y-47898809D01*
X84821119Y-35708333D02*
X85344928Y-35708333D01*
X85440166Y-35660714D01*
X85487785Y-35565476D01*
X85487785Y-35375000D01*
X85440166Y-35279761D01*
X84868738Y-35708333D02*
X84821119Y-35613095D01*
X84821119Y-35375000D01*
X84868738Y-35279761D01*
X84963976Y-35232142D01*
X85059214Y-35232142D01*
X85154452Y-35279761D01*
X85202071Y-35375000D01*
X85202071Y-35613095D01*
X85249690Y-35708333D01*
X84821119Y-36613095D02*
X85821119Y-36613095D01*
X84868738Y-36613095D02*
X84821119Y-36517857D01*
X84821119Y-36327380D01*
X84868738Y-36232142D01*
X84916357Y-36184523D01*
X85011595Y-36136904D01*
X85297309Y-36136904D01*
X85392547Y-36184523D01*
X85440166Y-36232142D01*
X85487785Y-36327380D01*
X85487785Y-36517857D01*
X85440166Y-36613095D01*
X84821119Y-37517857D02*
X85344928Y-37517857D01*
X85440166Y-37470238D01*
X85487785Y-37375000D01*
X85487785Y-37184523D01*
X85440166Y-37089285D01*
X84868738Y-37517857D02*
X84821119Y-37422619D01*
X84821119Y-37184523D01*
X84868738Y-37089285D01*
X84963976Y-37041666D01*
X85059214Y-37041666D01*
X85154452Y-37089285D01*
X85202071Y-37184523D01*
X85202071Y-37422619D01*
X85249690Y-37517857D01*
X85487785Y-37994047D02*
X84487785Y-37994047D01*
X85440166Y-37994047D02*
X85487785Y-38089285D01*
X85487785Y-38279761D01*
X85440166Y-38375000D01*
X85392547Y-38422619D01*
X85297309Y-38470238D01*
X85011595Y-38470238D01*
X84916357Y-38422619D01*
X84868738Y-38375000D01*
X84821119Y-38279761D01*
X84821119Y-38089285D01*
X84868738Y-37994047D01*
X85487785Y-38755952D02*
X85487785Y-39136904D01*
X85821119Y-38898809D02*
X84963976Y-38898809D01*
X84868738Y-38946428D01*
X84821119Y-39041666D01*
X84821119Y-39136904D01*
X84868738Y-39851190D02*
X84821119Y-39755952D01*
X84821119Y-39565476D01*
X84868738Y-39470238D01*
X84963976Y-39422619D01*
X85344928Y-39422619D01*
X85440166Y-39470238D01*
X85487785Y-39565476D01*
X85487785Y-39755952D01*
X85440166Y-39851190D01*
X85344928Y-39898809D01*
X85249690Y-39898809D01*
X85154452Y-39422619D01*
X84821119Y-40327380D02*
X85487785Y-40327380D01*
X85297309Y-40327380D02*
X85392547Y-40375000D01*
X85440166Y-40422619D01*
X85487785Y-40517857D01*
X85487785Y-40613095D01*
X52586119Y-26946428D02*
X53586119Y-26946428D01*
X52871833Y-27279761D01*
X53586119Y-27613095D01*
X52586119Y-27613095D01*
X53490880Y-28041666D02*
X53538500Y-28089285D01*
X53586119Y-28184523D01*
X53586119Y-28422619D01*
X53538500Y-28517857D01*
X53490880Y-28565476D01*
X53395642Y-28613095D01*
X53300404Y-28613095D01*
X53157547Y-28565476D01*
X52586119Y-27994047D01*
X52586119Y-28613095D01*
X53586119Y-28946428D02*
X53586119Y-29613095D01*
X52586119Y-29184523D01*
X52681357Y-30565476D02*
X52633738Y-30517857D01*
X52586119Y-30374999D01*
X52586119Y-30279761D01*
X52633738Y-30136904D01*
X52728976Y-30041666D01*
X52824214Y-29994047D01*
X53014690Y-29946428D01*
X53157547Y-29946428D01*
X53348023Y-29994047D01*
X53443261Y-30041666D01*
X53538500Y-30136904D01*
X53586119Y-30279761D01*
X53586119Y-30374999D01*
X53538500Y-30517857D01*
X53490880Y-30565476D01*
X53586119Y-30898809D02*
X53586119Y-31517857D01*
X53205166Y-31184523D01*
X53205166Y-31327380D01*
X53157547Y-31422619D01*
X53109928Y-31470238D01*
X53014690Y-31517857D01*
X52776595Y-31517857D01*
X52681357Y-31470238D01*
X52633738Y-31422619D01*
X52586119Y-31327380D01*
X52586119Y-31041666D01*
X52633738Y-30946428D01*
X52681357Y-30898809D01*
X53490880Y-31898809D02*
X53538500Y-31946428D01*
X53586119Y-32041666D01*
X53586119Y-32279761D01*
X53538500Y-32374999D01*
X53490880Y-32422619D01*
X53395642Y-32470238D01*
X53300404Y-32470238D01*
X53157547Y-32422619D01*
X52586119Y-31851190D01*
X52586119Y-32470238D01*
X53490880Y-32851190D02*
X53538500Y-32898809D01*
X53586119Y-32994047D01*
X53586119Y-33232142D01*
X53538500Y-33327380D01*
X53490880Y-33374999D01*
X53395642Y-33422619D01*
X53300404Y-33422619D01*
X53157547Y-33374999D01*
X52586119Y-32803571D01*
X52586119Y-33422619D01*
X53252785Y-34470238D02*
X53252785Y-34851190D01*
X53586119Y-34613095D02*
X52728976Y-34613095D01*
X52633738Y-34660714D01*
X52586119Y-34755952D01*
X52586119Y-34851190D01*
X52586119Y-35327380D02*
X52633738Y-35232142D01*
X52681357Y-35184523D01*
X52776595Y-35136904D01*
X53062309Y-35136904D01*
X53157547Y-35184523D01*
X53205166Y-35232142D01*
X53252785Y-35327380D01*
X53252785Y-35470238D01*
X53205166Y-35565476D01*
X53157547Y-35613095D01*
X53062309Y-35660714D01*
X52776595Y-35660714D01*
X52681357Y-35613095D01*
X52633738Y-35565476D01*
X52586119Y-35470238D01*
X52586119Y-35327380D01*
X52586119Y-36851190D02*
X53586119Y-36851190D01*
X52586119Y-37422619D02*
X53157547Y-36994047D01*
X53586119Y-37422619D02*
X53014690Y-36851190D01*
X52586119Y-37851190D02*
X53586119Y-37851190D01*
X52871833Y-38184523D01*
X53586119Y-38517857D01*
X52586119Y-38517857D01*
X53490880Y-38946428D02*
X53538500Y-38994047D01*
X53586119Y-39089285D01*
X53586119Y-39327380D01*
X53538500Y-39422619D01*
X53490880Y-39470238D01*
X53395642Y-39517857D01*
X53300404Y-39517857D01*
X53157547Y-39470238D01*
X52586119Y-38898809D01*
X52586119Y-39517857D01*
X53586119Y-39851190D02*
X53586119Y-40470238D01*
X53205166Y-40136904D01*
X53205166Y-40279761D01*
X53157547Y-40374999D01*
X53109928Y-40422619D01*
X53014690Y-40470238D01*
X52776595Y-40470238D01*
X52681357Y-40422619D01*
X52633738Y-40374999D01*
X52586119Y-40279761D01*
X52586119Y-39994047D01*
X52633738Y-39898809D01*
X52681357Y-39851190D01*
X52681357Y-41470238D02*
X52633738Y-41422619D01*
X52586119Y-41279761D01*
X52586119Y-41184523D01*
X52633738Y-41041666D01*
X52728976Y-40946428D01*
X52824214Y-40898809D01*
X53014690Y-40851190D01*
X53157547Y-40851190D01*
X53348023Y-40898809D01*
X53443261Y-40946428D01*
X53538500Y-41041666D01*
X53586119Y-41184523D01*
X53586119Y-41279761D01*
X53538500Y-41422619D01*
X53490880Y-41470238D01*
X53586119Y-41803571D02*
X53586119Y-42422619D01*
X53205166Y-42089285D01*
X53205166Y-42232142D01*
X53157547Y-42327380D01*
X53109928Y-42374999D01*
X53014690Y-42422619D01*
X52776595Y-42422619D01*
X52681357Y-42374999D01*
X52633738Y-42327380D01*
X52586119Y-42232142D01*
X52586119Y-41946428D01*
X52633738Y-41851190D01*
X52681357Y-41803571D01*
X53490880Y-42803571D02*
X53538500Y-42851190D01*
X53586119Y-42946428D01*
X53586119Y-43184523D01*
X53538500Y-43279761D01*
X53490880Y-43327380D01*
X53395642Y-43374999D01*
X53300404Y-43374999D01*
X53157547Y-43327380D01*
X52586119Y-42755952D01*
X52586119Y-43374999D01*
X53586119Y-43994047D02*
X53586119Y-44089285D01*
X53538500Y-44184523D01*
X53490880Y-44232142D01*
X53395642Y-44279761D01*
X53205166Y-44327380D01*
X52967071Y-44327380D01*
X52776595Y-44279761D01*
X52681357Y-44232142D01*
X52633738Y-44184523D01*
X52586119Y-44089285D01*
X52586119Y-43994047D01*
X52633738Y-43898809D01*
X52681357Y-43851190D01*
X52776595Y-43803571D01*
X52967071Y-43755952D01*
X53205166Y-43755952D01*
X53395642Y-43803571D01*
X53490880Y-43851190D01*
X53538500Y-43898809D01*
X53586119Y-43994047D01*
X53586119Y-44946428D02*
X53586119Y-45041666D01*
X53538500Y-45136904D01*
X53490880Y-45184523D01*
X53395642Y-45232142D01*
X53205166Y-45279761D01*
X52967071Y-45279761D01*
X52776595Y-45232142D01*
X52681357Y-45184523D01*
X52633738Y-45136904D01*
X52586119Y-45041666D01*
X52586119Y-44946428D01*
X52633738Y-44851190D01*
X52681357Y-44803571D01*
X52776595Y-44755952D01*
X52967071Y-44708333D01*
X53205166Y-44708333D01*
X53395642Y-44755952D01*
X53490880Y-44803571D01*
X53538500Y-44851190D01*
X53586119Y-44946428D01*
X53586119Y-45898809D02*
X53586119Y-45994047D01*
X53538500Y-46089285D01*
X53490880Y-46136904D01*
X53395642Y-46184523D01*
X53205166Y-46232142D01*
X52967071Y-46232142D01*
X52776595Y-46184523D01*
X52681357Y-46136904D01*
X52633738Y-46089285D01*
X52586119Y-45994047D01*
X52586119Y-45898809D01*
X52633738Y-45803571D01*
X52681357Y-45755952D01*
X52776595Y-45708333D01*
X52967071Y-45660714D01*
X53205166Y-45660714D01*
X53395642Y-45708333D01*
X53490880Y-45755952D01*
X53538500Y-45803571D01*
X53586119Y-45898809D01*
X52871833Y-46613095D02*
X52871833Y-47089285D01*
X52586119Y-46517857D02*
X53586119Y-46851190D01*
X52586119Y-47184523D01*
X53538500Y-48041666D02*
X53586119Y-47946428D01*
X53586119Y-47803571D01*
X53538500Y-47660714D01*
X53443261Y-47565476D01*
X53348023Y-47517857D01*
X53157547Y-47470238D01*
X53014690Y-47470238D01*
X52824214Y-47517857D01*
X52728976Y-47565476D01*
X52633738Y-47660714D01*
X52586119Y-47803571D01*
X52586119Y-47898809D01*
X52633738Y-48041666D01*
X52681357Y-48089285D01*
X53014690Y-48089285D01*
X53014690Y-47898809D01*
X50976119Y-35708333D02*
X51499928Y-35708333D01*
X51595166Y-35660714D01*
X51642785Y-35565476D01*
X51642785Y-35375000D01*
X51595166Y-35279761D01*
X51023738Y-35708333D02*
X50976119Y-35613095D01*
X50976119Y-35375000D01*
X51023738Y-35279761D01*
X51118976Y-35232142D01*
X51214214Y-35232142D01*
X51309452Y-35279761D01*
X51357071Y-35375000D01*
X51357071Y-35613095D01*
X51404690Y-35708333D01*
X50976119Y-36613095D02*
X51976119Y-36613095D01*
X51023738Y-36613095D02*
X50976119Y-36517857D01*
X50976119Y-36327380D01*
X51023738Y-36232142D01*
X51071357Y-36184523D01*
X51166595Y-36136904D01*
X51452309Y-36136904D01*
X51547547Y-36184523D01*
X51595166Y-36232142D01*
X51642785Y-36327380D01*
X51642785Y-36517857D01*
X51595166Y-36613095D01*
X50976119Y-37517857D02*
X51499928Y-37517857D01*
X51595166Y-37470238D01*
X51642785Y-37375000D01*
X51642785Y-37184523D01*
X51595166Y-37089285D01*
X51023738Y-37517857D02*
X50976119Y-37422619D01*
X50976119Y-37184523D01*
X51023738Y-37089285D01*
X51118976Y-37041666D01*
X51214214Y-37041666D01*
X51309452Y-37089285D01*
X51357071Y-37184523D01*
X51357071Y-37422619D01*
X51404690Y-37517857D01*
X51642785Y-37994047D02*
X50642785Y-37994047D01*
X51595166Y-37994047D02*
X51642785Y-38089285D01*
X51642785Y-38279761D01*
X51595166Y-38375000D01*
X51547547Y-38422619D01*
X51452309Y-38470238D01*
X51166595Y-38470238D01*
X51071357Y-38422619D01*
X51023738Y-38375000D01*
X50976119Y-38279761D01*
X50976119Y-38089285D01*
X51023738Y-37994047D01*
X51642785Y-38755952D02*
X51642785Y-39136904D01*
X51976119Y-38898809D02*
X51118976Y-38898809D01*
X51023738Y-38946428D01*
X50976119Y-39041666D01*
X50976119Y-39136904D01*
X51023738Y-39851190D02*
X50976119Y-39755952D01*
X50976119Y-39565476D01*
X51023738Y-39470238D01*
X51118976Y-39422619D01*
X51499928Y-39422619D01*
X51595166Y-39470238D01*
X51642785Y-39565476D01*
X51642785Y-39755952D01*
X51595166Y-39851190D01*
X51499928Y-39898809D01*
X51404690Y-39898809D01*
X51309452Y-39422619D01*
X50976119Y-40327380D02*
X51642785Y-40327380D01*
X51452309Y-40327380D02*
X51547547Y-40375000D01*
X51595166Y-40422619D01*
X51642785Y-40517857D01*
X51642785Y-40613095D01*
X35663619Y-26946428D02*
X36663619Y-26946428D01*
X35949333Y-27279761D01*
X36663619Y-27613095D01*
X35663619Y-27613095D01*
X36568380Y-28041666D02*
X36616000Y-28089285D01*
X36663619Y-28184523D01*
X36663619Y-28422619D01*
X36616000Y-28517857D01*
X36568380Y-28565476D01*
X36473142Y-28613095D01*
X36377904Y-28613095D01*
X36235047Y-28565476D01*
X35663619Y-27994047D01*
X35663619Y-28613095D01*
X36663619Y-28946428D02*
X36663619Y-29613095D01*
X35663619Y-29184523D01*
X35758857Y-30565476D02*
X35711238Y-30517857D01*
X35663619Y-30375000D01*
X35663619Y-30279761D01*
X35711238Y-30136904D01*
X35806476Y-30041666D01*
X35901714Y-29994047D01*
X36092190Y-29946428D01*
X36235047Y-29946428D01*
X36425523Y-29994047D01*
X36520761Y-30041666D01*
X36616000Y-30136904D01*
X36663619Y-30279761D01*
X36663619Y-30375000D01*
X36616000Y-30517857D01*
X36568380Y-30565476D01*
X36663619Y-30898809D02*
X36663619Y-31517857D01*
X36282666Y-31184523D01*
X36282666Y-31327380D01*
X36235047Y-31422619D01*
X36187428Y-31470238D01*
X36092190Y-31517857D01*
X35854095Y-31517857D01*
X35758857Y-31470238D01*
X35711238Y-31422619D01*
X35663619Y-31327380D01*
X35663619Y-31041666D01*
X35711238Y-30946428D01*
X35758857Y-30898809D01*
X36568380Y-31898809D02*
X36616000Y-31946428D01*
X36663619Y-32041666D01*
X36663619Y-32279761D01*
X36616000Y-32375000D01*
X36568380Y-32422619D01*
X36473142Y-32470238D01*
X36377904Y-32470238D01*
X36235047Y-32422619D01*
X35663619Y-31851190D01*
X35663619Y-32470238D01*
X36568380Y-32851190D02*
X36616000Y-32898809D01*
X36663619Y-32994047D01*
X36663619Y-33232142D01*
X36616000Y-33327380D01*
X36568380Y-33375000D01*
X36473142Y-33422619D01*
X36377904Y-33422619D01*
X36235047Y-33375000D01*
X35663619Y-32803571D01*
X35663619Y-33422619D01*
X36330285Y-34470238D02*
X36330285Y-34851190D01*
X36663619Y-34613095D02*
X35806476Y-34613095D01*
X35711238Y-34660714D01*
X35663619Y-34755952D01*
X35663619Y-34851190D01*
X35663619Y-35327380D02*
X35711238Y-35232142D01*
X35758857Y-35184523D01*
X35854095Y-35136904D01*
X36139809Y-35136904D01*
X36235047Y-35184523D01*
X36282666Y-35232142D01*
X36330285Y-35327380D01*
X36330285Y-35470238D01*
X36282666Y-35565476D01*
X36235047Y-35613095D01*
X36139809Y-35660714D01*
X35854095Y-35660714D01*
X35758857Y-35613095D01*
X35711238Y-35565476D01*
X35663619Y-35470238D01*
X35663619Y-35327380D01*
X35663619Y-36851190D02*
X36663619Y-36851190D01*
X35663619Y-37422619D02*
X36235047Y-36994047D01*
X36663619Y-37422619D02*
X36092190Y-36851190D01*
X35663619Y-37851190D02*
X36663619Y-37851190D01*
X35949333Y-38184523D01*
X36663619Y-38517857D01*
X35663619Y-38517857D01*
X36568380Y-38946428D02*
X36616000Y-38994047D01*
X36663619Y-39089285D01*
X36663619Y-39327380D01*
X36616000Y-39422619D01*
X36568380Y-39470238D01*
X36473142Y-39517857D01*
X36377904Y-39517857D01*
X36235047Y-39470238D01*
X35663619Y-38898809D01*
X35663619Y-39517857D01*
X36663619Y-39851190D02*
X36663619Y-40470238D01*
X36282666Y-40136904D01*
X36282666Y-40279761D01*
X36235047Y-40375000D01*
X36187428Y-40422619D01*
X36092190Y-40470238D01*
X35854095Y-40470238D01*
X35758857Y-40422619D01*
X35711238Y-40375000D01*
X35663619Y-40279761D01*
X35663619Y-39994047D01*
X35711238Y-39898809D01*
X35758857Y-39851190D01*
X35758857Y-41470238D02*
X35711238Y-41422619D01*
X35663619Y-41279761D01*
X35663619Y-41184523D01*
X35711238Y-41041666D01*
X35806476Y-40946428D01*
X35901714Y-40898809D01*
X36092190Y-40851190D01*
X36235047Y-40851190D01*
X36425523Y-40898809D01*
X36520761Y-40946428D01*
X36616000Y-41041666D01*
X36663619Y-41184523D01*
X36663619Y-41279761D01*
X36616000Y-41422619D01*
X36568380Y-41470238D01*
X36663619Y-41803571D02*
X36663619Y-42422619D01*
X36282666Y-42089285D01*
X36282666Y-42232142D01*
X36235047Y-42327380D01*
X36187428Y-42375000D01*
X36092190Y-42422619D01*
X35854095Y-42422619D01*
X35758857Y-42375000D01*
X35711238Y-42327380D01*
X35663619Y-42232142D01*
X35663619Y-41946428D01*
X35711238Y-41851190D01*
X35758857Y-41803571D01*
X36568380Y-42803571D02*
X36616000Y-42851190D01*
X36663619Y-42946428D01*
X36663619Y-43184523D01*
X36616000Y-43279761D01*
X36568380Y-43327380D01*
X36473142Y-43375000D01*
X36377904Y-43375000D01*
X36235047Y-43327380D01*
X35663619Y-42755952D01*
X35663619Y-43375000D01*
X36663619Y-43994047D02*
X36663619Y-44089285D01*
X36616000Y-44184523D01*
X36568380Y-44232142D01*
X36473142Y-44279761D01*
X36282666Y-44327380D01*
X36044571Y-44327380D01*
X35854095Y-44279761D01*
X35758857Y-44232142D01*
X35711238Y-44184523D01*
X35663619Y-44089285D01*
X35663619Y-43994047D01*
X35711238Y-43898809D01*
X35758857Y-43851190D01*
X35854095Y-43803571D01*
X36044571Y-43755952D01*
X36282666Y-43755952D01*
X36473142Y-43803571D01*
X36568380Y-43851190D01*
X36616000Y-43898809D01*
X36663619Y-43994047D01*
X36663619Y-44946428D02*
X36663619Y-45041666D01*
X36616000Y-45136904D01*
X36568380Y-45184523D01*
X36473142Y-45232142D01*
X36282666Y-45279761D01*
X36044571Y-45279761D01*
X35854095Y-45232142D01*
X35758857Y-45184523D01*
X35711238Y-45136904D01*
X35663619Y-45041666D01*
X35663619Y-44946428D01*
X35711238Y-44851190D01*
X35758857Y-44803571D01*
X35854095Y-44755952D01*
X36044571Y-44708333D01*
X36282666Y-44708333D01*
X36473142Y-44755952D01*
X36568380Y-44803571D01*
X36616000Y-44851190D01*
X36663619Y-44946428D01*
X36663619Y-45898809D02*
X36663619Y-45994047D01*
X36616000Y-46089285D01*
X36568380Y-46136904D01*
X36473142Y-46184523D01*
X36282666Y-46232142D01*
X36044571Y-46232142D01*
X35854095Y-46184523D01*
X35758857Y-46136904D01*
X35711238Y-46089285D01*
X35663619Y-45994047D01*
X35663619Y-45898809D01*
X35711238Y-45803571D01*
X35758857Y-45755952D01*
X35854095Y-45708333D01*
X36044571Y-45660714D01*
X36282666Y-45660714D01*
X36473142Y-45708333D01*
X36568380Y-45755952D01*
X36616000Y-45803571D01*
X36663619Y-45898809D01*
X35949333Y-46613095D02*
X35949333Y-47089285D01*
X35663619Y-46517857D02*
X36663619Y-46851190D01*
X35663619Y-47184523D01*
X36616000Y-48041666D02*
X36663619Y-47946428D01*
X36663619Y-47803571D01*
X36616000Y-47660714D01*
X36520761Y-47565476D01*
X36425523Y-47517857D01*
X36235047Y-47470238D01*
X36092190Y-47470238D01*
X35901714Y-47517857D01*
X35806476Y-47565476D01*
X35711238Y-47660714D01*
X35663619Y-47803571D01*
X35663619Y-47898809D01*
X35711238Y-48041666D01*
X35758857Y-48089285D01*
X36092190Y-48089285D01*
X36092190Y-47898809D01*
X34053619Y-35708333D02*
X34577428Y-35708333D01*
X34672666Y-35660714D01*
X34720285Y-35565476D01*
X34720285Y-35375000D01*
X34672666Y-35279761D01*
X34101238Y-35708333D02*
X34053619Y-35613095D01*
X34053619Y-35375000D01*
X34101238Y-35279761D01*
X34196476Y-35232142D01*
X34291714Y-35232142D01*
X34386952Y-35279761D01*
X34434571Y-35375000D01*
X34434571Y-35613095D01*
X34482190Y-35708333D01*
X34053619Y-36613095D02*
X35053619Y-36613095D01*
X34101238Y-36613095D02*
X34053619Y-36517857D01*
X34053619Y-36327380D01*
X34101238Y-36232142D01*
X34148857Y-36184523D01*
X34244095Y-36136904D01*
X34529809Y-36136904D01*
X34625047Y-36184523D01*
X34672666Y-36232142D01*
X34720285Y-36327380D01*
X34720285Y-36517857D01*
X34672666Y-36613095D01*
X34053619Y-37517857D02*
X34577428Y-37517857D01*
X34672666Y-37470238D01*
X34720285Y-37375000D01*
X34720285Y-37184523D01*
X34672666Y-37089285D01*
X34101238Y-37517857D02*
X34053619Y-37422619D01*
X34053619Y-37184523D01*
X34101238Y-37089285D01*
X34196476Y-37041666D01*
X34291714Y-37041666D01*
X34386952Y-37089285D01*
X34434571Y-37184523D01*
X34434571Y-37422619D01*
X34482190Y-37517857D01*
X34720285Y-37994047D02*
X33720285Y-37994047D01*
X34672666Y-37994047D02*
X34720285Y-38089285D01*
X34720285Y-38279761D01*
X34672666Y-38375000D01*
X34625047Y-38422619D01*
X34529809Y-38470238D01*
X34244095Y-38470238D01*
X34148857Y-38422619D01*
X34101238Y-38375000D01*
X34053619Y-38279761D01*
X34053619Y-38089285D01*
X34101238Y-37994047D01*
X34720285Y-38755952D02*
X34720285Y-39136904D01*
X35053619Y-38898809D02*
X34196476Y-38898809D01*
X34101238Y-38946428D01*
X34053619Y-39041666D01*
X34053619Y-39136904D01*
X34101238Y-39851190D02*
X34053619Y-39755952D01*
X34053619Y-39565476D01*
X34101238Y-39470238D01*
X34196476Y-39422619D01*
X34577428Y-39422619D01*
X34672666Y-39470238D01*
X34720285Y-39565476D01*
X34720285Y-39755952D01*
X34672666Y-39851190D01*
X34577428Y-39898809D01*
X34482190Y-39898809D01*
X34386952Y-39422619D01*
X34053619Y-40327380D02*
X34720285Y-40327380D01*
X34529809Y-40327380D02*
X34625047Y-40375000D01*
X34672666Y-40422619D01*
X34720285Y-40517857D01*
X34720285Y-40613095D01*
X97661000Y-55285000D02*
X98111000Y-54835000D01*
X80738500Y-55285000D02*
X81188500Y-54835000D01*
X63816000Y-55285000D02*
X64266000Y-54835000D01*
X46893500Y-55285000D02*
X47343500Y-54835000D01*
X29971000Y-55285000D02*
X30421000Y-54835000D01*
X97661000Y-23615000D02*
X98111000Y-23165000D01*
X80738500Y-23615000D02*
X81188500Y-23165000D01*
X63816000Y-23615000D02*
X64266000Y-23165000D01*
X46893500Y-23615000D02*
X47343500Y-23165000D01*
X29971000Y-23615000D02*
X30421000Y-23165000D01*
X94121000Y-56085000D02*
X94841000Y-56085000D01*
X77198500Y-56085000D02*
X77918500Y-56085000D01*
X60276000Y-56085000D02*
X60996000Y-56085000D01*
X43353500Y-56085000D02*
X44073500Y-56085000D01*
X26431000Y-56085000D02*
X27151000Y-56085000D01*
X94121000Y-24415000D02*
X94841000Y-24415000D01*
X77198500Y-24415000D02*
X77918500Y-24415000D01*
X60276000Y-24415000D02*
X60996000Y-24415000D01*
X43353500Y-24415000D02*
X44073500Y-24415000D01*
X26431000Y-24415000D02*
X27151000Y-24415000D01*
X94151001Y-55745000D02*
G75*
G03*
X94151001Y-55745000I-905097J0D01*
G01*
X77228501Y-55745000D02*
G75*
G03*
X77228501Y-55745000I-905097J0D01*
G01*
X60306001Y-55745000D02*
G75*
G03*
X60306001Y-55745000I-905097J0D01*
G01*
X43383501Y-55745000D02*
G75*
G03*
X43383501Y-55745000I-905097J0D01*
G01*
X26461001Y-55745000D02*
G75*
G03*
X26461001Y-55745000I-905097J0D01*
G01*
X94151001Y-24075000D02*
G75*
G03*
X94151001Y-24075000I-905097J0D01*
G01*
X77228501Y-24075000D02*
G75*
G03*
X77228501Y-24075000I-905097J0D01*
G01*
X60306001Y-24075000D02*
G75*
G03*
X60306001Y-24075000I-905097J0D01*
G01*
X43383501Y-24075000D02*
G75*
G03*
X43383501Y-24075000I-905097J0D01*
G01*
X26461001Y-24075000D02*
G75*
G03*
X26461001Y-24075000I-905097J0D01*
G01*
X98111000Y-54835000D02*
X98581000Y-55305000D01*
X81188500Y-54835000D02*
X81658500Y-55305000D01*
X64266000Y-54835000D02*
X64736000Y-55305000D01*
X47343500Y-54835000D02*
X47813500Y-55305000D01*
X30421000Y-54835000D02*
X30891000Y-55305000D01*
X98111000Y-23165000D02*
X98581000Y-23635000D01*
X81188500Y-23165000D02*
X81658500Y-23635000D01*
X64266000Y-23165000D02*
X64736000Y-23635000D01*
X47343500Y-23165000D02*
X47813500Y-23635000D01*
X30421000Y-23165000D02*
X30891000Y-23635000D01*
X98581000Y-55305000D02*
X97661000Y-55305000D01*
X81658500Y-55305000D02*
X80738500Y-55305000D01*
X64736000Y-55305000D02*
X63816000Y-55305000D01*
X47813500Y-55305000D02*
X46893500Y-55305000D01*
X30891000Y-55305000D02*
X29971000Y-55305000D01*
X98581000Y-23635000D02*
X97661000Y-23635000D01*
X81658500Y-23635000D02*
X80738500Y-23635000D01*
X64736000Y-23635000D02*
X63816000Y-23635000D01*
X47813500Y-23635000D02*
X46893500Y-23635000D01*
X30891000Y-23635000D02*
X29971000Y-23635000D01*
%TO.C,J1*%
X51550166Y-23797380D02*
X51550166Y-24511666D01*
X51502547Y-24654523D01*
X51407309Y-24749761D01*
X51264452Y-24797380D01*
X51169214Y-24797380D01*
X52550166Y-24797380D02*
X51978738Y-24797380D01*
X52264452Y-24797380D02*
X52264452Y-23797380D01*
X52169214Y-23940238D01*
X52073976Y-24035476D01*
X51978738Y-24083095D01*
X68472666Y-23797380D02*
X68472666Y-24511666D01*
X68425047Y-24654523D01*
X68329809Y-24749761D01*
X68186952Y-24797380D01*
X68091714Y-24797380D01*
X69472666Y-24797380D02*
X68901238Y-24797380D01*
X69186952Y-24797380D02*
X69186952Y-23797380D01*
X69091714Y-23940238D01*
X68996476Y-24035476D01*
X68901238Y-24083095D01*
X68472666Y-55467380D02*
X68472666Y-56181666D01*
X68425047Y-56324523D01*
X68329809Y-56419761D01*
X68186952Y-56467380D01*
X68091714Y-56467380D01*
X69472666Y-56467380D02*
X68901238Y-56467380D01*
X69186952Y-56467380D02*
X69186952Y-55467380D01*
X69091714Y-55610238D01*
X68996476Y-55705476D01*
X68901238Y-55753095D01*
X85395166Y-23797380D02*
X85395166Y-24511666D01*
X85347547Y-24654523D01*
X85252309Y-24749761D01*
X85109452Y-24797380D01*
X85014214Y-24797380D01*
X86395166Y-24797380D02*
X85823738Y-24797380D01*
X86109452Y-24797380D02*
X86109452Y-23797380D01*
X86014214Y-23940238D01*
X85918976Y-24035476D01*
X85823738Y-24083095D01*
X102317666Y-23797380D02*
X102317666Y-24511666D01*
X102270047Y-24654523D01*
X102174809Y-24749761D01*
X102031952Y-24797380D01*
X101936714Y-24797380D01*
X103317666Y-24797380D02*
X102746238Y-24797380D01*
X103031952Y-24797380D02*
X103031952Y-23797380D01*
X102936714Y-23940238D01*
X102841476Y-24035476D01*
X102746238Y-24083095D01*
X51550166Y-55467380D02*
X51550166Y-56181666D01*
X51502547Y-56324523D01*
X51407309Y-56419761D01*
X51264452Y-56467380D01*
X51169214Y-56467380D01*
X52550166Y-56467380D02*
X51978738Y-56467380D01*
X52264452Y-56467380D02*
X52264452Y-55467380D01*
X52169214Y-55610238D01*
X52073976Y-55705476D01*
X51978738Y-55753095D01*
X85395166Y-55467380D02*
X85395166Y-56181666D01*
X85347547Y-56324523D01*
X85252309Y-56419761D01*
X85109452Y-56467380D01*
X85014214Y-56467380D01*
X86395166Y-56467380D02*
X85823738Y-56467380D01*
X86109452Y-56467380D02*
X86109452Y-55467380D01*
X86014214Y-55610238D01*
X85918976Y-55705476D01*
X85823738Y-55753095D01*
X34627666Y-55467380D02*
X34627666Y-56181666D01*
X34580047Y-56324523D01*
X34484809Y-56419761D01*
X34341952Y-56467380D01*
X34246714Y-56467380D01*
X35627666Y-56467380D02*
X35056238Y-56467380D01*
X35341952Y-56467380D02*
X35341952Y-55467380D01*
X35246714Y-55610238D01*
X35151476Y-55705476D01*
X35056238Y-55753095D01*
X34627666Y-23797380D02*
X34627666Y-24511666D01*
X34580047Y-24654523D01*
X34484809Y-24749761D01*
X34341952Y-24797380D01*
X34246714Y-24797380D01*
X35627666Y-24797380D02*
X35056238Y-24797380D01*
X35341952Y-24797380D02*
X35341952Y-23797380D01*
X35246714Y-23940238D01*
X35151476Y-24035476D01*
X35056238Y-24083095D01*
X102317666Y-55467380D02*
X102317666Y-56181666D01*
X102270047Y-56324523D01*
X102174809Y-56419761D01*
X102031952Y-56467380D01*
X101936714Y-56467380D01*
X103317666Y-56467380D02*
X102746238Y-56467380D01*
X103031952Y-56467380D02*
X103031952Y-55467380D01*
X102936714Y-55610238D01*
X102841476Y-55705476D01*
X102746238Y-55753095D01*
D11*
X46053500Y-23940000D02*
X46053500Y-24000000D01*
X46053500Y-50670000D02*
X46053500Y-50730000D01*
X48713500Y-23940000D02*
X48713500Y-24000000D01*
X46053500Y-50730000D02*
X48713500Y-50730000D01*
X48713500Y-24000000D02*
X50173500Y-24000000D01*
X46053500Y-23940000D02*
X48713500Y-23940000D01*
X48713500Y-50670000D02*
X48713500Y-50730000D01*
X62976000Y-50670000D02*
X62976000Y-50730000D01*
X62976000Y-23940000D02*
X62976000Y-24000000D01*
X62976000Y-50730000D02*
X65636000Y-50730000D01*
X65636000Y-23940000D02*
X65636000Y-24000000D01*
X65636000Y-24000000D02*
X67096000Y-24000000D01*
X62976000Y-23940000D02*
X65636000Y-23940000D01*
X65636000Y-50670000D02*
X65636000Y-50730000D01*
X65636000Y-55670000D02*
X67096000Y-55670000D01*
X62976000Y-55610000D02*
X62976000Y-55670000D01*
X65636000Y-82340000D02*
X65636000Y-82400000D01*
X62976000Y-82400000D02*
X65636000Y-82400000D01*
X62976000Y-55610000D02*
X65636000Y-55610000D01*
X65636000Y-55610000D02*
X65636000Y-55670000D01*
X62976000Y-82340000D02*
X62976000Y-82400000D01*
X79898500Y-23940000D02*
X79898500Y-24000000D01*
X79898500Y-50730000D02*
X82558500Y-50730000D01*
X79898500Y-50670000D02*
X79898500Y-50730000D01*
X79898500Y-23940000D02*
X82558500Y-23940000D01*
X82558500Y-24000000D02*
X84018500Y-24000000D01*
X82558500Y-50670000D02*
X82558500Y-50730000D01*
X82558500Y-23940000D02*
X82558500Y-24000000D01*
X96821000Y-23940000D02*
X99481000Y-23940000D01*
X99481000Y-24000000D02*
X100941000Y-24000000D01*
X96821000Y-50730000D02*
X99481000Y-50730000D01*
X99481000Y-23940000D02*
X99481000Y-24000000D01*
X96821000Y-23940000D02*
X96821000Y-24000000D01*
X99481000Y-50670000D02*
X99481000Y-50730000D01*
X96821000Y-50670000D02*
X96821000Y-50730000D01*
X48713500Y-82340000D02*
X48713500Y-82400000D01*
X46053500Y-55610000D02*
X48713500Y-55610000D01*
X46053500Y-55610000D02*
X46053500Y-55670000D01*
X46053500Y-82400000D02*
X48713500Y-82400000D01*
X48713500Y-55610000D02*
X48713500Y-55670000D01*
X46053500Y-82340000D02*
X46053500Y-82400000D01*
X48713500Y-55670000D02*
X50173500Y-55670000D01*
X79898500Y-55610000D02*
X82558500Y-55610000D01*
X79898500Y-82400000D02*
X82558500Y-82400000D01*
X82558500Y-55610000D02*
X82558500Y-55670000D01*
X82558500Y-55670000D02*
X84018500Y-55670000D01*
X79898500Y-82340000D02*
X79898500Y-82400000D01*
X82558500Y-82340000D02*
X82558500Y-82400000D01*
X79898500Y-55610000D02*
X79898500Y-55670000D01*
X29131000Y-55610000D02*
X29131000Y-55670000D01*
X31791000Y-82340000D02*
X31791000Y-82400000D01*
X29131000Y-82400000D02*
X31791000Y-82400000D01*
X29131000Y-82340000D02*
X29131000Y-82400000D01*
X31791000Y-55610000D02*
X31791000Y-55670000D01*
X31791000Y-55670000D02*
X33251000Y-55670000D01*
X29131000Y-55610000D02*
X31791000Y-55610000D01*
X29131000Y-23940000D02*
X31791000Y-23940000D01*
X29131000Y-23940000D02*
X29131000Y-24000000D01*
X31791000Y-50670000D02*
X31791000Y-50730000D01*
X29131000Y-50670000D02*
X29131000Y-50730000D01*
X31791000Y-23940000D02*
X31791000Y-24000000D01*
X29131000Y-50730000D02*
X31791000Y-50730000D01*
X31791000Y-24000000D02*
X33251000Y-24000000D01*
X99481000Y-55670000D02*
X100941000Y-55670000D01*
X96821000Y-82400000D02*
X99481000Y-82400000D01*
X96821000Y-55610000D02*
X99481000Y-55610000D01*
X96821000Y-82340000D02*
X96821000Y-82400000D01*
X99481000Y-55610000D02*
X99481000Y-55670000D01*
X96821000Y-55610000D02*
X96821000Y-55670000D01*
X99481000Y-82340000D02*
X99481000Y-82400000D01*
%TD*%
%LPC*%
D12*
%TO.C,REF\u002A\u002A*%
X17857142Y-23000000D03*
%TD*%
%TO.C,REF\u002A\u002A*%
X62488068Y-83340000D03*
%TD*%
%TO.C,REF\u002A\u002A*%
X80865113Y-54670000D03*
%TD*%
%TO.C,REF\u002A\u002A*%
X34461250Y-23000000D03*
%TD*%
%TO.C,REF\u002A\u002A*%
X44111022Y-51670000D03*
%TD*%
D13*
%TO.C,REF\u002A\u002A*%
X19000000Y-18350000D03*
%TD*%
D12*
%TO.C,REF\u002A\u002A*%
X61033522Y-83340000D03*
%TD*%
%TO.C,REF\u002A\u002A*%
X23000000Y-15000000D03*
%TD*%
%TO.C,REF\u002A\u002A*%
X31552159Y-51670000D03*
%TD*%
D14*
%TO.C,REF\u002A\u002A*%
X22000000Y-87990000D03*
%TD*%
D12*
%TO.C,REF\u002A\u002A*%
X61760795Y-51670000D03*
%TD*%
%TO.C,REF\u002A\u002A*%
X45565568Y-83340000D03*
%TD*%
%TO.C,REF\u002A\u002A*%
X61033522Y-54670000D03*
%TD*%
%TO.C,REF\u002A\u002A*%
X105612500Y-20000000D03*
%TD*%
%TO.C,REF\u002A\u002A*%
X32279431Y-51670000D03*
%TD*%
%TO.C,REF\u002A\u002A*%
X23000000Y-16428571D03*
%TD*%
D15*
%TO.C,U1*%
X73767500Y-55670000D03*
X73767500Y-56940000D03*
X73767500Y-58210000D03*
X73767500Y-59480000D03*
X73767500Y-60750000D03*
X73767500Y-62020000D03*
X73767500Y-63290000D03*
X73767500Y-64560000D03*
X73767500Y-65830000D03*
X73767500Y-67100000D03*
X73767500Y-68370000D03*
X73767500Y-69640000D03*
X73767500Y-70910000D03*
X73767500Y-72180000D03*
X73767500Y-73450000D03*
X73767500Y-74720000D03*
X73767500Y-75990000D03*
X73767500Y-77260000D03*
X73767500Y-78530000D03*
X73767500Y-79800000D03*
X73767500Y-81070000D03*
X73767500Y-82340000D03*
X88690000Y-82340000D03*
X88690000Y-81070000D03*
X88690000Y-79800000D03*
X88690000Y-78530000D03*
X88690000Y-77260000D03*
X88690000Y-75990000D03*
X88690000Y-74720000D03*
X88690000Y-73450000D03*
X88690000Y-72180000D03*
X88690000Y-70910000D03*
X88690000Y-69640000D03*
X88690000Y-68370000D03*
X88690000Y-67100000D03*
X88690000Y-65830000D03*
X88690000Y-64560000D03*
X88690000Y-63290000D03*
X88690000Y-62020000D03*
X88690000Y-60750000D03*
X88690000Y-59480000D03*
X88690000Y-58210000D03*
X88690000Y-56940000D03*
X88690000Y-55670000D03*
%TD*%
D12*
%TO.C,REF\u002A\u002A*%
X15714285Y-23000000D03*
%TD*%
%TO.C,REF\u002A\u002A*%
X19285714Y-83340000D03*
%TD*%
%TO.C,REF\u002A\u002A*%
X50656477Y-23000000D03*
%TD*%
%TO.C,REF\u002A\u002A*%
X80137840Y-51670000D03*
%TD*%
%TO.C,REF\u002A\u002A*%
X44838295Y-23000000D03*
%TD*%
%TO.C,REF\u002A\u002A*%
X68306250Y-54670000D03*
%TD*%
%TO.C,REF\u002A\u002A*%
X67578977Y-51670000D03*
%TD*%
D14*
%TO.C,REF\u002A\u002A*%
X22000000Y-18350000D03*
%TD*%
D12*
%TO.C,REF\u002A\u002A*%
X51383750Y-54670000D03*
%TD*%
%TO.C,REF\u002A\u002A*%
X97060340Y-23000000D03*
%TD*%
%TO.C,REF\u002A\u002A*%
X26461250Y-83340000D03*
%TD*%
D16*
%TO.C,J1*%
X45583500Y-24635000D03*
X45583500Y-25905000D03*
X45583500Y-27175000D03*
X45583500Y-28445000D03*
X45583500Y-29715000D03*
X45583500Y-30985000D03*
X45583500Y-32255000D03*
X45583500Y-33525000D03*
X45583500Y-34795000D03*
X45583500Y-36065000D03*
X45583500Y-37335000D03*
X45583500Y-38605000D03*
X45583500Y-39875000D03*
X45583500Y-41145000D03*
X45583500Y-42415000D03*
X45583500Y-43685000D03*
X45583500Y-44955000D03*
X45583500Y-46225000D03*
X45583500Y-47495000D03*
X45583500Y-48765000D03*
X45583500Y-50035000D03*
X49183500Y-50035000D03*
X49183500Y-48765000D03*
X49183500Y-47495000D03*
X49183500Y-46225000D03*
X49183500Y-44955000D03*
X49183500Y-43685000D03*
X49183500Y-42415000D03*
X49183500Y-41145000D03*
X49183500Y-39875000D03*
X49183500Y-38605000D03*
X49183500Y-37335000D03*
X49183500Y-36065000D03*
X49183500Y-34795000D03*
X49183500Y-33525000D03*
X49183500Y-32255000D03*
X49183500Y-30985000D03*
X49183500Y-29715000D03*
X49183500Y-28445000D03*
X49183500Y-27175000D03*
X49183500Y-25905000D03*
X49183500Y-24635000D03*
%TD*%
D12*
%TO.C,REF\u002A\u002A*%
X84501477Y-51670000D03*
%TD*%
D16*
%TO.C,J1*%
X62506000Y-24635000D03*
X62506000Y-25905000D03*
X62506000Y-27175000D03*
X62506000Y-28445000D03*
X62506000Y-29715000D03*
X62506000Y-30985000D03*
X62506000Y-32255000D03*
X62506000Y-33525000D03*
X62506000Y-34795000D03*
X62506000Y-36065000D03*
X62506000Y-37335000D03*
X62506000Y-38605000D03*
X62506000Y-39875000D03*
X62506000Y-41145000D03*
X62506000Y-42415000D03*
X62506000Y-43685000D03*
X62506000Y-44955000D03*
X62506000Y-46225000D03*
X62506000Y-47495000D03*
X62506000Y-48765000D03*
X62506000Y-50035000D03*
X66106000Y-50035000D03*
X66106000Y-48765000D03*
X66106000Y-47495000D03*
X66106000Y-46225000D03*
X66106000Y-44955000D03*
X66106000Y-43685000D03*
X66106000Y-42415000D03*
X66106000Y-41145000D03*
X66106000Y-39875000D03*
X66106000Y-38605000D03*
X66106000Y-37335000D03*
X66106000Y-36065000D03*
X66106000Y-34795000D03*
X66106000Y-33525000D03*
X66106000Y-32255000D03*
X66106000Y-30985000D03*
X66106000Y-29715000D03*
X66106000Y-28445000D03*
X66106000Y-27175000D03*
X66106000Y-25905000D03*
X66106000Y-24635000D03*
%TD*%
D12*
%TO.C,REF\u002A\u002A*%
X113612500Y-83340000D03*
%TD*%
%TO.C,REF\u002A\u002A*%
X65397159Y-83340000D03*
%TD*%
%TO.C,REF\u002A\u002A*%
X63942613Y-51670000D03*
%TD*%
%TO.C,REF\u002A\u002A*%
X60306250Y-83340000D03*
%TD*%
%TO.C,REF\u002A\u002A*%
X23000000Y-17142857D03*
%TD*%
D15*
%TO.C,U1*%
X39922500Y-55670000D03*
X39922500Y-56940000D03*
X39922500Y-58210000D03*
X39922500Y-59480000D03*
X39922500Y-60750000D03*
X39922500Y-62020000D03*
X39922500Y-63290000D03*
X39922500Y-64560000D03*
X39922500Y-65830000D03*
X39922500Y-67100000D03*
X39922500Y-68370000D03*
X39922500Y-69640000D03*
X39922500Y-70910000D03*
X39922500Y-72180000D03*
X39922500Y-73450000D03*
X39922500Y-74720000D03*
X39922500Y-75990000D03*
X39922500Y-77260000D03*
X39922500Y-78530000D03*
X39922500Y-79800000D03*
X39922500Y-81070000D03*
X39922500Y-82340000D03*
X54845000Y-82340000D03*
X54845000Y-81070000D03*
X54845000Y-79800000D03*
X54845000Y-78530000D03*
X54845000Y-77260000D03*
X54845000Y-75990000D03*
X54845000Y-74720000D03*
X54845000Y-73450000D03*
X54845000Y-72180000D03*
X54845000Y-70910000D03*
X54845000Y-69640000D03*
X54845000Y-68370000D03*
X54845000Y-67100000D03*
X54845000Y-65830000D03*
X54845000Y-64560000D03*
X54845000Y-63290000D03*
X54845000Y-62020000D03*
X54845000Y-60750000D03*
X54845000Y-59480000D03*
X54845000Y-58210000D03*
X54845000Y-56940000D03*
X54845000Y-55670000D03*
%TD*%
D12*
%TO.C,REF\u002A\u002A*%
X44838295Y-51670000D03*
%TD*%
%TO.C,REF\u002A\u002A*%
X101423977Y-51670000D03*
%TD*%
%TO.C,REF\u002A\u002A*%
X45565568Y-54670000D03*
%TD*%
%TO.C,REF\u002A\u002A*%
X82319659Y-51670000D03*
%TD*%
%TO.C,REF\u002A\u002A*%
X67578977Y-23000000D03*
%TD*%
%TO.C,REF\u002A\u002A*%
X77956022Y-51670000D03*
%TD*%
%TO.C,REF\u002A\u002A*%
X102151250Y-54670000D03*
%TD*%
%TO.C,REF\u002A\u002A*%
X81592386Y-54670000D03*
%TD*%
%TO.C,REF\u002A\u002A*%
X99242159Y-54670000D03*
%TD*%
%TO.C,REF\u002A\u002A*%
X77228750Y-23000000D03*
%TD*%
%TO.C,REF\u002A\u002A*%
X80865113Y-23000000D03*
%TD*%
%TO.C,REF\u002A\u002A*%
X23000000Y-15714285D03*
%TD*%
%TO.C,REF\u002A\u002A*%
X63942613Y-54670000D03*
%TD*%
%TO.C,REF\u002A\u002A*%
X78683295Y-83340000D03*
%TD*%
%TO.C,REF\u002A\u002A*%
X66851704Y-54670000D03*
%TD*%
%TO.C,REF\u002A\u002A*%
X45565568Y-23000000D03*
%TD*%
%TO.C,REF\u002A\u002A*%
X96333068Y-54670000D03*
%TD*%
%TO.C,REF\u002A\u002A*%
X81592386Y-83340000D03*
%TD*%
%TO.C,REF\u002A\u002A*%
X43383750Y-23000000D03*
%TD*%
%TO.C,REF\u002A\u002A*%
X105612500Y-90625714D03*
%TD*%
%TO.C,REF\u002A\u002A*%
X105612500Y-15714285D03*
%TD*%
%TO.C,REF\u002A\u002A*%
X110041071Y-83340000D03*
%TD*%
%TO.C,REF\u002A\u002A*%
X47747386Y-54670000D03*
%TD*%
%TO.C,REF\u002A\u002A*%
X98514886Y-51670000D03*
%TD*%
%TO.C,REF\u002A\u002A*%
X49201931Y-23000000D03*
%TD*%
%TO.C,REF\u002A\u002A*%
X83774204Y-54670000D03*
%TD*%
D13*
%TO.C,REF\u002A\u002A*%
X19000000Y-87990000D03*
%TD*%
D12*
%TO.C,REF\u002A\u002A*%
X99242159Y-23000000D03*
%TD*%
%TO.C,REF\u002A\u002A*%
X27188522Y-51670000D03*
%TD*%
%TO.C,REF\u002A\u002A*%
X30097613Y-54670000D03*
%TD*%
%TO.C,REF\u002A\u002A*%
X95605795Y-51670000D03*
%TD*%
%TO.C,REF\u002A\u002A*%
X33733977Y-51670000D03*
%TD*%
%TO.C,REF\u002A\u002A*%
X80865113Y-83340000D03*
%TD*%
%TO.C,REF\u002A\u002A*%
X64669886Y-51670000D03*
%TD*%
%TO.C,REF\u002A\u002A*%
X45565568Y-51670000D03*
%TD*%
%TO.C,REF\u002A\u002A*%
X97787613Y-54670000D03*
%TD*%
%TO.C,REF\u002A\u002A*%
X81592386Y-51670000D03*
%TD*%
%TO.C,REF\u002A\u002A*%
X27915795Y-83340000D03*
%TD*%
%TO.C,REF\u002A\u002A*%
X43383750Y-54670000D03*
%TD*%
%TO.C,REF\u002A\u002A*%
X48474659Y-23000000D03*
%TD*%
%TO.C,REF\u002A\u002A*%
X16428571Y-83340000D03*
%TD*%
%TO.C,REF\u002A\u002A*%
X20000000Y-23000000D03*
%TD*%
%TO.C,REF\u002A\u002A*%
X44111022Y-23000000D03*
%TD*%
D15*
%TO.C,U1*%
X90690000Y-55670000D03*
X90690000Y-56940000D03*
X90690000Y-58210000D03*
X90690000Y-59480000D03*
X90690000Y-60750000D03*
X90690000Y-62020000D03*
X90690000Y-63290000D03*
X90690000Y-64560000D03*
X90690000Y-65830000D03*
X90690000Y-67100000D03*
X90690000Y-68370000D03*
X90690000Y-69640000D03*
X90690000Y-70910000D03*
X90690000Y-72180000D03*
X90690000Y-73450000D03*
X90690000Y-74720000D03*
X90690000Y-75990000D03*
X90690000Y-77260000D03*
X90690000Y-78530000D03*
X90690000Y-79800000D03*
X90690000Y-81070000D03*
X90690000Y-82340000D03*
X105612500Y-82340000D03*
X105612500Y-81070000D03*
X105612500Y-79800000D03*
X105612500Y-78530000D03*
X105612500Y-77260000D03*
X105612500Y-75990000D03*
X105612500Y-74720000D03*
X105612500Y-73450000D03*
X105612500Y-72180000D03*
X105612500Y-70910000D03*
X105612500Y-69640000D03*
X105612500Y-68370000D03*
X105612500Y-67100000D03*
X105612500Y-65830000D03*
X105612500Y-64560000D03*
X105612500Y-63290000D03*
X105612500Y-62020000D03*
X105612500Y-60750000D03*
X105612500Y-59480000D03*
X105612500Y-58210000D03*
X105612500Y-56940000D03*
X105612500Y-55670000D03*
%TD*%
D12*
%TO.C,REF\u002A\u002A*%
X44838295Y-54670000D03*
%TD*%
%TO.C,REF\u002A\u002A*%
X17142857Y-23000000D03*
%TD*%
%TO.C,REF\u002A\u002A*%
X105612500Y-91340000D03*
%TD*%
%TO.C,REF\u002A\u002A*%
X51383750Y-51670000D03*
%TD*%
%TO.C,REF\u002A\u002A*%
X97060340Y-51670000D03*
%TD*%
%TO.C,REF\u002A\u002A*%
X67578977Y-54670000D03*
%TD*%
%TO.C,REF\u002A\u002A*%
X83774204Y-83340000D03*
%TD*%
%TO.C,REF\u002A\u002A*%
X15000000Y-83340000D03*
%TD*%
D16*
%TO.C,J1*%
X62506000Y-56305000D03*
X62506000Y-57575000D03*
X62506000Y-58845000D03*
X62506000Y-60115000D03*
X62506000Y-61385000D03*
X62506000Y-62655000D03*
X62506000Y-63925000D03*
X62506000Y-65195000D03*
X62506000Y-66465000D03*
X62506000Y-67735000D03*
X62506000Y-69005000D03*
X62506000Y-70275000D03*
X62506000Y-71545000D03*
X62506000Y-72815000D03*
X62506000Y-74085000D03*
X62506000Y-75355000D03*
X62506000Y-76625000D03*
X62506000Y-77895000D03*
X62506000Y-79165000D03*
X62506000Y-80435000D03*
X62506000Y-81705000D03*
X66106000Y-81705000D03*
X66106000Y-80435000D03*
X66106000Y-79165000D03*
X66106000Y-77895000D03*
X66106000Y-76625000D03*
X66106000Y-75355000D03*
X66106000Y-74085000D03*
X66106000Y-72815000D03*
X66106000Y-71545000D03*
X66106000Y-70275000D03*
X66106000Y-69005000D03*
X66106000Y-67735000D03*
X66106000Y-66465000D03*
X66106000Y-65195000D03*
X66106000Y-63925000D03*
X66106000Y-62655000D03*
X66106000Y-61385000D03*
X66106000Y-60115000D03*
X66106000Y-58845000D03*
X66106000Y-57575000D03*
X66106000Y-56305000D03*
%TD*%
D15*
%TO.C,U1*%
X23000000Y-55670000D03*
X23000000Y-56940000D03*
X23000000Y-58210000D03*
X23000000Y-59480000D03*
X23000000Y-60750000D03*
X23000000Y-62020000D03*
X23000000Y-63290000D03*
X23000000Y-64560000D03*
X23000000Y-65830000D03*
X23000000Y-67100000D03*
X23000000Y-68370000D03*
X23000000Y-69640000D03*
X23000000Y-70910000D03*
X23000000Y-72180000D03*
X23000000Y-73450000D03*
X23000000Y-74720000D03*
X23000000Y-75990000D03*
X23000000Y-77260000D03*
X23000000Y-78530000D03*
X23000000Y-79800000D03*
X23000000Y-81070000D03*
X23000000Y-82340000D03*
X37922500Y-82340000D03*
X37922500Y-81070000D03*
X37922500Y-79800000D03*
X37922500Y-78530000D03*
X37922500Y-77260000D03*
X37922500Y-75990000D03*
X37922500Y-74720000D03*
X37922500Y-73450000D03*
X37922500Y-72180000D03*
X37922500Y-70910000D03*
X37922500Y-69640000D03*
X37922500Y-68370000D03*
X37922500Y-67100000D03*
X37922500Y-65830000D03*
X37922500Y-64560000D03*
X37922500Y-63290000D03*
X37922500Y-62020000D03*
X37922500Y-60750000D03*
X37922500Y-59480000D03*
X37922500Y-58210000D03*
X37922500Y-56940000D03*
X37922500Y-55670000D03*
%TD*%
D12*
%TO.C,REF\u002A\u002A*%
X77956022Y-54670000D03*
%TD*%
%TO.C,REF\u002A\u002A*%
X33733977Y-23000000D03*
%TD*%
%TO.C,REF\u002A\u002A*%
X29370340Y-54670000D03*
%TD*%
%TO.C,REF\u002A\u002A*%
X47020113Y-54670000D03*
%TD*%
%TO.C,REF\u002A\u002A*%
X34461250Y-54670000D03*
%TD*%
%TO.C,REF\u002A\u002A*%
X110041071Y-23000000D03*
%TD*%
%TO.C,REF\u002A\u002A*%
X94151250Y-51670000D03*
%TD*%
%TO.C,REF\u002A\u002A*%
X105612500Y-17142857D03*
%TD*%
%TO.C,REF\u002A\u002A*%
X49201931Y-54670000D03*
%TD*%
%TO.C,REF\u002A\u002A*%
X23000000Y-86340000D03*
%TD*%
%TO.C,REF\u002A\u002A*%
X68306250Y-51670000D03*
%TD*%
%TO.C,REF\u002A\u002A*%
X79410568Y-83340000D03*
%TD*%
%TO.C,REF\u002A\u002A*%
X60306250Y-54670000D03*
%TD*%
%TO.C,REF\u002A\u002A*%
X110755357Y-83340000D03*
%TD*%
%TO.C,REF\u002A\u002A*%
X66124431Y-23000000D03*
%TD*%
%TO.C,REF\u002A\u002A*%
X85228750Y-51670000D03*
%TD*%
%TO.C,REF\u002A\u002A*%
X61760795Y-54670000D03*
%TD*%
%TO.C,REF\u002A\u002A*%
X112898214Y-23000000D03*
%TD*%
%TO.C,REF\u002A\u002A*%
X66124431Y-51670000D03*
%TD*%
%TO.C,REF\u002A\u002A*%
X80137840Y-54670000D03*
%TD*%
D14*
%TO.C,REF\u002A\u002A*%
X106612500Y-87990000D03*
%TD*%
D12*
%TO.C,REF\u002A\u002A*%
X65397159Y-54670000D03*
%TD*%
%TO.C,REF\u002A\u002A*%
X105612500Y-15000000D03*
%TD*%
%TO.C,REF\u002A\u002A*%
X49201931Y-51670000D03*
%TD*%
%TO.C,REF\u002A\u002A*%
X95605795Y-54670000D03*
%TD*%
%TO.C,REF\u002A\u002A*%
X105612500Y-88482857D03*
%TD*%
%TO.C,REF\u002A\u002A*%
X63215340Y-83340000D03*
%TD*%
%TO.C,REF\u002A\u002A*%
X63215340Y-23000000D03*
%TD*%
%TO.C,REF\u002A\u002A*%
X50656477Y-54670000D03*
%TD*%
%TO.C,REF\u002A\u002A*%
X108612500Y-83340000D03*
%TD*%
%TO.C,REF\u002A\u002A*%
X83046931Y-23000000D03*
%TD*%
D14*
%TO.C,REF\u002A\u002A*%
X106612500Y-18350000D03*
%TD*%
D12*
%TO.C,REF\u002A\u002A*%
X102151250Y-51670000D03*
%TD*%
%TO.C,REF\u002A\u002A*%
X32279431Y-54670000D03*
%TD*%
%TO.C,REF\u002A\u002A*%
X23000000Y-19285714D03*
%TD*%
%TO.C,REF\u002A\u002A*%
X23000000Y-89911428D03*
%TD*%
D15*
%TO.C,U1*%
X73767500Y-24000000D03*
X73767500Y-25270000D03*
X73767500Y-26540000D03*
X73767500Y-27810000D03*
X73767500Y-29080000D03*
X73767500Y-30350000D03*
X73767500Y-31620000D03*
X73767500Y-32890000D03*
X73767500Y-34160000D03*
X73767500Y-35430000D03*
X73767500Y-36700000D03*
X73767500Y-37970000D03*
X73767500Y-39240000D03*
X73767500Y-40510000D03*
X73767500Y-41780000D03*
X73767500Y-43050000D03*
X73767500Y-44320000D03*
X73767500Y-45590000D03*
X73767500Y-46860000D03*
X73767500Y-48130000D03*
X73767500Y-49400000D03*
X73767500Y-50670000D03*
X88690000Y-50670000D03*
X88690000Y-49400000D03*
X88690000Y-48130000D03*
X88690000Y-46860000D03*
X88690000Y-45590000D03*
X88690000Y-44320000D03*
X88690000Y-43050000D03*
X88690000Y-41780000D03*
X88690000Y-40510000D03*
X88690000Y-39240000D03*
X88690000Y-37970000D03*
X88690000Y-36700000D03*
X88690000Y-35430000D03*
X88690000Y-34160000D03*
X88690000Y-32890000D03*
X88690000Y-31620000D03*
X88690000Y-30350000D03*
X88690000Y-29080000D03*
X88690000Y-27810000D03*
X88690000Y-26540000D03*
X88690000Y-25270000D03*
X88690000Y-24000000D03*
%TD*%
D12*
%TO.C,REF\u002A\u002A*%
X65397159Y-51670000D03*
%TD*%
%TO.C,REF\u002A\u002A*%
X113612500Y-23000000D03*
%TD*%
%TO.C,REF\u002A\u002A*%
X49201931Y-83340000D03*
%TD*%
%TO.C,REF\u002A\u002A*%
X66851704Y-23000000D03*
%TD*%
%TO.C,REF\u002A\u002A*%
X105612500Y-87054285D03*
%TD*%
D15*
%TO.C,U1*%
X39922500Y-24000000D03*
X39922500Y-25270000D03*
X39922500Y-26540000D03*
X39922500Y-27810000D03*
X39922500Y-29080000D03*
X39922500Y-30350000D03*
X39922500Y-31620000D03*
X39922500Y-32890000D03*
X39922500Y-34160000D03*
X39922500Y-35430000D03*
X39922500Y-36700000D03*
X39922500Y-37970000D03*
X39922500Y-39240000D03*
X39922500Y-40510000D03*
X39922500Y-41780000D03*
X39922500Y-43050000D03*
X39922500Y-44320000D03*
X39922500Y-45590000D03*
X39922500Y-46860000D03*
X39922500Y-48130000D03*
X39922500Y-49400000D03*
X39922500Y-50670000D03*
X54845000Y-50670000D03*
X54845000Y-49400000D03*
X54845000Y-48130000D03*
X54845000Y-46860000D03*
X54845000Y-45590000D03*
X54845000Y-44320000D03*
X54845000Y-43050000D03*
X54845000Y-41780000D03*
X54845000Y-40510000D03*
X54845000Y-39240000D03*
X54845000Y-37970000D03*
X54845000Y-36700000D03*
X54845000Y-35430000D03*
X54845000Y-34160000D03*
X54845000Y-32890000D03*
X54845000Y-31620000D03*
X54845000Y-30350000D03*
X54845000Y-29080000D03*
X54845000Y-27810000D03*
X54845000Y-26540000D03*
X54845000Y-25270000D03*
X54845000Y-24000000D03*
%TD*%
D12*
%TO.C,REF\u002A\u002A*%
X99969431Y-83340000D03*
%TD*%
%TO.C,REF\u002A\u002A*%
X51383750Y-83340000D03*
%TD*%
%TO.C,REF\u002A\u002A*%
X30097613Y-83340000D03*
%TD*%
%TO.C,REF\u002A\u002A*%
X23000000Y-87768571D03*
%TD*%
%TO.C,REF\u002A\u002A*%
X43383750Y-51670000D03*
%TD*%
%TO.C,REF\u002A\u002A*%
X27188522Y-54670000D03*
%TD*%
%TO.C,REF\u002A\u002A*%
X28643068Y-54670000D03*
%TD*%
%TO.C,REF\u002A\u002A*%
X102151250Y-83340000D03*
%TD*%
%TO.C,REF\u002A\u002A*%
X15714285Y-83340000D03*
%TD*%
%TO.C,REF\u002A\u002A*%
X63215340Y-54670000D03*
%TD*%
%TO.C,REF\u002A\u002A*%
X23000000Y-90625714D03*
%TD*%
%TO.C,REF\u002A\u002A*%
X28643068Y-23000000D03*
%TD*%
%TO.C,REF\u002A\u002A*%
X112898214Y-83340000D03*
%TD*%
%TO.C,REF\u002A\u002A*%
X84501477Y-83340000D03*
%TD*%
%TO.C,REF\u002A\u002A*%
X105612500Y-89911428D03*
%TD*%
%TO.C,REF\u002A\u002A*%
X112183928Y-83340000D03*
%TD*%
D15*
%TO.C,U1*%
X90690000Y-24000000D03*
X90690000Y-25270000D03*
X90690000Y-26540000D03*
X90690000Y-27810000D03*
X90690000Y-29080000D03*
X90690000Y-30350000D03*
X90690000Y-31620000D03*
X90690000Y-32890000D03*
X90690000Y-34160000D03*
X90690000Y-35430000D03*
X90690000Y-36700000D03*
X90690000Y-37970000D03*
X90690000Y-39240000D03*
X90690000Y-40510000D03*
X90690000Y-41780000D03*
X90690000Y-43050000D03*
X90690000Y-44320000D03*
X90690000Y-45590000D03*
X90690000Y-46860000D03*
X90690000Y-48130000D03*
X90690000Y-49400000D03*
X90690000Y-50670000D03*
X105612500Y-50670000D03*
X105612500Y-49400000D03*
X105612500Y-48130000D03*
X105612500Y-46860000D03*
X105612500Y-45590000D03*
X105612500Y-44320000D03*
X105612500Y-43050000D03*
X105612500Y-41780000D03*
X105612500Y-40510000D03*
X105612500Y-39240000D03*
X105612500Y-37970000D03*
X105612500Y-36700000D03*
X105612500Y-35430000D03*
X105612500Y-34160000D03*
X105612500Y-32890000D03*
X105612500Y-31620000D03*
X105612500Y-30350000D03*
X105612500Y-29080000D03*
X105612500Y-27810000D03*
X105612500Y-26540000D03*
X105612500Y-25270000D03*
X105612500Y-24000000D03*
%TD*%
D12*
%TO.C,REF\u002A\u002A*%
X44838295Y-83340000D03*
%TD*%
%TO.C,REF\u002A\u002A*%
X77228750Y-51670000D03*
%TD*%
%TO.C,REF\u002A\u002A*%
X105612500Y-16428571D03*
%TD*%
%TO.C,REF\u002A\u002A*%
X30824886Y-54670000D03*
%TD*%
%TO.C,REF\u002A\u002A*%
X79410568Y-51670000D03*
%TD*%
%TO.C,REF\u002A\u002A*%
X33733977Y-83340000D03*
%TD*%
%TO.C,REF\u002A\u002A*%
X101423977Y-54670000D03*
%TD*%
%TO.C,REF\u002A\u002A*%
X31552159Y-83340000D03*
%TD*%
%TO.C,REF\u002A\u002A*%
X17857142Y-83340000D03*
%TD*%
%TO.C,REF\u002A\u002A*%
X31552159Y-54670000D03*
%TD*%
%TO.C,REF\u002A\u002A*%
X26461250Y-54670000D03*
%TD*%
%TO.C,REF\u002A\u002A*%
X23000000Y-20000000D03*
%TD*%
%TO.C,REF\u002A\u002A*%
X46292840Y-83340000D03*
%TD*%
%TO.C,REF\u002A\u002A*%
X27188522Y-23000000D03*
%TD*%
%TO.C,REF\u002A\u002A*%
X18571428Y-83340000D03*
%TD*%
%TO.C,REF\u002A\u002A*%
X27915795Y-54670000D03*
%TD*%
%TO.C,REF\u002A\u002A*%
X16428571Y-23000000D03*
%TD*%
%TO.C,REF\u002A\u002A*%
X47747386Y-83340000D03*
%TD*%
%TO.C,REF\u002A\u002A*%
X98514886Y-54670000D03*
%TD*%
%TO.C,REF\u002A\u002A*%
X95605795Y-23000000D03*
%TD*%
%TO.C,REF\u002A\u002A*%
X23000000Y-18571428D03*
%TD*%
%TO.C,REF\u002A\u002A*%
X85228750Y-54670000D03*
%TD*%
%TO.C,REF\u002A\u002A*%
X96333068Y-83340000D03*
%TD*%
%TO.C,REF\u002A\u002A*%
X63942613Y-83340000D03*
%TD*%
%TO.C,REF\u002A\u002A*%
X18571428Y-23000000D03*
%TD*%
%TO.C,REF\u002A\u002A*%
X46292840Y-51670000D03*
%TD*%
%TO.C,REF\u002A\u002A*%
X77956022Y-83340000D03*
%TD*%
%TO.C,REF\u002A\u002A*%
X85228750Y-23000000D03*
%TD*%
%TO.C,REF\u002A\u002A*%
X26461250Y-51670000D03*
%TD*%
%TO.C,REF\u002A\u002A*%
X33006704Y-51670000D03*
%TD*%
%TO.C,REF\u002A\u002A*%
X78683295Y-51670000D03*
%TD*%
%TO.C,REF\u002A\u002A*%
X110755357Y-23000000D03*
%TD*%
%TO.C,REF\u002A\u002A*%
X94151250Y-54670000D03*
%TD*%
%TO.C,REF\u002A\u002A*%
X30097613Y-51670000D03*
%TD*%
%TO.C,REF\u002A\u002A*%
X111469642Y-23000000D03*
%TD*%
%TO.C,REF\u002A\u002A*%
X49929204Y-54670000D03*
%TD*%
%TO.C,REF\u002A\u002A*%
X67578977Y-83340000D03*
%TD*%
%TO.C,REF\u002A\u002A*%
X47020113Y-83340000D03*
%TD*%
%TO.C,REF\u002A\u002A*%
X68306250Y-23000000D03*
%TD*%
%TO.C,REF\u002A\u002A*%
X62488068Y-54670000D03*
%TD*%
%TO.C,REF\u002A\u002A*%
X85228750Y-83340000D03*
%TD*%
%TO.C,REF\u002A\u002A*%
X94151250Y-83340000D03*
%TD*%
%TO.C,REF\u002A\u002A*%
X64669886Y-54670000D03*
%TD*%
%TO.C,REF\u002A\u002A*%
X97787613Y-83340000D03*
%TD*%
%TO.C,REF\u002A\u002A*%
X80137840Y-23000000D03*
%TD*%
D15*
%TO.C,U1*%
X23000000Y-24000000D03*
X23000000Y-25270000D03*
X23000000Y-26540000D03*
X23000000Y-27810000D03*
X23000000Y-29080000D03*
X23000000Y-30350000D03*
X23000000Y-31620000D03*
X23000000Y-32890000D03*
X23000000Y-34160000D03*
X23000000Y-35430000D03*
X23000000Y-36700000D03*
X23000000Y-37970000D03*
X23000000Y-39240000D03*
X23000000Y-40510000D03*
X23000000Y-41780000D03*
X23000000Y-43050000D03*
X23000000Y-44320000D03*
X23000000Y-45590000D03*
X23000000Y-46860000D03*
X23000000Y-48130000D03*
X23000000Y-49400000D03*
X23000000Y-50670000D03*
X37922500Y-50670000D03*
X37922500Y-49400000D03*
X37922500Y-48130000D03*
X37922500Y-46860000D03*
X37922500Y-45590000D03*
X37922500Y-44320000D03*
X37922500Y-43050000D03*
X37922500Y-41780000D03*
X37922500Y-40510000D03*
X37922500Y-39240000D03*
X37922500Y-37970000D03*
X37922500Y-36700000D03*
X37922500Y-35430000D03*
X37922500Y-34160000D03*
X37922500Y-32890000D03*
X37922500Y-31620000D03*
X37922500Y-30350000D03*
X37922500Y-29080000D03*
X37922500Y-27810000D03*
X37922500Y-26540000D03*
X37922500Y-25270000D03*
X37922500Y-24000000D03*
%TD*%
D12*
%TO.C,REF\u002A\u002A*%
X95605795Y-83340000D03*
%TD*%
%TO.C,REF\u002A\u002A*%
X60306250Y-51670000D03*
%TD*%
%TO.C,REF\u002A\u002A*%
X33733977Y-54670000D03*
%TD*%
%TO.C,REF\u002A\u002A*%
X33006704Y-83340000D03*
%TD*%
%TO.C,REF\u002A\u002A*%
X66124431Y-54670000D03*
%TD*%
%TO.C,REF\u002A\u002A*%
X64669886Y-23000000D03*
%TD*%
D15*
%TO.C,U1*%
X56845000Y-24000000D03*
X56845000Y-25270000D03*
X56845000Y-26540000D03*
X56845000Y-27810000D03*
X56845000Y-29080000D03*
X56845000Y-30350000D03*
X56845000Y-31620000D03*
X56845000Y-32890000D03*
X56845000Y-34160000D03*
X56845000Y-35430000D03*
X56845000Y-36700000D03*
X56845000Y-37970000D03*
X56845000Y-39240000D03*
X56845000Y-40510000D03*
X56845000Y-41780000D03*
X56845000Y-43050000D03*
X56845000Y-44320000D03*
X56845000Y-45590000D03*
X56845000Y-46860000D03*
X56845000Y-48130000D03*
X56845000Y-49400000D03*
X56845000Y-50670000D03*
X71767500Y-50670000D03*
X71767500Y-49400000D03*
X71767500Y-48130000D03*
X71767500Y-46860000D03*
X71767500Y-45590000D03*
X71767500Y-44320000D03*
X71767500Y-43050000D03*
X71767500Y-41780000D03*
X71767500Y-40510000D03*
X71767500Y-39240000D03*
X71767500Y-37970000D03*
X71767500Y-36700000D03*
X71767500Y-35430000D03*
X71767500Y-34160000D03*
X71767500Y-32890000D03*
X71767500Y-31620000D03*
X71767500Y-30350000D03*
X71767500Y-29080000D03*
X71767500Y-27810000D03*
X71767500Y-26540000D03*
X71767500Y-25270000D03*
X71767500Y-24000000D03*
%TD*%
D12*
%TO.C,REF\u002A\u002A*%
X48474659Y-51670000D03*
%TD*%
%TO.C,REF\u002A\u002A*%
X46292840Y-54670000D03*
%TD*%
%TO.C,REF\u002A\u002A*%
X47747386Y-23000000D03*
%TD*%
%TO.C,REF\u002A\u002A*%
X98514886Y-83340000D03*
%TD*%
%TO.C,REF\u002A\u002A*%
X99242159Y-83340000D03*
%TD*%
%TO.C,REF\u002A\u002A*%
X96333068Y-51670000D03*
%TD*%
D16*
%TO.C,J1*%
X79428500Y-24635000D03*
X79428500Y-25905000D03*
X79428500Y-27175000D03*
X79428500Y-28445000D03*
X79428500Y-29715000D03*
X79428500Y-30985000D03*
X79428500Y-32255000D03*
X79428500Y-33525000D03*
X79428500Y-34795000D03*
X79428500Y-36065000D03*
X79428500Y-37335000D03*
X79428500Y-38605000D03*
X79428500Y-39875000D03*
X79428500Y-41145000D03*
X79428500Y-42415000D03*
X79428500Y-43685000D03*
X79428500Y-44955000D03*
X79428500Y-46225000D03*
X79428500Y-47495000D03*
X79428500Y-48765000D03*
X79428500Y-50035000D03*
X83028500Y-50035000D03*
X83028500Y-48765000D03*
X83028500Y-47495000D03*
X83028500Y-46225000D03*
X83028500Y-44955000D03*
X83028500Y-43685000D03*
X83028500Y-42415000D03*
X83028500Y-41145000D03*
X83028500Y-39875000D03*
X83028500Y-38605000D03*
X83028500Y-37335000D03*
X83028500Y-36065000D03*
X83028500Y-34795000D03*
X83028500Y-33525000D03*
X83028500Y-32255000D03*
X83028500Y-30985000D03*
X83028500Y-29715000D03*
X83028500Y-28445000D03*
X83028500Y-27175000D03*
X83028500Y-25905000D03*
X83028500Y-24635000D03*
%TD*%
D12*
%TO.C,REF\u002A\u002A*%
X33006704Y-54670000D03*
%TD*%
%TO.C,REF\u002A\u002A*%
X61760795Y-83340000D03*
%TD*%
%TO.C,REF\u002A\u002A*%
X111469642Y-83340000D03*
%TD*%
%TO.C,REF\u002A\u002A*%
X84501477Y-23000000D03*
%TD*%
%TO.C,REF\u002A\u002A*%
X94878522Y-23000000D03*
%TD*%
%TO.C,REF\u002A\u002A*%
X20000000Y-83340000D03*
%TD*%
%TO.C,REF\u002A\u002A*%
X78683295Y-54670000D03*
%TD*%
%TO.C,REF\u002A\u002A*%
X62488068Y-23000000D03*
%TD*%
%TO.C,REF\u002A\u002A*%
X77228750Y-83340000D03*
%TD*%
%TO.C,REF\u002A\u002A*%
X84501477Y-54670000D03*
%TD*%
%TO.C,REF\u002A\u002A*%
X100696704Y-23000000D03*
%TD*%
D16*
%TO.C,J1*%
X96351000Y-24635000D03*
X96351000Y-25905000D03*
X96351000Y-27175000D03*
X96351000Y-28445000D03*
X96351000Y-29715000D03*
X96351000Y-30985000D03*
X96351000Y-32255000D03*
X96351000Y-33525000D03*
X96351000Y-34795000D03*
X96351000Y-36065000D03*
X96351000Y-37335000D03*
X96351000Y-38605000D03*
X96351000Y-39875000D03*
X96351000Y-41145000D03*
X96351000Y-42415000D03*
X96351000Y-43685000D03*
X96351000Y-44955000D03*
X96351000Y-46225000D03*
X96351000Y-47495000D03*
X96351000Y-48765000D03*
X96351000Y-50035000D03*
X99951000Y-50035000D03*
X99951000Y-48765000D03*
X99951000Y-47495000D03*
X99951000Y-46225000D03*
X99951000Y-44955000D03*
X99951000Y-43685000D03*
X99951000Y-42415000D03*
X99951000Y-41145000D03*
X99951000Y-39875000D03*
X99951000Y-38605000D03*
X99951000Y-37335000D03*
X99951000Y-36065000D03*
X99951000Y-34795000D03*
X99951000Y-33525000D03*
X99951000Y-32255000D03*
X99951000Y-30985000D03*
X99951000Y-29715000D03*
X99951000Y-28445000D03*
X99951000Y-27175000D03*
X99951000Y-25905000D03*
X99951000Y-24635000D03*
%TD*%
D12*
%TO.C,REF\u002A\u002A*%
X83774204Y-51670000D03*
%TD*%
%TO.C,REF\u002A\u002A*%
X81592386Y-23000000D03*
%TD*%
%TO.C,REF\u002A\u002A*%
X99969431Y-23000000D03*
%TD*%
%TO.C,REF\u002A\u002A*%
X100696704Y-54670000D03*
%TD*%
%TO.C,REF\u002A\u002A*%
X23000000Y-89197142D03*
%TD*%
%TO.C,REF\u002A\u002A*%
X30097613Y-23000000D03*
%TD*%
%TO.C,REF\u002A\u002A*%
X83774204Y-23000000D03*
%TD*%
%TO.C,REF\u002A\u002A*%
X94878522Y-83340000D03*
%TD*%
%TO.C,REF\u002A\u002A*%
X97787613Y-23000000D03*
%TD*%
%TO.C,REF\u002A\u002A*%
X64669886Y-83340000D03*
%TD*%
%TO.C,REF\u002A\u002A*%
X28643068Y-51670000D03*
%TD*%
D16*
%TO.C,J1*%
X45583500Y-56305000D03*
X45583500Y-57575000D03*
X45583500Y-58845000D03*
X45583500Y-60115000D03*
X45583500Y-61385000D03*
X45583500Y-62655000D03*
X45583500Y-63925000D03*
X45583500Y-65195000D03*
X45583500Y-66465000D03*
X45583500Y-67735000D03*
X45583500Y-69005000D03*
X45583500Y-70275000D03*
X45583500Y-71545000D03*
X45583500Y-72815000D03*
X45583500Y-74085000D03*
X45583500Y-75355000D03*
X45583500Y-76625000D03*
X45583500Y-77895000D03*
X45583500Y-79165000D03*
X45583500Y-80435000D03*
X45583500Y-81705000D03*
X49183500Y-81705000D03*
X49183500Y-80435000D03*
X49183500Y-79165000D03*
X49183500Y-77895000D03*
X49183500Y-76625000D03*
X49183500Y-75355000D03*
X49183500Y-74085000D03*
X49183500Y-72815000D03*
X49183500Y-71545000D03*
X49183500Y-70275000D03*
X49183500Y-69005000D03*
X49183500Y-67735000D03*
X49183500Y-66465000D03*
X49183500Y-65195000D03*
X49183500Y-63925000D03*
X49183500Y-62655000D03*
X49183500Y-61385000D03*
X49183500Y-60115000D03*
X49183500Y-58845000D03*
X49183500Y-57575000D03*
X49183500Y-56305000D03*
%TD*%
D12*
%TO.C,REF\u002A\u002A*%
X105612500Y-17857142D03*
%TD*%
%TO.C,REF\u002A\u002A*%
X108612500Y-23000000D03*
%TD*%
%TO.C,REF\u002A\u002A*%
X19285714Y-23000000D03*
%TD*%
%TO.C,REF\u002A\u002A*%
X94151250Y-23000000D03*
%TD*%
%TO.C,REF\u002A\u002A*%
X100696704Y-51670000D03*
%TD*%
%TO.C,REF\u002A\u002A*%
X47747386Y-51670000D03*
%TD*%
D16*
%TO.C,J1*%
X79428500Y-56305000D03*
X79428500Y-57575000D03*
X79428500Y-58845000D03*
X79428500Y-60115000D03*
X79428500Y-61385000D03*
X79428500Y-62655000D03*
X79428500Y-63925000D03*
X79428500Y-65195000D03*
X79428500Y-66465000D03*
X79428500Y-67735000D03*
X79428500Y-69005000D03*
X79428500Y-70275000D03*
X79428500Y-71545000D03*
X79428500Y-72815000D03*
X79428500Y-74085000D03*
X79428500Y-75355000D03*
X79428500Y-76625000D03*
X79428500Y-77895000D03*
X79428500Y-79165000D03*
X79428500Y-80435000D03*
X79428500Y-81705000D03*
X83028500Y-81705000D03*
X83028500Y-80435000D03*
X83028500Y-79165000D03*
X83028500Y-77895000D03*
X83028500Y-76625000D03*
X83028500Y-75355000D03*
X83028500Y-74085000D03*
X83028500Y-72815000D03*
X83028500Y-71545000D03*
X83028500Y-70275000D03*
X83028500Y-69005000D03*
X83028500Y-67735000D03*
X83028500Y-66465000D03*
X83028500Y-65195000D03*
X83028500Y-63925000D03*
X83028500Y-62655000D03*
X83028500Y-61385000D03*
X83028500Y-60115000D03*
X83028500Y-58845000D03*
X83028500Y-57575000D03*
X83028500Y-56305000D03*
%TD*%
D12*
%TO.C,REF\u002A\u002A*%
X68306250Y-83340000D03*
%TD*%
%TO.C,REF\u002A\u002A*%
X17142857Y-83340000D03*
%TD*%
%TO.C,REF\u002A\u002A*%
X47020113Y-23000000D03*
%TD*%
%TO.C,REF\u002A\u002A*%
X49929204Y-51670000D03*
%TD*%
D16*
%TO.C,J1*%
X28661000Y-56305000D03*
X28661000Y-57575000D03*
X28661000Y-58845000D03*
X28661000Y-60115000D03*
X28661000Y-61385000D03*
X28661000Y-62655000D03*
X28661000Y-63925000D03*
X28661000Y-65195000D03*
X28661000Y-66465000D03*
X28661000Y-67735000D03*
X28661000Y-69005000D03*
X28661000Y-70275000D03*
X28661000Y-71545000D03*
X28661000Y-72815000D03*
X28661000Y-74085000D03*
X28661000Y-75355000D03*
X28661000Y-76625000D03*
X28661000Y-77895000D03*
X28661000Y-79165000D03*
X28661000Y-80435000D03*
X28661000Y-81705000D03*
X32261000Y-81705000D03*
X32261000Y-80435000D03*
X32261000Y-79165000D03*
X32261000Y-77895000D03*
X32261000Y-76625000D03*
X32261000Y-75355000D03*
X32261000Y-74085000D03*
X32261000Y-72815000D03*
X32261000Y-71545000D03*
X32261000Y-70275000D03*
X32261000Y-69005000D03*
X32261000Y-67735000D03*
X32261000Y-66465000D03*
X32261000Y-65195000D03*
X32261000Y-63925000D03*
X32261000Y-62655000D03*
X32261000Y-61385000D03*
X32261000Y-60115000D03*
X32261000Y-58845000D03*
X32261000Y-57575000D03*
X32261000Y-56305000D03*
%TD*%
D12*
%TO.C,REF\u002A\u002A*%
X78683295Y-23000000D03*
%TD*%
%TO.C,REF\u002A\u002A*%
X105612500Y-86340000D03*
%TD*%
%TO.C,REF\u002A\u002A*%
X66124431Y-83340000D03*
%TD*%
%TO.C,REF\u002A\u002A*%
X31552159Y-23000000D03*
%TD*%
%TO.C,REF\u002A\u002A*%
X44111022Y-54670000D03*
%TD*%
%TO.C,REF\u002A\u002A*%
X60306250Y-23000000D03*
%TD*%
%TO.C,REF\u002A\u002A*%
X50656477Y-51670000D03*
%TD*%
%TO.C,REF\u002A\u002A*%
X61033522Y-23000000D03*
%TD*%
%TO.C,REF\u002A\u002A*%
X23000000Y-87054285D03*
%TD*%
%TO.C,REF\u002A\u002A*%
X33006704Y-23000000D03*
%TD*%
%TO.C,REF\u002A\u002A*%
X80137840Y-83340000D03*
%TD*%
%TO.C,REF\u002A\u002A*%
X66851704Y-83340000D03*
%TD*%
%TO.C,REF\u002A\u002A*%
X63942613Y-23000000D03*
%TD*%
%TO.C,REF\u002A\u002A*%
X98514886Y-23000000D03*
%TD*%
%TO.C,REF\u002A\u002A*%
X29370340Y-83340000D03*
%TD*%
%TO.C,REF\u002A\u002A*%
X99969431Y-54670000D03*
%TD*%
%TO.C,REF\u002A\u002A*%
X105612500Y-18571428D03*
%TD*%
%TO.C,REF\u002A\u002A*%
X32279431Y-83340000D03*
%TD*%
%TO.C,REF\u002A\u002A*%
X27915795Y-23000000D03*
%TD*%
%TO.C,REF\u002A\u002A*%
X48474659Y-54670000D03*
%TD*%
%TO.C,REF\u002A\u002A*%
X83046931Y-54670000D03*
%TD*%
%TO.C,REF\u002A\u002A*%
X99969431Y-51670000D03*
%TD*%
%TO.C,REF\u002A\u002A*%
X50656477Y-83340000D03*
%TD*%
%TO.C,REF\u002A\u002A*%
X109326785Y-83340000D03*
%TD*%
%TO.C,REF\u002A\u002A*%
X82319659Y-23000000D03*
%TD*%
%TO.C,REF\u002A\u002A*%
X112183928Y-23000000D03*
%TD*%
%TO.C,REF\u002A\u002A*%
X29370340Y-23000000D03*
%TD*%
%TO.C,REF\u002A\u002A*%
X44111022Y-83340000D03*
%TD*%
%TO.C,REF\u002A\u002A*%
X46292840Y-23000000D03*
%TD*%
%TO.C,REF\u002A\u002A*%
X109326785Y-23000000D03*
%TD*%
%TO.C,REF\u002A\u002A*%
X27188522Y-83340000D03*
%TD*%
%TO.C,REF\u002A\u002A*%
X30824886Y-23000000D03*
%TD*%
%TO.C,REF\u002A\u002A*%
X27915795Y-51670000D03*
%TD*%
%TO.C,REF\u002A\u002A*%
X96333068Y-23000000D03*
%TD*%
%TO.C,REF\u002A\u002A*%
X79410568Y-54670000D03*
%TD*%
%TO.C,REF\u002A\u002A*%
X26461250Y-23000000D03*
%TD*%
D13*
%TO.C,REF\u002A\u002A*%
X109612500Y-87990000D03*
%TD*%
D12*
%TO.C,REF\u002A\u002A*%
X97060340Y-54670000D03*
%TD*%
%TO.C,REF\u002A\u002A*%
X100696704Y-83340000D03*
%TD*%
D13*
%TO.C,REF\u002A\u002A*%
X109612500Y-18350000D03*
%TD*%
D12*
%TO.C,REF\u002A\u002A*%
X102151250Y-23000000D03*
%TD*%
%TO.C,REF\u002A\u002A*%
X61760795Y-23000000D03*
%TD*%
%TO.C,REF\u002A\u002A*%
X105612500Y-19285714D03*
%TD*%
%TO.C,REF\u002A\u002A*%
X97060340Y-83340000D03*
%TD*%
%TO.C,REF\u002A\u002A*%
X29370340Y-51670000D03*
%TD*%
%TO.C,REF\u002A\u002A*%
X94878522Y-51670000D03*
%TD*%
%TO.C,REF\u002A\u002A*%
X49929204Y-83340000D03*
%TD*%
%TO.C,REF\u002A\u002A*%
X97787613Y-51670000D03*
%TD*%
%TO.C,REF\u002A\u002A*%
X99242159Y-51670000D03*
%TD*%
%TO.C,REF\u002A\u002A*%
X34461250Y-51670000D03*
%TD*%
%TO.C,REF\u002A\u002A*%
X105612500Y-87768571D03*
%TD*%
%TO.C,REF\u002A\u002A*%
X65397159Y-23000000D03*
%TD*%
D15*
%TO.C,U1*%
X56845000Y-55670000D03*
X56845000Y-56940000D03*
X56845000Y-58210000D03*
X56845000Y-59480000D03*
X56845000Y-60750000D03*
X56845000Y-62020000D03*
X56845000Y-63290000D03*
X56845000Y-64560000D03*
X56845000Y-65830000D03*
X56845000Y-67100000D03*
X56845000Y-68370000D03*
X56845000Y-69640000D03*
X56845000Y-70910000D03*
X56845000Y-72180000D03*
X56845000Y-73450000D03*
X56845000Y-74720000D03*
X56845000Y-75990000D03*
X56845000Y-77260000D03*
X56845000Y-78530000D03*
X56845000Y-79800000D03*
X56845000Y-81070000D03*
X56845000Y-82340000D03*
X71767500Y-82340000D03*
X71767500Y-81070000D03*
X71767500Y-79800000D03*
X71767500Y-78530000D03*
X71767500Y-77260000D03*
X71767500Y-75990000D03*
X71767500Y-74720000D03*
X71767500Y-73450000D03*
X71767500Y-72180000D03*
X71767500Y-70910000D03*
X71767500Y-69640000D03*
X71767500Y-68370000D03*
X71767500Y-67100000D03*
X71767500Y-65830000D03*
X71767500Y-64560000D03*
X71767500Y-63290000D03*
X71767500Y-62020000D03*
X71767500Y-60750000D03*
X71767500Y-59480000D03*
X71767500Y-58210000D03*
X71767500Y-56940000D03*
X71767500Y-55670000D03*
%TD*%
D12*
%TO.C,REF\u002A\u002A*%
X66851704Y-51670000D03*
%TD*%
%TO.C,REF\u002A\u002A*%
X82319659Y-83340000D03*
%TD*%
%TO.C,REF\u002A\u002A*%
X48474659Y-83340000D03*
%TD*%
%TO.C,REF\u002A\u002A*%
X61033522Y-51670000D03*
%TD*%
%TO.C,REF\u002A\u002A*%
X62488068Y-51670000D03*
%TD*%
%TO.C,REF\u002A\u002A*%
X23000000Y-17857142D03*
%TD*%
%TO.C,REF\u002A\u002A*%
X80865113Y-51670000D03*
%TD*%
%TO.C,REF\u002A\u002A*%
X79410568Y-23000000D03*
%TD*%
%TO.C,REF\u002A\u002A*%
X101423977Y-83340000D03*
%TD*%
%TO.C,REF\u002A\u002A*%
X32279431Y-23000000D03*
%TD*%
%TO.C,REF\u002A\u002A*%
X77228750Y-54670000D03*
%TD*%
%TO.C,REF\u002A\u002A*%
X30824886Y-83340000D03*
%TD*%
%TO.C,REF\u002A\u002A*%
X43383750Y-83340000D03*
%TD*%
%TO.C,REF\u002A\u002A*%
X30824886Y-51670000D03*
%TD*%
%TO.C,REF\u002A\u002A*%
X77956022Y-23000000D03*
%TD*%
%TO.C,REF\u002A\u002A*%
X51383750Y-23000000D03*
%TD*%
D16*
%TO.C,J1*%
X28661000Y-24635000D03*
X28661000Y-25905000D03*
X28661000Y-27175000D03*
X28661000Y-28445000D03*
X28661000Y-29715000D03*
X28661000Y-30985000D03*
X28661000Y-32255000D03*
X28661000Y-33525000D03*
X28661000Y-34795000D03*
X28661000Y-36065000D03*
X28661000Y-37335000D03*
X28661000Y-38605000D03*
X28661000Y-39875000D03*
X28661000Y-41145000D03*
X28661000Y-42415000D03*
X28661000Y-43685000D03*
X28661000Y-44955000D03*
X28661000Y-46225000D03*
X28661000Y-47495000D03*
X28661000Y-48765000D03*
X28661000Y-50035000D03*
X32261000Y-50035000D03*
X32261000Y-48765000D03*
X32261000Y-47495000D03*
X32261000Y-46225000D03*
X32261000Y-44955000D03*
X32261000Y-43685000D03*
X32261000Y-42415000D03*
X32261000Y-41145000D03*
X32261000Y-39875000D03*
X32261000Y-38605000D03*
X32261000Y-37335000D03*
X32261000Y-36065000D03*
X32261000Y-34795000D03*
X32261000Y-33525000D03*
X32261000Y-32255000D03*
X32261000Y-30985000D03*
X32261000Y-29715000D03*
X32261000Y-28445000D03*
X32261000Y-27175000D03*
X32261000Y-25905000D03*
X32261000Y-24635000D03*
%TD*%
D12*
%TO.C,REF\u002A\u002A*%
X82319659Y-54670000D03*
%TD*%
%TO.C,REF\u002A\u002A*%
X28643068Y-83340000D03*
%TD*%
%TO.C,REF\u002A\u002A*%
X34461250Y-83340000D03*
%TD*%
%TO.C,REF\u002A\u002A*%
X105612500Y-89197142D03*
%TD*%
%TO.C,REF\u002A\u002A*%
X23000000Y-91340000D03*
%TD*%
%TO.C,REF\u002A\u002A*%
X101423977Y-23000000D03*
%TD*%
%TO.C,REF\u002A\u002A*%
X49929204Y-23000000D03*
%TD*%
D16*
%TO.C,J1*%
X96351000Y-56305000D03*
X96351000Y-57575000D03*
X96351000Y-58845000D03*
X96351000Y-60115000D03*
X96351000Y-61385000D03*
X96351000Y-62655000D03*
X96351000Y-63925000D03*
X96351000Y-65195000D03*
X96351000Y-66465000D03*
X96351000Y-67735000D03*
X96351000Y-69005000D03*
X96351000Y-70275000D03*
X96351000Y-71545000D03*
X96351000Y-72815000D03*
X96351000Y-74085000D03*
X96351000Y-75355000D03*
X96351000Y-76625000D03*
X96351000Y-77895000D03*
X96351000Y-79165000D03*
X96351000Y-80435000D03*
X96351000Y-81705000D03*
X99951000Y-81705000D03*
X99951000Y-80435000D03*
X99951000Y-79165000D03*
X99951000Y-77895000D03*
X99951000Y-76625000D03*
X99951000Y-75355000D03*
X99951000Y-74085000D03*
X99951000Y-72815000D03*
X99951000Y-71545000D03*
X99951000Y-70275000D03*
X99951000Y-69005000D03*
X99951000Y-67735000D03*
X99951000Y-66465000D03*
X99951000Y-65195000D03*
X99951000Y-63925000D03*
X99951000Y-62655000D03*
X99951000Y-61385000D03*
X99951000Y-60115000D03*
X99951000Y-58845000D03*
X99951000Y-57575000D03*
X99951000Y-56305000D03*
%TD*%
D12*
%TO.C,REF\u002A\u002A*%
X47020113Y-51670000D03*
%TD*%
%TO.C,REF\u002A\u002A*%
X15000000Y-23000000D03*
%TD*%
%TO.C,REF\u002A\u002A*%
X63215340Y-51670000D03*
%TD*%
%TO.C,REF\u002A\u002A*%
X83046931Y-51670000D03*
%TD*%
%TO.C,REF\u002A\u002A*%
X23000000Y-88482857D03*
%TD*%
%TO.C,REF\u002A\u002A*%
X83046931Y-83340000D03*
%TD*%
%TO.C,REF\u002A\u002A*%
X94878522Y-54670000D03*
%TD*%
M02*
