%TF.GenerationSoftware,KiCad,Pcbnew,(6.0.7)*%
%TF.CreationDate,2022-08-09T00:19:31-07:00*%
%TF.ProjectId,panelized-M27C322-to-KM23C32000AG-adapter,70616e65-6c69-47a6-9564-2d4d32374333,rev?*%
%TF.SameCoordinates,Original*%
%TF.FileFunction,Legend,Bot*%
%TF.FilePolarity,Positive*%
%FSLAX46Y46*%
G04 Gerber Fmt 4.6, Leading zero omitted, Abs format (unit mm)*
G04 Created by KiCad (PCBNEW (6.0.7)) date 2022-08-09 00:19:31*
%MOMM*%
%LPD*%
G01*
G04 APERTURE LIST*
G04 Aperture macros list*
%AMFreePoly0*
4,1,43,0.067453,0.524421,0.088820,0.521227,0.211929,0.484410,0.231542,0.475348,0.339368,0.405458,0.352846,0.393700,0.635000,0.393700,0.683980,0.375873,0.710042,0.330732,0.711200,0.317500,0.711200,-0.317500,0.693373,-0.366480,0.648232,-0.392542,0.635000,-0.393700,0.351531,-0.393700,0.345985,-0.399827,0.329361,-0.413629,0.219858,-0.480863,0.200030,-0.489443,0.076059,-0.523242,
0.054619,-0.525912,-0.073855,-0.523557,-0.095181,-0.520103,-0.217831,-0.481785,-0.237332,-0.472484,-0.344297,-0.401282,-0.352777,-0.393700,-0.635000,-0.393700,-0.683980,-0.375873,-0.710042,-0.330732,-0.711200,-0.317500,-0.711200,0.317500,-0.693373,0.366480,-0.648232,0.392542,-0.635000,0.393700,-0.352495,0.393700,-0.350843,0.395571,-0.334389,0.409574,-0.225716,0.478141,-0.205995,0.486962,
-0.082446,0.522273,-0.061040,0.525206,0.067453,0.524421,0.067453,0.524421,$1*%
G04 Aperture macros list end*
%ADD10C,0.225000*%
%ADD11C,1.000000*%
%ADD12C,0.500000*%
%ADD13C,1.152000*%
%ADD14FreePoly0,180.000000*%
G04 APERTURE END LIST*
D10*
X96903642Y-62176428D02*
X97632214Y-62176428D01*
X97717928Y-62133571D01*
X97760785Y-62090714D01*
X97803642Y-62005000D01*
X97803642Y-61876428D01*
X97760785Y-61790714D01*
X97460785Y-62176428D02*
X97503642Y-62090714D01*
X97503642Y-61919285D01*
X97460785Y-61833571D01*
X97417928Y-61790714D01*
X97332214Y-61747857D01*
X97075071Y-61747857D01*
X96989357Y-61790714D01*
X96946500Y-61833571D01*
X96903642Y-61919285D01*
X96903642Y-62090714D01*
X96946500Y-62176428D01*
X97503642Y-62605000D02*
X96903642Y-62605000D01*
X96603642Y-62605000D02*
X96646500Y-62562142D01*
X96689357Y-62605000D01*
X96646500Y-62647857D01*
X96603642Y-62605000D01*
X96689357Y-62605000D01*
X96903642Y-62905000D02*
X96903642Y-63247857D01*
X96603642Y-63033571D02*
X97375071Y-63033571D01*
X97460785Y-63076428D01*
X97503642Y-63162142D01*
X97503642Y-63247857D01*
X97503642Y-63547857D02*
X96603642Y-63547857D01*
X97503642Y-63933571D02*
X97032214Y-63933571D01*
X96946500Y-63890714D01*
X96903642Y-63805000D01*
X96903642Y-63676428D01*
X96946500Y-63590714D01*
X96989357Y-63547857D01*
X96903642Y-64747857D02*
X97503642Y-64747857D01*
X96903642Y-64362142D02*
X97375071Y-64362142D01*
X97460785Y-64405000D01*
X97503642Y-64490714D01*
X97503642Y-64619285D01*
X97460785Y-64705000D01*
X97417928Y-64747857D01*
X97503642Y-65176428D02*
X96603642Y-65176428D01*
X96946500Y-65176428D02*
X96903642Y-65262142D01*
X96903642Y-65433571D01*
X96946500Y-65519285D01*
X96989357Y-65562142D01*
X97075071Y-65605000D01*
X97332214Y-65605000D01*
X97417928Y-65562142D01*
X97460785Y-65519285D01*
X97503642Y-65433571D01*
X97503642Y-65262142D01*
X97460785Y-65176428D01*
X97417928Y-65990714D02*
X97460785Y-66033571D01*
X97503642Y-65990714D01*
X97460785Y-65947857D01*
X97417928Y-65990714D01*
X97503642Y-65990714D01*
X97460785Y-66805000D02*
X97503642Y-66719285D01*
X97503642Y-66547857D01*
X97460785Y-66462142D01*
X97417928Y-66419285D01*
X97332214Y-66376428D01*
X97075071Y-66376428D01*
X96989357Y-66419285D01*
X96946500Y-66462142D01*
X96903642Y-66547857D01*
X96903642Y-66719285D01*
X96946500Y-66805000D01*
X97503642Y-67319285D02*
X97460785Y-67233571D01*
X97417928Y-67190714D01*
X97332214Y-67147857D01*
X97075071Y-67147857D01*
X96989357Y-67190714D01*
X96946500Y-67233571D01*
X96903642Y-67319285D01*
X96903642Y-67447857D01*
X96946500Y-67533571D01*
X96989357Y-67576428D01*
X97075071Y-67619285D01*
X97332214Y-67619285D01*
X97417928Y-67576428D01*
X97460785Y-67533571D01*
X97503642Y-67447857D01*
X97503642Y-67319285D01*
X97503642Y-68005000D02*
X96903642Y-68005000D01*
X96989357Y-68005000D02*
X96946500Y-68047857D01*
X96903642Y-68133571D01*
X96903642Y-68262142D01*
X96946500Y-68347857D01*
X97032214Y-68390714D01*
X97503642Y-68390714D01*
X97032214Y-68390714D02*
X96946500Y-68433571D01*
X96903642Y-68519285D01*
X96903642Y-68647857D01*
X96946500Y-68733571D01*
X97032214Y-68776428D01*
X97503642Y-68776428D01*
X96560785Y-69847857D02*
X97717928Y-69076428D01*
X96903642Y-70147857D02*
X97503642Y-70147857D01*
X96989357Y-70147857D02*
X96946500Y-70190714D01*
X96903642Y-70276428D01*
X96903642Y-70405000D01*
X96946500Y-70490714D01*
X97032214Y-70533571D01*
X97503642Y-70533571D01*
X97503642Y-70962142D02*
X96903642Y-70962142D01*
X96603642Y-70962142D02*
X96646500Y-70919285D01*
X96689357Y-70962142D01*
X96646500Y-71005000D01*
X96603642Y-70962142D01*
X96689357Y-70962142D01*
X97503642Y-71390714D02*
X96603642Y-71390714D01*
X97160785Y-71476428D02*
X97503642Y-71733571D01*
X96903642Y-71733571D02*
X97246500Y-71390714D01*
X97503642Y-72119285D02*
X96903642Y-72119285D01*
X96603642Y-72119285D02*
X96646500Y-72076428D01*
X96689357Y-72119285D01*
X96646500Y-72162142D01*
X96603642Y-72119285D01*
X96689357Y-72119285D01*
X96903642Y-72419285D02*
X96903642Y-72762142D01*
X96603642Y-72547857D02*
X97375071Y-72547857D01*
X97460785Y-72590714D01*
X97503642Y-72676428D01*
X97503642Y-72762142D01*
X97503642Y-73447857D02*
X97032214Y-73447857D01*
X96946500Y-73405000D01*
X96903642Y-73319285D01*
X96903642Y-73147857D01*
X96946500Y-73062142D01*
X97460785Y-73447857D02*
X97503642Y-73362142D01*
X97503642Y-73147857D01*
X97460785Y-73062142D01*
X97375071Y-73019285D01*
X97289357Y-73019285D01*
X97203642Y-73062142D01*
X97160785Y-73147857D01*
X97160785Y-73362142D01*
X97117928Y-73447857D01*
X97503642Y-74005000D02*
X97460785Y-73919285D01*
X97375071Y-73876428D01*
X96603642Y-73876428D01*
X97503642Y-74347857D02*
X96903642Y-74347857D01*
X96603642Y-74347857D02*
X96646500Y-74305000D01*
X96689357Y-74347857D01*
X96646500Y-74390714D01*
X96603642Y-74347857D01*
X96689357Y-74347857D01*
X96903642Y-74647857D02*
X96903642Y-74990714D01*
X96603642Y-74776428D02*
X97375071Y-74776428D01*
X97460785Y-74819285D01*
X97503642Y-74905000D01*
X97503642Y-74990714D01*
X97503642Y-75676428D02*
X97032214Y-75676428D01*
X96946500Y-75633571D01*
X96903642Y-75547857D01*
X96903642Y-75376428D01*
X96946500Y-75290714D01*
X97460785Y-75676428D02*
X97503642Y-75590714D01*
X97503642Y-75376428D01*
X97460785Y-75290714D01*
X97375071Y-75247857D01*
X97289357Y-75247857D01*
X97203642Y-75290714D01*
X97160785Y-75376428D01*
X97160785Y-75590714D01*
X97117928Y-75676428D01*
X96560785Y-76747857D02*
X97717928Y-75976428D01*
X98952642Y-56176428D02*
X98052642Y-56176428D01*
X98695500Y-56476428D01*
X98052642Y-56776428D01*
X98952642Y-56776428D01*
X98138357Y-57162142D02*
X98095500Y-57205000D01*
X98052642Y-57290714D01*
X98052642Y-57505000D01*
X98095500Y-57590714D01*
X98138357Y-57633571D01*
X98224071Y-57676428D01*
X98309785Y-57676428D01*
X98438357Y-57633571D01*
X98952642Y-57119285D01*
X98952642Y-57676428D01*
X98052642Y-57976428D02*
X98052642Y-58576428D01*
X98952642Y-58190714D01*
X98866928Y-59433571D02*
X98909785Y-59390714D01*
X98952642Y-59262142D01*
X98952642Y-59176428D01*
X98909785Y-59047857D01*
X98824071Y-58962142D01*
X98738357Y-58919285D01*
X98566928Y-58876428D01*
X98438357Y-58876428D01*
X98266928Y-58919285D01*
X98181214Y-58962142D01*
X98095500Y-59047857D01*
X98052642Y-59176428D01*
X98052642Y-59262142D01*
X98095500Y-59390714D01*
X98138357Y-59433571D01*
X98052642Y-59733571D02*
X98052642Y-60290714D01*
X98395500Y-59990714D01*
X98395500Y-60119285D01*
X98438357Y-60205000D01*
X98481214Y-60247857D01*
X98566928Y-60290714D01*
X98781214Y-60290714D01*
X98866928Y-60247857D01*
X98909785Y-60205000D01*
X98952642Y-60119285D01*
X98952642Y-59862142D01*
X98909785Y-59776428D01*
X98866928Y-59733571D01*
X98138357Y-60633571D02*
X98095500Y-60676428D01*
X98052642Y-60762142D01*
X98052642Y-60976428D01*
X98095500Y-61062142D01*
X98138357Y-61105000D01*
X98224071Y-61147857D01*
X98309785Y-61147857D01*
X98438357Y-61105000D01*
X98952642Y-60590714D01*
X98952642Y-61147857D01*
X98138357Y-61490714D02*
X98095500Y-61533571D01*
X98052642Y-61619285D01*
X98052642Y-61833571D01*
X98095500Y-61919285D01*
X98138357Y-61962142D01*
X98224071Y-62005000D01*
X98309785Y-62005000D01*
X98438357Y-61962142D01*
X98952642Y-61447857D01*
X98952642Y-62005000D01*
X98609785Y-62390714D02*
X98609785Y-63076428D01*
X98352642Y-63376428D02*
X98352642Y-63719285D01*
X98052642Y-63505000D02*
X98824071Y-63505000D01*
X98909785Y-63547857D01*
X98952642Y-63633571D01*
X98952642Y-63719285D01*
X98952642Y-64147857D02*
X98909785Y-64062142D01*
X98866928Y-64019285D01*
X98781214Y-63976428D01*
X98524071Y-63976428D01*
X98438357Y-64019285D01*
X98395500Y-64062142D01*
X98352642Y-64147857D01*
X98352642Y-64276428D01*
X98395500Y-64362142D01*
X98438357Y-64405000D01*
X98524071Y-64447857D01*
X98781214Y-64447857D01*
X98866928Y-64405000D01*
X98909785Y-64362142D01*
X98952642Y-64276428D01*
X98952642Y-64147857D01*
X98609785Y-64833571D02*
X98609785Y-65519285D01*
X98952642Y-65947857D02*
X98052642Y-65947857D01*
X98952642Y-66462142D02*
X98438357Y-66076428D01*
X98052642Y-66462142D02*
X98566928Y-65947857D01*
X98952642Y-66847857D02*
X98052642Y-66847857D01*
X98695500Y-67147857D01*
X98052642Y-67447857D01*
X98952642Y-67447857D01*
X98138357Y-67833571D02*
X98095500Y-67876428D01*
X98052642Y-67962142D01*
X98052642Y-68176428D01*
X98095500Y-68262142D01*
X98138357Y-68305000D01*
X98224071Y-68347857D01*
X98309785Y-68347857D01*
X98438357Y-68305000D01*
X98952642Y-67790714D01*
X98952642Y-68347857D01*
X98052642Y-68647857D02*
X98052642Y-69205000D01*
X98395500Y-68905000D01*
X98395500Y-69033571D01*
X98438357Y-69119285D01*
X98481214Y-69162142D01*
X98566928Y-69205000D01*
X98781214Y-69205000D01*
X98866928Y-69162142D01*
X98909785Y-69119285D01*
X98952642Y-69033571D01*
X98952642Y-68776428D01*
X98909785Y-68690714D01*
X98866928Y-68647857D01*
X98866928Y-70105000D02*
X98909785Y-70062142D01*
X98952642Y-69933571D01*
X98952642Y-69847857D01*
X98909785Y-69719285D01*
X98824071Y-69633571D01*
X98738357Y-69590714D01*
X98566928Y-69547857D01*
X98438357Y-69547857D01*
X98266928Y-69590714D01*
X98181214Y-69633571D01*
X98095500Y-69719285D01*
X98052642Y-69847857D01*
X98052642Y-69933571D01*
X98095500Y-70062142D01*
X98138357Y-70105000D01*
X98052642Y-70405000D02*
X98052642Y-70962142D01*
X98395500Y-70662142D01*
X98395500Y-70790714D01*
X98438357Y-70876428D01*
X98481214Y-70919285D01*
X98566928Y-70962142D01*
X98781214Y-70962142D01*
X98866928Y-70919285D01*
X98909785Y-70876428D01*
X98952642Y-70790714D01*
X98952642Y-70533571D01*
X98909785Y-70447857D01*
X98866928Y-70405000D01*
X98138357Y-71305000D02*
X98095500Y-71347857D01*
X98052642Y-71433571D01*
X98052642Y-71647857D01*
X98095500Y-71733571D01*
X98138357Y-71776428D01*
X98224071Y-71819285D01*
X98309785Y-71819285D01*
X98438357Y-71776428D01*
X98952642Y-71262142D01*
X98952642Y-71819285D01*
X98052642Y-72376428D02*
X98052642Y-72462142D01*
X98095500Y-72547857D01*
X98138357Y-72590714D01*
X98224071Y-72633571D01*
X98395500Y-72676428D01*
X98609785Y-72676428D01*
X98781214Y-72633571D01*
X98866928Y-72590714D01*
X98909785Y-72547857D01*
X98952642Y-72462142D01*
X98952642Y-72376428D01*
X98909785Y-72290714D01*
X98866928Y-72247857D01*
X98781214Y-72205000D01*
X98609785Y-72162142D01*
X98395500Y-72162142D01*
X98224071Y-72205000D01*
X98138357Y-72247857D01*
X98095500Y-72290714D01*
X98052642Y-72376428D01*
X98052642Y-73233571D02*
X98052642Y-73319285D01*
X98095500Y-73405000D01*
X98138357Y-73447857D01*
X98224071Y-73490714D01*
X98395500Y-73533571D01*
X98609785Y-73533571D01*
X98781214Y-73490714D01*
X98866928Y-73447857D01*
X98909785Y-73405000D01*
X98952642Y-73319285D01*
X98952642Y-73233571D01*
X98909785Y-73147857D01*
X98866928Y-73105000D01*
X98781214Y-73062142D01*
X98609785Y-73019285D01*
X98395500Y-73019285D01*
X98224071Y-73062142D01*
X98138357Y-73105000D01*
X98095500Y-73147857D01*
X98052642Y-73233571D01*
X98052642Y-74090714D02*
X98052642Y-74176428D01*
X98095500Y-74262142D01*
X98138357Y-74305000D01*
X98224071Y-74347857D01*
X98395500Y-74390714D01*
X98609785Y-74390714D01*
X98781214Y-74347857D01*
X98866928Y-74305000D01*
X98909785Y-74262142D01*
X98952642Y-74176428D01*
X98952642Y-74090714D01*
X98909785Y-74005000D01*
X98866928Y-73962142D01*
X98781214Y-73919285D01*
X98609785Y-73876428D01*
X98395500Y-73876428D01*
X98224071Y-73919285D01*
X98138357Y-73962142D01*
X98095500Y-74005000D01*
X98052642Y-74090714D01*
X98695500Y-74733571D02*
X98695500Y-75162142D01*
X98952642Y-74647857D02*
X98052642Y-74947857D01*
X98952642Y-75247857D01*
X98095500Y-76019285D02*
X98052642Y-75933571D01*
X98052642Y-75805000D01*
X98095500Y-75676428D01*
X98181214Y-75590714D01*
X98266928Y-75547857D01*
X98438357Y-75505000D01*
X98566928Y-75505000D01*
X98738357Y-75547857D01*
X98824071Y-75590714D01*
X98909785Y-75676428D01*
X98952642Y-75805000D01*
X98952642Y-75890714D01*
X98909785Y-76019285D01*
X98866928Y-76062142D01*
X98566928Y-76062142D01*
X98566928Y-75890714D01*
X98609785Y-76447857D02*
X98609785Y-77133571D01*
X98952642Y-77947857D02*
X98481214Y-77947857D01*
X98395500Y-77905000D01*
X98352642Y-77819285D01*
X98352642Y-77647857D01*
X98395500Y-77562142D01*
X98909785Y-77947857D02*
X98952642Y-77862142D01*
X98952642Y-77647857D01*
X98909785Y-77562142D01*
X98824071Y-77519285D01*
X98738357Y-77519285D01*
X98652642Y-77562142D01*
X98609785Y-77647857D01*
X98609785Y-77862142D01*
X98566928Y-77947857D01*
X98952642Y-78762142D02*
X98052642Y-78762142D01*
X98909785Y-78762142D02*
X98952642Y-78676428D01*
X98952642Y-78505000D01*
X98909785Y-78419285D01*
X98866928Y-78376428D01*
X98781214Y-78333571D01*
X98524071Y-78333571D01*
X98438357Y-78376428D01*
X98395500Y-78419285D01*
X98352642Y-78505000D01*
X98352642Y-78676428D01*
X98395500Y-78762142D01*
X98952642Y-79576428D02*
X98481214Y-79576428D01*
X98395500Y-79533571D01*
X98352642Y-79447857D01*
X98352642Y-79276428D01*
X98395500Y-79190714D01*
X98909785Y-79576428D02*
X98952642Y-79490714D01*
X98952642Y-79276428D01*
X98909785Y-79190714D01*
X98824071Y-79147857D01*
X98738357Y-79147857D01*
X98652642Y-79190714D01*
X98609785Y-79276428D01*
X98609785Y-79490714D01*
X98566928Y-79576428D01*
X98352642Y-80005000D02*
X99252642Y-80005000D01*
X98395500Y-80005000D02*
X98352642Y-80090714D01*
X98352642Y-80262142D01*
X98395500Y-80347857D01*
X98438357Y-80390714D01*
X98524071Y-80433571D01*
X98781214Y-80433571D01*
X98866928Y-80390714D01*
X98909785Y-80347857D01*
X98952642Y-80262142D01*
X98952642Y-80090714D01*
X98909785Y-80005000D01*
X98352642Y-80690714D02*
X98352642Y-81033571D01*
X98052642Y-80819285D02*
X98824071Y-80819285D01*
X98909785Y-80862142D01*
X98952642Y-80947857D01*
X98952642Y-81033571D01*
X98909785Y-81676428D02*
X98952642Y-81590714D01*
X98952642Y-81419285D01*
X98909785Y-81333571D01*
X98824071Y-81290714D01*
X98481214Y-81290714D01*
X98395500Y-81333571D01*
X98352642Y-81419285D01*
X98352642Y-81590714D01*
X98395500Y-81676428D01*
X98481214Y-81719285D01*
X98566928Y-81719285D01*
X98652642Y-81290714D01*
X98952642Y-82105000D02*
X98352642Y-82105000D01*
X98524071Y-82105000D02*
X98438357Y-82147857D01*
X98395500Y-82190714D01*
X98352642Y-82276428D01*
X98352642Y-82362142D01*
X79981142Y-62176428D02*
X80709714Y-62176428D01*
X80795428Y-62133571D01*
X80838285Y-62090714D01*
X80881142Y-62005000D01*
X80881142Y-61876428D01*
X80838285Y-61790714D01*
X80538285Y-62176428D02*
X80581142Y-62090714D01*
X80581142Y-61919285D01*
X80538285Y-61833571D01*
X80495428Y-61790714D01*
X80409714Y-61747857D01*
X80152571Y-61747857D01*
X80066857Y-61790714D01*
X80024000Y-61833571D01*
X79981142Y-61919285D01*
X79981142Y-62090714D01*
X80024000Y-62176428D01*
X80581142Y-62605000D02*
X79981142Y-62605000D01*
X79681142Y-62605000D02*
X79724000Y-62562142D01*
X79766857Y-62605000D01*
X79724000Y-62647857D01*
X79681142Y-62605000D01*
X79766857Y-62605000D01*
X79981142Y-62905000D02*
X79981142Y-63247857D01*
X79681142Y-63033571D02*
X80452571Y-63033571D01*
X80538285Y-63076428D01*
X80581142Y-63162142D01*
X80581142Y-63247857D01*
X80581142Y-63547857D02*
X79681142Y-63547857D01*
X80581142Y-63933571D02*
X80109714Y-63933571D01*
X80024000Y-63890714D01*
X79981142Y-63805000D01*
X79981142Y-63676428D01*
X80024000Y-63590714D01*
X80066857Y-63547857D01*
X79981142Y-64747857D02*
X80581142Y-64747857D01*
X79981142Y-64362142D02*
X80452571Y-64362142D01*
X80538285Y-64405000D01*
X80581142Y-64490714D01*
X80581142Y-64619285D01*
X80538285Y-64705000D01*
X80495428Y-64747857D01*
X80581142Y-65176428D02*
X79681142Y-65176428D01*
X80024000Y-65176428D02*
X79981142Y-65262142D01*
X79981142Y-65433571D01*
X80024000Y-65519285D01*
X80066857Y-65562142D01*
X80152571Y-65605000D01*
X80409714Y-65605000D01*
X80495428Y-65562142D01*
X80538285Y-65519285D01*
X80581142Y-65433571D01*
X80581142Y-65262142D01*
X80538285Y-65176428D01*
X80495428Y-65990714D02*
X80538285Y-66033571D01*
X80581142Y-65990714D01*
X80538285Y-65947857D01*
X80495428Y-65990714D01*
X80581142Y-65990714D01*
X80538285Y-66805000D02*
X80581142Y-66719285D01*
X80581142Y-66547857D01*
X80538285Y-66462142D01*
X80495428Y-66419285D01*
X80409714Y-66376428D01*
X80152571Y-66376428D01*
X80066857Y-66419285D01*
X80024000Y-66462142D01*
X79981142Y-66547857D01*
X79981142Y-66719285D01*
X80024000Y-66805000D01*
X80581142Y-67319285D02*
X80538285Y-67233571D01*
X80495428Y-67190714D01*
X80409714Y-67147857D01*
X80152571Y-67147857D01*
X80066857Y-67190714D01*
X80024000Y-67233571D01*
X79981142Y-67319285D01*
X79981142Y-67447857D01*
X80024000Y-67533571D01*
X80066857Y-67576428D01*
X80152571Y-67619285D01*
X80409714Y-67619285D01*
X80495428Y-67576428D01*
X80538285Y-67533571D01*
X80581142Y-67447857D01*
X80581142Y-67319285D01*
X80581142Y-68005000D02*
X79981142Y-68005000D01*
X80066857Y-68005000D02*
X80024000Y-68047857D01*
X79981142Y-68133571D01*
X79981142Y-68262142D01*
X80024000Y-68347857D01*
X80109714Y-68390714D01*
X80581142Y-68390714D01*
X80109714Y-68390714D02*
X80024000Y-68433571D01*
X79981142Y-68519285D01*
X79981142Y-68647857D01*
X80024000Y-68733571D01*
X80109714Y-68776428D01*
X80581142Y-68776428D01*
X79638285Y-69847857D02*
X80795428Y-69076428D01*
X79981142Y-70147857D02*
X80581142Y-70147857D01*
X80066857Y-70147857D02*
X80024000Y-70190714D01*
X79981142Y-70276428D01*
X79981142Y-70405000D01*
X80024000Y-70490714D01*
X80109714Y-70533571D01*
X80581142Y-70533571D01*
X80581142Y-70962142D02*
X79981142Y-70962142D01*
X79681142Y-70962142D02*
X79724000Y-70919285D01*
X79766857Y-70962142D01*
X79724000Y-71005000D01*
X79681142Y-70962142D01*
X79766857Y-70962142D01*
X80581142Y-71390714D02*
X79681142Y-71390714D01*
X80238285Y-71476428D02*
X80581142Y-71733571D01*
X79981142Y-71733571D02*
X80324000Y-71390714D01*
X80581142Y-72119285D02*
X79981142Y-72119285D01*
X79681142Y-72119285D02*
X79724000Y-72076428D01*
X79766857Y-72119285D01*
X79724000Y-72162142D01*
X79681142Y-72119285D01*
X79766857Y-72119285D01*
X79981142Y-72419285D02*
X79981142Y-72762142D01*
X79681142Y-72547857D02*
X80452571Y-72547857D01*
X80538285Y-72590714D01*
X80581142Y-72676428D01*
X80581142Y-72762142D01*
X80581142Y-73447857D02*
X80109714Y-73447857D01*
X80024000Y-73405000D01*
X79981142Y-73319285D01*
X79981142Y-73147857D01*
X80024000Y-73062142D01*
X80538285Y-73447857D02*
X80581142Y-73362142D01*
X80581142Y-73147857D01*
X80538285Y-73062142D01*
X80452571Y-73019285D01*
X80366857Y-73019285D01*
X80281142Y-73062142D01*
X80238285Y-73147857D01*
X80238285Y-73362142D01*
X80195428Y-73447857D01*
X80581142Y-74005000D02*
X80538285Y-73919285D01*
X80452571Y-73876428D01*
X79681142Y-73876428D01*
X80581142Y-74347857D02*
X79981142Y-74347857D01*
X79681142Y-74347857D02*
X79724000Y-74305000D01*
X79766857Y-74347857D01*
X79724000Y-74390714D01*
X79681142Y-74347857D01*
X79766857Y-74347857D01*
X79981142Y-74647857D02*
X79981142Y-74990714D01*
X79681142Y-74776428D02*
X80452571Y-74776428D01*
X80538285Y-74819285D01*
X80581142Y-74905000D01*
X80581142Y-74990714D01*
X80581142Y-75676428D02*
X80109714Y-75676428D01*
X80024000Y-75633571D01*
X79981142Y-75547857D01*
X79981142Y-75376428D01*
X80024000Y-75290714D01*
X80538285Y-75676428D02*
X80581142Y-75590714D01*
X80581142Y-75376428D01*
X80538285Y-75290714D01*
X80452571Y-75247857D01*
X80366857Y-75247857D01*
X80281142Y-75290714D01*
X80238285Y-75376428D01*
X80238285Y-75590714D01*
X80195428Y-75676428D01*
X79638285Y-76747857D02*
X80795428Y-75976428D01*
X82030142Y-56176428D02*
X81130142Y-56176428D01*
X81773000Y-56476428D01*
X81130142Y-56776428D01*
X82030142Y-56776428D01*
X81215857Y-57162142D02*
X81173000Y-57205000D01*
X81130142Y-57290714D01*
X81130142Y-57505000D01*
X81173000Y-57590714D01*
X81215857Y-57633571D01*
X81301571Y-57676428D01*
X81387285Y-57676428D01*
X81515857Y-57633571D01*
X82030142Y-57119285D01*
X82030142Y-57676428D01*
X81130142Y-57976428D02*
X81130142Y-58576428D01*
X82030142Y-58190714D01*
X81944428Y-59433571D02*
X81987285Y-59390714D01*
X82030142Y-59262142D01*
X82030142Y-59176428D01*
X81987285Y-59047857D01*
X81901571Y-58962142D01*
X81815857Y-58919285D01*
X81644428Y-58876428D01*
X81515857Y-58876428D01*
X81344428Y-58919285D01*
X81258714Y-58962142D01*
X81173000Y-59047857D01*
X81130142Y-59176428D01*
X81130142Y-59262142D01*
X81173000Y-59390714D01*
X81215857Y-59433571D01*
X81130142Y-59733571D02*
X81130142Y-60290714D01*
X81473000Y-59990714D01*
X81473000Y-60119285D01*
X81515857Y-60205000D01*
X81558714Y-60247857D01*
X81644428Y-60290714D01*
X81858714Y-60290714D01*
X81944428Y-60247857D01*
X81987285Y-60205000D01*
X82030142Y-60119285D01*
X82030142Y-59862142D01*
X81987285Y-59776428D01*
X81944428Y-59733571D01*
X81215857Y-60633571D02*
X81173000Y-60676428D01*
X81130142Y-60762142D01*
X81130142Y-60976428D01*
X81173000Y-61062142D01*
X81215857Y-61105000D01*
X81301571Y-61147857D01*
X81387285Y-61147857D01*
X81515857Y-61105000D01*
X82030142Y-60590714D01*
X82030142Y-61147857D01*
X81215857Y-61490714D02*
X81173000Y-61533571D01*
X81130142Y-61619285D01*
X81130142Y-61833571D01*
X81173000Y-61919285D01*
X81215857Y-61962142D01*
X81301571Y-62005000D01*
X81387285Y-62005000D01*
X81515857Y-61962142D01*
X82030142Y-61447857D01*
X82030142Y-62005000D01*
X81687285Y-62390714D02*
X81687285Y-63076428D01*
X81430142Y-63376428D02*
X81430142Y-63719285D01*
X81130142Y-63505000D02*
X81901571Y-63505000D01*
X81987285Y-63547857D01*
X82030142Y-63633571D01*
X82030142Y-63719285D01*
X82030142Y-64147857D02*
X81987285Y-64062142D01*
X81944428Y-64019285D01*
X81858714Y-63976428D01*
X81601571Y-63976428D01*
X81515857Y-64019285D01*
X81473000Y-64062142D01*
X81430142Y-64147857D01*
X81430142Y-64276428D01*
X81473000Y-64362142D01*
X81515857Y-64405000D01*
X81601571Y-64447857D01*
X81858714Y-64447857D01*
X81944428Y-64405000D01*
X81987285Y-64362142D01*
X82030142Y-64276428D01*
X82030142Y-64147857D01*
X81687285Y-64833571D02*
X81687285Y-65519285D01*
X82030142Y-65947857D02*
X81130142Y-65947857D01*
X82030142Y-66462142D02*
X81515857Y-66076428D01*
X81130142Y-66462142D02*
X81644428Y-65947857D01*
X82030142Y-66847857D02*
X81130142Y-66847857D01*
X81773000Y-67147857D01*
X81130142Y-67447857D01*
X82030142Y-67447857D01*
X81215857Y-67833571D02*
X81173000Y-67876428D01*
X81130142Y-67962142D01*
X81130142Y-68176428D01*
X81173000Y-68262142D01*
X81215857Y-68305000D01*
X81301571Y-68347857D01*
X81387285Y-68347857D01*
X81515857Y-68305000D01*
X82030142Y-67790714D01*
X82030142Y-68347857D01*
X81130142Y-68647857D02*
X81130142Y-69205000D01*
X81473000Y-68905000D01*
X81473000Y-69033571D01*
X81515857Y-69119285D01*
X81558714Y-69162142D01*
X81644428Y-69205000D01*
X81858714Y-69205000D01*
X81944428Y-69162142D01*
X81987285Y-69119285D01*
X82030142Y-69033571D01*
X82030142Y-68776428D01*
X81987285Y-68690714D01*
X81944428Y-68647857D01*
X81944428Y-70105000D02*
X81987285Y-70062142D01*
X82030142Y-69933571D01*
X82030142Y-69847857D01*
X81987285Y-69719285D01*
X81901571Y-69633571D01*
X81815857Y-69590714D01*
X81644428Y-69547857D01*
X81515857Y-69547857D01*
X81344428Y-69590714D01*
X81258714Y-69633571D01*
X81173000Y-69719285D01*
X81130142Y-69847857D01*
X81130142Y-69933571D01*
X81173000Y-70062142D01*
X81215857Y-70105000D01*
X81130142Y-70405000D02*
X81130142Y-70962142D01*
X81473000Y-70662142D01*
X81473000Y-70790714D01*
X81515857Y-70876428D01*
X81558714Y-70919285D01*
X81644428Y-70962142D01*
X81858714Y-70962142D01*
X81944428Y-70919285D01*
X81987285Y-70876428D01*
X82030142Y-70790714D01*
X82030142Y-70533571D01*
X81987285Y-70447857D01*
X81944428Y-70405000D01*
X81215857Y-71305000D02*
X81173000Y-71347857D01*
X81130142Y-71433571D01*
X81130142Y-71647857D01*
X81173000Y-71733571D01*
X81215857Y-71776428D01*
X81301571Y-71819285D01*
X81387285Y-71819285D01*
X81515857Y-71776428D01*
X82030142Y-71262142D01*
X82030142Y-71819285D01*
X81130142Y-72376428D02*
X81130142Y-72462142D01*
X81173000Y-72547857D01*
X81215857Y-72590714D01*
X81301571Y-72633571D01*
X81473000Y-72676428D01*
X81687285Y-72676428D01*
X81858714Y-72633571D01*
X81944428Y-72590714D01*
X81987285Y-72547857D01*
X82030142Y-72462142D01*
X82030142Y-72376428D01*
X81987285Y-72290714D01*
X81944428Y-72247857D01*
X81858714Y-72205000D01*
X81687285Y-72162142D01*
X81473000Y-72162142D01*
X81301571Y-72205000D01*
X81215857Y-72247857D01*
X81173000Y-72290714D01*
X81130142Y-72376428D01*
X81130142Y-73233571D02*
X81130142Y-73319285D01*
X81173000Y-73405000D01*
X81215857Y-73447857D01*
X81301571Y-73490714D01*
X81473000Y-73533571D01*
X81687285Y-73533571D01*
X81858714Y-73490714D01*
X81944428Y-73447857D01*
X81987285Y-73405000D01*
X82030142Y-73319285D01*
X82030142Y-73233571D01*
X81987285Y-73147857D01*
X81944428Y-73105000D01*
X81858714Y-73062142D01*
X81687285Y-73019285D01*
X81473000Y-73019285D01*
X81301571Y-73062142D01*
X81215857Y-73105000D01*
X81173000Y-73147857D01*
X81130142Y-73233571D01*
X81130142Y-74090714D02*
X81130142Y-74176428D01*
X81173000Y-74262142D01*
X81215857Y-74305000D01*
X81301571Y-74347857D01*
X81473000Y-74390714D01*
X81687285Y-74390714D01*
X81858714Y-74347857D01*
X81944428Y-74305000D01*
X81987285Y-74262142D01*
X82030142Y-74176428D01*
X82030142Y-74090714D01*
X81987285Y-74005000D01*
X81944428Y-73962142D01*
X81858714Y-73919285D01*
X81687285Y-73876428D01*
X81473000Y-73876428D01*
X81301571Y-73919285D01*
X81215857Y-73962142D01*
X81173000Y-74005000D01*
X81130142Y-74090714D01*
X81773000Y-74733571D02*
X81773000Y-75162142D01*
X82030142Y-74647857D02*
X81130142Y-74947857D01*
X82030142Y-75247857D01*
X81173000Y-76019285D02*
X81130142Y-75933571D01*
X81130142Y-75805000D01*
X81173000Y-75676428D01*
X81258714Y-75590714D01*
X81344428Y-75547857D01*
X81515857Y-75505000D01*
X81644428Y-75505000D01*
X81815857Y-75547857D01*
X81901571Y-75590714D01*
X81987285Y-75676428D01*
X82030142Y-75805000D01*
X82030142Y-75890714D01*
X81987285Y-76019285D01*
X81944428Y-76062142D01*
X81644428Y-76062142D01*
X81644428Y-75890714D01*
X81687285Y-76447857D02*
X81687285Y-77133571D01*
X82030142Y-77947857D02*
X81558714Y-77947857D01*
X81473000Y-77905000D01*
X81430142Y-77819285D01*
X81430142Y-77647857D01*
X81473000Y-77562142D01*
X81987285Y-77947857D02*
X82030142Y-77862142D01*
X82030142Y-77647857D01*
X81987285Y-77562142D01*
X81901571Y-77519285D01*
X81815857Y-77519285D01*
X81730142Y-77562142D01*
X81687285Y-77647857D01*
X81687285Y-77862142D01*
X81644428Y-77947857D01*
X82030142Y-78762142D02*
X81130142Y-78762142D01*
X81987285Y-78762142D02*
X82030142Y-78676428D01*
X82030142Y-78505000D01*
X81987285Y-78419285D01*
X81944428Y-78376428D01*
X81858714Y-78333571D01*
X81601571Y-78333571D01*
X81515857Y-78376428D01*
X81473000Y-78419285D01*
X81430142Y-78505000D01*
X81430142Y-78676428D01*
X81473000Y-78762142D01*
X82030142Y-79576428D02*
X81558714Y-79576428D01*
X81473000Y-79533571D01*
X81430142Y-79447857D01*
X81430142Y-79276428D01*
X81473000Y-79190714D01*
X81987285Y-79576428D02*
X82030142Y-79490714D01*
X82030142Y-79276428D01*
X81987285Y-79190714D01*
X81901571Y-79147857D01*
X81815857Y-79147857D01*
X81730142Y-79190714D01*
X81687285Y-79276428D01*
X81687285Y-79490714D01*
X81644428Y-79576428D01*
X81430142Y-80005000D02*
X82330142Y-80005000D01*
X81473000Y-80005000D02*
X81430142Y-80090714D01*
X81430142Y-80262142D01*
X81473000Y-80347857D01*
X81515857Y-80390714D01*
X81601571Y-80433571D01*
X81858714Y-80433571D01*
X81944428Y-80390714D01*
X81987285Y-80347857D01*
X82030142Y-80262142D01*
X82030142Y-80090714D01*
X81987285Y-80005000D01*
X81430142Y-80690714D02*
X81430142Y-81033571D01*
X81130142Y-80819285D02*
X81901571Y-80819285D01*
X81987285Y-80862142D01*
X82030142Y-80947857D01*
X82030142Y-81033571D01*
X81987285Y-81676428D02*
X82030142Y-81590714D01*
X82030142Y-81419285D01*
X81987285Y-81333571D01*
X81901571Y-81290714D01*
X81558714Y-81290714D01*
X81473000Y-81333571D01*
X81430142Y-81419285D01*
X81430142Y-81590714D01*
X81473000Y-81676428D01*
X81558714Y-81719285D01*
X81644428Y-81719285D01*
X81730142Y-81290714D01*
X82030142Y-82105000D02*
X81430142Y-82105000D01*
X81601571Y-82105000D02*
X81515857Y-82147857D01*
X81473000Y-82190714D01*
X81430142Y-82276428D01*
X81430142Y-82362142D01*
X46136142Y-62176428D02*
X46864714Y-62176428D01*
X46950428Y-62133571D01*
X46993285Y-62090714D01*
X47036142Y-62005000D01*
X47036142Y-61876428D01*
X46993285Y-61790714D01*
X46693285Y-62176428D02*
X46736142Y-62090714D01*
X46736142Y-61919285D01*
X46693285Y-61833571D01*
X46650428Y-61790714D01*
X46564714Y-61747857D01*
X46307571Y-61747857D01*
X46221857Y-61790714D01*
X46179000Y-61833571D01*
X46136142Y-61919285D01*
X46136142Y-62090714D01*
X46179000Y-62176428D01*
X46736142Y-62605000D02*
X46136142Y-62605000D01*
X45836142Y-62605000D02*
X45879000Y-62562142D01*
X45921857Y-62605000D01*
X45879000Y-62647857D01*
X45836142Y-62605000D01*
X45921857Y-62605000D01*
X46136142Y-62905000D02*
X46136142Y-63247857D01*
X45836142Y-63033571D02*
X46607571Y-63033571D01*
X46693285Y-63076428D01*
X46736142Y-63162142D01*
X46736142Y-63247857D01*
X46736142Y-63547857D02*
X45836142Y-63547857D01*
X46736142Y-63933571D02*
X46264714Y-63933571D01*
X46179000Y-63890714D01*
X46136142Y-63805000D01*
X46136142Y-63676428D01*
X46179000Y-63590714D01*
X46221857Y-63547857D01*
X46136142Y-64747857D02*
X46736142Y-64747857D01*
X46136142Y-64362142D02*
X46607571Y-64362142D01*
X46693285Y-64405000D01*
X46736142Y-64490714D01*
X46736142Y-64619285D01*
X46693285Y-64705000D01*
X46650428Y-64747857D01*
X46736142Y-65176428D02*
X45836142Y-65176428D01*
X46179000Y-65176428D02*
X46136142Y-65262142D01*
X46136142Y-65433571D01*
X46179000Y-65519285D01*
X46221857Y-65562142D01*
X46307571Y-65605000D01*
X46564714Y-65605000D01*
X46650428Y-65562142D01*
X46693285Y-65519285D01*
X46736142Y-65433571D01*
X46736142Y-65262142D01*
X46693285Y-65176428D01*
X46650428Y-65990714D02*
X46693285Y-66033571D01*
X46736142Y-65990714D01*
X46693285Y-65947857D01*
X46650428Y-65990714D01*
X46736142Y-65990714D01*
X46693285Y-66805000D02*
X46736142Y-66719285D01*
X46736142Y-66547857D01*
X46693285Y-66462142D01*
X46650428Y-66419285D01*
X46564714Y-66376428D01*
X46307571Y-66376428D01*
X46221857Y-66419285D01*
X46179000Y-66462142D01*
X46136142Y-66547857D01*
X46136142Y-66719285D01*
X46179000Y-66805000D01*
X46736142Y-67319285D02*
X46693285Y-67233571D01*
X46650428Y-67190714D01*
X46564714Y-67147857D01*
X46307571Y-67147857D01*
X46221857Y-67190714D01*
X46179000Y-67233571D01*
X46136142Y-67319285D01*
X46136142Y-67447857D01*
X46179000Y-67533571D01*
X46221857Y-67576428D01*
X46307571Y-67619285D01*
X46564714Y-67619285D01*
X46650428Y-67576428D01*
X46693285Y-67533571D01*
X46736142Y-67447857D01*
X46736142Y-67319285D01*
X46736142Y-68005000D02*
X46136142Y-68005000D01*
X46221857Y-68005000D02*
X46179000Y-68047857D01*
X46136142Y-68133571D01*
X46136142Y-68262142D01*
X46179000Y-68347857D01*
X46264714Y-68390714D01*
X46736142Y-68390714D01*
X46264714Y-68390714D02*
X46179000Y-68433571D01*
X46136142Y-68519285D01*
X46136142Y-68647857D01*
X46179000Y-68733571D01*
X46264714Y-68776428D01*
X46736142Y-68776428D01*
X45793285Y-69847857D02*
X46950428Y-69076428D01*
X46136142Y-70147857D02*
X46736142Y-70147857D01*
X46221857Y-70147857D02*
X46179000Y-70190714D01*
X46136142Y-70276428D01*
X46136142Y-70405000D01*
X46179000Y-70490714D01*
X46264714Y-70533571D01*
X46736142Y-70533571D01*
X46736142Y-70962142D02*
X46136142Y-70962142D01*
X45836142Y-70962142D02*
X45879000Y-70919285D01*
X45921857Y-70962142D01*
X45879000Y-71005000D01*
X45836142Y-70962142D01*
X45921857Y-70962142D01*
X46736142Y-71390714D02*
X45836142Y-71390714D01*
X46393285Y-71476428D02*
X46736142Y-71733571D01*
X46136142Y-71733571D02*
X46479000Y-71390714D01*
X46736142Y-72119285D02*
X46136142Y-72119285D01*
X45836142Y-72119285D02*
X45879000Y-72076428D01*
X45921857Y-72119285D01*
X45879000Y-72162142D01*
X45836142Y-72119285D01*
X45921857Y-72119285D01*
X46136142Y-72419285D02*
X46136142Y-72762142D01*
X45836142Y-72547857D02*
X46607571Y-72547857D01*
X46693285Y-72590714D01*
X46736142Y-72676428D01*
X46736142Y-72762142D01*
X46736142Y-73447857D02*
X46264714Y-73447857D01*
X46179000Y-73405000D01*
X46136142Y-73319285D01*
X46136142Y-73147857D01*
X46179000Y-73062142D01*
X46693285Y-73447857D02*
X46736142Y-73362142D01*
X46736142Y-73147857D01*
X46693285Y-73062142D01*
X46607571Y-73019285D01*
X46521857Y-73019285D01*
X46436142Y-73062142D01*
X46393285Y-73147857D01*
X46393285Y-73362142D01*
X46350428Y-73447857D01*
X46736142Y-74005000D02*
X46693285Y-73919285D01*
X46607571Y-73876428D01*
X45836142Y-73876428D01*
X46736142Y-74347857D02*
X46136142Y-74347857D01*
X45836142Y-74347857D02*
X45879000Y-74305000D01*
X45921857Y-74347857D01*
X45879000Y-74390714D01*
X45836142Y-74347857D01*
X45921857Y-74347857D01*
X46136142Y-74647857D02*
X46136142Y-74990714D01*
X45836142Y-74776428D02*
X46607571Y-74776428D01*
X46693285Y-74819285D01*
X46736142Y-74905000D01*
X46736142Y-74990714D01*
X46736142Y-75676428D02*
X46264714Y-75676428D01*
X46179000Y-75633571D01*
X46136142Y-75547857D01*
X46136142Y-75376428D01*
X46179000Y-75290714D01*
X46693285Y-75676428D02*
X46736142Y-75590714D01*
X46736142Y-75376428D01*
X46693285Y-75290714D01*
X46607571Y-75247857D01*
X46521857Y-75247857D01*
X46436142Y-75290714D01*
X46393285Y-75376428D01*
X46393285Y-75590714D01*
X46350428Y-75676428D01*
X45793285Y-76747857D02*
X46950428Y-75976428D01*
X48185142Y-56176428D02*
X47285142Y-56176428D01*
X47928000Y-56476428D01*
X47285142Y-56776428D01*
X48185142Y-56776428D01*
X47370857Y-57162142D02*
X47328000Y-57205000D01*
X47285142Y-57290714D01*
X47285142Y-57505000D01*
X47328000Y-57590714D01*
X47370857Y-57633571D01*
X47456571Y-57676428D01*
X47542285Y-57676428D01*
X47670857Y-57633571D01*
X48185142Y-57119285D01*
X48185142Y-57676428D01*
X47285142Y-57976428D02*
X47285142Y-58576428D01*
X48185142Y-58190714D01*
X48099428Y-59433571D02*
X48142285Y-59390714D01*
X48185142Y-59262142D01*
X48185142Y-59176428D01*
X48142285Y-59047857D01*
X48056571Y-58962142D01*
X47970857Y-58919285D01*
X47799428Y-58876428D01*
X47670857Y-58876428D01*
X47499428Y-58919285D01*
X47413714Y-58962142D01*
X47328000Y-59047857D01*
X47285142Y-59176428D01*
X47285142Y-59262142D01*
X47328000Y-59390714D01*
X47370857Y-59433571D01*
X47285142Y-59733571D02*
X47285142Y-60290714D01*
X47628000Y-59990714D01*
X47628000Y-60119285D01*
X47670857Y-60205000D01*
X47713714Y-60247857D01*
X47799428Y-60290714D01*
X48013714Y-60290714D01*
X48099428Y-60247857D01*
X48142285Y-60205000D01*
X48185142Y-60119285D01*
X48185142Y-59862142D01*
X48142285Y-59776428D01*
X48099428Y-59733571D01*
X47370857Y-60633571D02*
X47328000Y-60676428D01*
X47285142Y-60762142D01*
X47285142Y-60976428D01*
X47328000Y-61062142D01*
X47370857Y-61105000D01*
X47456571Y-61147857D01*
X47542285Y-61147857D01*
X47670857Y-61105000D01*
X48185142Y-60590714D01*
X48185142Y-61147857D01*
X47370857Y-61490714D02*
X47328000Y-61533571D01*
X47285142Y-61619285D01*
X47285142Y-61833571D01*
X47328000Y-61919285D01*
X47370857Y-61962142D01*
X47456571Y-62005000D01*
X47542285Y-62005000D01*
X47670857Y-61962142D01*
X48185142Y-61447857D01*
X48185142Y-62005000D01*
X47842285Y-62390714D02*
X47842285Y-63076428D01*
X47585142Y-63376428D02*
X47585142Y-63719285D01*
X47285142Y-63505000D02*
X48056571Y-63505000D01*
X48142285Y-63547857D01*
X48185142Y-63633571D01*
X48185142Y-63719285D01*
X48185142Y-64147857D02*
X48142285Y-64062142D01*
X48099428Y-64019285D01*
X48013714Y-63976428D01*
X47756571Y-63976428D01*
X47670857Y-64019285D01*
X47628000Y-64062142D01*
X47585142Y-64147857D01*
X47585142Y-64276428D01*
X47628000Y-64362142D01*
X47670857Y-64405000D01*
X47756571Y-64447857D01*
X48013714Y-64447857D01*
X48099428Y-64405000D01*
X48142285Y-64362142D01*
X48185142Y-64276428D01*
X48185142Y-64147857D01*
X47842285Y-64833571D02*
X47842285Y-65519285D01*
X48185142Y-65947857D02*
X47285142Y-65947857D01*
X48185142Y-66462142D02*
X47670857Y-66076428D01*
X47285142Y-66462142D02*
X47799428Y-65947857D01*
X48185142Y-66847857D02*
X47285142Y-66847857D01*
X47928000Y-67147857D01*
X47285142Y-67447857D01*
X48185142Y-67447857D01*
X47370857Y-67833571D02*
X47328000Y-67876428D01*
X47285142Y-67962142D01*
X47285142Y-68176428D01*
X47328000Y-68262142D01*
X47370857Y-68305000D01*
X47456571Y-68347857D01*
X47542285Y-68347857D01*
X47670857Y-68305000D01*
X48185142Y-67790714D01*
X48185142Y-68347857D01*
X47285142Y-68647857D02*
X47285142Y-69205000D01*
X47628000Y-68905000D01*
X47628000Y-69033571D01*
X47670857Y-69119285D01*
X47713714Y-69162142D01*
X47799428Y-69205000D01*
X48013714Y-69205000D01*
X48099428Y-69162142D01*
X48142285Y-69119285D01*
X48185142Y-69033571D01*
X48185142Y-68776428D01*
X48142285Y-68690714D01*
X48099428Y-68647857D01*
X48099428Y-70105000D02*
X48142285Y-70062142D01*
X48185142Y-69933571D01*
X48185142Y-69847857D01*
X48142285Y-69719285D01*
X48056571Y-69633571D01*
X47970857Y-69590714D01*
X47799428Y-69547857D01*
X47670857Y-69547857D01*
X47499428Y-69590714D01*
X47413714Y-69633571D01*
X47328000Y-69719285D01*
X47285142Y-69847857D01*
X47285142Y-69933571D01*
X47328000Y-70062142D01*
X47370857Y-70105000D01*
X47285142Y-70405000D02*
X47285142Y-70962142D01*
X47628000Y-70662142D01*
X47628000Y-70790714D01*
X47670857Y-70876428D01*
X47713714Y-70919285D01*
X47799428Y-70962142D01*
X48013714Y-70962142D01*
X48099428Y-70919285D01*
X48142285Y-70876428D01*
X48185142Y-70790714D01*
X48185142Y-70533571D01*
X48142285Y-70447857D01*
X48099428Y-70405000D01*
X47370857Y-71305000D02*
X47328000Y-71347857D01*
X47285142Y-71433571D01*
X47285142Y-71647857D01*
X47328000Y-71733571D01*
X47370857Y-71776428D01*
X47456571Y-71819285D01*
X47542285Y-71819285D01*
X47670857Y-71776428D01*
X48185142Y-71262142D01*
X48185142Y-71819285D01*
X47285142Y-72376428D02*
X47285142Y-72462142D01*
X47328000Y-72547857D01*
X47370857Y-72590714D01*
X47456571Y-72633571D01*
X47628000Y-72676428D01*
X47842285Y-72676428D01*
X48013714Y-72633571D01*
X48099428Y-72590714D01*
X48142285Y-72547857D01*
X48185142Y-72462142D01*
X48185142Y-72376428D01*
X48142285Y-72290714D01*
X48099428Y-72247857D01*
X48013714Y-72205000D01*
X47842285Y-72162142D01*
X47628000Y-72162142D01*
X47456571Y-72205000D01*
X47370857Y-72247857D01*
X47328000Y-72290714D01*
X47285142Y-72376428D01*
X47285142Y-73233571D02*
X47285142Y-73319285D01*
X47328000Y-73405000D01*
X47370857Y-73447857D01*
X47456571Y-73490714D01*
X47628000Y-73533571D01*
X47842285Y-73533571D01*
X48013714Y-73490714D01*
X48099428Y-73447857D01*
X48142285Y-73405000D01*
X48185142Y-73319285D01*
X48185142Y-73233571D01*
X48142285Y-73147857D01*
X48099428Y-73105000D01*
X48013714Y-73062142D01*
X47842285Y-73019285D01*
X47628000Y-73019285D01*
X47456571Y-73062142D01*
X47370857Y-73105000D01*
X47328000Y-73147857D01*
X47285142Y-73233571D01*
X47285142Y-74090714D02*
X47285142Y-74176428D01*
X47328000Y-74262142D01*
X47370857Y-74305000D01*
X47456571Y-74347857D01*
X47628000Y-74390714D01*
X47842285Y-74390714D01*
X48013714Y-74347857D01*
X48099428Y-74305000D01*
X48142285Y-74262142D01*
X48185142Y-74176428D01*
X48185142Y-74090714D01*
X48142285Y-74005000D01*
X48099428Y-73962142D01*
X48013714Y-73919285D01*
X47842285Y-73876428D01*
X47628000Y-73876428D01*
X47456571Y-73919285D01*
X47370857Y-73962142D01*
X47328000Y-74005000D01*
X47285142Y-74090714D01*
X47928000Y-74733571D02*
X47928000Y-75162142D01*
X48185142Y-74647857D02*
X47285142Y-74947857D01*
X48185142Y-75247857D01*
X47328000Y-76019285D02*
X47285142Y-75933571D01*
X47285142Y-75805000D01*
X47328000Y-75676428D01*
X47413714Y-75590714D01*
X47499428Y-75547857D01*
X47670857Y-75505000D01*
X47799428Y-75505000D01*
X47970857Y-75547857D01*
X48056571Y-75590714D01*
X48142285Y-75676428D01*
X48185142Y-75805000D01*
X48185142Y-75890714D01*
X48142285Y-76019285D01*
X48099428Y-76062142D01*
X47799428Y-76062142D01*
X47799428Y-75890714D01*
X47842285Y-76447857D02*
X47842285Y-77133571D01*
X48185142Y-77947857D02*
X47713714Y-77947857D01*
X47628000Y-77905000D01*
X47585142Y-77819285D01*
X47585142Y-77647857D01*
X47628000Y-77562142D01*
X48142285Y-77947857D02*
X48185142Y-77862142D01*
X48185142Y-77647857D01*
X48142285Y-77562142D01*
X48056571Y-77519285D01*
X47970857Y-77519285D01*
X47885142Y-77562142D01*
X47842285Y-77647857D01*
X47842285Y-77862142D01*
X47799428Y-77947857D01*
X48185142Y-78762142D02*
X47285142Y-78762142D01*
X48142285Y-78762142D02*
X48185142Y-78676428D01*
X48185142Y-78505000D01*
X48142285Y-78419285D01*
X48099428Y-78376428D01*
X48013714Y-78333571D01*
X47756571Y-78333571D01*
X47670857Y-78376428D01*
X47628000Y-78419285D01*
X47585142Y-78505000D01*
X47585142Y-78676428D01*
X47628000Y-78762142D01*
X48185142Y-79576428D02*
X47713714Y-79576428D01*
X47628000Y-79533571D01*
X47585142Y-79447857D01*
X47585142Y-79276428D01*
X47628000Y-79190714D01*
X48142285Y-79576428D02*
X48185142Y-79490714D01*
X48185142Y-79276428D01*
X48142285Y-79190714D01*
X48056571Y-79147857D01*
X47970857Y-79147857D01*
X47885142Y-79190714D01*
X47842285Y-79276428D01*
X47842285Y-79490714D01*
X47799428Y-79576428D01*
X47585142Y-80005000D02*
X48485142Y-80005000D01*
X47628000Y-80005000D02*
X47585142Y-80090714D01*
X47585142Y-80262142D01*
X47628000Y-80347857D01*
X47670857Y-80390714D01*
X47756571Y-80433571D01*
X48013714Y-80433571D01*
X48099428Y-80390714D01*
X48142285Y-80347857D01*
X48185142Y-80262142D01*
X48185142Y-80090714D01*
X48142285Y-80005000D01*
X47585142Y-80690714D02*
X47585142Y-81033571D01*
X47285142Y-80819285D02*
X48056571Y-80819285D01*
X48142285Y-80862142D01*
X48185142Y-80947857D01*
X48185142Y-81033571D01*
X48142285Y-81676428D02*
X48185142Y-81590714D01*
X48185142Y-81419285D01*
X48142285Y-81333571D01*
X48056571Y-81290714D01*
X47713714Y-81290714D01*
X47628000Y-81333571D01*
X47585142Y-81419285D01*
X47585142Y-81590714D01*
X47628000Y-81676428D01*
X47713714Y-81719285D01*
X47799428Y-81719285D01*
X47885142Y-81290714D01*
X48185142Y-82105000D02*
X47585142Y-82105000D01*
X47756571Y-82105000D02*
X47670857Y-82147857D01*
X47628000Y-82190714D01*
X47585142Y-82276428D01*
X47585142Y-82362142D01*
X63058642Y-62176428D02*
X63787214Y-62176428D01*
X63872928Y-62133571D01*
X63915785Y-62090714D01*
X63958642Y-62005000D01*
X63958642Y-61876428D01*
X63915785Y-61790714D01*
X63615785Y-62176428D02*
X63658642Y-62090714D01*
X63658642Y-61919285D01*
X63615785Y-61833571D01*
X63572928Y-61790714D01*
X63487214Y-61747857D01*
X63230071Y-61747857D01*
X63144357Y-61790714D01*
X63101500Y-61833571D01*
X63058642Y-61919285D01*
X63058642Y-62090714D01*
X63101500Y-62176428D01*
X63658642Y-62605000D02*
X63058642Y-62605000D01*
X62758642Y-62605000D02*
X62801500Y-62562142D01*
X62844357Y-62605000D01*
X62801500Y-62647857D01*
X62758642Y-62605000D01*
X62844357Y-62605000D01*
X63058642Y-62905000D02*
X63058642Y-63247857D01*
X62758642Y-63033571D02*
X63530071Y-63033571D01*
X63615785Y-63076428D01*
X63658642Y-63162142D01*
X63658642Y-63247857D01*
X63658642Y-63547857D02*
X62758642Y-63547857D01*
X63658642Y-63933571D02*
X63187214Y-63933571D01*
X63101500Y-63890714D01*
X63058642Y-63805000D01*
X63058642Y-63676428D01*
X63101500Y-63590714D01*
X63144357Y-63547857D01*
X63058642Y-64747857D02*
X63658642Y-64747857D01*
X63058642Y-64362142D02*
X63530071Y-64362142D01*
X63615785Y-64405000D01*
X63658642Y-64490714D01*
X63658642Y-64619285D01*
X63615785Y-64705000D01*
X63572928Y-64747857D01*
X63658642Y-65176428D02*
X62758642Y-65176428D01*
X63101500Y-65176428D02*
X63058642Y-65262142D01*
X63058642Y-65433571D01*
X63101500Y-65519285D01*
X63144357Y-65562142D01*
X63230071Y-65605000D01*
X63487214Y-65605000D01*
X63572928Y-65562142D01*
X63615785Y-65519285D01*
X63658642Y-65433571D01*
X63658642Y-65262142D01*
X63615785Y-65176428D01*
X63572928Y-65990714D02*
X63615785Y-66033571D01*
X63658642Y-65990714D01*
X63615785Y-65947857D01*
X63572928Y-65990714D01*
X63658642Y-65990714D01*
X63615785Y-66805000D02*
X63658642Y-66719285D01*
X63658642Y-66547857D01*
X63615785Y-66462142D01*
X63572928Y-66419285D01*
X63487214Y-66376428D01*
X63230071Y-66376428D01*
X63144357Y-66419285D01*
X63101500Y-66462142D01*
X63058642Y-66547857D01*
X63058642Y-66719285D01*
X63101500Y-66805000D01*
X63658642Y-67319285D02*
X63615785Y-67233571D01*
X63572928Y-67190714D01*
X63487214Y-67147857D01*
X63230071Y-67147857D01*
X63144357Y-67190714D01*
X63101500Y-67233571D01*
X63058642Y-67319285D01*
X63058642Y-67447857D01*
X63101500Y-67533571D01*
X63144357Y-67576428D01*
X63230071Y-67619285D01*
X63487214Y-67619285D01*
X63572928Y-67576428D01*
X63615785Y-67533571D01*
X63658642Y-67447857D01*
X63658642Y-67319285D01*
X63658642Y-68005000D02*
X63058642Y-68005000D01*
X63144357Y-68005000D02*
X63101500Y-68047857D01*
X63058642Y-68133571D01*
X63058642Y-68262142D01*
X63101500Y-68347857D01*
X63187214Y-68390714D01*
X63658642Y-68390714D01*
X63187214Y-68390714D02*
X63101500Y-68433571D01*
X63058642Y-68519285D01*
X63058642Y-68647857D01*
X63101500Y-68733571D01*
X63187214Y-68776428D01*
X63658642Y-68776428D01*
X62715785Y-69847857D02*
X63872928Y-69076428D01*
X63058642Y-70147857D02*
X63658642Y-70147857D01*
X63144357Y-70147857D02*
X63101500Y-70190714D01*
X63058642Y-70276428D01*
X63058642Y-70405000D01*
X63101500Y-70490714D01*
X63187214Y-70533571D01*
X63658642Y-70533571D01*
X63658642Y-70962142D02*
X63058642Y-70962142D01*
X62758642Y-70962142D02*
X62801500Y-70919285D01*
X62844357Y-70962142D01*
X62801500Y-71005000D01*
X62758642Y-70962142D01*
X62844357Y-70962142D01*
X63658642Y-71390714D02*
X62758642Y-71390714D01*
X63315785Y-71476428D02*
X63658642Y-71733571D01*
X63058642Y-71733571D02*
X63401500Y-71390714D01*
X63658642Y-72119285D02*
X63058642Y-72119285D01*
X62758642Y-72119285D02*
X62801500Y-72076428D01*
X62844357Y-72119285D01*
X62801500Y-72162142D01*
X62758642Y-72119285D01*
X62844357Y-72119285D01*
X63058642Y-72419285D02*
X63058642Y-72762142D01*
X62758642Y-72547857D02*
X63530071Y-72547857D01*
X63615785Y-72590714D01*
X63658642Y-72676428D01*
X63658642Y-72762142D01*
X63658642Y-73447857D02*
X63187214Y-73447857D01*
X63101500Y-73405000D01*
X63058642Y-73319285D01*
X63058642Y-73147857D01*
X63101500Y-73062142D01*
X63615785Y-73447857D02*
X63658642Y-73362142D01*
X63658642Y-73147857D01*
X63615785Y-73062142D01*
X63530071Y-73019285D01*
X63444357Y-73019285D01*
X63358642Y-73062142D01*
X63315785Y-73147857D01*
X63315785Y-73362142D01*
X63272928Y-73447857D01*
X63658642Y-74005000D02*
X63615785Y-73919285D01*
X63530071Y-73876428D01*
X62758642Y-73876428D01*
X63658642Y-74347857D02*
X63058642Y-74347857D01*
X62758642Y-74347857D02*
X62801500Y-74305000D01*
X62844357Y-74347857D01*
X62801500Y-74390714D01*
X62758642Y-74347857D01*
X62844357Y-74347857D01*
X63058642Y-74647857D02*
X63058642Y-74990714D01*
X62758642Y-74776428D02*
X63530071Y-74776428D01*
X63615785Y-74819285D01*
X63658642Y-74905000D01*
X63658642Y-74990714D01*
X63658642Y-75676428D02*
X63187214Y-75676428D01*
X63101500Y-75633571D01*
X63058642Y-75547857D01*
X63058642Y-75376428D01*
X63101500Y-75290714D01*
X63615785Y-75676428D02*
X63658642Y-75590714D01*
X63658642Y-75376428D01*
X63615785Y-75290714D01*
X63530071Y-75247857D01*
X63444357Y-75247857D01*
X63358642Y-75290714D01*
X63315785Y-75376428D01*
X63315785Y-75590714D01*
X63272928Y-75676428D01*
X62715785Y-76747857D02*
X63872928Y-75976428D01*
X65107642Y-56176428D02*
X64207642Y-56176428D01*
X64850500Y-56476428D01*
X64207642Y-56776428D01*
X65107642Y-56776428D01*
X64293357Y-57162142D02*
X64250500Y-57205000D01*
X64207642Y-57290714D01*
X64207642Y-57505000D01*
X64250500Y-57590714D01*
X64293357Y-57633571D01*
X64379071Y-57676428D01*
X64464785Y-57676428D01*
X64593357Y-57633571D01*
X65107642Y-57119285D01*
X65107642Y-57676428D01*
X64207642Y-57976428D02*
X64207642Y-58576428D01*
X65107642Y-58190714D01*
X65021928Y-59433571D02*
X65064785Y-59390714D01*
X65107642Y-59262142D01*
X65107642Y-59176428D01*
X65064785Y-59047857D01*
X64979071Y-58962142D01*
X64893357Y-58919285D01*
X64721928Y-58876428D01*
X64593357Y-58876428D01*
X64421928Y-58919285D01*
X64336214Y-58962142D01*
X64250500Y-59047857D01*
X64207642Y-59176428D01*
X64207642Y-59262142D01*
X64250500Y-59390714D01*
X64293357Y-59433571D01*
X64207642Y-59733571D02*
X64207642Y-60290714D01*
X64550500Y-59990714D01*
X64550500Y-60119285D01*
X64593357Y-60205000D01*
X64636214Y-60247857D01*
X64721928Y-60290714D01*
X64936214Y-60290714D01*
X65021928Y-60247857D01*
X65064785Y-60205000D01*
X65107642Y-60119285D01*
X65107642Y-59862142D01*
X65064785Y-59776428D01*
X65021928Y-59733571D01*
X64293357Y-60633571D02*
X64250500Y-60676428D01*
X64207642Y-60762142D01*
X64207642Y-60976428D01*
X64250500Y-61062142D01*
X64293357Y-61105000D01*
X64379071Y-61147857D01*
X64464785Y-61147857D01*
X64593357Y-61105000D01*
X65107642Y-60590714D01*
X65107642Y-61147857D01*
X64293357Y-61490714D02*
X64250500Y-61533571D01*
X64207642Y-61619285D01*
X64207642Y-61833571D01*
X64250500Y-61919285D01*
X64293357Y-61962142D01*
X64379071Y-62005000D01*
X64464785Y-62005000D01*
X64593357Y-61962142D01*
X65107642Y-61447857D01*
X65107642Y-62005000D01*
X64764785Y-62390714D02*
X64764785Y-63076428D01*
X64507642Y-63376428D02*
X64507642Y-63719285D01*
X64207642Y-63505000D02*
X64979071Y-63505000D01*
X65064785Y-63547857D01*
X65107642Y-63633571D01*
X65107642Y-63719285D01*
X65107642Y-64147857D02*
X65064785Y-64062142D01*
X65021928Y-64019285D01*
X64936214Y-63976428D01*
X64679071Y-63976428D01*
X64593357Y-64019285D01*
X64550500Y-64062142D01*
X64507642Y-64147857D01*
X64507642Y-64276428D01*
X64550500Y-64362142D01*
X64593357Y-64405000D01*
X64679071Y-64447857D01*
X64936214Y-64447857D01*
X65021928Y-64405000D01*
X65064785Y-64362142D01*
X65107642Y-64276428D01*
X65107642Y-64147857D01*
X64764785Y-64833571D02*
X64764785Y-65519285D01*
X65107642Y-65947857D02*
X64207642Y-65947857D01*
X65107642Y-66462142D02*
X64593357Y-66076428D01*
X64207642Y-66462142D02*
X64721928Y-65947857D01*
X65107642Y-66847857D02*
X64207642Y-66847857D01*
X64850500Y-67147857D01*
X64207642Y-67447857D01*
X65107642Y-67447857D01*
X64293357Y-67833571D02*
X64250500Y-67876428D01*
X64207642Y-67962142D01*
X64207642Y-68176428D01*
X64250500Y-68262142D01*
X64293357Y-68305000D01*
X64379071Y-68347857D01*
X64464785Y-68347857D01*
X64593357Y-68305000D01*
X65107642Y-67790714D01*
X65107642Y-68347857D01*
X64207642Y-68647857D02*
X64207642Y-69205000D01*
X64550500Y-68905000D01*
X64550500Y-69033571D01*
X64593357Y-69119285D01*
X64636214Y-69162142D01*
X64721928Y-69205000D01*
X64936214Y-69205000D01*
X65021928Y-69162142D01*
X65064785Y-69119285D01*
X65107642Y-69033571D01*
X65107642Y-68776428D01*
X65064785Y-68690714D01*
X65021928Y-68647857D01*
X65021928Y-70105000D02*
X65064785Y-70062142D01*
X65107642Y-69933571D01*
X65107642Y-69847857D01*
X65064785Y-69719285D01*
X64979071Y-69633571D01*
X64893357Y-69590714D01*
X64721928Y-69547857D01*
X64593357Y-69547857D01*
X64421928Y-69590714D01*
X64336214Y-69633571D01*
X64250500Y-69719285D01*
X64207642Y-69847857D01*
X64207642Y-69933571D01*
X64250500Y-70062142D01*
X64293357Y-70105000D01*
X64207642Y-70405000D02*
X64207642Y-70962142D01*
X64550500Y-70662142D01*
X64550500Y-70790714D01*
X64593357Y-70876428D01*
X64636214Y-70919285D01*
X64721928Y-70962142D01*
X64936214Y-70962142D01*
X65021928Y-70919285D01*
X65064785Y-70876428D01*
X65107642Y-70790714D01*
X65107642Y-70533571D01*
X65064785Y-70447857D01*
X65021928Y-70405000D01*
X64293357Y-71305000D02*
X64250500Y-71347857D01*
X64207642Y-71433571D01*
X64207642Y-71647857D01*
X64250500Y-71733571D01*
X64293357Y-71776428D01*
X64379071Y-71819285D01*
X64464785Y-71819285D01*
X64593357Y-71776428D01*
X65107642Y-71262142D01*
X65107642Y-71819285D01*
X64207642Y-72376428D02*
X64207642Y-72462142D01*
X64250500Y-72547857D01*
X64293357Y-72590714D01*
X64379071Y-72633571D01*
X64550500Y-72676428D01*
X64764785Y-72676428D01*
X64936214Y-72633571D01*
X65021928Y-72590714D01*
X65064785Y-72547857D01*
X65107642Y-72462142D01*
X65107642Y-72376428D01*
X65064785Y-72290714D01*
X65021928Y-72247857D01*
X64936214Y-72205000D01*
X64764785Y-72162142D01*
X64550500Y-72162142D01*
X64379071Y-72205000D01*
X64293357Y-72247857D01*
X64250500Y-72290714D01*
X64207642Y-72376428D01*
X64207642Y-73233571D02*
X64207642Y-73319285D01*
X64250500Y-73405000D01*
X64293357Y-73447857D01*
X64379071Y-73490714D01*
X64550500Y-73533571D01*
X64764785Y-73533571D01*
X64936214Y-73490714D01*
X65021928Y-73447857D01*
X65064785Y-73405000D01*
X65107642Y-73319285D01*
X65107642Y-73233571D01*
X65064785Y-73147857D01*
X65021928Y-73105000D01*
X64936214Y-73062142D01*
X64764785Y-73019285D01*
X64550500Y-73019285D01*
X64379071Y-73062142D01*
X64293357Y-73105000D01*
X64250500Y-73147857D01*
X64207642Y-73233571D01*
X64207642Y-74090714D02*
X64207642Y-74176428D01*
X64250500Y-74262142D01*
X64293357Y-74305000D01*
X64379071Y-74347857D01*
X64550500Y-74390714D01*
X64764785Y-74390714D01*
X64936214Y-74347857D01*
X65021928Y-74305000D01*
X65064785Y-74262142D01*
X65107642Y-74176428D01*
X65107642Y-74090714D01*
X65064785Y-74005000D01*
X65021928Y-73962142D01*
X64936214Y-73919285D01*
X64764785Y-73876428D01*
X64550500Y-73876428D01*
X64379071Y-73919285D01*
X64293357Y-73962142D01*
X64250500Y-74005000D01*
X64207642Y-74090714D01*
X64850500Y-74733571D02*
X64850500Y-75162142D01*
X65107642Y-74647857D02*
X64207642Y-74947857D01*
X65107642Y-75247857D01*
X64250500Y-76019285D02*
X64207642Y-75933571D01*
X64207642Y-75805000D01*
X64250500Y-75676428D01*
X64336214Y-75590714D01*
X64421928Y-75547857D01*
X64593357Y-75505000D01*
X64721928Y-75505000D01*
X64893357Y-75547857D01*
X64979071Y-75590714D01*
X65064785Y-75676428D01*
X65107642Y-75805000D01*
X65107642Y-75890714D01*
X65064785Y-76019285D01*
X65021928Y-76062142D01*
X64721928Y-76062142D01*
X64721928Y-75890714D01*
X64764785Y-76447857D02*
X64764785Y-77133571D01*
X65107642Y-77947857D02*
X64636214Y-77947857D01*
X64550500Y-77905000D01*
X64507642Y-77819285D01*
X64507642Y-77647857D01*
X64550500Y-77562142D01*
X65064785Y-77947857D02*
X65107642Y-77862142D01*
X65107642Y-77647857D01*
X65064785Y-77562142D01*
X64979071Y-77519285D01*
X64893357Y-77519285D01*
X64807642Y-77562142D01*
X64764785Y-77647857D01*
X64764785Y-77862142D01*
X64721928Y-77947857D01*
X65107642Y-78762142D02*
X64207642Y-78762142D01*
X65064785Y-78762142D02*
X65107642Y-78676428D01*
X65107642Y-78505000D01*
X65064785Y-78419285D01*
X65021928Y-78376428D01*
X64936214Y-78333571D01*
X64679071Y-78333571D01*
X64593357Y-78376428D01*
X64550500Y-78419285D01*
X64507642Y-78505000D01*
X64507642Y-78676428D01*
X64550500Y-78762142D01*
X65107642Y-79576428D02*
X64636214Y-79576428D01*
X64550500Y-79533571D01*
X64507642Y-79447857D01*
X64507642Y-79276428D01*
X64550500Y-79190714D01*
X65064785Y-79576428D02*
X65107642Y-79490714D01*
X65107642Y-79276428D01*
X65064785Y-79190714D01*
X64979071Y-79147857D01*
X64893357Y-79147857D01*
X64807642Y-79190714D01*
X64764785Y-79276428D01*
X64764785Y-79490714D01*
X64721928Y-79576428D01*
X64507642Y-80005000D02*
X65407642Y-80005000D01*
X64550500Y-80005000D02*
X64507642Y-80090714D01*
X64507642Y-80262142D01*
X64550500Y-80347857D01*
X64593357Y-80390714D01*
X64679071Y-80433571D01*
X64936214Y-80433571D01*
X65021928Y-80390714D01*
X65064785Y-80347857D01*
X65107642Y-80262142D01*
X65107642Y-80090714D01*
X65064785Y-80005000D01*
X64507642Y-80690714D02*
X64507642Y-81033571D01*
X64207642Y-80819285D02*
X64979071Y-80819285D01*
X65064785Y-80862142D01*
X65107642Y-80947857D01*
X65107642Y-81033571D01*
X65064785Y-81676428D02*
X65107642Y-81590714D01*
X65107642Y-81419285D01*
X65064785Y-81333571D01*
X64979071Y-81290714D01*
X64636214Y-81290714D01*
X64550500Y-81333571D01*
X64507642Y-81419285D01*
X64507642Y-81590714D01*
X64550500Y-81676428D01*
X64636214Y-81719285D01*
X64721928Y-81719285D01*
X64807642Y-81290714D01*
X65107642Y-82105000D02*
X64507642Y-82105000D01*
X64679071Y-82105000D02*
X64593357Y-82147857D01*
X64550500Y-82190714D01*
X64507642Y-82276428D01*
X64507642Y-82362142D01*
X29213642Y-62176428D02*
X29942214Y-62176428D01*
X30027928Y-62133571D01*
X30070785Y-62090714D01*
X30113642Y-62005000D01*
X30113642Y-61876428D01*
X30070785Y-61790714D01*
X29770785Y-62176428D02*
X29813642Y-62090714D01*
X29813642Y-61919285D01*
X29770785Y-61833571D01*
X29727928Y-61790714D01*
X29642214Y-61747857D01*
X29385071Y-61747857D01*
X29299357Y-61790714D01*
X29256500Y-61833571D01*
X29213642Y-61919285D01*
X29213642Y-62090714D01*
X29256500Y-62176428D01*
X29813642Y-62605000D02*
X29213642Y-62605000D01*
X28913642Y-62605000D02*
X28956500Y-62562142D01*
X28999357Y-62605000D01*
X28956500Y-62647857D01*
X28913642Y-62605000D01*
X28999357Y-62605000D01*
X29213642Y-62905000D02*
X29213642Y-63247857D01*
X28913642Y-63033571D02*
X29685071Y-63033571D01*
X29770785Y-63076428D01*
X29813642Y-63162142D01*
X29813642Y-63247857D01*
X29813642Y-63547857D02*
X28913642Y-63547857D01*
X29813642Y-63933571D02*
X29342214Y-63933571D01*
X29256500Y-63890714D01*
X29213642Y-63805000D01*
X29213642Y-63676428D01*
X29256500Y-63590714D01*
X29299357Y-63547857D01*
X29213642Y-64747857D02*
X29813642Y-64747857D01*
X29213642Y-64362142D02*
X29685071Y-64362142D01*
X29770785Y-64405000D01*
X29813642Y-64490714D01*
X29813642Y-64619285D01*
X29770785Y-64705000D01*
X29727928Y-64747857D01*
X29813642Y-65176428D02*
X28913642Y-65176428D01*
X29256500Y-65176428D02*
X29213642Y-65262142D01*
X29213642Y-65433571D01*
X29256500Y-65519285D01*
X29299357Y-65562142D01*
X29385071Y-65605000D01*
X29642214Y-65605000D01*
X29727928Y-65562142D01*
X29770785Y-65519285D01*
X29813642Y-65433571D01*
X29813642Y-65262142D01*
X29770785Y-65176428D01*
X29727928Y-65990714D02*
X29770785Y-66033571D01*
X29813642Y-65990714D01*
X29770785Y-65947857D01*
X29727928Y-65990714D01*
X29813642Y-65990714D01*
X29770785Y-66805000D02*
X29813642Y-66719285D01*
X29813642Y-66547857D01*
X29770785Y-66462142D01*
X29727928Y-66419285D01*
X29642214Y-66376428D01*
X29385071Y-66376428D01*
X29299357Y-66419285D01*
X29256500Y-66462142D01*
X29213642Y-66547857D01*
X29213642Y-66719285D01*
X29256500Y-66805000D01*
X29813642Y-67319285D02*
X29770785Y-67233571D01*
X29727928Y-67190714D01*
X29642214Y-67147857D01*
X29385071Y-67147857D01*
X29299357Y-67190714D01*
X29256500Y-67233571D01*
X29213642Y-67319285D01*
X29213642Y-67447857D01*
X29256500Y-67533571D01*
X29299357Y-67576428D01*
X29385071Y-67619285D01*
X29642214Y-67619285D01*
X29727928Y-67576428D01*
X29770785Y-67533571D01*
X29813642Y-67447857D01*
X29813642Y-67319285D01*
X29813642Y-68005000D02*
X29213642Y-68005000D01*
X29299357Y-68005000D02*
X29256500Y-68047857D01*
X29213642Y-68133571D01*
X29213642Y-68262142D01*
X29256500Y-68347857D01*
X29342214Y-68390714D01*
X29813642Y-68390714D01*
X29342214Y-68390714D02*
X29256500Y-68433571D01*
X29213642Y-68519285D01*
X29213642Y-68647857D01*
X29256500Y-68733571D01*
X29342214Y-68776428D01*
X29813642Y-68776428D01*
X28870785Y-69847857D02*
X30027928Y-69076428D01*
X29213642Y-70147857D02*
X29813642Y-70147857D01*
X29299357Y-70147857D02*
X29256500Y-70190714D01*
X29213642Y-70276428D01*
X29213642Y-70405000D01*
X29256500Y-70490714D01*
X29342214Y-70533571D01*
X29813642Y-70533571D01*
X29813642Y-70962142D02*
X29213642Y-70962142D01*
X28913642Y-70962142D02*
X28956500Y-70919285D01*
X28999357Y-70962142D01*
X28956500Y-71005000D01*
X28913642Y-70962142D01*
X28999357Y-70962142D01*
X29813642Y-71390714D02*
X28913642Y-71390714D01*
X29470785Y-71476428D02*
X29813642Y-71733571D01*
X29213642Y-71733571D02*
X29556500Y-71390714D01*
X29813642Y-72119285D02*
X29213642Y-72119285D01*
X28913642Y-72119285D02*
X28956500Y-72076428D01*
X28999357Y-72119285D01*
X28956500Y-72162142D01*
X28913642Y-72119285D01*
X28999357Y-72119285D01*
X29213642Y-72419285D02*
X29213642Y-72762142D01*
X28913642Y-72547857D02*
X29685071Y-72547857D01*
X29770785Y-72590714D01*
X29813642Y-72676428D01*
X29813642Y-72762142D01*
X29813642Y-73447857D02*
X29342214Y-73447857D01*
X29256500Y-73405000D01*
X29213642Y-73319285D01*
X29213642Y-73147857D01*
X29256500Y-73062142D01*
X29770785Y-73447857D02*
X29813642Y-73362142D01*
X29813642Y-73147857D01*
X29770785Y-73062142D01*
X29685071Y-73019285D01*
X29599357Y-73019285D01*
X29513642Y-73062142D01*
X29470785Y-73147857D01*
X29470785Y-73362142D01*
X29427928Y-73447857D01*
X29813642Y-74005000D02*
X29770785Y-73919285D01*
X29685071Y-73876428D01*
X28913642Y-73876428D01*
X29813642Y-74347857D02*
X29213642Y-74347857D01*
X28913642Y-74347857D02*
X28956500Y-74305000D01*
X28999357Y-74347857D01*
X28956500Y-74390714D01*
X28913642Y-74347857D01*
X28999357Y-74347857D01*
X29213642Y-74647857D02*
X29213642Y-74990714D01*
X28913642Y-74776428D02*
X29685071Y-74776428D01*
X29770785Y-74819285D01*
X29813642Y-74905000D01*
X29813642Y-74990714D01*
X29813642Y-75676428D02*
X29342214Y-75676428D01*
X29256500Y-75633571D01*
X29213642Y-75547857D01*
X29213642Y-75376428D01*
X29256500Y-75290714D01*
X29770785Y-75676428D02*
X29813642Y-75590714D01*
X29813642Y-75376428D01*
X29770785Y-75290714D01*
X29685071Y-75247857D01*
X29599357Y-75247857D01*
X29513642Y-75290714D01*
X29470785Y-75376428D01*
X29470785Y-75590714D01*
X29427928Y-75676428D01*
X28870785Y-76747857D02*
X30027928Y-75976428D01*
X31262642Y-56176428D02*
X30362642Y-56176428D01*
X31005500Y-56476428D01*
X30362642Y-56776428D01*
X31262642Y-56776428D01*
X30448357Y-57162142D02*
X30405500Y-57205000D01*
X30362642Y-57290714D01*
X30362642Y-57505000D01*
X30405500Y-57590714D01*
X30448357Y-57633571D01*
X30534071Y-57676428D01*
X30619785Y-57676428D01*
X30748357Y-57633571D01*
X31262642Y-57119285D01*
X31262642Y-57676428D01*
X30362642Y-57976428D02*
X30362642Y-58576428D01*
X31262642Y-58190714D01*
X31176928Y-59433571D02*
X31219785Y-59390714D01*
X31262642Y-59262142D01*
X31262642Y-59176428D01*
X31219785Y-59047857D01*
X31134071Y-58962142D01*
X31048357Y-58919285D01*
X30876928Y-58876428D01*
X30748357Y-58876428D01*
X30576928Y-58919285D01*
X30491214Y-58962142D01*
X30405500Y-59047857D01*
X30362642Y-59176428D01*
X30362642Y-59262142D01*
X30405500Y-59390714D01*
X30448357Y-59433571D01*
X30362642Y-59733571D02*
X30362642Y-60290714D01*
X30705500Y-59990714D01*
X30705500Y-60119285D01*
X30748357Y-60205000D01*
X30791214Y-60247857D01*
X30876928Y-60290714D01*
X31091214Y-60290714D01*
X31176928Y-60247857D01*
X31219785Y-60205000D01*
X31262642Y-60119285D01*
X31262642Y-59862142D01*
X31219785Y-59776428D01*
X31176928Y-59733571D01*
X30448357Y-60633571D02*
X30405500Y-60676428D01*
X30362642Y-60762142D01*
X30362642Y-60976428D01*
X30405500Y-61062142D01*
X30448357Y-61105000D01*
X30534071Y-61147857D01*
X30619785Y-61147857D01*
X30748357Y-61105000D01*
X31262642Y-60590714D01*
X31262642Y-61147857D01*
X30448357Y-61490714D02*
X30405500Y-61533571D01*
X30362642Y-61619285D01*
X30362642Y-61833571D01*
X30405500Y-61919285D01*
X30448357Y-61962142D01*
X30534071Y-62005000D01*
X30619785Y-62005000D01*
X30748357Y-61962142D01*
X31262642Y-61447857D01*
X31262642Y-62005000D01*
X30919785Y-62390714D02*
X30919785Y-63076428D01*
X30662642Y-63376428D02*
X30662642Y-63719285D01*
X30362642Y-63505000D02*
X31134071Y-63505000D01*
X31219785Y-63547857D01*
X31262642Y-63633571D01*
X31262642Y-63719285D01*
X31262642Y-64147857D02*
X31219785Y-64062142D01*
X31176928Y-64019285D01*
X31091214Y-63976428D01*
X30834071Y-63976428D01*
X30748357Y-64019285D01*
X30705500Y-64062142D01*
X30662642Y-64147857D01*
X30662642Y-64276428D01*
X30705500Y-64362142D01*
X30748357Y-64405000D01*
X30834071Y-64447857D01*
X31091214Y-64447857D01*
X31176928Y-64405000D01*
X31219785Y-64362142D01*
X31262642Y-64276428D01*
X31262642Y-64147857D01*
X30919785Y-64833571D02*
X30919785Y-65519285D01*
X31262642Y-65947857D02*
X30362642Y-65947857D01*
X31262642Y-66462142D02*
X30748357Y-66076428D01*
X30362642Y-66462142D02*
X30876928Y-65947857D01*
X31262642Y-66847857D02*
X30362642Y-66847857D01*
X31005500Y-67147857D01*
X30362642Y-67447857D01*
X31262642Y-67447857D01*
X30448357Y-67833571D02*
X30405500Y-67876428D01*
X30362642Y-67962142D01*
X30362642Y-68176428D01*
X30405500Y-68262142D01*
X30448357Y-68305000D01*
X30534071Y-68347857D01*
X30619785Y-68347857D01*
X30748357Y-68305000D01*
X31262642Y-67790714D01*
X31262642Y-68347857D01*
X30362642Y-68647857D02*
X30362642Y-69205000D01*
X30705500Y-68905000D01*
X30705500Y-69033571D01*
X30748357Y-69119285D01*
X30791214Y-69162142D01*
X30876928Y-69205000D01*
X31091214Y-69205000D01*
X31176928Y-69162142D01*
X31219785Y-69119285D01*
X31262642Y-69033571D01*
X31262642Y-68776428D01*
X31219785Y-68690714D01*
X31176928Y-68647857D01*
X31176928Y-70105000D02*
X31219785Y-70062142D01*
X31262642Y-69933571D01*
X31262642Y-69847857D01*
X31219785Y-69719285D01*
X31134071Y-69633571D01*
X31048357Y-69590714D01*
X30876928Y-69547857D01*
X30748357Y-69547857D01*
X30576928Y-69590714D01*
X30491214Y-69633571D01*
X30405500Y-69719285D01*
X30362642Y-69847857D01*
X30362642Y-69933571D01*
X30405500Y-70062142D01*
X30448357Y-70105000D01*
X30362642Y-70405000D02*
X30362642Y-70962142D01*
X30705500Y-70662142D01*
X30705500Y-70790714D01*
X30748357Y-70876428D01*
X30791214Y-70919285D01*
X30876928Y-70962142D01*
X31091214Y-70962142D01*
X31176928Y-70919285D01*
X31219785Y-70876428D01*
X31262642Y-70790714D01*
X31262642Y-70533571D01*
X31219785Y-70447857D01*
X31176928Y-70405000D01*
X30448357Y-71305000D02*
X30405500Y-71347857D01*
X30362642Y-71433571D01*
X30362642Y-71647857D01*
X30405500Y-71733571D01*
X30448357Y-71776428D01*
X30534071Y-71819285D01*
X30619785Y-71819285D01*
X30748357Y-71776428D01*
X31262642Y-71262142D01*
X31262642Y-71819285D01*
X30362642Y-72376428D02*
X30362642Y-72462142D01*
X30405500Y-72547857D01*
X30448357Y-72590714D01*
X30534071Y-72633571D01*
X30705500Y-72676428D01*
X30919785Y-72676428D01*
X31091214Y-72633571D01*
X31176928Y-72590714D01*
X31219785Y-72547857D01*
X31262642Y-72462142D01*
X31262642Y-72376428D01*
X31219785Y-72290714D01*
X31176928Y-72247857D01*
X31091214Y-72205000D01*
X30919785Y-72162142D01*
X30705500Y-72162142D01*
X30534071Y-72205000D01*
X30448357Y-72247857D01*
X30405500Y-72290714D01*
X30362642Y-72376428D01*
X30362642Y-73233571D02*
X30362642Y-73319285D01*
X30405500Y-73405000D01*
X30448357Y-73447857D01*
X30534071Y-73490714D01*
X30705500Y-73533571D01*
X30919785Y-73533571D01*
X31091214Y-73490714D01*
X31176928Y-73447857D01*
X31219785Y-73405000D01*
X31262642Y-73319285D01*
X31262642Y-73233571D01*
X31219785Y-73147857D01*
X31176928Y-73105000D01*
X31091214Y-73062142D01*
X30919785Y-73019285D01*
X30705500Y-73019285D01*
X30534071Y-73062142D01*
X30448357Y-73105000D01*
X30405500Y-73147857D01*
X30362642Y-73233571D01*
X30362642Y-74090714D02*
X30362642Y-74176428D01*
X30405500Y-74262142D01*
X30448357Y-74305000D01*
X30534071Y-74347857D01*
X30705500Y-74390714D01*
X30919785Y-74390714D01*
X31091214Y-74347857D01*
X31176928Y-74305000D01*
X31219785Y-74262142D01*
X31262642Y-74176428D01*
X31262642Y-74090714D01*
X31219785Y-74005000D01*
X31176928Y-73962142D01*
X31091214Y-73919285D01*
X30919785Y-73876428D01*
X30705500Y-73876428D01*
X30534071Y-73919285D01*
X30448357Y-73962142D01*
X30405500Y-74005000D01*
X30362642Y-74090714D01*
X31005500Y-74733571D02*
X31005500Y-75162142D01*
X31262642Y-74647857D02*
X30362642Y-74947857D01*
X31262642Y-75247857D01*
X30405500Y-76019285D02*
X30362642Y-75933571D01*
X30362642Y-75805000D01*
X30405500Y-75676428D01*
X30491214Y-75590714D01*
X30576928Y-75547857D01*
X30748357Y-75505000D01*
X30876928Y-75505000D01*
X31048357Y-75547857D01*
X31134071Y-75590714D01*
X31219785Y-75676428D01*
X31262642Y-75805000D01*
X31262642Y-75890714D01*
X31219785Y-76019285D01*
X31176928Y-76062142D01*
X30876928Y-76062142D01*
X30876928Y-75890714D01*
X30919785Y-76447857D02*
X30919785Y-77133571D01*
X31262642Y-77947857D02*
X30791214Y-77947857D01*
X30705500Y-77905000D01*
X30662642Y-77819285D01*
X30662642Y-77647857D01*
X30705500Y-77562142D01*
X31219785Y-77947857D02*
X31262642Y-77862142D01*
X31262642Y-77647857D01*
X31219785Y-77562142D01*
X31134071Y-77519285D01*
X31048357Y-77519285D01*
X30962642Y-77562142D01*
X30919785Y-77647857D01*
X30919785Y-77862142D01*
X30876928Y-77947857D01*
X31262642Y-78762142D02*
X30362642Y-78762142D01*
X31219785Y-78762142D02*
X31262642Y-78676428D01*
X31262642Y-78505000D01*
X31219785Y-78419285D01*
X31176928Y-78376428D01*
X31091214Y-78333571D01*
X30834071Y-78333571D01*
X30748357Y-78376428D01*
X30705500Y-78419285D01*
X30662642Y-78505000D01*
X30662642Y-78676428D01*
X30705500Y-78762142D01*
X31262642Y-79576428D02*
X30791214Y-79576428D01*
X30705500Y-79533571D01*
X30662642Y-79447857D01*
X30662642Y-79276428D01*
X30705500Y-79190714D01*
X31219785Y-79576428D02*
X31262642Y-79490714D01*
X31262642Y-79276428D01*
X31219785Y-79190714D01*
X31134071Y-79147857D01*
X31048357Y-79147857D01*
X30962642Y-79190714D01*
X30919785Y-79276428D01*
X30919785Y-79490714D01*
X30876928Y-79576428D01*
X30662642Y-80005000D02*
X31562642Y-80005000D01*
X30705500Y-80005000D02*
X30662642Y-80090714D01*
X30662642Y-80262142D01*
X30705500Y-80347857D01*
X30748357Y-80390714D01*
X30834071Y-80433571D01*
X31091214Y-80433571D01*
X31176928Y-80390714D01*
X31219785Y-80347857D01*
X31262642Y-80262142D01*
X31262642Y-80090714D01*
X31219785Y-80005000D01*
X30662642Y-80690714D02*
X30662642Y-81033571D01*
X30362642Y-80819285D02*
X31134071Y-80819285D01*
X31219785Y-80862142D01*
X31262642Y-80947857D01*
X31262642Y-81033571D01*
X31219785Y-81676428D02*
X31262642Y-81590714D01*
X31262642Y-81419285D01*
X31219785Y-81333571D01*
X31134071Y-81290714D01*
X30791214Y-81290714D01*
X30705500Y-81333571D01*
X30662642Y-81419285D01*
X30662642Y-81590714D01*
X30705500Y-81676428D01*
X30791214Y-81719285D01*
X30876928Y-81719285D01*
X30962642Y-81290714D01*
X31262642Y-82105000D02*
X30662642Y-82105000D01*
X30834071Y-82105000D02*
X30748357Y-82147857D01*
X30705500Y-82190714D01*
X30662642Y-82276428D01*
X30662642Y-82362142D01*
X96903642Y-30506428D02*
X97632214Y-30506428D01*
X97717928Y-30463571D01*
X97760785Y-30420714D01*
X97803642Y-30335000D01*
X97803642Y-30206428D01*
X97760785Y-30120714D01*
X97460785Y-30506428D02*
X97503642Y-30420714D01*
X97503642Y-30249285D01*
X97460785Y-30163571D01*
X97417928Y-30120714D01*
X97332214Y-30077857D01*
X97075071Y-30077857D01*
X96989357Y-30120714D01*
X96946500Y-30163571D01*
X96903642Y-30249285D01*
X96903642Y-30420714D01*
X96946500Y-30506428D01*
X97503642Y-30935000D02*
X96903642Y-30935000D01*
X96603642Y-30935000D02*
X96646500Y-30892142D01*
X96689357Y-30935000D01*
X96646500Y-30977857D01*
X96603642Y-30935000D01*
X96689357Y-30935000D01*
X96903642Y-31235000D02*
X96903642Y-31577857D01*
X96603642Y-31363571D02*
X97375071Y-31363571D01*
X97460785Y-31406428D01*
X97503642Y-31492142D01*
X97503642Y-31577857D01*
X97503642Y-31877857D02*
X96603642Y-31877857D01*
X97503642Y-32263571D02*
X97032214Y-32263571D01*
X96946500Y-32220714D01*
X96903642Y-32135000D01*
X96903642Y-32006428D01*
X96946500Y-31920714D01*
X96989357Y-31877857D01*
X96903642Y-33077857D02*
X97503642Y-33077857D01*
X96903642Y-32692142D02*
X97375071Y-32692142D01*
X97460785Y-32735000D01*
X97503642Y-32820714D01*
X97503642Y-32949285D01*
X97460785Y-33035000D01*
X97417928Y-33077857D01*
X97503642Y-33506428D02*
X96603642Y-33506428D01*
X96946500Y-33506428D02*
X96903642Y-33592142D01*
X96903642Y-33763571D01*
X96946500Y-33849285D01*
X96989357Y-33892142D01*
X97075071Y-33935000D01*
X97332214Y-33935000D01*
X97417928Y-33892142D01*
X97460785Y-33849285D01*
X97503642Y-33763571D01*
X97503642Y-33592142D01*
X97460785Y-33506428D01*
X97417928Y-34320714D02*
X97460785Y-34363571D01*
X97503642Y-34320714D01*
X97460785Y-34277857D01*
X97417928Y-34320714D01*
X97503642Y-34320714D01*
X97460785Y-35135000D02*
X97503642Y-35049285D01*
X97503642Y-34877857D01*
X97460785Y-34792142D01*
X97417928Y-34749285D01*
X97332214Y-34706428D01*
X97075071Y-34706428D01*
X96989357Y-34749285D01*
X96946500Y-34792142D01*
X96903642Y-34877857D01*
X96903642Y-35049285D01*
X96946500Y-35135000D01*
X97503642Y-35649285D02*
X97460785Y-35563571D01*
X97417928Y-35520714D01*
X97332214Y-35477857D01*
X97075071Y-35477857D01*
X96989357Y-35520714D01*
X96946500Y-35563571D01*
X96903642Y-35649285D01*
X96903642Y-35777857D01*
X96946500Y-35863571D01*
X96989357Y-35906428D01*
X97075071Y-35949285D01*
X97332214Y-35949285D01*
X97417928Y-35906428D01*
X97460785Y-35863571D01*
X97503642Y-35777857D01*
X97503642Y-35649285D01*
X97503642Y-36335000D02*
X96903642Y-36335000D01*
X96989357Y-36335000D02*
X96946500Y-36377857D01*
X96903642Y-36463571D01*
X96903642Y-36592142D01*
X96946500Y-36677857D01*
X97032214Y-36720714D01*
X97503642Y-36720714D01*
X97032214Y-36720714D02*
X96946500Y-36763571D01*
X96903642Y-36849285D01*
X96903642Y-36977857D01*
X96946500Y-37063571D01*
X97032214Y-37106428D01*
X97503642Y-37106428D01*
X96560785Y-38177857D02*
X97717928Y-37406428D01*
X96903642Y-38477857D02*
X97503642Y-38477857D01*
X96989357Y-38477857D02*
X96946500Y-38520714D01*
X96903642Y-38606428D01*
X96903642Y-38735000D01*
X96946500Y-38820714D01*
X97032214Y-38863571D01*
X97503642Y-38863571D01*
X97503642Y-39292142D02*
X96903642Y-39292142D01*
X96603642Y-39292142D02*
X96646500Y-39249285D01*
X96689357Y-39292142D01*
X96646500Y-39335000D01*
X96603642Y-39292142D01*
X96689357Y-39292142D01*
X97503642Y-39720714D02*
X96603642Y-39720714D01*
X97160785Y-39806428D02*
X97503642Y-40063571D01*
X96903642Y-40063571D02*
X97246500Y-39720714D01*
X97503642Y-40449285D02*
X96903642Y-40449285D01*
X96603642Y-40449285D02*
X96646500Y-40406428D01*
X96689357Y-40449285D01*
X96646500Y-40492142D01*
X96603642Y-40449285D01*
X96689357Y-40449285D01*
X96903642Y-40749285D02*
X96903642Y-41092142D01*
X96603642Y-40877857D02*
X97375071Y-40877857D01*
X97460785Y-40920714D01*
X97503642Y-41006428D01*
X97503642Y-41092142D01*
X97503642Y-41777857D02*
X97032214Y-41777857D01*
X96946500Y-41735000D01*
X96903642Y-41649285D01*
X96903642Y-41477857D01*
X96946500Y-41392142D01*
X97460785Y-41777857D02*
X97503642Y-41692142D01*
X97503642Y-41477857D01*
X97460785Y-41392142D01*
X97375071Y-41349285D01*
X97289357Y-41349285D01*
X97203642Y-41392142D01*
X97160785Y-41477857D01*
X97160785Y-41692142D01*
X97117928Y-41777857D01*
X97503642Y-42335000D02*
X97460785Y-42249285D01*
X97375071Y-42206428D01*
X96603642Y-42206428D01*
X97503642Y-42677857D02*
X96903642Y-42677857D01*
X96603642Y-42677857D02*
X96646500Y-42635000D01*
X96689357Y-42677857D01*
X96646500Y-42720714D01*
X96603642Y-42677857D01*
X96689357Y-42677857D01*
X96903642Y-42977857D02*
X96903642Y-43320714D01*
X96603642Y-43106428D02*
X97375071Y-43106428D01*
X97460785Y-43149285D01*
X97503642Y-43235000D01*
X97503642Y-43320714D01*
X97503642Y-44006428D02*
X97032214Y-44006428D01*
X96946500Y-43963571D01*
X96903642Y-43877857D01*
X96903642Y-43706428D01*
X96946500Y-43620714D01*
X97460785Y-44006428D02*
X97503642Y-43920714D01*
X97503642Y-43706428D01*
X97460785Y-43620714D01*
X97375071Y-43577857D01*
X97289357Y-43577857D01*
X97203642Y-43620714D01*
X97160785Y-43706428D01*
X97160785Y-43920714D01*
X97117928Y-44006428D01*
X96560785Y-45077857D02*
X97717928Y-44306428D01*
X98952642Y-24506428D02*
X98052642Y-24506428D01*
X98695500Y-24806428D01*
X98052642Y-25106428D01*
X98952642Y-25106428D01*
X98138357Y-25492142D02*
X98095500Y-25535000D01*
X98052642Y-25620714D01*
X98052642Y-25835000D01*
X98095500Y-25920714D01*
X98138357Y-25963571D01*
X98224071Y-26006428D01*
X98309785Y-26006428D01*
X98438357Y-25963571D01*
X98952642Y-25449285D01*
X98952642Y-26006428D01*
X98052642Y-26306428D02*
X98052642Y-26906428D01*
X98952642Y-26520714D01*
X98866928Y-27763571D02*
X98909785Y-27720714D01*
X98952642Y-27592142D01*
X98952642Y-27506428D01*
X98909785Y-27377857D01*
X98824071Y-27292142D01*
X98738357Y-27249285D01*
X98566928Y-27206428D01*
X98438357Y-27206428D01*
X98266928Y-27249285D01*
X98181214Y-27292142D01*
X98095500Y-27377857D01*
X98052642Y-27506428D01*
X98052642Y-27592142D01*
X98095500Y-27720714D01*
X98138357Y-27763571D01*
X98052642Y-28063571D02*
X98052642Y-28620714D01*
X98395500Y-28320714D01*
X98395500Y-28449285D01*
X98438357Y-28535000D01*
X98481214Y-28577857D01*
X98566928Y-28620714D01*
X98781214Y-28620714D01*
X98866928Y-28577857D01*
X98909785Y-28535000D01*
X98952642Y-28449285D01*
X98952642Y-28192142D01*
X98909785Y-28106428D01*
X98866928Y-28063571D01*
X98138357Y-28963571D02*
X98095500Y-29006428D01*
X98052642Y-29092142D01*
X98052642Y-29306428D01*
X98095500Y-29392142D01*
X98138357Y-29435000D01*
X98224071Y-29477857D01*
X98309785Y-29477857D01*
X98438357Y-29435000D01*
X98952642Y-28920714D01*
X98952642Y-29477857D01*
X98138357Y-29820714D02*
X98095500Y-29863571D01*
X98052642Y-29949285D01*
X98052642Y-30163571D01*
X98095500Y-30249285D01*
X98138357Y-30292142D01*
X98224071Y-30335000D01*
X98309785Y-30335000D01*
X98438357Y-30292142D01*
X98952642Y-29777857D01*
X98952642Y-30335000D01*
X98609785Y-30720714D02*
X98609785Y-31406428D01*
X98352642Y-31706428D02*
X98352642Y-32049285D01*
X98052642Y-31835000D02*
X98824071Y-31835000D01*
X98909785Y-31877857D01*
X98952642Y-31963571D01*
X98952642Y-32049285D01*
X98952642Y-32477857D02*
X98909785Y-32392142D01*
X98866928Y-32349285D01*
X98781214Y-32306428D01*
X98524071Y-32306428D01*
X98438357Y-32349285D01*
X98395500Y-32392142D01*
X98352642Y-32477857D01*
X98352642Y-32606428D01*
X98395500Y-32692142D01*
X98438357Y-32735000D01*
X98524071Y-32777857D01*
X98781214Y-32777857D01*
X98866928Y-32735000D01*
X98909785Y-32692142D01*
X98952642Y-32606428D01*
X98952642Y-32477857D01*
X98609785Y-33163571D02*
X98609785Y-33849285D01*
X98952642Y-34277857D02*
X98052642Y-34277857D01*
X98952642Y-34792142D02*
X98438357Y-34406428D01*
X98052642Y-34792142D02*
X98566928Y-34277857D01*
X98952642Y-35177857D02*
X98052642Y-35177857D01*
X98695500Y-35477857D01*
X98052642Y-35777857D01*
X98952642Y-35777857D01*
X98138357Y-36163571D02*
X98095500Y-36206428D01*
X98052642Y-36292142D01*
X98052642Y-36506428D01*
X98095500Y-36592142D01*
X98138357Y-36635000D01*
X98224071Y-36677857D01*
X98309785Y-36677857D01*
X98438357Y-36635000D01*
X98952642Y-36120714D01*
X98952642Y-36677857D01*
X98052642Y-36977857D02*
X98052642Y-37535000D01*
X98395500Y-37235000D01*
X98395500Y-37363571D01*
X98438357Y-37449285D01*
X98481214Y-37492142D01*
X98566928Y-37535000D01*
X98781214Y-37535000D01*
X98866928Y-37492142D01*
X98909785Y-37449285D01*
X98952642Y-37363571D01*
X98952642Y-37106428D01*
X98909785Y-37020714D01*
X98866928Y-36977857D01*
X98866928Y-38435000D02*
X98909785Y-38392142D01*
X98952642Y-38263571D01*
X98952642Y-38177857D01*
X98909785Y-38049285D01*
X98824071Y-37963571D01*
X98738357Y-37920714D01*
X98566928Y-37877857D01*
X98438357Y-37877857D01*
X98266928Y-37920714D01*
X98181214Y-37963571D01*
X98095500Y-38049285D01*
X98052642Y-38177857D01*
X98052642Y-38263571D01*
X98095500Y-38392142D01*
X98138357Y-38435000D01*
X98052642Y-38735000D02*
X98052642Y-39292142D01*
X98395500Y-38992142D01*
X98395500Y-39120714D01*
X98438357Y-39206428D01*
X98481214Y-39249285D01*
X98566928Y-39292142D01*
X98781214Y-39292142D01*
X98866928Y-39249285D01*
X98909785Y-39206428D01*
X98952642Y-39120714D01*
X98952642Y-38863571D01*
X98909785Y-38777857D01*
X98866928Y-38735000D01*
X98138357Y-39635000D02*
X98095500Y-39677857D01*
X98052642Y-39763571D01*
X98052642Y-39977857D01*
X98095500Y-40063571D01*
X98138357Y-40106428D01*
X98224071Y-40149285D01*
X98309785Y-40149285D01*
X98438357Y-40106428D01*
X98952642Y-39592142D01*
X98952642Y-40149285D01*
X98052642Y-40706428D02*
X98052642Y-40792142D01*
X98095500Y-40877857D01*
X98138357Y-40920714D01*
X98224071Y-40963571D01*
X98395500Y-41006428D01*
X98609785Y-41006428D01*
X98781214Y-40963571D01*
X98866928Y-40920714D01*
X98909785Y-40877857D01*
X98952642Y-40792142D01*
X98952642Y-40706428D01*
X98909785Y-40620714D01*
X98866928Y-40577857D01*
X98781214Y-40535000D01*
X98609785Y-40492142D01*
X98395500Y-40492142D01*
X98224071Y-40535000D01*
X98138357Y-40577857D01*
X98095500Y-40620714D01*
X98052642Y-40706428D01*
X98052642Y-41563571D02*
X98052642Y-41649285D01*
X98095500Y-41735000D01*
X98138357Y-41777857D01*
X98224071Y-41820714D01*
X98395500Y-41863571D01*
X98609785Y-41863571D01*
X98781214Y-41820714D01*
X98866928Y-41777857D01*
X98909785Y-41735000D01*
X98952642Y-41649285D01*
X98952642Y-41563571D01*
X98909785Y-41477857D01*
X98866928Y-41435000D01*
X98781214Y-41392142D01*
X98609785Y-41349285D01*
X98395500Y-41349285D01*
X98224071Y-41392142D01*
X98138357Y-41435000D01*
X98095500Y-41477857D01*
X98052642Y-41563571D01*
X98052642Y-42420714D02*
X98052642Y-42506428D01*
X98095500Y-42592142D01*
X98138357Y-42635000D01*
X98224071Y-42677857D01*
X98395500Y-42720714D01*
X98609785Y-42720714D01*
X98781214Y-42677857D01*
X98866928Y-42635000D01*
X98909785Y-42592142D01*
X98952642Y-42506428D01*
X98952642Y-42420714D01*
X98909785Y-42335000D01*
X98866928Y-42292142D01*
X98781214Y-42249285D01*
X98609785Y-42206428D01*
X98395500Y-42206428D01*
X98224071Y-42249285D01*
X98138357Y-42292142D01*
X98095500Y-42335000D01*
X98052642Y-42420714D01*
X98695500Y-43063571D02*
X98695500Y-43492142D01*
X98952642Y-42977857D02*
X98052642Y-43277857D01*
X98952642Y-43577857D01*
X98095500Y-44349285D02*
X98052642Y-44263571D01*
X98052642Y-44135000D01*
X98095500Y-44006428D01*
X98181214Y-43920714D01*
X98266928Y-43877857D01*
X98438357Y-43835000D01*
X98566928Y-43835000D01*
X98738357Y-43877857D01*
X98824071Y-43920714D01*
X98909785Y-44006428D01*
X98952642Y-44135000D01*
X98952642Y-44220714D01*
X98909785Y-44349285D01*
X98866928Y-44392142D01*
X98566928Y-44392142D01*
X98566928Y-44220714D01*
X98609785Y-44777857D02*
X98609785Y-45463571D01*
X98952642Y-46277857D02*
X98481214Y-46277857D01*
X98395500Y-46235000D01*
X98352642Y-46149285D01*
X98352642Y-45977857D01*
X98395500Y-45892142D01*
X98909785Y-46277857D02*
X98952642Y-46192142D01*
X98952642Y-45977857D01*
X98909785Y-45892142D01*
X98824071Y-45849285D01*
X98738357Y-45849285D01*
X98652642Y-45892142D01*
X98609785Y-45977857D01*
X98609785Y-46192142D01*
X98566928Y-46277857D01*
X98952642Y-47092142D02*
X98052642Y-47092142D01*
X98909785Y-47092142D02*
X98952642Y-47006428D01*
X98952642Y-46835000D01*
X98909785Y-46749285D01*
X98866928Y-46706428D01*
X98781214Y-46663571D01*
X98524071Y-46663571D01*
X98438357Y-46706428D01*
X98395500Y-46749285D01*
X98352642Y-46835000D01*
X98352642Y-47006428D01*
X98395500Y-47092142D01*
X98952642Y-47906428D02*
X98481214Y-47906428D01*
X98395500Y-47863571D01*
X98352642Y-47777857D01*
X98352642Y-47606428D01*
X98395500Y-47520714D01*
X98909785Y-47906428D02*
X98952642Y-47820714D01*
X98952642Y-47606428D01*
X98909785Y-47520714D01*
X98824071Y-47477857D01*
X98738357Y-47477857D01*
X98652642Y-47520714D01*
X98609785Y-47606428D01*
X98609785Y-47820714D01*
X98566928Y-47906428D01*
X98352642Y-48335000D02*
X99252642Y-48335000D01*
X98395500Y-48335000D02*
X98352642Y-48420714D01*
X98352642Y-48592142D01*
X98395500Y-48677857D01*
X98438357Y-48720714D01*
X98524071Y-48763571D01*
X98781214Y-48763571D01*
X98866928Y-48720714D01*
X98909785Y-48677857D01*
X98952642Y-48592142D01*
X98952642Y-48420714D01*
X98909785Y-48335000D01*
X98352642Y-49020714D02*
X98352642Y-49363571D01*
X98052642Y-49149285D02*
X98824071Y-49149285D01*
X98909785Y-49192142D01*
X98952642Y-49277857D01*
X98952642Y-49363571D01*
X98909785Y-50006428D02*
X98952642Y-49920714D01*
X98952642Y-49749285D01*
X98909785Y-49663571D01*
X98824071Y-49620714D01*
X98481214Y-49620714D01*
X98395500Y-49663571D01*
X98352642Y-49749285D01*
X98352642Y-49920714D01*
X98395500Y-50006428D01*
X98481214Y-50049285D01*
X98566928Y-50049285D01*
X98652642Y-49620714D01*
X98952642Y-50435000D02*
X98352642Y-50435000D01*
X98524071Y-50435000D02*
X98438357Y-50477857D01*
X98395500Y-50520714D01*
X98352642Y-50606428D01*
X98352642Y-50692142D01*
X63058642Y-30506428D02*
X63787214Y-30506428D01*
X63872928Y-30463571D01*
X63915785Y-30420714D01*
X63958642Y-30335000D01*
X63958642Y-30206428D01*
X63915785Y-30120714D01*
X63615785Y-30506428D02*
X63658642Y-30420714D01*
X63658642Y-30249285D01*
X63615785Y-30163571D01*
X63572928Y-30120714D01*
X63487214Y-30077857D01*
X63230071Y-30077857D01*
X63144357Y-30120714D01*
X63101500Y-30163571D01*
X63058642Y-30249285D01*
X63058642Y-30420714D01*
X63101500Y-30506428D01*
X63658642Y-30935000D02*
X63058642Y-30935000D01*
X62758642Y-30935000D02*
X62801500Y-30892142D01*
X62844357Y-30935000D01*
X62801500Y-30977857D01*
X62758642Y-30935000D01*
X62844357Y-30935000D01*
X63058642Y-31235000D02*
X63058642Y-31577857D01*
X62758642Y-31363571D02*
X63530071Y-31363571D01*
X63615785Y-31406428D01*
X63658642Y-31492142D01*
X63658642Y-31577857D01*
X63658642Y-31877857D02*
X62758642Y-31877857D01*
X63658642Y-32263571D02*
X63187214Y-32263571D01*
X63101500Y-32220714D01*
X63058642Y-32135000D01*
X63058642Y-32006428D01*
X63101500Y-31920714D01*
X63144357Y-31877857D01*
X63058642Y-33077857D02*
X63658642Y-33077857D01*
X63058642Y-32692142D02*
X63530071Y-32692142D01*
X63615785Y-32735000D01*
X63658642Y-32820714D01*
X63658642Y-32949285D01*
X63615785Y-33035000D01*
X63572928Y-33077857D01*
X63658642Y-33506428D02*
X62758642Y-33506428D01*
X63101500Y-33506428D02*
X63058642Y-33592142D01*
X63058642Y-33763571D01*
X63101500Y-33849285D01*
X63144357Y-33892142D01*
X63230071Y-33935000D01*
X63487214Y-33935000D01*
X63572928Y-33892142D01*
X63615785Y-33849285D01*
X63658642Y-33763571D01*
X63658642Y-33592142D01*
X63615785Y-33506428D01*
X63572928Y-34320714D02*
X63615785Y-34363571D01*
X63658642Y-34320714D01*
X63615785Y-34277857D01*
X63572928Y-34320714D01*
X63658642Y-34320714D01*
X63615785Y-35135000D02*
X63658642Y-35049285D01*
X63658642Y-34877857D01*
X63615785Y-34792142D01*
X63572928Y-34749285D01*
X63487214Y-34706428D01*
X63230071Y-34706428D01*
X63144357Y-34749285D01*
X63101500Y-34792142D01*
X63058642Y-34877857D01*
X63058642Y-35049285D01*
X63101500Y-35135000D01*
X63658642Y-35649285D02*
X63615785Y-35563571D01*
X63572928Y-35520714D01*
X63487214Y-35477857D01*
X63230071Y-35477857D01*
X63144357Y-35520714D01*
X63101500Y-35563571D01*
X63058642Y-35649285D01*
X63058642Y-35777857D01*
X63101500Y-35863571D01*
X63144357Y-35906428D01*
X63230071Y-35949285D01*
X63487214Y-35949285D01*
X63572928Y-35906428D01*
X63615785Y-35863571D01*
X63658642Y-35777857D01*
X63658642Y-35649285D01*
X63658642Y-36335000D02*
X63058642Y-36335000D01*
X63144357Y-36335000D02*
X63101500Y-36377857D01*
X63058642Y-36463571D01*
X63058642Y-36592142D01*
X63101500Y-36677857D01*
X63187214Y-36720714D01*
X63658642Y-36720714D01*
X63187214Y-36720714D02*
X63101500Y-36763571D01*
X63058642Y-36849285D01*
X63058642Y-36977857D01*
X63101500Y-37063571D01*
X63187214Y-37106428D01*
X63658642Y-37106428D01*
X62715785Y-38177857D02*
X63872928Y-37406428D01*
X63058642Y-38477857D02*
X63658642Y-38477857D01*
X63144357Y-38477857D02*
X63101500Y-38520714D01*
X63058642Y-38606428D01*
X63058642Y-38735000D01*
X63101500Y-38820714D01*
X63187214Y-38863571D01*
X63658642Y-38863571D01*
X63658642Y-39292142D02*
X63058642Y-39292142D01*
X62758642Y-39292142D02*
X62801500Y-39249285D01*
X62844357Y-39292142D01*
X62801500Y-39335000D01*
X62758642Y-39292142D01*
X62844357Y-39292142D01*
X63658642Y-39720714D02*
X62758642Y-39720714D01*
X63315785Y-39806428D02*
X63658642Y-40063571D01*
X63058642Y-40063571D02*
X63401500Y-39720714D01*
X63658642Y-40449285D02*
X63058642Y-40449285D01*
X62758642Y-40449285D02*
X62801500Y-40406428D01*
X62844357Y-40449285D01*
X62801500Y-40492142D01*
X62758642Y-40449285D01*
X62844357Y-40449285D01*
X63058642Y-40749285D02*
X63058642Y-41092142D01*
X62758642Y-40877857D02*
X63530071Y-40877857D01*
X63615785Y-40920714D01*
X63658642Y-41006428D01*
X63658642Y-41092142D01*
X63658642Y-41777857D02*
X63187214Y-41777857D01*
X63101500Y-41735000D01*
X63058642Y-41649285D01*
X63058642Y-41477857D01*
X63101500Y-41392142D01*
X63615785Y-41777857D02*
X63658642Y-41692142D01*
X63658642Y-41477857D01*
X63615785Y-41392142D01*
X63530071Y-41349285D01*
X63444357Y-41349285D01*
X63358642Y-41392142D01*
X63315785Y-41477857D01*
X63315785Y-41692142D01*
X63272928Y-41777857D01*
X63658642Y-42335000D02*
X63615785Y-42249285D01*
X63530071Y-42206428D01*
X62758642Y-42206428D01*
X63658642Y-42677857D02*
X63058642Y-42677857D01*
X62758642Y-42677857D02*
X62801500Y-42635000D01*
X62844357Y-42677857D01*
X62801500Y-42720714D01*
X62758642Y-42677857D01*
X62844357Y-42677857D01*
X63058642Y-42977857D02*
X63058642Y-43320714D01*
X62758642Y-43106428D02*
X63530071Y-43106428D01*
X63615785Y-43149285D01*
X63658642Y-43235000D01*
X63658642Y-43320714D01*
X63658642Y-44006428D02*
X63187214Y-44006428D01*
X63101500Y-43963571D01*
X63058642Y-43877857D01*
X63058642Y-43706428D01*
X63101500Y-43620714D01*
X63615785Y-44006428D02*
X63658642Y-43920714D01*
X63658642Y-43706428D01*
X63615785Y-43620714D01*
X63530071Y-43577857D01*
X63444357Y-43577857D01*
X63358642Y-43620714D01*
X63315785Y-43706428D01*
X63315785Y-43920714D01*
X63272928Y-44006428D01*
X62715785Y-45077857D02*
X63872928Y-44306428D01*
X65107642Y-24506428D02*
X64207642Y-24506428D01*
X64850500Y-24806428D01*
X64207642Y-25106428D01*
X65107642Y-25106428D01*
X64293357Y-25492142D02*
X64250500Y-25535000D01*
X64207642Y-25620714D01*
X64207642Y-25835000D01*
X64250500Y-25920714D01*
X64293357Y-25963571D01*
X64379071Y-26006428D01*
X64464785Y-26006428D01*
X64593357Y-25963571D01*
X65107642Y-25449285D01*
X65107642Y-26006428D01*
X64207642Y-26306428D02*
X64207642Y-26906428D01*
X65107642Y-26520714D01*
X65021928Y-27763571D02*
X65064785Y-27720714D01*
X65107642Y-27592142D01*
X65107642Y-27506428D01*
X65064785Y-27377857D01*
X64979071Y-27292142D01*
X64893357Y-27249285D01*
X64721928Y-27206428D01*
X64593357Y-27206428D01*
X64421928Y-27249285D01*
X64336214Y-27292142D01*
X64250500Y-27377857D01*
X64207642Y-27506428D01*
X64207642Y-27592142D01*
X64250500Y-27720714D01*
X64293357Y-27763571D01*
X64207642Y-28063571D02*
X64207642Y-28620714D01*
X64550500Y-28320714D01*
X64550500Y-28449285D01*
X64593357Y-28535000D01*
X64636214Y-28577857D01*
X64721928Y-28620714D01*
X64936214Y-28620714D01*
X65021928Y-28577857D01*
X65064785Y-28535000D01*
X65107642Y-28449285D01*
X65107642Y-28192142D01*
X65064785Y-28106428D01*
X65021928Y-28063571D01*
X64293357Y-28963571D02*
X64250500Y-29006428D01*
X64207642Y-29092142D01*
X64207642Y-29306428D01*
X64250500Y-29392142D01*
X64293357Y-29435000D01*
X64379071Y-29477857D01*
X64464785Y-29477857D01*
X64593357Y-29435000D01*
X65107642Y-28920714D01*
X65107642Y-29477857D01*
X64293357Y-29820714D02*
X64250500Y-29863571D01*
X64207642Y-29949285D01*
X64207642Y-30163571D01*
X64250500Y-30249285D01*
X64293357Y-30292142D01*
X64379071Y-30335000D01*
X64464785Y-30335000D01*
X64593357Y-30292142D01*
X65107642Y-29777857D01*
X65107642Y-30335000D01*
X64764785Y-30720714D02*
X64764785Y-31406428D01*
X64507642Y-31706428D02*
X64507642Y-32049285D01*
X64207642Y-31835000D02*
X64979071Y-31835000D01*
X65064785Y-31877857D01*
X65107642Y-31963571D01*
X65107642Y-32049285D01*
X65107642Y-32477857D02*
X65064785Y-32392142D01*
X65021928Y-32349285D01*
X64936214Y-32306428D01*
X64679071Y-32306428D01*
X64593357Y-32349285D01*
X64550500Y-32392142D01*
X64507642Y-32477857D01*
X64507642Y-32606428D01*
X64550500Y-32692142D01*
X64593357Y-32735000D01*
X64679071Y-32777857D01*
X64936214Y-32777857D01*
X65021928Y-32735000D01*
X65064785Y-32692142D01*
X65107642Y-32606428D01*
X65107642Y-32477857D01*
X64764785Y-33163571D02*
X64764785Y-33849285D01*
X65107642Y-34277857D02*
X64207642Y-34277857D01*
X65107642Y-34792142D02*
X64593357Y-34406428D01*
X64207642Y-34792142D02*
X64721928Y-34277857D01*
X65107642Y-35177857D02*
X64207642Y-35177857D01*
X64850500Y-35477857D01*
X64207642Y-35777857D01*
X65107642Y-35777857D01*
X64293357Y-36163571D02*
X64250500Y-36206428D01*
X64207642Y-36292142D01*
X64207642Y-36506428D01*
X64250500Y-36592142D01*
X64293357Y-36635000D01*
X64379071Y-36677857D01*
X64464785Y-36677857D01*
X64593357Y-36635000D01*
X65107642Y-36120714D01*
X65107642Y-36677857D01*
X64207642Y-36977857D02*
X64207642Y-37535000D01*
X64550500Y-37235000D01*
X64550500Y-37363571D01*
X64593357Y-37449285D01*
X64636214Y-37492142D01*
X64721928Y-37535000D01*
X64936214Y-37535000D01*
X65021928Y-37492142D01*
X65064785Y-37449285D01*
X65107642Y-37363571D01*
X65107642Y-37106428D01*
X65064785Y-37020714D01*
X65021928Y-36977857D01*
X65021928Y-38435000D02*
X65064785Y-38392142D01*
X65107642Y-38263571D01*
X65107642Y-38177857D01*
X65064785Y-38049285D01*
X64979071Y-37963571D01*
X64893357Y-37920714D01*
X64721928Y-37877857D01*
X64593357Y-37877857D01*
X64421928Y-37920714D01*
X64336214Y-37963571D01*
X64250500Y-38049285D01*
X64207642Y-38177857D01*
X64207642Y-38263571D01*
X64250500Y-38392142D01*
X64293357Y-38435000D01*
X64207642Y-38735000D02*
X64207642Y-39292142D01*
X64550500Y-38992142D01*
X64550500Y-39120714D01*
X64593357Y-39206428D01*
X64636214Y-39249285D01*
X64721928Y-39292142D01*
X64936214Y-39292142D01*
X65021928Y-39249285D01*
X65064785Y-39206428D01*
X65107642Y-39120714D01*
X65107642Y-38863571D01*
X65064785Y-38777857D01*
X65021928Y-38735000D01*
X64293357Y-39635000D02*
X64250500Y-39677857D01*
X64207642Y-39763571D01*
X64207642Y-39977857D01*
X64250500Y-40063571D01*
X64293357Y-40106428D01*
X64379071Y-40149285D01*
X64464785Y-40149285D01*
X64593357Y-40106428D01*
X65107642Y-39592142D01*
X65107642Y-40149285D01*
X64207642Y-40706428D02*
X64207642Y-40792142D01*
X64250500Y-40877857D01*
X64293357Y-40920714D01*
X64379071Y-40963571D01*
X64550500Y-41006428D01*
X64764785Y-41006428D01*
X64936214Y-40963571D01*
X65021928Y-40920714D01*
X65064785Y-40877857D01*
X65107642Y-40792142D01*
X65107642Y-40706428D01*
X65064785Y-40620714D01*
X65021928Y-40577857D01*
X64936214Y-40535000D01*
X64764785Y-40492142D01*
X64550500Y-40492142D01*
X64379071Y-40535000D01*
X64293357Y-40577857D01*
X64250500Y-40620714D01*
X64207642Y-40706428D01*
X64207642Y-41563571D02*
X64207642Y-41649285D01*
X64250500Y-41735000D01*
X64293357Y-41777857D01*
X64379071Y-41820714D01*
X64550500Y-41863571D01*
X64764785Y-41863571D01*
X64936214Y-41820714D01*
X65021928Y-41777857D01*
X65064785Y-41735000D01*
X65107642Y-41649285D01*
X65107642Y-41563571D01*
X65064785Y-41477857D01*
X65021928Y-41435000D01*
X64936214Y-41392142D01*
X64764785Y-41349285D01*
X64550500Y-41349285D01*
X64379071Y-41392142D01*
X64293357Y-41435000D01*
X64250500Y-41477857D01*
X64207642Y-41563571D01*
X64207642Y-42420714D02*
X64207642Y-42506428D01*
X64250500Y-42592142D01*
X64293357Y-42635000D01*
X64379071Y-42677857D01*
X64550500Y-42720714D01*
X64764785Y-42720714D01*
X64936214Y-42677857D01*
X65021928Y-42635000D01*
X65064785Y-42592142D01*
X65107642Y-42506428D01*
X65107642Y-42420714D01*
X65064785Y-42335000D01*
X65021928Y-42292142D01*
X64936214Y-42249285D01*
X64764785Y-42206428D01*
X64550500Y-42206428D01*
X64379071Y-42249285D01*
X64293357Y-42292142D01*
X64250500Y-42335000D01*
X64207642Y-42420714D01*
X64850500Y-43063571D02*
X64850500Y-43492142D01*
X65107642Y-42977857D02*
X64207642Y-43277857D01*
X65107642Y-43577857D01*
X64250500Y-44349285D02*
X64207642Y-44263571D01*
X64207642Y-44135000D01*
X64250500Y-44006428D01*
X64336214Y-43920714D01*
X64421928Y-43877857D01*
X64593357Y-43835000D01*
X64721928Y-43835000D01*
X64893357Y-43877857D01*
X64979071Y-43920714D01*
X65064785Y-44006428D01*
X65107642Y-44135000D01*
X65107642Y-44220714D01*
X65064785Y-44349285D01*
X65021928Y-44392142D01*
X64721928Y-44392142D01*
X64721928Y-44220714D01*
X64764785Y-44777857D02*
X64764785Y-45463571D01*
X65107642Y-46277857D02*
X64636214Y-46277857D01*
X64550500Y-46235000D01*
X64507642Y-46149285D01*
X64507642Y-45977857D01*
X64550500Y-45892142D01*
X65064785Y-46277857D02*
X65107642Y-46192142D01*
X65107642Y-45977857D01*
X65064785Y-45892142D01*
X64979071Y-45849285D01*
X64893357Y-45849285D01*
X64807642Y-45892142D01*
X64764785Y-45977857D01*
X64764785Y-46192142D01*
X64721928Y-46277857D01*
X65107642Y-47092142D02*
X64207642Y-47092142D01*
X65064785Y-47092142D02*
X65107642Y-47006428D01*
X65107642Y-46835000D01*
X65064785Y-46749285D01*
X65021928Y-46706428D01*
X64936214Y-46663571D01*
X64679071Y-46663571D01*
X64593357Y-46706428D01*
X64550500Y-46749285D01*
X64507642Y-46835000D01*
X64507642Y-47006428D01*
X64550500Y-47092142D01*
X65107642Y-47906428D02*
X64636214Y-47906428D01*
X64550500Y-47863571D01*
X64507642Y-47777857D01*
X64507642Y-47606428D01*
X64550500Y-47520714D01*
X65064785Y-47906428D02*
X65107642Y-47820714D01*
X65107642Y-47606428D01*
X65064785Y-47520714D01*
X64979071Y-47477857D01*
X64893357Y-47477857D01*
X64807642Y-47520714D01*
X64764785Y-47606428D01*
X64764785Y-47820714D01*
X64721928Y-47906428D01*
X64507642Y-48335000D02*
X65407642Y-48335000D01*
X64550500Y-48335000D02*
X64507642Y-48420714D01*
X64507642Y-48592142D01*
X64550500Y-48677857D01*
X64593357Y-48720714D01*
X64679071Y-48763571D01*
X64936214Y-48763571D01*
X65021928Y-48720714D01*
X65064785Y-48677857D01*
X65107642Y-48592142D01*
X65107642Y-48420714D01*
X65064785Y-48335000D01*
X64507642Y-49020714D02*
X64507642Y-49363571D01*
X64207642Y-49149285D02*
X64979071Y-49149285D01*
X65064785Y-49192142D01*
X65107642Y-49277857D01*
X65107642Y-49363571D01*
X65064785Y-50006428D02*
X65107642Y-49920714D01*
X65107642Y-49749285D01*
X65064785Y-49663571D01*
X64979071Y-49620714D01*
X64636214Y-49620714D01*
X64550500Y-49663571D01*
X64507642Y-49749285D01*
X64507642Y-49920714D01*
X64550500Y-50006428D01*
X64636214Y-50049285D01*
X64721928Y-50049285D01*
X64807642Y-49620714D01*
X65107642Y-50435000D02*
X64507642Y-50435000D01*
X64679071Y-50435000D02*
X64593357Y-50477857D01*
X64550500Y-50520714D01*
X64507642Y-50606428D01*
X64507642Y-50692142D01*
X79981142Y-30506428D02*
X80709714Y-30506428D01*
X80795428Y-30463571D01*
X80838285Y-30420714D01*
X80881142Y-30335000D01*
X80881142Y-30206428D01*
X80838285Y-30120714D01*
X80538285Y-30506428D02*
X80581142Y-30420714D01*
X80581142Y-30249285D01*
X80538285Y-30163571D01*
X80495428Y-30120714D01*
X80409714Y-30077857D01*
X80152571Y-30077857D01*
X80066857Y-30120714D01*
X80024000Y-30163571D01*
X79981142Y-30249285D01*
X79981142Y-30420714D01*
X80024000Y-30506428D01*
X80581142Y-30935000D02*
X79981142Y-30935000D01*
X79681142Y-30935000D02*
X79724000Y-30892142D01*
X79766857Y-30935000D01*
X79724000Y-30977857D01*
X79681142Y-30935000D01*
X79766857Y-30935000D01*
X79981142Y-31235000D02*
X79981142Y-31577857D01*
X79681142Y-31363571D02*
X80452571Y-31363571D01*
X80538285Y-31406428D01*
X80581142Y-31492142D01*
X80581142Y-31577857D01*
X80581142Y-31877857D02*
X79681142Y-31877857D01*
X80581142Y-32263571D02*
X80109714Y-32263571D01*
X80024000Y-32220714D01*
X79981142Y-32135000D01*
X79981142Y-32006428D01*
X80024000Y-31920714D01*
X80066857Y-31877857D01*
X79981142Y-33077857D02*
X80581142Y-33077857D01*
X79981142Y-32692142D02*
X80452571Y-32692142D01*
X80538285Y-32735000D01*
X80581142Y-32820714D01*
X80581142Y-32949285D01*
X80538285Y-33035000D01*
X80495428Y-33077857D01*
X80581142Y-33506428D02*
X79681142Y-33506428D01*
X80024000Y-33506428D02*
X79981142Y-33592142D01*
X79981142Y-33763571D01*
X80024000Y-33849285D01*
X80066857Y-33892142D01*
X80152571Y-33935000D01*
X80409714Y-33935000D01*
X80495428Y-33892142D01*
X80538285Y-33849285D01*
X80581142Y-33763571D01*
X80581142Y-33592142D01*
X80538285Y-33506428D01*
X80495428Y-34320714D02*
X80538285Y-34363571D01*
X80581142Y-34320714D01*
X80538285Y-34277857D01*
X80495428Y-34320714D01*
X80581142Y-34320714D01*
X80538285Y-35135000D02*
X80581142Y-35049285D01*
X80581142Y-34877857D01*
X80538285Y-34792142D01*
X80495428Y-34749285D01*
X80409714Y-34706428D01*
X80152571Y-34706428D01*
X80066857Y-34749285D01*
X80024000Y-34792142D01*
X79981142Y-34877857D01*
X79981142Y-35049285D01*
X80024000Y-35135000D01*
X80581142Y-35649285D02*
X80538285Y-35563571D01*
X80495428Y-35520714D01*
X80409714Y-35477857D01*
X80152571Y-35477857D01*
X80066857Y-35520714D01*
X80024000Y-35563571D01*
X79981142Y-35649285D01*
X79981142Y-35777857D01*
X80024000Y-35863571D01*
X80066857Y-35906428D01*
X80152571Y-35949285D01*
X80409714Y-35949285D01*
X80495428Y-35906428D01*
X80538285Y-35863571D01*
X80581142Y-35777857D01*
X80581142Y-35649285D01*
X80581142Y-36335000D02*
X79981142Y-36335000D01*
X80066857Y-36335000D02*
X80024000Y-36377857D01*
X79981142Y-36463571D01*
X79981142Y-36592142D01*
X80024000Y-36677857D01*
X80109714Y-36720714D01*
X80581142Y-36720714D01*
X80109714Y-36720714D02*
X80024000Y-36763571D01*
X79981142Y-36849285D01*
X79981142Y-36977857D01*
X80024000Y-37063571D01*
X80109714Y-37106428D01*
X80581142Y-37106428D01*
X79638285Y-38177857D02*
X80795428Y-37406428D01*
X79981142Y-38477857D02*
X80581142Y-38477857D01*
X80066857Y-38477857D02*
X80024000Y-38520714D01*
X79981142Y-38606428D01*
X79981142Y-38735000D01*
X80024000Y-38820714D01*
X80109714Y-38863571D01*
X80581142Y-38863571D01*
X80581142Y-39292142D02*
X79981142Y-39292142D01*
X79681142Y-39292142D02*
X79724000Y-39249285D01*
X79766857Y-39292142D01*
X79724000Y-39335000D01*
X79681142Y-39292142D01*
X79766857Y-39292142D01*
X80581142Y-39720714D02*
X79681142Y-39720714D01*
X80238285Y-39806428D02*
X80581142Y-40063571D01*
X79981142Y-40063571D02*
X80324000Y-39720714D01*
X80581142Y-40449285D02*
X79981142Y-40449285D01*
X79681142Y-40449285D02*
X79724000Y-40406428D01*
X79766857Y-40449285D01*
X79724000Y-40492142D01*
X79681142Y-40449285D01*
X79766857Y-40449285D01*
X79981142Y-40749285D02*
X79981142Y-41092142D01*
X79681142Y-40877857D02*
X80452571Y-40877857D01*
X80538285Y-40920714D01*
X80581142Y-41006428D01*
X80581142Y-41092142D01*
X80581142Y-41777857D02*
X80109714Y-41777857D01*
X80024000Y-41735000D01*
X79981142Y-41649285D01*
X79981142Y-41477857D01*
X80024000Y-41392142D01*
X80538285Y-41777857D02*
X80581142Y-41692142D01*
X80581142Y-41477857D01*
X80538285Y-41392142D01*
X80452571Y-41349285D01*
X80366857Y-41349285D01*
X80281142Y-41392142D01*
X80238285Y-41477857D01*
X80238285Y-41692142D01*
X80195428Y-41777857D01*
X80581142Y-42335000D02*
X80538285Y-42249285D01*
X80452571Y-42206428D01*
X79681142Y-42206428D01*
X80581142Y-42677857D02*
X79981142Y-42677857D01*
X79681142Y-42677857D02*
X79724000Y-42635000D01*
X79766857Y-42677857D01*
X79724000Y-42720714D01*
X79681142Y-42677857D01*
X79766857Y-42677857D01*
X79981142Y-42977857D02*
X79981142Y-43320714D01*
X79681142Y-43106428D02*
X80452571Y-43106428D01*
X80538285Y-43149285D01*
X80581142Y-43235000D01*
X80581142Y-43320714D01*
X80581142Y-44006428D02*
X80109714Y-44006428D01*
X80024000Y-43963571D01*
X79981142Y-43877857D01*
X79981142Y-43706428D01*
X80024000Y-43620714D01*
X80538285Y-44006428D02*
X80581142Y-43920714D01*
X80581142Y-43706428D01*
X80538285Y-43620714D01*
X80452571Y-43577857D01*
X80366857Y-43577857D01*
X80281142Y-43620714D01*
X80238285Y-43706428D01*
X80238285Y-43920714D01*
X80195428Y-44006428D01*
X79638285Y-45077857D02*
X80795428Y-44306428D01*
X82030142Y-24506428D02*
X81130142Y-24506428D01*
X81773000Y-24806428D01*
X81130142Y-25106428D01*
X82030142Y-25106428D01*
X81215857Y-25492142D02*
X81173000Y-25535000D01*
X81130142Y-25620714D01*
X81130142Y-25835000D01*
X81173000Y-25920714D01*
X81215857Y-25963571D01*
X81301571Y-26006428D01*
X81387285Y-26006428D01*
X81515857Y-25963571D01*
X82030142Y-25449285D01*
X82030142Y-26006428D01*
X81130142Y-26306428D02*
X81130142Y-26906428D01*
X82030142Y-26520714D01*
X81944428Y-27763571D02*
X81987285Y-27720714D01*
X82030142Y-27592142D01*
X82030142Y-27506428D01*
X81987285Y-27377857D01*
X81901571Y-27292142D01*
X81815857Y-27249285D01*
X81644428Y-27206428D01*
X81515857Y-27206428D01*
X81344428Y-27249285D01*
X81258714Y-27292142D01*
X81173000Y-27377857D01*
X81130142Y-27506428D01*
X81130142Y-27592142D01*
X81173000Y-27720714D01*
X81215857Y-27763571D01*
X81130142Y-28063571D02*
X81130142Y-28620714D01*
X81473000Y-28320714D01*
X81473000Y-28449285D01*
X81515857Y-28535000D01*
X81558714Y-28577857D01*
X81644428Y-28620714D01*
X81858714Y-28620714D01*
X81944428Y-28577857D01*
X81987285Y-28535000D01*
X82030142Y-28449285D01*
X82030142Y-28192142D01*
X81987285Y-28106428D01*
X81944428Y-28063571D01*
X81215857Y-28963571D02*
X81173000Y-29006428D01*
X81130142Y-29092142D01*
X81130142Y-29306428D01*
X81173000Y-29392142D01*
X81215857Y-29435000D01*
X81301571Y-29477857D01*
X81387285Y-29477857D01*
X81515857Y-29435000D01*
X82030142Y-28920714D01*
X82030142Y-29477857D01*
X81215857Y-29820714D02*
X81173000Y-29863571D01*
X81130142Y-29949285D01*
X81130142Y-30163571D01*
X81173000Y-30249285D01*
X81215857Y-30292142D01*
X81301571Y-30335000D01*
X81387285Y-30335000D01*
X81515857Y-30292142D01*
X82030142Y-29777857D01*
X82030142Y-30335000D01*
X81687285Y-30720714D02*
X81687285Y-31406428D01*
X81430142Y-31706428D02*
X81430142Y-32049285D01*
X81130142Y-31835000D02*
X81901571Y-31835000D01*
X81987285Y-31877857D01*
X82030142Y-31963571D01*
X82030142Y-32049285D01*
X82030142Y-32477857D02*
X81987285Y-32392142D01*
X81944428Y-32349285D01*
X81858714Y-32306428D01*
X81601571Y-32306428D01*
X81515857Y-32349285D01*
X81473000Y-32392142D01*
X81430142Y-32477857D01*
X81430142Y-32606428D01*
X81473000Y-32692142D01*
X81515857Y-32735000D01*
X81601571Y-32777857D01*
X81858714Y-32777857D01*
X81944428Y-32735000D01*
X81987285Y-32692142D01*
X82030142Y-32606428D01*
X82030142Y-32477857D01*
X81687285Y-33163571D02*
X81687285Y-33849285D01*
X82030142Y-34277857D02*
X81130142Y-34277857D01*
X82030142Y-34792142D02*
X81515857Y-34406428D01*
X81130142Y-34792142D02*
X81644428Y-34277857D01*
X82030142Y-35177857D02*
X81130142Y-35177857D01*
X81773000Y-35477857D01*
X81130142Y-35777857D01*
X82030142Y-35777857D01*
X81215857Y-36163571D02*
X81173000Y-36206428D01*
X81130142Y-36292142D01*
X81130142Y-36506428D01*
X81173000Y-36592142D01*
X81215857Y-36635000D01*
X81301571Y-36677857D01*
X81387285Y-36677857D01*
X81515857Y-36635000D01*
X82030142Y-36120714D01*
X82030142Y-36677857D01*
X81130142Y-36977857D02*
X81130142Y-37535000D01*
X81473000Y-37235000D01*
X81473000Y-37363571D01*
X81515857Y-37449285D01*
X81558714Y-37492142D01*
X81644428Y-37535000D01*
X81858714Y-37535000D01*
X81944428Y-37492142D01*
X81987285Y-37449285D01*
X82030142Y-37363571D01*
X82030142Y-37106428D01*
X81987285Y-37020714D01*
X81944428Y-36977857D01*
X81944428Y-38435000D02*
X81987285Y-38392142D01*
X82030142Y-38263571D01*
X82030142Y-38177857D01*
X81987285Y-38049285D01*
X81901571Y-37963571D01*
X81815857Y-37920714D01*
X81644428Y-37877857D01*
X81515857Y-37877857D01*
X81344428Y-37920714D01*
X81258714Y-37963571D01*
X81173000Y-38049285D01*
X81130142Y-38177857D01*
X81130142Y-38263571D01*
X81173000Y-38392142D01*
X81215857Y-38435000D01*
X81130142Y-38735000D02*
X81130142Y-39292142D01*
X81473000Y-38992142D01*
X81473000Y-39120714D01*
X81515857Y-39206428D01*
X81558714Y-39249285D01*
X81644428Y-39292142D01*
X81858714Y-39292142D01*
X81944428Y-39249285D01*
X81987285Y-39206428D01*
X82030142Y-39120714D01*
X82030142Y-38863571D01*
X81987285Y-38777857D01*
X81944428Y-38735000D01*
X81215857Y-39635000D02*
X81173000Y-39677857D01*
X81130142Y-39763571D01*
X81130142Y-39977857D01*
X81173000Y-40063571D01*
X81215857Y-40106428D01*
X81301571Y-40149285D01*
X81387285Y-40149285D01*
X81515857Y-40106428D01*
X82030142Y-39592142D01*
X82030142Y-40149285D01*
X81130142Y-40706428D02*
X81130142Y-40792142D01*
X81173000Y-40877857D01*
X81215857Y-40920714D01*
X81301571Y-40963571D01*
X81473000Y-41006428D01*
X81687285Y-41006428D01*
X81858714Y-40963571D01*
X81944428Y-40920714D01*
X81987285Y-40877857D01*
X82030142Y-40792142D01*
X82030142Y-40706428D01*
X81987285Y-40620714D01*
X81944428Y-40577857D01*
X81858714Y-40535000D01*
X81687285Y-40492142D01*
X81473000Y-40492142D01*
X81301571Y-40535000D01*
X81215857Y-40577857D01*
X81173000Y-40620714D01*
X81130142Y-40706428D01*
X81130142Y-41563571D02*
X81130142Y-41649285D01*
X81173000Y-41735000D01*
X81215857Y-41777857D01*
X81301571Y-41820714D01*
X81473000Y-41863571D01*
X81687285Y-41863571D01*
X81858714Y-41820714D01*
X81944428Y-41777857D01*
X81987285Y-41735000D01*
X82030142Y-41649285D01*
X82030142Y-41563571D01*
X81987285Y-41477857D01*
X81944428Y-41435000D01*
X81858714Y-41392142D01*
X81687285Y-41349285D01*
X81473000Y-41349285D01*
X81301571Y-41392142D01*
X81215857Y-41435000D01*
X81173000Y-41477857D01*
X81130142Y-41563571D01*
X81130142Y-42420714D02*
X81130142Y-42506428D01*
X81173000Y-42592142D01*
X81215857Y-42635000D01*
X81301571Y-42677857D01*
X81473000Y-42720714D01*
X81687285Y-42720714D01*
X81858714Y-42677857D01*
X81944428Y-42635000D01*
X81987285Y-42592142D01*
X82030142Y-42506428D01*
X82030142Y-42420714D01*
X81987285Y-42335000D01*
X81944428Y-42292142D01*
X81858714Y-42249285D01*
X81687285Y-42206428D01*
X81473000Y-42206428D01*
X81301571Y-42249285D01*
X81215857Y-42292142D01*
X81173000Y-42335000D01*
X81130142Y-42420714D01*
X81773000Y-43063571D02*
X81773000Y-43492142D01*
X82030142Y-42977857D02*
X81130142Y-43277857D01*
X82030142Y-43577857D01*
X81173000Y-44349285D02*
X81130142Y-44263571D01*
X81130142Y-44135000D01*
X81173000Y-44006428D01*
X81258714Y-43920714D01*
X81344428Y-43877857D01*
X81515857Y-43835000D01*
X81644428Y-43835000D01*
X81815857Y-43877857D01*
X81901571Y-43920714D01*
X81987285Y-44006428D01*
X82030142Y-44135000D01*
X82030142Y-44220714D01*
X81987285Y-44349285D01*
X81944428Y-44392142D01*
X81644428Y-44392142D01*
X81644428Y-44220714D01*
X81687285Y-44777857D02*
X81687285Y-45463571D01*
X82030142Y-46277857D02*
X81558714Y-46277857D01*
X81473000Y-46235000D01*
X81430142Y-46149285D01*
X81430142Y-45977857D01*
X81473000Y-45892142D01*
X81987285Y-46277857D02*
X82030142Y-46192142D01*
X82030142Y-45977857D01*
X81987285Y-45892142D01*
X81901571Y-45849285D01*
X81815857Y-45849285D01*
X81730142Y-45892142D01*
X81687285Y-45977857D01*
X81687285Y-46192142D01*
X81644428Y-46277857D01*
X82030142Y-47092142D02*
X81130142Y-47092142D01*
X81987285Y-47092142D02*
X82030142Y-47006428D01*
X82030142Y-46835000D01*
X81987285Y-46749285D01*
X81944428Y-46706428D01*
X81858714Y-46663571D01*
X81601571Y-46663571D01*
X81515857Y-46706428D01*
X81473000Y-46749285D01*
X81430142Y-46835000D01*
X81430142Y-47006428D01*
X81473000Y-47092142D01*
X82030142Y-47906428D02*
X81558714Y-47906428D01*
X81473000Y-47863571D01*
X81430142Y-47777857D01*
X81430142Y-47606428D01*
X81473000Y-47520714D01*
X81987285Y-47906428D02*
X82030142Y-47820714D01*
X82030142Y-47606428D01*
X81987285Y-47520714D01*
X81901571Y-47477857D01*
X81815857Y-47477857D01*
X81730142Y-47520714D01*
X81687285Y-47606428D01*
X81687285Y-47820714D01*
X81644428Y-47906428D01*
X81430142Y-48335000D02*
X82330142Y-48335000D01*
X81473000Y-48335000D02*
X81430142Y-48420714D01*
X81430142Y-48592142D01*
X81473000Y-48677857D01*
X81515857Y-48720714D01*
X81601571Y-48763571D01*
X81858714Y-48763571D01*
X81944428Y-48720714D01*
X81987285Y-48677857D01*
X82030142Y-48592142D01*
X82030142Y-48420714D01*
X81987285Y-48335000D01*
X81430142Y-49020714D02*
X81430142Y-49363571D01*
X81130142Y-49149285D02*
X81901571Y-49149285D01*
X81987285Y-49192142D01*
X82030142Y-49277857D01*
X82030142Y-49363571D01*
X81987285Y-50006428D02*
X82030142Y-49920714D01*
X82030142Y-49749285D01*
X81987285Y-49663571D01*
X81901571Y-49620714D01*
X81558714Y-49620714D01*
X81473000Y-49663571D01*
X81430142Y-49749285D01*
X81430142Y-49920714D01*
X81473000Y-50006428D01*
X81558714Y-50049285D01*
X81644428Y-50049285D01*
X81730142Y-49620714D01*
X82030142Y-50435000D02*
X81430142Y-50435000D01*
X81601571Y-50435000D02*
X81515857Y-50477857D01*
X81473000Y-50520714D01*
X81430142Y-50606428D01*
X81430142Y-50692142D01*
X46136142Y-30506428D02*
X46864714Y-30506428D01*
X46950428Y-30463571D01*
X46993285Y-30420714D01*
X47036142Y-30335000D01*
X47036142Y-30206428D01*
X46993285Y-30120714D01*
X46693285Y-30506428D02*
X46736142Y-30420714D01*
X46736142Y-30249285D01*
X46693285Y-30163571D01*
X46650428Y-30120714D01*
X46564714Y-30077857D01*
X46307571Y-30077857D01*
X46221857Y-30120714D01*
X46179000Y-30163571D01*
X46136142Y-30249285D01*
X46136142Y-30420714D01*
X46179000Y-30506428D01*
X46736142Y-30935000D02*
X46136142Y-30935000D01*
X45836142Y-30935000D02*
X45879000Y-30892142D01*
X45921857Y-30935000D01*
X45879000Y-30977857D01*
X45836142Y-30935000D01*
X45921857Y-30935000D01*
X46136142Y-31235000D02*
X46136142Y-31577857D01*
X45836142Y-31363571D02*
X46607571Y-31363571D01*
X46693285Y-31406428D01*
X46736142Y-31492142D01*
X46736142Y-31577857D01*
X46736142Y-31877857D02*
X45836142Y-31877857D01*
X46736142Y-32263571D02*
X46264714Y-32263571D01*
X46179000Y-32220714D01*
X46136142Y-32135000D01*
X46136142Y-32006428D01*
X46179000Y-31920714D01*
X46221857Y-31877857D01*
X46136142Y-33077857D02*
X46736142Y-33077857D01*
X46136142Y-32692142D02*
X46607571Y-32692142D01*
X46693285Y-32735000D01*
X46736142Y-32820714D01*
X46736142Y-32949285D01*
X46693285Y-33035000D01*
X46650428Y-33077857D01*
X46736142Y-33506428D02*
X45836142Y-33506428D01*
X46179000Y-33506428D02*
X46136142Y-33592142D01*
X46136142Y-33763571D01*
X46179000Y-33849285D01*
X46221857Y-33892142D01*
X46307571Y-33935000D01*
X46564714Y-33935000D01*
X46650428Y-33892142D01*
X46693285Y-33849285D01*
X46736142Y-33763571D01*
X46736142Y-33592142D01*
X46693285Y-33506428D01*
X46650428Y-34320714D02*
X46693285Y-34363571D01*
X46736142Y-34320714D01*
X46693285Y-34277857D01*
X46650428Y-34320714D01*
X46736142Y-34320714D01*
X46693285Y-35135000D02*
X46736142Y-35049285D01*
X46736142Y-34877857D01*
X46693285Y-34792142D01*
X46650428Y-34749285D01*
X46564714Y-34706428D01*
X46307571Y-34706428D01*
X46221857Y-34749285D01*
X46179000Y-34792142D01*
X46136142Y-34877857D01*
X46136142Y-35049285D01*
X46179000Y-35135000D01*
X46736142Y-35649285D02*
X46693285Y-35563571D01*
X46650428Y-35520714D01*
X46564714Y-35477857D01*
X46307571Y-35477857D01*
X46221857Y-35520714D01*
X46179000Y-35563571D01*
X46136142Y-35649285D01*
X46136142Y-35777857D01*
X46179000Y-35863571D01*
X46221857Y-35906428D01*
X46307571Y-35949285D01*
X46564714Y-35949285D01*
X46650428Y-35906428D01*
X46693285Y-35863571D01*
X46736142Y-35777857D01*
X46736142Y-35649285D01*
X46736142Y-36335000D02*
X46136142Y-36335000D01*
X46221857Y-36335000D02*
X46179000Y-36377857D01*
X46136142Y-36463571D01*
X46136142Y-36592142D01*
X46179000Y-36677857D01*
X46264714Y-36720714D01*
X46736142Y-36720714D01*
X46264714Y-36720714D02*
X46179000Y-36763571D01*
X46136142Y-36849285D01*
X46136142Y-36977857D01*
X46179000Y-37063571D01*
X46264714Y-37106428D01*
X46736142Y-37106428D01*
X45793285Y-38177857D02*
X46950428Y-37406428D01*
X46136142Y-38477857D02*
X46736142Y-38477857D01*
X46221857Y-38477857D02*
X46179000Y-38520714D01*
X46136142Y-38606428D01*
X46136142Y-38735000D01*
X46179000Y-38820714D01*
X46264714Y-38863571D01*
X46736142Y-38863571D01*
X46736142Y-39292142D02*
X46136142Y-39292142D01*
X45836142Y-39292142D02*
X45879000Y-39249285D01*
X45921857Y-39292142D01*
X45879000Y-39335000D01*
X45836142Y-39292142D01*
X45921857Y-39292142D01*
X46736142Y-39720714D02*
X45836142Y-39720714D01*
X46393285Y-39806428D02*
X46736142Y-40063571D01*
X46136142Y-40063571D02*
X46479000Y-39720714D01*
X46736142Y-40449285D02*
X46136142Y-40449285D01*
X45836142Y-40449285D02*
X45879000Y-40406428D01*
X45921857Y-40449285D01*
X45879000Y-40492142D01*
X45836142Y-40449285D01*
X45921857Y-40449285D01*
X46136142Y-40749285D02*
X46136142Y-41092142D01*
X45836142Y-40877857D02*
X46607571Y-40877857D01*
X46693285Y-40920714D01*
X46736142Y-41006428D01*
X46736142Y-41092142D01*
X46736142Y-41777857D02*
X46264714Y-41777857D01*
X46179000Y-41735000D01*
X46136142Y-41649285D01*
X46136142Y-41477857D01*
X46179000Y-41392142D01*
X46693285Y-41777857D02*
X46736142Y-41692142D01*
X46736142Y-41477857D01*
X46693285Y-41392142D01*
X46607571Y-41349285D01*
X46521857Y-41349285D01*
X46436142Y-41392142D01*
X46393285Y-41477857D01*
X46393285Y-41692142D01*
X46350428Y-41777857D01*
X46736142Y-42335000D02*
X46693285Y-42249285D01*
X46607571Y-42206428D01*
X45836142Y-42206428D01*
X46736142Y-42677857D02*
X46136142Y-42677857D01*
X45836142Y-42677857D02*
X45879000Y-42635000D01*
X45921857Y-42677857D01*
X45879000Y-42720714D01*
X45836142Y-42677857D01*
X45921857Y-42677857D01*
X46136142Y-42977857D02*
X46136142Y-43320714D01*
X45836142Y-43106428D02*
X46607571Y-43106428D01*
X46693285Y-43149285D01*
X46736142Y-43235000D01*
X46736142Y-43320714D01*
X46736142Y-44006428D02*
X46264714Y-44006428D01*
X46179000Y-43963571D01*
X46136142Y-43877857D01*
X46136142Y-43706428D01*
X46179000Y-43620714D01*
X46693285Y-44006428D02*
X46736142Y-43920714D01*
X46736142Y-43706428D01*
X46693285Y-43620714D01*
X46607571Y-43577857D01*
X46521857Y-43577857D01*
X46436142Y-43620714D01*
X46393285Y-43706428D01*
X46393285Y-43920714D01*
X46350428Y-44006428D01*
X45793285Y-45077857D02*
X46950428Y-44306428D01*
X48185142Y-24506428D02*
X47285142Y-24506428D01*
X47928000Y-24806428D01*
X47285142Y-25106428D01*
X48185142Y-25106428D01*
X47370857Y-25492142D02*
X47328000Y-25535000D01*
X47285142Y-25620714D01*
X47285142Y-25835000D01*
X47328000Y-25920714D01*
X47370857Y-25963571D01*
X47456571Y-26006428D01*
X47542285Y-26006428D01*
X47670857Y-25963571D01*
X48185142Y-25449285D01*
X48185142Y-26006428D01*
X47285142Y-26306428D02*
X47285142Y-26906428D01*
X48185142Y-26520714D01*
X48099428Y-27763571D02*
X48142285Y-27720714D01*
X48185142Y-27592142D01*
X48185142Y-27506428D01*
X48142285Y-27377857D01*
X48056571Y-27292142D01*
X47970857Y-27249285D01*
X47799428Y-27206428D01*
X47670857Y-27206428D01*
X47499428Y-27249285D01*
X47413714Y-27292142D01*
X47328000Y-27377857D01*
X47285142Y-27506428D01*
X47285142Y-27592142D01*
X47328000Y-27720714D01*
X47370857Y-27763571D01*
X47285142Y-28063571D02*
X47285142Y-28620714D01*
X47628000Y-28320714D01*
X47628000Y-28449285D01*
X47670857Y-28535000D01*
X47713714Y-28577857D01*
X47799428Y-28620714D01*
X48013714Y-28620714D01*
X48099428Y-28577857D01*
X48142285Y-28535000D01*
X48185142Y-28449285D01*
X48185142Y-28192142D01*
X48142285Y-28106428D01*
X48099428Y-28063571D01*
X47370857Y-28963571D02*
X47328000Y-29006428D01*
X47285142Y-29092142D01*
X47285142Y-29306428D01*
X47328000Y-29392142D01*
X47370857Y-29435000D01*
X47456571Y-29477857D01*
X47542285Y-29477857D01*
X47670857Y-29435000D01*
X48185142Y-28920714D01*
X48185142Y-29477857D01*
X47370857Y-29820714D02*
X47328000Y-29863571D01*
X47285142Y-29949285D01*
X47285142Y-30163571D01*
X47328000Y-30249285D01*
X47370857Y-30292142D01*
X47456571Y-30335000D01*
X47542285Y-30335000D01*
X47670857Y-30292142D01*
X48185142Y-29777857D01*
X48185142Y-30335000D01*
X47842285Y-30720714D02*
X47842285Y-31406428D01*
X47585142Y-31706428D02*
X47585142Y-32049285D01*
X47285142Y-31835000D02*
X48056571Y-31835000D01*
X48142285Y-31877857D01*
X48185142Y-31963571D01*
X48185142Y-32049285D01*
X48185142Y-32477857D02*
X48142285Y-32392142D01*
X48099428Y-32349285D01*
X48013714Y-32306428D01*
X47756571Y-32306428D01*
X47670857Y-32349285D01*
X47628000Y-32392142D01*
X47585142Y-32477857D01*
X47585142Y-32606428D01*
X47628000Y-32692142D01*
X47670857Y-32735000D01*
X47756571Y-32777857D01*
X48013714Y-32777857D01*
X48099428Y-32735000D01*
X48142285Y-32692142D01*
X48185142Y-32606428D01*
X48185142Y-32477857D01*
X47842285Y-33163571D02*
X47842285Y-33849285D01*
X48185142Y-34277857D02*
X47285142Y-34277857D01*
X48185142Y-34792142D02*
X47670857Y-34406428D01*
X47285142Y-34792142D02*
X47799428Y-34277857D01*
X48185142Y-35177857D02*
X47285142Y-35177857D01*
X47928000Y-35477857D01*
X47285142Y-35777857D01*
X48185142Y-35777857D01*
X47370857Y-36163571D02*
X47328000Y-36206428D01*
X47285142Y-36292142D01*
X47285142Y-36506428D01*
X47328000Y-36592142D01*
X47370857Y-36635000D01*
X47456571Y-36677857D01*
X47542285Y-36677857D01*
X47670857Y-36635000D01*
X48185142Y-36120714D01*
X48185142Y-36677857D01*
X47285142Y-36977857D02*
X47285142Y-37535000D01*
X47628000Y-37235000D01*
X47628000Y-37363571D01*
X47670857Y-37449285D01*
X47713714Y-37492142D01*
X47799428Y-37535000D01*
X48013714Y-37535000D01*
X48099428Y-37492142D01*
X48142285Y-37449285D01*
X48185142Y-37363571D01*
X48185142Y-37106428D01*
X48142285Y-37020714D01*
X48099428Y-36977857D01*
X48099428Y-38435000D02*
X48142285Y-38392142D01*
X48185142Y-38263571D01*
X48185142Y-38177857D01*
X48142285Y-38049285D01*
X48056571Y-37963571D01*
X47970857Y-37920714D01*
X47799428Y-37877857D01*
X47670857Y-37877857D01*
X47499428Y-37920714D01*
X47413714Y-37963571D01*
X47328000Y-38049285D01*
X47285142Y-38177857D01*
X47285142Y-38263571D01*
X47328000Y-38392142D01*
X47370857Y-38435000D01*
X47285142Y-38735000D02*
X47285142Y-39292142D01*
X47628000Y-38992142D01*
X47628000Y-39120714D01*
X47670857Y-39206428D01*
X47713714Y-39249285D01*
X47799428Y-39292142D01*
X48013714Y-39292142D01*
X48099428Y-39249285D01*
X48142285Y-39206428D01*
X48185142Y-39120714D01*
X48185142Y-38863571D01*
X48142285Y-38777857D01*
X48099428Y-38735000D01*
X47370857Y-39635000D02*
X47328000Y-39677857D01*
X47285142Y-39763571D01*
X47285142Y-39977857D01*
X47328000Y-40063571D01*
X47370857Y-40106428D01*
X47456571Y-40149285D01*
X47542285Y-40149285D01*
X47670857Y-40106428D01*
X48185142Y-39592142D01*
X48185142Y-40149285D01*
X47285142Y-40706428D02*
X47285142Y-40792142D01*
X47328000Y-40877857D01*
X47370857Y-40920714D01*
X47456571Y-40963571D01*
X47628000Y-41006428D01*
X47842285Y-41006428D01*
X48013714Y-40963571D01*
X48099428Y-40920714D01*
X48142285Y-40877857D01*
X48185142Y-40792142D01*
X48185142Y-40706428D01*
X48142285Y-40620714D01*
X48099428Y-40577857D01*
X48013714Y-40535000D01*
X47842285Y-40492142D01*
X47628000Y-40492142D01*
X47456571Y-40535000D01*
X47370857Y-40577857D01*
X47328000Y-40620714D01*
X47285142Y-40706428D01*
X47285142Y-41563571D02*
X47285142Y-41649285D01*
X47328000Y-41735000D01*
X47370857Y-41777857D01*
X47456571Y-41820714D01*
X47628000Y-41863571D01*
X47842285Y-41863571D01*
X48013714Y-41820714D01*
X48099428Y-41777857D01*
X48142285Y-41735000D01*
X48185142Y-41649285D01*
X48185142Y-41563571D01*
X48142285Y-41477857D01*
X48099428Y-41435000D01*
X48013714Y-41392142D01*
X47842285Y-41349285D01*
X47628000Y-41349285D01*
X47456571Y-41392142D01*
X47370857Y-41435000D01*
X47328000Y-41477857D01*
X47285142Y-41563571D01*
X47285142Y-42420714D02*
X47285142Y-42506428D01*
X47328000Y-42592142D01*
X47370857Y-42635000D01*
X47456571Y-42677857D01*
X47628000Y-42720714D01*
X47842285Y-42720714D01*
X48013714Y-42677857D01*
X48099428Y-42635000D01*
X48142285Y-42592142D01*
X48185142Y-42506428D01*
X48185142Y-42420714D01*
X48142285Y-42335000D01*
X48099428Y-42292142D01*
X48013714Y-42249285D01*
X47842285Y-42206428D01*
X47628000Y-42206428D01*
X47456571Y-42249285D01*
X47370857Y-42292142D01*
X47328000Y-42335000D01*
X47285142Y-42420714D01*
X47928000Y-43063571D02*
X47928000Y-43492142D01*
X48185142Y-42977857D02*
X47285142Y-43277857D01*
X48185142Y-43577857D01*
X47328000Y-44349285D02*
X47285142Y-44263571D01*
X47285142Y-44135000D01*
X47328000Y-44006428D01*
X47413714Y-43920714D01*
X47499428Y-43877857D01*
X47670857Y-43835000D01*
X47799428Y-43835000D01*
X47970857Y-43877857D01*
X48056571Y-43920714D01*
X48142285Y-44006428D01*
X48185142Y-44135000D01*
X48185142Y-44220714D01*
X48142285Y-44349285D01*
X48099428Y-44392142D01*
X47799428Y-44392142D01*
X47799428Y-44220714D01*
X47842285Y-44777857D02*
X47842285Y-45463571D01*
X48185142Y-46277857D02*
X47713714Y-46277857D01*
X47628000Y-46235000D01*
X47585142Y-46149285D01*
X47585142Y-45977857D01*
X47628000Y-45892142D01*
X48142285Y-46277857D02*
X48185142Y-46192142D01*
X48185142Y-45977857D01*
X48142285Y-45892142D01*
X48056571Y-45849285D01*
X47970857Y-45849285D01*
X47885142Y-45892142D01*
X47842285Y-45977857D01*
X47842285Y-46192142D01*
X47799428Y-46277857D01*
X48185142Y-47092142D02*
X47285142Y-47092142D01*
X48142285Y-47092142D02*
X48185142Y-47006428D01*
X48185142Y-46835000D01*
X48142285Y-46749285D01*
X48099428Y-46706428D01*
X48013714Y-46663571D01*
X47756571Y-46663571D01*
X47670857Y-46706428D01*
X47628000Y-46749285D01*
X47585142Y-46835000D01*
X47585142Y-47006428D01*
X47628000Y-47092142D01*
X48185142Y-47906428D02*
X47713714Y-47906428D01*
X47628000Y-47863571D01*
X47585142Y-47777857D01*
X47585142Y-47606428D01*
X47628000Y-47520714D01*
X48142285Y-47906428D02*
X48185142Y-47820714D01*
X48185142Y-47606428D01*
X48142285Y-47520714D01*
X48056571Y-47477857D01*
X47970857Y-47477857D01*
X47885142Y-47520714D01*
X47842285Y-47606428D01*
X47842285Y-47820714D01*
X47799428Y-47906428D01*
X47585142Y-48335000D02*
X48485142Y-48335000D01*
X47628000Y-48335000D02*
X47585142Y-48420714D01*
X47585142Y-48592142D01*
X47628000Y-48677857D01*
X47670857Y-48720714D01*
X47756571Y-48763571D01*
X48013714Y-48763571D01*
X48099428Y-48720714D01*
X48142285Y-48677857D01*
X48185142Y-48592142D01*
X48185142Y-48420714D01*
X48142285Y-48335000D01*
X47585142Y-49020714D02*
X47585142Y-49363571D01*
X47285142Y-49149285D02*
X48056571Y-49149285D01*
X48142285Y-49192142D01*
X48185142Y-49277857D01*
X48185142Y-49363571D01*
X48142285Y-50006428D02*
X48185142Y-49920714D01*
X48185142Y-49749285D01*
X48142285Y-49663571D01*
X48056571Y-49620714D01*
X47713714Y-49620714D01*
X47628000Y-49663571D01*
X47585142Y-49749285D01*
X47585142Y-49920714D01*
X47628000Y-50006428D01*
X47713714Y-50049285D01*
X47799428Y-50049285D01*
X47885142Y-49620714D01*
X48185142Y-50435000D02*
X47585142Y-50435000D01*
X47756571Y-50435000D02*
X47670857Y-50477857D01*
X47628000Y-50520714D01*
X47585142Y-50606428D01*
X47585142Y-50692142D01*
X29213642Y-30506428D02*
X29942214Y-30506428D01*
X30027928Y-30463571D01*
X30070785Y-30420714D01*
X30113642Y-30335000D01*
X30113642Y-30206428D01*
X30070785Y-30120714D01*
X29770785Y-30506428D02*
X29813642Y-30420714D01*
X29813642Y-30249285D01*
X29770785Y-30163571D01*
X29727928Y-30120714D01*
X29642214Y-30077857D01*
X29385071Y-30077857D01*
X29299357Y-30120714D01*
X29256500Y-30163571D01*
X29213642Y-30249285D01*
X29213642Y-30420714D01*
X29256500Y-30506428D01*
X29813642Y-30935000D02*
X29213642Y-30935000D01*
X28913642Y-30935000D02*
X28956500Y-30892142D01*
X28999357Y-30935000D01*
X28956500Y-30977857D01*
X28913642Y-30935000D01*
X28999357Y-30935000D01*
X29213642Y-31235000D02*
X29213642Y-31577857D01*
X28913642Y-31363571D02*
X29685071Y-31363571D01*
X29770785Y-31406428D01*
X29813642Y-31492142D01*
X29813642Y-31577857D01*
X29813642Y-31877857D02*
X28913642Y-31877857D01*
X29813642Y-32263571D02*
X29342214Y-32263571D01*
X29256500Y-32220714D01*
X29213642Y-32135000D01*
X29213642Y-32006428D01*
X29256500Y-31920714D01*
X29299357Y-31877857D01*
X29213642Y-33077857D02*
X29813642Y-33077857D01*
X29213642Y-32692142D02*
X29685071Y-32692142D01*
X29770785Y-32735000D01*
X29813642Y-32820714D01*
X29813642Y-32949285D01*
X29770785Y-33035000D01*
X29727928Y-33077857D01*
X29813642Y-33506428D02*
X28913642Y-33506428D01*
X29256500Y-33506428D02*
X29213642Y-33592142D01*
X29213642Y-33763571D01*
X29256500Y-33849285D01*
X29299357Y-33892142D01*
X29385071Y-33935000D01*
X29642214Y-33935000D01*
X29727928Y-33892142D01*
X29770785Y-33849285D01*
X29813642Y-33763571D01*
X29813642Y-33592142D01*
X29770785Y-33506428D01*
X29727928Y-34320714D02*
X29770785Y-34363571D01*
X29813642Y-34320714D01*
X29770785Y-34277857D01*
X29727928Y-34320714D01*
X29813642Y-34320714D01*
X29770785Y-35135000D02*
X29813642Y-35049285D01*
X29813642Y-34877857D01*
X29770785Y-34792142D01*
X29727928Y-34749285D01*
X29642214Y-34706428D01*
X29385071Y-34706428D01*
X29299357Y-34749285D01*
X29256500Y-34792142D01*
X29213642Y-34877857D01*
X29213642Y-35049285D01*
X29256500Y-35135000D01*
X29813642Y-35649285D02*
X29770785Y-35563571D01*
X29727928Y-35520714D01*
X29642214Y-35477857D01*
X29385071Y-35477857D01*
X29299357Y-35520714D01*
X29256500Y-35563571D01*
X29213642Y-35649285D01*
X29213642Y-35777857D01*
X29256500Y-35863571D01*
X29299357Y-35906428D01*
X29385071Y-35949285D01*
X29642214Y-35949285D01*
X29727928Y-35906428D01*
X29770785Y-35863571D01*
X29813642Y-35777857D01*
X29813642Y-35649285D01*
X29813642Y-36335000D02*
X29213642Y-36335000D01*
X29299357Y-36335000D02*
X29256500Y-36377857D01*
X29213642Y-36463571D01*
X29213642Y-36592142D01*
X29256500Y-36677857D01*
X29342214Y-36720714D01*
X29813642Y-36720714D01*
X29342214Y-36720714D02*
X29256500Y-36763571D01*
X29213642Y-36849285D01*
X29213642Y-36977857D01*
X29256500Y-37063571D01*
X29342214Y-37106428D01*
X29813642Y-37106428D01*
X28870785Y-38177857D02*
X30027928Y-37406428D01*
X29213642Y-38477857D02*
X29813642Y-38477857D01*
X29299357Y-38477857D02*
X29256500Y-38520714D01*
X29213642Y-38606428D01*
X29213642Y-38735000D01*
X29256500Y-38820714D01*
X29342214Y-38863571D01*
X29813642Y-38863571D01*
X29813642Y-39292142D02*
X29213642Y-39292142D01*
X28913642Y-39292142D02*
X28956500Y-39249285D01*
X28999357Y-39292142D01*
X28956500Y-39335000D01*
X28913642Y-39292142D01*
X28999357Y-39292142D01*
X29813642Y-39720714D02*
X28913642Y-39720714D01*
X29470785Y-39806428D02*
X29813642Y-40063571D01*
X29213642Y-40063571D02*
X29556500Y-39720714D01*
X29813642Y-40449285D02*
X29213642Y-40449285D01*
X28913642Y-40449285D02*
X28956500Y-40406428D01*
X28999357Y-40449285D01*
X28956500Y-40492142D01*
X28913642Y-40449285D01*
X28999357Y-40449285D01*
X29213642Y-40749285D02*
X29213642Y-41092142D01*
X28913642Y-40877857D02*
X29685071Y-40877857D01*
X29770785Y-40920714D01*
X29813642Y-41006428D01*
X29813642Y-41092142D01*
X29813642Y-41777857D02*
X29342214Y-41777857D01*
X29256500Y-41735000D01*
X29213642Y-41649285D01*
X29213642Y-41477857D01*
X29256500Y-41392142D01*
X29770785Y-41777857D02*
X29813642Y-41692142D01*
X29813642Y-41477857D01*
X29770785Y-41392142D01*
X29685071Y-41349285D01*
X29599357Y-41349285D01*
X29513642Y-41392142D01*
X29470785Y-41477857D01*
X29470785Y-41692142D01*
X29427928Y-41777857D01*
X29813642Y-42335000D02*
X29770785Y-42249285D01*
X29685071Y-42206428D01*
X28913642Y-42206428D01*
X29813642Y-42677857D02*
X29213642Y-42677857D01*
X28913642Y-42677857D02*
X28956500Y-42635000D01*
X28999357Y-42677857D01*
X28956500Y-42720714D01*
X28913642Y-42677857D01*
X28999357Y-42677857D01*
X29213642Y-42977857D02*
X29213642Y-43320714D01*
X28913642Y-43106428D02*
X29685071Y-43106428D01*
X29770785Y-43149285D01*
X29813642Y-43235000D01*
X29813642Y-43320714D01*
X29813642Y-44006428D02*
X29342214Y-44006428D01*
X29256500Y-43963571D01*
X29213642Y-43877857D01*
X29213642Y-43706428D01*
X29256500Y-43620714D01*
X29770785Y-44006428D02*
X29813642Y-43920714D01*
X29813642Y-43706428D01*
X29770785Y-43620714D01*
X29685071Y-43577857D01*
X29599357Y-43577857D01*
X29513642Y-43620714D01*
X29470785Y-43706428D01*
X29470785Y-43920714D01*
X29427928Y-44006428D01*
X28870785Y-45077857D02*
X30027928Y-44306428D01*
X31262642Y-24506428D02*
X30362642Y-24506428D01*
X31005500Y-24806428D01*
X30362642Y-25106428D01*
X31262642Y-25106428D01*
X30448357Y-25492142D02*
X30405500Y-25535000D01*
X30362642Y-25620714D01*
X30362642Y-25835000D01*
X30405500Y-25920714D01*
X30448357Y-25963571D01*
X30534071Y-26006428D01*
X30619785Y-26006428D01*
X30748357Y-25963571D01*
X31262642Y-25449285D01*
X31262642Y-26006428D01*
X30362642Y-26306428D02*
X30362642Y-26906428D01*
X31262642Y-26520714D01*
X31176928Y-27763571D02*
X31219785Y-27720714D01*
X31262642Y-27592142D01*
X31262642Y-27506428D01*
X31219785Y-27377857D01*
X31134071Y-27292142D01*
X31048357Y-27249285D01*
X30876928Y-27206428D01*
X30748357Y-27206428D01*
X30576928Y-27249285D01*
X30491214Y-27292142D01*
X30405500Y-27377857D01*
X30362642Y-27506428D01*
X30362642Y-27592142D01*
X30405500Y-27720714D01*
X30448357Y-27763571D01*
X30362642Y-28063571D02*
X30362642Y-28620714D01*
X30705500Y-28320714D01*
X30705500Y-28449285D01*
X30748357Y-28535000D01*
X30791214Y-28577857D01*
X30876928Y-28620714D01*
X31091214Y-28620714D01*
X31176928Y-28577857D01*
X31219785Y-28535000D01*
X31262642Y-28449285D01*
X31262642Y-28192142D01*
X31219785Y-28106428D01*
X31176928Y-28063571D01*
X30448357Y-28963571D02*
X30405500Y-29006428D01*
X30362642Y-29092142D01*
X30362642Y-29306428D01*
X30405500Y-29392142D01*
X30448357Y-29435000D01*
X30534071Y-29477857D01*
X30619785Y-29477857D01*
X30748357Y-29435000D01*
X31262642Y-28920714D01*
X31262642Y-29477857D01*
X30448357Y-29820714D02*
X30405500Y-29863571D01*
X30362642Y-29949285D01*
X30362642Y-30163571D01*
X30405500Y-30249285D01*
X30448357Y-30292142D01*
X30534071Y-30335000D01*
X30619785Y-30335000D01*
X30748357Y-30292142D01*
X31262642Y-29777857D01*
X31262642Y-30335000D01*
X30919785Y-30720714D02*
X30919785Y-31406428D01*
X30662642Y-31706428D02*
X30662642Y-32049285D01*
X30362642Y-31835000D02*
X31134071Y-31835000D01*
X31219785Y-31877857D01*
X31262642Y-31963571D01*
X31262642Y-32049285D01*
X31262642Y-32477857D02*
X31219785Y-32392142D01*
X31176928Y-32349285D01*
X31091214Y-32306428D01*
X30834071Y-32306428D01*
X30748357Y-32349285D01*
X30705500Y-32392142D01*
X30662642Y-32477857D01*
X30662642Y-32606428D01*
X30705500Y-32692142D01*
X30748357Y-32735000D01*
X30834071Y-32777857D01*
X31091214Y-32777857D01*
X31176928Y-32735000D01*
X31219785Y-32692142D01*
X31262642Y-32606428D01*
X31262642Y-32477857D01*
X30919785Y-33163571D02*
X30919785Y-33849285D01*
X31262642Y-34277857D02*
X30362642Y-34277857D01*
X31262642Y-34792142D02*
X30748357Y-34406428D01*
X30362642Y-34792142D02*
X30876928Y-34277857D01*
X31262642Y-35177857D02*
X30362642Y-35177857D01*
X31005500Y-35477857D01*
X30362642Y-35777857D01*
X31262642Y-35777857D01*
X30448357Y-36163571D02*
X30405500Y-36206428D01*
X30362642Y-36292142D01*
X30362642Y-36506428D01*
X30405500Y-36592142D01*
X30448357Y-36635000D01*
X30534071Y-36677857D01*
X30619785Y-36677857D01*
X30748357Y-36635000D01*
X31262642Y-36120714D01*
X31262642Y-36677857D01*
X30362642Y-36977857D02*
X30362642Y-37535000D01*
X30705500Y-37235000D01*
X30705500Y-37363571D01*
X30748357Y-37449285D01*
X30791214Y-37492142D01*
X30876928Y-37535000D01*
X31091214Y-37535000D01*
X31176928Y-37492142D01*
X31219785Y-37449285D01*
X31262642Y-37363571D01*
X31262642Y-37106428D01*
X31219785Y-37020714D01*
X31176928Y-36977857D01*
X31176928Y-38435000D02*
X31219785Y-38392142D01*
X31262642Y-38263571D01*
X31262642Y-38177857D01*
X31219785Y-38049285D01*
X31134071Y-37963571D01*
X31048357Y-37920714D01*
X30876928Y-37877857D01*
X30748357Y-37877857D01*
X30576928Y-37920714D01*
X30491214Y-37963571D01*
X30405500Y-38049285D01*
X30362642Y-38177857D01*
X30362642Y-38263571D01*
X30405500Y-38392142D01*
X30448357Y-38435000D01*
X30362642Y-38735000D02*
X30362642Y-39292142D01*
X30705500Y-38992142D01*
X30705500Y-39120714D01*
X30748357Y-39206428D01*
X30791214Y-39249285D01*
X30876928Y-39292142D01*
X31091214Y-39292142D01*
X31176928Y-39249285D01*
X31219785Y-39206428D01*
X31262642Y-39120714D01*
X31262642Y-38863571D01*
X31219785Y-38777857D01*
X31176928Y-38735000D01*
X30448357Y-39635000D02*
X30405500Y-39677857D01*
X30362642Y-39763571D01*
X30362642Y-39977857D01*
X30405500Y-40063571D01*
X30448357Y-40106428D01*
X30534071Y-40149285D01*
X30619785Y-40149285D01*
X30748357Y-40106428D01*
X31262642Y-39592142D01*
X31262642Y-40149285D01*
X30362642Y-40706428D02*
X30362642Y-40792142D01*
X30405500Y-40877857D01*
X30448357Y-40920714D01*
X30534071Y-40963571D01*
X30705500Y-41006428D01*
X30919785Y-41006428D01*
X31091214Y-40963571D01*
X31176928Y-40920714D01*
X31219785Y-40877857D01*
X31262642Y-40792142D01*
X31262642Y-40706428D01*
X31219785Y-40620714D01*
X31176928Y-40577857D01*
X31091214Y-40535000D01*
X30919785Y-40492142D01*
X30705500Y-40492142D01*
X30534071Y-40535000D01*
X30448357Y-40577857D01*
X30405500Y-40620714D01*
X30362642Y-40706428D01*
X30362642Y-41563571D02*
X30362642Y-41649285D01*
X30405500Y-41734999D01*
X30448357Y-41777857D01*
X30534071Y-41820714D01*
X30705500Y-41863571D01*
X30919785Y-41863571D01*
X31091214Y-41820714D01*
X31176928Y-41777857D01*
X31219785Y-41734999D01*
X31262642Y-41649285D01*
X31262642Y-41563571D01*
X31219785Y-41477857D01*
X31176928Y-41434999D01*
X31091214Y-41392142D01*
X30919785Y-41349285D01*
X30705500Y-41349285D01*
X30534071Y-41392142D01*
X30448357Y-41434999D01*
X30405500Y-41477857D01*
X30362642Y-41563571D01*
X30362642Y-42420714D02*
X30362642Y-42506428D01*
X30405500Y-42592142D01*
X30448357Y-42634999D01*
X30534071Y-42677857D01*
X30705500Y-42720714D01*
X30919785Y-42720714D01*
X31091214Y-42677857D01*
X31176928Y-42634999D01*
X31219785Y-42592142D01*
X31262642Y-42506428D01*
X31262642Y-42420714D01*
X31219785Y-42334999D01*
X31176928Y-42292142D01*
X31091214Y-42249285D01*
X30919785Y-42206428D01*
X30705500Y-42206428D01*
X30534071Y-42249285D01*
X30448357Y-42292142D01*
X30405500Y-42334999D01*
X30362642Y-42420714D01*
X31005500Y-43063571D02*
X31005500Y-43492142D01*
X31262642Y-42977857D02*
X30362642Y-43277857D01*
X31262642Y-43577857D01*
X30405500Y-44349285D02*
X30362642Y-44263571D01*
X30362642Y-44134999D01*
X30405500Y-44006428D01*
X30491214Y-43920714D01*
X30576928Y-43877857D01*
X30748357Y-43835000D01*
X30876928Y-43835000D01*
X31048357Y-43877857D01*
X31134071Y-43920714D01*
X31219785Y-44006428D01*
X31262642Y-44134999D01*
X31262642Y-44220714D01*
X31219785Y-44349285D01*
X31176928Y-44392142D01*
X30876928Y-44392142D01*
X30876928Y-44220714D01*
X30919785Y-44777857D02*
X30919785Y-45463571D01*
X31262642Y-46277857D02*
X30791214Y-46277857D01*
X30705500Y-46235000D01*
X30662642Y-46149285D01*
X30662642Y-45977857D01*
X30705500Y-45892142D01*
X31219785Y-46277857D02*
X31262642Y-46192142D01*
X31262642Y-45977857D01*
X31219785Y-45892142D01*
X31134071Y-45849285D01*
X31048357Y-45849285D01*
X30962642Y-45892142D01*
X30919785Y-45977857D01*
X30919785Y-46192142D01*
X30876928Y-46277857D01*
X31262642Y-47092142D02*
X30362642Y-47092142D01*
X31219785Y-47092142D02*
X31262642Y-47006428D01*
X31262642Y-46835000D01*
X31219785Y-46749285D01*
X31176928Y-46706428D01*
X31091214Y-46663571D01*
X30834071Y-46663571D01*
X30748357Y-46706428D01*
X30705500Y-46749285D01*
X30662642Y-46835000D01*
X30662642Y-47006428D01*
X30705500Y-47092142D01*
X31262642Y-47906428D02*
X30791214Y-47906428D01*
X30705500Y-47863571D01*
X30662642Y-47777857D01*
X30662642Y-47606428D01*
X30705500Y-47520714D01*
X31219785Y-47906428D02*
X31262642Y-47820714D01*
X31262642Y-47606428D01*
X31219785Y-47520714D01*
X31134071Y-47477857D01*
X31048357Y-47477857D01*
X30962642Y-47520714D01*
X30919785Y-47606428D01*
X30919785Y-47820714D01*
X30876928Y-47906428D01*
X30662642Y-48335000D02*
X31562642Y-48335000D01*
X30705500Y-48335000D02*
X30662642Y-48420714D01*
X30662642Y-48592142D01*
X30705500Y-48677857D01*
X30748357Y-48720714D01*
X30834071Y-48763571D01*
X31091214Y-48763571D01*
X31176928Y-48720714D01*
X31219785Y-48677857D01*
X31262642Y-48592142D01*
X31262642Y-48420714D01*
X31219785Y-48335000D01*
X30662642Y-49020714D02*
X30662642Y-49363571D01*
X30362642Y-49149285D02*
X31134071Y-49149285D01*
X31219785Y-49192142D01*
X31262642Y-49277857D01*
X31262642Y-49363571D01*
X31219785Y-50006428D02*
X31262642Y-49920714D01*
X31262642Y-49749285D01*
X31219785Y-49663571D01*
X31134071Y-49620714D01*
X30791214Y-49620714D01*
X30705500Y-49663571D01*
X30662642Y-49749285D01*
X30662642Y-49920714D01*
X30705500Y-50006428D01*
X30791214Y-50049285D01*
X30876928Y-50049285D01*
X30962642Y-49620714D01*
X31262642Y-50435000D02*
X30662642Y-50435000D01*
X30834071Y-50435000D02*
X30748357Y-50477857D01*
X30705500Y-50520714D01*
X30662642Y-50606428D01*
X30662642Y-50692142D01*
%LPC*%
D11*
%TO.C,REF\u002A\u002A*%
X22000000Y-18350000D03*
%TD*%
%TO.C,REF\u002A\u002A*%
X106612500Y-18350000D03*
%TD*%
%TO.C,REF\u002A\u002A*%
X22000000Y-87990000D03*
%TD*%
%TO.C,REF\u002A\u002A*%
X106612500Y-87990000D03*
%TD*%
D12*
%TO.C,REF\u002A\u002A*%
X17857142Y-23000000D03*
%TD*%
%TO.C,REF\u002A\u002A*%
X62488068Y-83340000D03*
%TD*%
%TO.C,REF\u002A\u002A*%
X80865113Y-54670000D03*
%TD*%
%TO.C,REF\u002A\u002A*%
X34461250Y-23000000D03*
%TD*%
%TO.C,REF\u002A\u002A*%
X44111022Y-51670000D03*
%TD*%
D13*
%TO.C,REF\u002A\u002A*%
X19000000Y-18350000D03*
%TD*%
D12*
%TO.C,REF\u002A\u002A*%
X61033522Y-83340000D03*
%TD*%
%TO.C,REF\u002A\u002A*%
X23000000Y-15000000D03*
%TD*%
%TO.C,REF\u002A\u002A*%
X31552159Y-51670000D03*
%TD*%
%TO.C,REF\u002A\u002A*%
X61760795Y-51670000D03*
%TD*%
%TO.C,REF\u002A\u002A*%
X45565568Y-83340000D03*
%TD*%
%TO.C,REF\u002A\u002A*%
X61033522Y-54670000D03*
%TD*%
%TO.C,REF\u002A\u002A*%
X105612500Y-20000000D03*
%TD*%
%TO.C,REF\u002A\u002A*%
X32279431Y-51670000D03*
%TD*%
%TO.C,REF\u002A\u002A*%
X23000000Y-16428571D03*
%TD*%
D14*
%TO.C,U1*%
X73767500Y-55670000D03*
X73767500Y-56940000D03*
X73767500Y-58210000D03*
X73767500Y-59480000D03*
X73767500Y-60750000D03*
X73767500Y-62020000D03*
X73767500Y-63290000D03*
X73767500Y-64560000D03*
X73767500Y-65830000D03*
X73767500Y-67100000D03*
X73767500Y-68370000D03*
X73767500Y-69640000D03*
X73767500Y-70910000D03*
X73767500Y-72180000D03*
X73767500Y-73450000D03*
X73767500Y-74720000D03*
X73767500Y-75990000D03*
X73767500Y-77260000D03*
X73767500Y-78530000D03*
X73767500Y-79800000D03*
X73767500Y-81070000D03*
X73767500Y-82340000D03*
X88690000Y-82340000D03*
X88690000Y-81070000D03*
X88690000Y-79800000D03*
X88690000Y-78530000D03*
X88690000Y-77260000D03*
X88690000Y-75990000D03*
X88690000Y-74720000D03*
X88690000Y-73450000D03*
X88690000Y-72180000D03*
X88690000Y-70910000D03*
X88690000Y-69640000D03*
X88690000Y-68370000D03*
X88690000Y-67100000D03*
X88690000Y-65830000D03*
X88690000Y-64560000D03*
X88690000Y-63290000D03*
X88690000Y-62020000D03*
X88690000Y-60750000D03*
X88690000Y-59480000D03*
X88690000Y-58210000D03*
X88690000Y-56940000D03*
X88690000Y-55670000D03*
%TD*%
D12*
%TO.C,REF\u002A\u002A*%
X15714285Y-23000000D03*
%TD*%
%TO.C,REF\u002A\u002A*%
X19285714Y-83340000D03*
%TD*%
%TO.C,REF\u002A\u002A*%
X50656477Y-23000000D03*
%TD*%
%TO.C,REF\u002A\u002A*%
X80137840Y-51670000D03*
%TD*%
%TO.C,REF\u002A\u002A*%
X44838295Y-23000000D03*
%TD*%
%TO.C,REF\u002A\u002A*%
X68306250Y-54670000D03*
%TD*%
%TO.C,REF\u002A\u002A*%
X67578977Y-51670000D03*
%TD*%
%TO.C,REF\u002A\u002A*%
X51383750Y-54670000D03*
%TD*%
%TO.C,REF\u002A\u002A*%
X97060340Y-23000000D03*
%TD*%
%TO.C,REF\u002A\u002A*%
X26461250Y-83340000D03*
%TD*%
%TO.C,REF\u002A\u002A*%
X84501477Y-51670000D03*
%TD*%
%TO.C,REF\u002A\u002A*%
X113612500Y-83340000D03*
%TD*%
%TO.C,REF\u002A\u002A*%
X65397159Y-83340000D03*
%TD*%
%TO.C,REF\u002A\u002A*%
X63942613Y-51670000D03*
%TD*%
%TO.C,REF\u002A\u002A*%
X60306250Y-83340000D03*
%TD*%
%TO.C,REF\u002A\u002A*%
X23000000Y-17142857D03*
%TD*%
D14*
%TO.C,U1*%
X39922500Y-55670000D03*
X39922500Y-56940000D03*
X39922500Y-58210000D03*
X39922500Y-59480000D03*
X39922500Y-60750000D03*
X39922500Y-62020000D03*
X39922500Y-63290000D03*
X39922500Y-64560000D03*
X39922500Y-65830000D03*
X39922500Y-67100000D03*
X39922500Y-68370000D03*
X39922500Y-69640000D03*
X39922500Y-70910000D03*
X39922500Y-72180000D03*
X39922500Y-73450000D03*
X39922500Y-74720000D03*
X39922500Y-75990000D03*
X39922500Y-77260000D03*
X39922500Y-78530000D03*
X39922500Y-79800000D03*
X39922500Y-81070000D03*
X39922500Y-82340000D03*
X54845000Y-82340000D03*
X54845000Y-81070000D03*
X54845000Y-79800000D03*
X54845000Y-78530000D03*
X54845000Y-77260000D03*
X54845000Y-75990000D03*
X54845000Y-74720000D03*
X54845000Y-73450000D03*
X54845000Y-72180000D03*
X54845000Y-70910000D03*
X54845000Y-69640000D03*
X54845000Y-68370000D03*
X54845000Y-67100000D03*
X54845000Y-65830000D03*
X54845000Y-64560000D03*
X54845000Y-63290000D03*
X54845000Y-62020000D03*
X54845000Y-60750000D03*
X54845000Y-59480000D03*
X54845000Y-58210000D03*
X54845000Y-56940000D03*
X54845000Y-55670000D03*
%TD*%
D12*
%TO.C,REF\u002A\u002A*%
X44838295Y-51670000D03*
%TD*%
%TO.C,REF\u002A\u002A*%
X101423977Y-51670000D03*
%TD*%
%TO.C,REF\u002A\u002A*%
X45565568Y-54670000D03*
%TD*%
%TO.C,REF\u002A\u002A*%
X82319659Y-51670000D03*
%TD*%
%TO.C,REF\u002A\u002A*%
X67578977Y-23000000D03*
%TD*%
%TO.C,REF\u002A\u002A*%
X77956022Y-51670000D03*
%TD*%
%TO.C,REF\u002A\u002A*%
X102151250Y-54670000D03*
%TD*%
%TO.C,REF\u002A\u002A*%
X81592386Y-54670000D03*
%TD*%
%TO.C,REF\u002A\u002A*%
X99242159Y-54670000D03*
%TD*%
%TO.C,REF\u002A\u002A*%
X77228750Y-23000000D03*
%TD*%
%TO.C,REF\u002A\u002A*%
X80865113Y-23000000D03*
%TD*%
%TO.C,REF\u002A\u002A*%
X23000000Y-15714285D03*
%TD*%
%TO.C,REF\u002A\u002A*%
X63942613Y-54670000D03*
%TD*%
%TO.C,REF\u002A\u002A*%
X78683295Y-83340000D03*
%TD*%
%TO.C,REF\u002A\u002A*%
X66851704Y-54670000D03*
%TD*%
%TO.C,REF\u002A\u002A*%
X45565568Y-23000000D03*
%TD*%
%TO.C,REF\u002A\u002A*%
X96333068Y-54670000D03*
%TD*%
%TO.C,REF\u002A\u002A*%
X81592386Y-83340000D03*
%TD*%
%TO.C,REF\u002A\u002A*%
X43383750Y-23000000D03*
%TD*%
%TO.C,REF\u002A\u002A*%
X105612500Y-90625714D03*
%TD*%
%TO.C,REF\u002A\u002A*%
X105612500Y-15714285D03*
%TD*%
%TO.C,REF\u002A\u002A*%
X110041071Y-83340000D03*
%TD*%
%TO.C,REF\u002A\u002A*%
X47747386Y-54670000D03*
%TD*%
%TO.C,REF\u002A\u002A*%
X98514886Y-51670000D03*
%TD*%
%TO.C,REF\u002A\u002A*%
X49201931Y-23000000D03*
%TD*%
%TO.C,REF\u002A\u002A*%
X83774204Y-54670000D03*
%TD*%
D13*
%TO.C,REF\u002A\u002A*%
X19000000Y-87990000D03*
%TD*%
D12*
%TO.C,REF\u002A\u002A*%
X99242159Y-23000000D03*
%TD*%
%TO.C,REF\u002A\u002A*%
X27188522Y-51670000D03*
%TD*%
%TO.C,REF\u002A\u002A*%
X30097613Y-54670000D03*
%TD*%
%TO.C,REF\u002A\u002A*%
X95605795Y-51670000D03*
%TD*%
%TO.C,REF\u002A\u002A*%
X33733977Y-51670000D03*
%TD*%
%TO.C,REF\u002A\u002A*%
X80865113Y-83340000D03*
%TD*%
%TO.C,REF\u002A\u002A*%
X64669886Y-51670000D03*
%TD*%
%TO.C,REF\u002A\u002A*%
X45565568Y-51670000D03*
%TD*%
%TO.C,REF\u002A\u002A*%
X97787613Y-54670000D03*
%TD*%
%TO.C,REF\u002A\u002A*%
X81592386Y-51670000D03*
%TD*%
%TO.C,REF\u002A\u002A*%
X27915795Y-83340000D03*
%TD*%
%TO.C,REF\u002A\u002A*%
X43383750Y-54670000D03*
%TD*%
%TO.C,REF\u002A\u002A*%
X48474659Y-23000000D03*
%TD*%
%TO.C,REF\u002A\u002A*%
X16428571Y-83340000D03*
%TD*%
%TO.C,REF\u002A\u002A*%
X20000000Y-23000000D03*
%TD*%
%TO.C,REF\u002A\u002A*%
X44111022Y-23000000D03*
%TD*%
D14*
%TO.C,U1*%
X90690000Y-55670000D03*
X90690000Y-56940000D03*
X90690000Y-58210000D03*
X90690000Y-59480000D03*
X90690000Y-60750000D03*
X90690000Y-62020000D03*
X90690000Y-63290000D03*
X90690000Y-64560000D03*
X90690000Y-65830000D03*
X90690000Y-67100000D03*
X90690000Y-68370000D03*
X90690000Y-69640000D03*
X90690000Y-70910000D03*
X90690000Y-72180000D03*
X90690000Y-73450000D03*
X90690000Y-74720000D03*
X90690000Y-75990000D03*
X90690000Y-77260000D03*
X90690000Y-78530000D03*
X90690000Y-79800000D03*
X90690000Y-81070000D03*
X90690000Y-82340000D03*
X105612500Y-82340000D03*
X105612500Y-81070000D03*
X105612500Y-79800000D03*
X105612500Y-78530000D03*
X105612500Y-77260000D03*
X105612500Y-75990000D03*
X105612500Y-74720000D03*
X105612500Y-73450000D03*
X105612500Y-72180000D03*
X105612500Y-70910000D03*
X105612500Y-69640000D03*
X105612500Y-68370000D03*
X105612500Y-67100000D03*
X105612500Y-65830000D03*
X105612500Y-64560000D03*
X105612500Y-63290000D03*
X105612500Y-62020000D03*
X105612500Y-60750000D03*
X105612500Y-59480000D03*
X105612500Y-58210000D03*
X105612500Y-56940000D03*
X105612500Y-55670000D03*
%TD*%
D12*
%TO.C,REF\u002A\u002A*%
X44838295Y-54670000D03*
%TD*%
%TO.C,REF\u002A\u002A*%
X17142857Y-23000000D03*
%TD*%
%TO.C,REF\u002A\u002A*%
X105612500Y-91340000D03*
%TD*%
%TO.C,REF\u002A\u002A*%
X51383750Y-51670000D03*
%TD*%
%TO.C,REF\u002A\u002A*%
X97060340Y-51670000D03*
%TD*%
%TO.C,REF\u002A\u002A*%
X67578977Y-54670000D03*
%TD*%
%TO.C,REF\u002A\u002A*%
X83774204Y-83340000D03*
%TD*%
%TO.C,REF\u002A\u002A*%
X15000000Y-83340000D03*
%TD*%
D14*
%TO.C,U1*%
X23000000Y-55670000D03*
X23000000Y-56940000D03*
X23000000Y-58210000D03*
X23000000Y-59480000D03*
X23000000Y-60750000D03*
X23000000Y-62020000D03*
X23000000Y-63290000D03*
X23000000Y-64560000D03*
X23000000Y-65830000D03*
X23000000Y-67100000D03*
X23000000Y-68370000D03*
X23000000Y-69640000D03*
X23000000Y-70910000D03*
X23000000Y-72180000D03*
X23000000Y-73450000D03*
X23000000Y-74720000D03*
X23000000Y-75990000D03*
X23000000Y-77260000D03*
X23000000Y-78530000D03*
X23000000Y-79800000D03*
X23000000Y-81070000D03*
X23000000Y-82340000D03*
X37922500Y-82340000D03*
X37922500Y-81070000D03*
X37922500Y-79800000D03*
X37922500Y-78530000D03*
X37922500Y-77260000D03*
X37922500Y-75990000D03*
X37922500Y-74720000D03*
X37922500Y-73450000D03*
X37922500Y-72180000D03*
X37922500Y-70910000D03*
X37922500Y-69640000D03*
X37922500Y-68370000D03*
X37922500Y-67100000D03*
X37922500Y-65830000D03*
X37922500Y-64560000D03*
X37922500Y-63290000D03*
X37922500Y-62020000D03*
X37922500Y-60750000D03*
X37922500Y-59480000D03*
X37922500Y-58210000D03*
X37922500Y-56940000D03*
X37922500Y-55670000D03*
%TD*%
D12*
%TO.C,REF\u002A\u002A*%
X77956022Y-54670000D03*
%TD*%
%TO.C,REF\u002A\u002A*%
X33733977Y-23000000D03*
%TD*%
%TO.C,REF\u002A\u002A*%
X29370340Y-54670000D03*
%TD*%
%TO.C,REF\u002A\u002A*%
X47020113Y-54670000D03*
%TD*%
%TO.C,REF\u002A\u002A*%
X34461250Y-54670000D03*
%TD*%
%TO.C,REF\u002A\u002A*%
X110041071Y-23000000D03*
%TD*%
%TO.C,REF\u002A\u002A*%
X94151250Y-51670000D03*
%TD*%
%TO.C,REF\u002A\u002A*%
X105612500Y-17142857D03*
%TD*%
%TO.C,REF\u002A\u002A*%
X49201931Y-54670000D03*
%TD*%
%TO.C,REF\u002A\u002A*%
X23000000Y-86340000D03*
%TD*%
%TO.C,REF\u002A\u002A*%
X68306250Y-51670000D03*
%TD*%
%TO.C,REF\u002A\u002A*%
X79410568Y-83340000D03*
%TD*%
%TO.C,REF\u002A\u002A*%
X60306250Y-54670000D03*
%TD*%
%TO.C,REF\u002A\u002A*%
X110755357Y-83340000D03*
%TD*%
%TO.C,REF\u002A\u002A*%
X66124431Y-23000000D03*
%TD*%
%TO.C,REF\u002A\u002A*%
X85228750Y-51670000D03*
%TD*%
%TO.C,REF\u002A\u002A*%
X61760795Y-54670000D03*
%TD*%
%TO.C,REF\u002A\u002A*%
X112898214Y-23000000D03*
%TD*%
%TO.C,REF\u002A\u002A*%
X66124431Y-51670000D03*
%TD*%
%TO.C,REF\u002A\u002A*%
X80137840Y-54670000D03*
%TD*%
%TO.C,REF\u002A\u002A*%
X65397159Y-54670000D03*
%TD*%
%TO.C,REF\u002A\u002A*%
X105612500Y-15000000D03*
%TD*%
%TO.C,REF\u002A\u002A*%
X49201931Y-51670000D03*
%TD*%
%TO.C,REF\u002A\u002A*%
X95605795Y-54670000D03*
%TD*%
%TO.C,REF\u002A\u002A*%
X105612500Y-88482857D03*
%TD*%
%TO.C,REF\u002A\u002A*%
X63215340Y-83340000D03*
%TD*%
%TO.C,REF\u002A\u002A*%
X63215340Y-23000000D03*
%TD*%
%TO.C,REF\u002A\u002A*%
X50656477Y-54670000D03*
%TD*%
%TO.C,REF\u002A\u002A*%
X108612500Y-83340000D03*
%TD*%
%TO.C,REF\u002A\u002A*%
X83046931Y-23000000D03*
%TD*%
%TO.C,REF\u002A\u002A*%
X102151250Y-51670000D03*
%TD*%
%TO.C,REF\u002A\u002A*%
X32279431Y-54670000D03*
%TD*%
%TO.C,REF\u002A\u002A*%
X23000000Y-19285714D03*
%TD*%
%TO.C,REF\u002A\u002A*%
X23000000Y-89911428D03*
%TD*%
D14*
%TO.C,U1*%
X73767500Y-24000000D03*
X73767500Y-25270000D03*
X73767500Y-26540000D03*
X73767500Y-27810000D03*
X73767500Y-29080000D03*
X73767500Y-30350000D03*
X73767500Y-31620000D03*
X73767500Y-32890000D03*
X73767500Y-34160000D03*
X73767500Y-35430000D03*
X73767500Y-36700000D03*
X73767500Y-37970000D03*
X73767500Y-39240000D03*
X73767500Y-40510000D03*
X73767500Y-41780000D03*
X73767500Y-43050000D03*
X73767500Y-44320000D03*
X73767500Y-45590000D03*
X73767500Y-46860000D03*
X73767500Y-48130000D03*
X73767500Y-49400000D03*
X73767500Y-50670000D03*
X88690000Y-50670000D03*
X88690000Y-49400000D03*
X88690000Y-48130000D03*
X88690000Y-46860000D03*
X88690000Y-45590000D03*
X88690000Y-44320000D03*
X88690000Y-43050000D03*
X88690000Y-41780000D03*
X88690000Y-40510000D03*
X88690000Y-39240000D03*
X88690000Y-37970000D03*
X88690000Y-36700000D03*
X88690000Y-35430000D03*
X88690000Y-34160000D03*
X88690000Y-32890000D03*
X88690000Y-31620000D03*
X88690000Y-30350000D03*
X88690000Y-29080000D03*
X88690000Y-27810000D03*
X88690000Y-26540000D03*
X88690000Y-25270000D03*
X88690000Y-24000000D03*
%TD*%
D12*
%TO.C,REF\u002A\u002A*%
X65397159Y-51670000D03*
%TD*%
%TO.C,REF\u002A\u002A*%
X113612500Y-23000000D03*
%TD*%
%TO.C,REF\u002A\u002A*%
X49201931Y-83340000D03*
%TD*%
%TO.C,REF\u002A\u002A*%
X66851704Y-23000000D03*
%TD*%
%TO.C,REF\u002A\u002A*%
X105612500Y-87054285D03*
%TD*%
D14*
%TO.C,U1*%
X39922500Y-24000000D03*
X39922500Y-25270000D03*
X39922500Y-26540000D03*
X39922500Y-27810000D03*
X39922500Y-29080000D03*
X39922500Y-30350000D03*
X39922500Y-31620000D03*
X39922500Y-32890000D03*
X39922500Y-34160000D03*
X39922500Y-35430000D03*
X39922500Y-36700000D03*
X39922500Y-37970000D03*
X39922500Y-39240000D03*
X39922500Y-40510000D03*
X39922500Y-41780000D03*
X39922500Y-43050000D03*
X39922500Y-44320000D03*
X39922500Y-45590000D03*
X39922500Y-46860000D03*
X39922500Y-48130000D03*
X39922500Y-49400000D03*
X39922500Y-50670000D03*
X54845000Y-50670000D03*
X54845000Y-49400000D03*
X54845000Y-48130000D03*
X54845000Y-46860000D03*
X54845000Y-45590000D03*
X54845000Y-44320000D03*
X54845000Y-43050000D03*
X54845000Y-41780000D03*
X54845000Y-40510000D03*
X54845000Y-39240000D03*
X54845000Y-37970000D03*
X54845000Y-36700000D03*
X54845000Y-35430000D03*
X54845000Y-34160000D03*
X54845000Y-32890000D03*
X54845000Y-31620000D03*
X54845000Y-30350000D03*
X54845000Y-29080000D03*
X54845000Y-27810000D03*
X54845000Y-26540000D03*
X54845000Y-25270000D03*
X54845000Y-24000000D03*
%TD*%
D12*
%TO.C,REF\u002A\u002A*%
X99969431Y-83340000D03*
%TD*%
%TO.C,REF\u002A\u002A*%
X51383750Y-83340000D03*
%TD*%
%TO.C,REF\u002A\u002A*%
X30097613Y-83340000D03*
%TD*%
%TO.C,REF\u002A\u002A*%
X23000000Y-87768571D03*
%TD*%
%TO.C,REF\u002A\u002A*%
X43383750Y-51670000D03*
%TD*%
%TO.C,REF\u002A\u002A*%
X27188522Y-54670000D03*
%TD*%
%TO.C,REF\u002A\u002A*%
X28643068Y-54670000D03*
%TD*%
%TO.C,REF\u002A\u002A*%
X102151250Y-83340000D03*
%TD*%
%TO.C,REF\u002A\u002A*%
X15714285Y-83340000D03*
%TD*%
%TO.C,REF\u002A\u002A*%
X63215340Y-54670000D03*
%TD*%
%TO.C,REF\u002A\u002A*%
X23000000Y-90625714D03*
%TD*%
%TO.C,REF\u002A\u002A*%
X28643068Y-23000000D03*
%TD*%
%TO.C,REF\u002A\u002A*%
X112898214Y-83340000D03*
%TD*%
%TO.C,REF\u002A\u002A*%
X84501477Y-83340000D03*
%TD*%
%TO.C,REF\u002A\u002A*%
X105612500Y-89911428D03*
%TD*%
%TO.C,REF\u002A\u002A*%
X112183928Y-83340000D03*
%TD*%
D14*
%TO.C,U1*%
X90690000Y-24000000D03*
X90690000Y-25270000D03*
X90690000Y-26540000D03*
X90690000Y-27810000D03*
X90690000Y-29080000D03*
X90690000Y-30350000D03*
X90690000Y-31620000D03*
X90690000Y-32890000D03*
X90690000Y-34160000D03*
X90690000Y-35430000D03*
X90690000Y-36700000D03*
X90690000Y-37970000D03*
X90690000Y-39240000D03*
X90690000Y-40510000D03*
X90690000Y-41780000D03*
X90690000Y-43050000D03*
X90690000Y-44320000D03*
X90690000Y-45590000D03*
X90690000Y-46860000D03*
X90690000Y-48130000D03*
X90690000Y-49400000D03*
X90690000Y-50670000D03*
X105612500Y-50670000D03*
X105612500Y-49400000D03*
X105612500Y-48130000D03*
X105612500Y-46860000D03*
X105612500Y-45590000D03*
X105612500Y-44320000D03*
X105612500Y-43050000D03*
X105612500Y-41780000D03*
X105612500Y-40510000D03*
X105612500Y-39240000D03*
X105612500Y-37970000D03*
X105612500Y-36700000D03*
X105612500Y-35430000D03*
X105612500Y-34160000D03*
X105612500Y-32890000D03*
X105612500Y-31620000D03*
X105612500Y-30350000D03*
X105612500Y-29080000D03*
X105612500Y-27810000D03*
X105612500Y-26540000D03*
X105612500Y-25270000D03*
X105612500Y-24000000D03*
%TD*%
D12*
%TO.C,REF\u002A\u002A*%
X44838295Y-83340000D03*
%TD*%
%TO.C,REF\u002A\u002A*%
X77228750Y-51670000D03*
%TD*%
%TO.C,REF\u002A\u002A*%
X105612500Y-16428571D03*
%TD*%
%TO.C,REF\u002A\u002A*%
X30824886Y-54670000D03*
%TD*%
%TO.C,REF\u002A\u002A*%
X79410568Y-51670000D03*
%TD*%
%TO.C,REF\u002A\u002A*%
X33733977Y-83340000D03*
%TD*%
%TO.C,REF\u002A\u002A*%
X101423977Y-54670000D03*
%TD*%
%TO.C,REF\u002A\u002A*%
X31552159Y-83340000D03*
%TD*%
%TO.C,REF\u002A\u002A*%
X17857142Y-83340000D03*
%TD*%
%TO.C,REF\u002A\u002A*%
X31552159Y-54670000D03*
%TD*%
%TO.C,REF\u002A\u002A*%
X26461250Y-54670000D03*
%TD*%
%TO.C,REF\u002A\u002A*%
X23000000Y-20000000D03*
%TD*%
%TO.C,REF\u002A\u002A*%
X46292840Y-83340000D03*
%TD*%
%TO.C,REF\u002A\u002A*%
X27188522Y-23000000D03*
%TD*%
%TO.C,REF\u002A\u002A*%
X18571428Y-83340000D03*
%TD*%
%TO.C,REF\u002A\u002A*%
X27915795Y-54670000D03*
%TD*%
%TO.C,REF\u002A\u002A*%
X16428571Y-23000000D03*
%TD*%
%TO.C,REF\u002A\u002A*%
X47747386Y-83340000D03*
%TD*%
%TO.C,REF\u002A\u002A*%
X98514886Y-54670000D03*
%TD*%
%TO.C,REF\u002A\u002A*%
X95605795Y-23000000D03*
%TD*%
%TO.C,REF\u002A\u002A*%
X23000000Y-18571428D03*
%TD*%
%TO.C,REF\u002A\u002A*%
X85228750Y-54670000D03*
%TD*%
%TO.C,REF\u002A\u002A*%
X96333068Y-83340000D03*
%TD*%
%TO.C,REF\u002A\u002A*%
X63942613Y-83340000D03*
%TD*%
%TO.C,REF\u002A\u002A*%
X18571428Y-23000000D03*
%TD*%
%TO.C,REF\u002A\u002A*%
X46292840Y-51670000D03*
%TD*%
%TO.C,REF\u002A\u002A*%
X77956022Y-83340000D03*
%TD*%
%TO.C,REF\u002A\u002A*%
X85228750Y-23000000D03*
%TD*%
%TO.C,REF\u002A\u002A*%
X26461250Y-51670000D03*
%TD*%
%TO.C,REF\u002A\u002A*%
X33006704Y-51670000D03*
%TD*%
%TO.C,REF\u002A\u002A*%
X78683295Y-51670000D03*
%TD*%
%TO.C,REF\u002A\u002A*%
X110755357Y-23000000D03*
%TD*%
%TO.C,REF\u002A\u002A*%
X94151250Y-54670000D03*
%TD*%
%TO.C,REF\u002A\u002A*%
X30097613Y-51670000D03*
%TD*%
%TO.C,REF\u002A\u002A*%
X111469642Y-23000000D03*
%TD*%
%TO.C,REF\u002A\u002A*%
X49929204Y-54670000D03*
%TD*%
%TO.C,REF\u002A\u002A*%
X67578977Y-83340000D03*
%TD*%
%TO.C,REF\u002A\u002A*%
X47020113Y-83340000D03*
%TD*%
%TO.C,REF\u002A\u002A*%
X68306250Y-23000000D03*
%TD*%
%TO.C,REF\u002A\u002A*%
X62488068Y-54670000D03*
%TD*%
%TO.C,REF\u002A\u002A*%
X85228750Y-83340000D03*
%TD*%
%TO.C,REF\u002A\u002A*%
X94151250Y-83340000D03*
%TD*%
%TO.C,REF\u002A\u002A*%
X64669886Y-54670000D03*
%TD*%
%TO.C,REF\u002A\u002A*%
X97787613Y-83340000D03*
%TD*%
%TO.C,REF\u002A\u002A*%
X80137840Y-23000000D03*
%TD*%
D14*
%TO.C,U1*%
X23000000Y-24000000D03*
X23000000Y-25270000D03*
X23000000Y-26540000D03*
X23000000Y-27810000D03*
X23000000Y-29080000D03*
X23000000Y-30350000D03*
X23000000Y-31620000D03*
X23000000Y-32890000D03*
X23000000Y-34160000D03*
X23000000Y-35430000D03*
X23000000Y-36700000D03*
X23000000Y-37970000D03*
X23000000Y-39240000D03*
X23000000Y-40510000D03*
X23000000Y-41780000D03*
X23000000Y-43050000D03*
X23000000Y-44320000D03*
X23000000Y-45590000D03*
X23000000Y-46860000D03*
X23000000Y-48130000D03*
X23000000Y-49400000D03*
X23000000Y-50670000D03*
X37922500Y-50670000D03*
X37922500Y-49400000D03*
X37922500Y-48130000D03*
X37922500Y-46860000D03*
X37922500Y-45590000D03*
X37922500Y-44320000D03*
X37922500Y-43050000D03*
X37922500Y-41780000D03*
X37922500Y-40510000D03*
X37922500Y-39240000D03*
X37922500Y-37970000D03*
X37922500Y-36700000D03*
X37922500Y-35430000D03*
X37922500Y-34160000D03*
X37922500Y-32890000D03*
X37922500Y-31620000D03*
X37922500Y-30350000D03*
X37922500Y-29080000D03*
X37922500Y-27810000D03*
X37922500Y-26540000D03*
X37922500Y-25270000D03*
X37922500Y-24000000D03*
%TD*%
D12*
%TO.C,REF\u002A\u002A*%
X95605795Y-83340000D03*
%TD*%
%TO.C,REF\u002A\u002A*%
X60306250Y-51670000D03*
%TD*%
%TO.C,REF\u002A\u002A*%
X33733977Y-54670000D03*
%TD*%
%TO.C,REF\u002A\u002A*%
X33006704Y-83340000D03*
%TD*%
%TO.C,REF\u002A\u002A*%
X66124431Y-54670000D03*
%TD*%
%TO.C,REF\u002A\u002A*%
X64669886Y-23000000D03*
%TD*%
D14*
%TO.C,U1*%
X56845000Y-24000000D03*
X56845000Y-25270000D03*
X56845000Y-26540000D03*
X56845000Y-27810000D03*
X56845000Y-29080000D03*
X56845000Y-30350000D03*
X56845000Y-31620000D03*
X56845000Y-32890000D03*
X56845000Y-34160000D03*
X56845000Y-35430000D03*
X56845000Y-36700000D03*
X56845000Y-37970000D03*
X56845000Y-39240000D03*
X56845000Y-40510000D03*
X56845000Y-41780000D03*
X56845000Y-43050000D03*
X56845000Y-44320000D03*
X56845000Y-45590000D03*
X56845000Y-46860000D03*
X56845000Y-48130000D03*
X56845000Y-49400000D03*
X56845000Y-50670000D03*
X71767500Y-50670000D03*
X71767500Y-49400000D03*
X71767500Y-48130000D03*
X71767500Y-46860000D03*
X71767500Y-45590000D03*
X71767500Y-44320000D03*
X71767500Y-43050000D03*
X71767500Y-41780000D03*
X71767500Y-40510000D03*
X71767500Y-39240000D03*
X71767500Y-37970000D03*
X71767500Y-36700000D03*
X71767500Y-35430000D03*
X71767500Y-34160000D03*
X71767500Y-32890000D03*
X71767500Y-31620000D03*
X71767500Y-30350000D03*
X71767500Y-29080000D03*
X71767500Y-27810000D03*
X71767500Y-26540000D03*
X71767500Y-25270000D03*
X71767500Y-24000000D03*
%TD*%
D12*
%TO.C,REF\u002A\u002A*%
X48474659Y-51670000D03*
%TD*%
%TO.C,REF\u002A\u002A*%
X46292840Y-54670000D03*
%TD*%
%TO.C,REF\u002A\u002A*%
X47747386Y-23000000D03*
%TD*%
%TO.C,REF\u002A\u002A*%
X98514886Y-83340000D03*
%TD*%
%TO.C,REF\u002A\u002A*%
X99242159Y-83340000D03*
%TD*%
%TO.C,REF\u002A\u002A*%
X96333068Y-51670000D03*
%TD*%
%TO.C,REF\u002A\u002A*%
X33006704Y-54670000D03*
%TD*%
%TO.C,REF\u002A\u002A*%
X61760795Y-83340000D03*
%TD*%
%TO.C,REF\u002A\u002A*%
X111469642Y-83340000D03*
%TD*%
%TO.C,REF\u002A\u002A*%
X84501477Y-23000000D03*
%TD*%
%TO.C,REF\u002A\u002A*%
X94878522Y-23000000D03*
%TD*%
%TO.C,REF\u002A\u002A*%
X20000000Y-83340000D03*
%TD*%
%TO.C,REF\u002A\u002A*%
X78683295Y-54670000D03*
%TD*%
%TO.C,REF\u002A\u002A*%
X62488068Y-23000000D03*
%TD*%
%TO.C,REF\u002A\u002A*%
X77228750Y-83340000D03*
%TD*%
%TO.C,REF\u002A\u002A*%
X84501477Y-54670000D03*
%TD*%
%TO.C,REF\u002A\u002A*%
X100696704Y-23000000D03*
%TD*%
%TO.C,REF\u002A\u002A*%
X83774204Y-51670000D03*
%TD*%
%TO.C,REF\u002A\u002A*%
X81592386Y-23000000D03*
%TD*%
%TO.C,REF\u002A\u002A*%
X99969431Y-23000000D03*
%TD*%
%TO.C,REF\u002A\u002A*%
X100696704Y-54670000D03*
%TD*%
%TO.C,REF\u002A\u002A*%
X23000000Y-89197142D03*
%TD*%
%TO.C,REF\u002A\u002A*%
X30097613Y-23000000D03*
%TD*%
%TO.C,REF\u002A\u002A*%
X83774204Y-23000000D03*
%TD*%
%TO.C,REF\u002A\u002A*%
X94878522Y-83340000D03*
%TD*%
%TO.C,REF\u002A\u002A*%
X97787613Y-23000000D03*
%TD*%
%TO.C,REF\u002A\u002A*%
X64669886Y-83340000D03*
%TD*%
%TO.C,REF\u002A\u002A*%
X28643068Y-51670000D03*
%TD*%
%TO.C,REF\u002A\u002A*%
X105612500Y-17857142D03*
%TD*%
%TO.C,REF\u002A\u002A*%
X108612500Y-23000000D03*
%TD*%
%TO.C,REF\u002A\u002A*%
X19285714Y-23000000D03*
%TD*%
%TO.C,REF\u002A\u002A*%
X94151250Y-23000000D03*
%TD*%
%TO.C,REF\u002A\u002A*%
X100696704Y-51670000D03*
%TD*%
%TO.C,REF\u002A\u002A*%
X47747386Y-51670000D03*
%TD*%
%TO.C,REF\u002A\u002A*%
X68306250Y-83340000D03*
%TD*%
%TO.C,REF\u002A\u002A*%
X17142857Y-83340000D03*
%TD*%
%TO.C,REF\u002A\u002A*%
X47020113Y-23000000D03*
%TD*%
%TO.C,REF\u002A\u002A*%
X49929204Y-51670000D03*
%TD*%
%TO.C,REF\u002A\u002A*%
X78683295Y-23000000D03*
%TD*%
%TO.C,REF\u002A\u002A*%
X105612500Y-86340000D03*
%TD*%
%TO.C,REF\u002A\u002A*%
X66124431Y-83340000D03*
%TD*%
%TO.C,REF\u002A\u002A*%
X31552159Y-23000000D03*
%TD*%
%TO.C,REF\u002A\u002A*%
X44111022Y-54670000D03*
%TD*%
%TO.C,REF\u002A\u002A*%
X60306250Y-23000000D03*
%TD*%
%TO.C,REF\u002A\u002A*%
X50656477Y-51670000D03*
%TD*%
%TO.C,REF\u002A\u002A*%
X61033522Y-23000000D03*
%TD*%
%TO.C,REF\u002A\u002A*%
X23000000Y-87054285D03*
%TD*%
%TO.C,REF\u002A\u002A*%
X33006704Y-23000000D03*
%TD*%
%TO.C,REF\u002A\u002A*%
X80137840Y-83340000D03*
%TD*%
%TO.C,REF\u002A\u002A*%
X66851704Y-83340000D03*
%TD*%
%TO.C,REF\u002A\u002A*%
X63942613Y-23000000D03*
%TD*%
%TO.C,REF\u002A\u002A*%
X98514886Y-23000000D03*
%TD*%
%TO.C,REF\u002A\u002A*%
X29370340Y-83340000D03*
%TD*%
%TO.C,REF\u002A\u002A*%
X99969431Y-54670000D03*
%TD*%
%TO.C,REF\u002A\u002A*%
X105612500Y-18571428D03*
%TD*%
%TO.C,REF\u002A\u002A*%
X32279431Y-83340000D03*
%TD*%
%TO.C,REF\u002A\u002A*%
X27915795Y-23000000D03*
%TD*%
%TO.C,REF\u002A\u002A*%
X48474659Y-54670000D03*
%TD*%
%TO.C,REF\u002A\u002A*%
X83046931Y-54670000D03*
%TD*%
%TO.C,REF\u002A\u002A*%
X99969431Y-51670000D03*
%TD*%
%TO.C,REF\u002A\u002A*%
X50656477Y-83340000D03*
%TD*%
%TO.C,REF\u002A\u002A*%
X109326785Y-83340000D03*
%TD*%
%TO.C,REF\u002A\u002A*%
X82319659Y-23000000D03*
%TD*%
%TO.C,REF\u002A\u002A*%
X112183928Y-23000000D03*
%TD*%
%TO.C,REF\u002A\u002A*%
X29370340Y-23000000D03*
%TD*%
%TO.C,REF\u002A\u002A*%
X44111022Y-83340000D03*
%TD*%
%TO.C,REF\u002A\u002A*%
X46292840Y-23000000D03*
%TD*%
%TO.C,REF\u002A\u002A*%
X109326785Y-23000000D03*
%TD*%
%TO.C,REF\u002A\u002A*%
X27188522Y-83340000D03*
%TD*%
%TO.C,REF\u002A\u002A*%
X30824886Y-23000000D03*
%TD*%
%TO.C,REF\u002A\u002A*%
X27915795Y-51670000D03*
%TD*%
%TO.C,REF\u002A\u002A*%
X96333068Y-23000000D03*
%TD*%
%TO.C,REF\u002A\u002A*%
X79410568Y-54670000D03*
%TD*%
%TO.C,REF\u002A\u002A*%
X26461250Y-23000000D03*
%TD*%
D13*
%TO.C,REF\u002A\u002A*%
X109612500Y-87990000D03*
%TD*%
D12*
%TO.C,REF\u002A\u002A*%
X97060340Y-54670000D03*
%TD*%
%TO.C,REF\u002A\u002A*%
X100696704Y-83340000D03*
%TD*%
D13*
%TO.C,REF\u002A\u002A*%
X109612500Y-18350000D03*
%TD*%
D12*
%TO.C,REF\u002A\u002A*%
X102151250Y-23000000D03*
%TD*%
%TO.C,REF\u002A\u002A*%
X61760795Y-23000000D03*
%TD*%
%TO.C,REF\u002A\u002A*%
X105612500Y-19285714D03*
%TD*%
%TO.C,REF\u002A\u002A*%
X97060340Y-83340000D03*
%TD*%
%TO.C,REF\u002A\u002A*%
X29370340Y-51670000D03*
%TD*%
%TO.C,REF\u002A\u002A*%
X94878522Y-51670000D03*
%TD*%
%TO.C,REF\u002A\u002A*%
X49929204Y-83340000D03*
%TD*%
%TO.C,REF\u002A\u002A*%
X97787613Y-51670000D03*
%TD*%
%TO.C,REF\u002A\u002A*%
X99242159Y-51670000D03*
%TD*%
%TO.C,REF\u002A\u002A*%
X34461250Y-51670000D03*
%TD*%
%TO.C,REF\u002A\u002A*%
X105612500Y-87768571D03*
%TD*%
%TO.C,REF\u002A\u002A*%
X65397159Y-23000000D03*
%TD*%
D14*
%TO.C,U1*%
X56845000Y-55670000D03*
X56845000Y-56940000D03*
X56845000Y-58210000D03*
X56845000Y-59480000D03*
X56845000Y-60750000D03*
X56845000Y-62020000D03*
X56845000Y-63290000D03*
X56845000Y-64560000D03*
X56845000Y-65830000D03*
X56845000Y-67100000D03*
X56845000Y-68370000D03*
X56845000Y-69640000D03*
X56845000Y-70910000D03*
X56845000Y-72180000D03*
X56845000Y-73450000D03*
X56845000Y-74720000D03*
X56845000Y-75990000D03*
X56845000Y-77260000D03*
X56845000Y-78530000D03*
X56845000Y-79800000D03*
X56845000Y-81070000D03*
X56845000Y-82340000D03*
X71767500Y-82340000D03*
X71767500Y-81070000D03*
X71767500Y-79800000D03*
X71767500Y-78530000D03*
X71767500Y-77260000D03*
X71767500Y-75990000D03*
X71767500Y-74720000D03*
X71767500Y-73450000D03*
X71767500Y-72180000D03*
X71767500Y-70910000D03*
X71767500Y-69640000D03*
X71767500Y-68370000D03*
X71767500Y-67100000D03*
X71767500Y-65830000D03*
X71767500Y-64560000D03*
X71767500Y-63290000D03*
X71767500Y-62020000D03*
X71767500Y-60750000D03*
X71767500Y-59480000D03*
X71767500Y-58210000D03*
X71767500Y-56940000D03*
X71767500Y-55670000D03*
%TD*%
D12*
%TO.C,REF\u002A\u002A*%
X66851704Y-51670000D03*
%TD*%
%TO.C,REF\u002A\u002A*%
X82319659Y-83340000D03*
%TD*%
%TO.C,REF\u002A\u002A*%
X48474659Y-83340000D03*
%TD*%
%TO.C,REF\u002A\u002A*%
X61033522Y-51670000D03*
%TD*%
%TO.C,REF\u002A\u002A*%
X62488068Y-51670000D03*
%TD*%
%TO.C,REF\u002A\u002A*%
X23000000Y-17857142D03*
%TD*%
%TO.C,REF\u002A\u002A*%
X80865113Y-51670000D03*
%TD*%
%TO.C,REF\u002A\u002A*%
X79410568Y-23000000D03*
%TD*%
%TO.C,REF\u002A\u002A*%
X101423977Y-83340000D03*
%TD*%
%TO.C,REF\u002A\u002A*%
X32279431Y-23000000D03*
%TD*%
%TO.C,REF\u002A\u002A*%
X77228750Y-54670000D03*
%TD*%
%TO.C,REF\u002A\u002A*%
X30824886Y-83340000D03*
%TD*%
%TO.C,REF\u002A\u002A*%
X43383750Y-83340000D03*
%TD*%
%TO.C,REF\u002A\u002A*%
X30824886Y-51670000D03*
%TD*%
%TO.C,REF\u002A\u002A*%
X77956022Y-23000000D03*
%TD*%
%TO.C,REF\u002A\u002A*%
X51383750Y-23000000D03*
%TD*%
%TO.C,REF\u002A\u002A*%
X82319659Y-54670000D03*
%TD*%
%TO.C,REF\u002A\u002A*%
X28643068Y-83340000D03*
%TD*%
%TO.C,REF\u002A\u002A*%
X34461250Y-83340000D03*
%TD*%
%TO.C,REF\u002A\u002A*%
X105612500Y-89197142D03*
%TD*%
%TO.C,REF\u002A\u002A*%
X23000000Y-91340000D03*
%TD*%
%TO.C,REF\u002A\u002A*%
X101423977Y-23000000D03*
%TD*%
%TO.C,REF\u002A\u002A*%
X49929204Y-23000000D03*
%TD*%
%TO.C,REF\u002A\u002A*%
X47020113Y-51670000D03*
%TD*%
%TO.C,REF\u002A\u002A*%
X15000000Y-23000000D03*
%TD*%
%TO.C,REF\u002A\u002A*%
X63215340Y-51670000D03*
%TD*%
%TO.C,REF\u002A\u002A*%
X83046931Y-51670000D03*
%TD*%
%TO.C,REF\u002A\u002A*%
X23000000Y-88482857D03*
%TD*%
%TO.C,REF\u002A\u002A*%
X83046931Y-83340000D03*
%TD*%
%TO.C,REF\u002A\u002A*%
X94878522Y-54670000D03*
%TD*%
M02*
