M48
; DRILL file {KiCad (6.0.7)} date Tue Aug  9 00:19:31 2022
; FORMAT={-:-/ absolute / inch / decimal}
; #@! TF.CreationDate,2022-08-09T00:19:31-07:00
; #@! TF.GenerationSoftware,Kicad,Pcbnew,(6.0.7)
; #@! TF.FileFunction,Plated,1,2,PTH
FMAT,2
INCH
; #@! TA.AperFunction,Plated,PTH,ComponentDrill
T1C0.0197
%
G90
G05
T1
X0.9055Y-0.9449
X0.9055Y-0.9949
X0.9055Y-1.0449
X0.9055Y-1.0949
X0.9055Y-1.1449
X0.9055Y-1.1949
X0.9055Y-1.2449
X0.9055Y-1.2949
X0.9055Y-1.3449
X0.9055Y-1.3949
X0.9055Y-1.4449
X0.9055Y-1.4949
X0.9055Y-1.5449
X0.9055Y-1.5949
X0.9055Y-1.6449
X0.9055Y-1.6949
X0.9055Y-1.7449
X0.9055Y-1.7949
X0.9055Y-1.8449
X0.9055Y-1.8949
X0.9055Y-1.9449
X0.9055Y-1.9949
X0.9055Y-2.1917
X0.9055Y-2.2417
X0.9055Y-2.2917
X0.9055Y-2.3417
X0.9055Y-2.3917
X0.9055Y-2.4417
X0.9055Y-2.4917
X0.9055Y-2.5417
X0.9055Y-2.5917
X0.9055Y-2.6417
X0.9055Y-2.6917
X0.9055Y-2.7417
X0.9055Y-2.7917
X0.9055Y-2.8417
X0.9055Y-2.8917
X0.9055Y-2.9417
X0.9055Y-2.9917
X0.9055Y-3.0417
X0.9055Y-3.0917
X0.9055Y-3.1417
X0.9055Y-3.1917
X0.9055Y-3.2417
X1.493Y-0.9449
X1.493Y-0.9949
X1.493Y-1.0449
X1.493Y-1.0949
X1.493Y-1.1449
X1.493Y-1.1949
X1.493Y-1.2449
X1.493Y-1.2949
X1.493Y-1.3449
X1.493Y-1.3949
X1.493Y-1.4449
X1.493Y-1.4949
X1.493Y-1.5449
X1.493Y-1.5949
X1.493Y-1.6449
X1.493Y-1.6949
X1.493Y-1.7449
X1.493Y-1.7949
X1.493Y-1.8449
X1.493Y-1.8949
X1.493Y-1.9449
X1.493Y-1.9949
X1.493Y-2.1917
X1.493Y-2.2417
X1.493Y-2.2917
X1.493Y-2.3417
X1.493Y-2.3917
X1.493Y-2.4417
X1.493Y-2.4917
X1.493Y-2.5417
X1.493Y-2.5917
X1.493Y-2.6417
X1.493Y-2.6917
X1.493Y-2.7417
X1.493Y-2.7917
X1.493Y-2.8417
X1.493Y-2.8917
X1.493Y-2.9417
X1.493Y-2.9917
X1.493Y-3.0417
X1.493Y-3.0917
X1.493Y-3.1417
X1.493Y-3.1917
X1.493Y-3.2417
X1.5718Y-0.9449
X1.5718Y-0.9949
X1.5718Y-1.0449
X1.5718Y-1.0949
X1.5718Y-1.1449
X1.5718Y-1.1949
X1.5718Y-1.2449
X1.5718Y-1.2949
X1.5718Y-1.3449
X1.5718Y-1.3949
X1.5718Y-1.4449
X1.5718Y-1.4949
X1.5718Y-1.5449
X1.5718Y-1.5949
X1.5718Y-1.6449
X1.5718Y-1.6949
X1.5718Y-1.7449
X1.5718Y-1.7949
X1.5718Y-1.8449
X1.5718Y-1.8949
X1.5718Y-1.9449
X1.5718Y-1.9949
X1.5718Y-2.1917
X1.5718Y-2.2417
X1.5718Y-2.2917
X1.5718Y-2.3417
X1.5718Y-2.3917
X1.5718Y-2.4417
X1.5718Y-2.4917
X1.5718Y-2.5417
X1.5718Y-2.5917
X1.5718Y-2.6417
X1.5718Y-2.6917
X1.5718Y-2.7417
X1.5718Y-2.7917
X1.5718Y-2.8417
X1.5718Y-2.8917
X1.5718Y-2.9417
X1.5718Y-2.9917
X1.5718Y-3.0417
X1.5718Y-3.0917
X1.5718Y-3.1417
X1.5718Y-3.1917
X1.5718Y-3.2417
X2.1593Y-0.9449
X2.1593Y-0.9949
X2.1593Y-1.0449
X2.1593Y-1.0949
X2.1593Y-1.1449
X2.1593Y-1.1949
X2.1593Y-1.2449
X2.1593Y-1.2949
X2.1593Y-1.3449
X2.1593Y-1.3949
X2.1593Y-1.4449
X2.1593Y-1.4949
X2.1593Y-1.5449
X2.1593Y-1.5949
X2.1593Y-1.6449
X2.1593Y-1.6949
X2.1593Y-1.7449
X2.1593Y-1.7949
X2.1593Y-1.8449
X2.1593Y-1.8949
X2.1593Y-1.9449
X2.1593Y-1.9949
X2.1593Y-2.1917
X2.1593Y-2.2417
X2.1593Y-2.2917
X2.1593Y-2.3417
X2.1593Y-2.3917
X2.1593Y-2.4417
X2.1593Y-2.4917
X2.1593Y-2.5417
X2.1593Y-2.5917
X2.1593Y-2.6417
X2.1593Y-2.6917
X2.1593Y-2.7417
X2.1593Y-2.7917
X2.1593Y-2.8417
X2.1593Y-2.8917
X2.1593Y-2.9417
X2.1593Y-2.9917
X2.1593Y-3.0417
X2.1593Y-3.0917
X2.1593Y-3.1417
X2.1593Y-3.1917
X2.1593Y-3.2417
X2.238Y-0.9449
X2.238Y-0.9949
X2.238Y-1.0449
X2.238Y-1.0949
X2.238Y-1.1449
X2.238Y-1.1949
X2.238Y-1.2449
X2.238Y-1.2949
X2.238Y-1.3449
X2.238Y-1.3949
X2.238Y-1.4449
X2.238Y-1.4949
X2.238Y-1.5449
X2.238Y-1.5949
X2.238Y-1.6449
X2.238Y-1.6949
X2.238Y-1.7449
X2.238Y-1.7949
X2.238Y-1.8449
X2.238Y-1.8949
X2.238Y-1.9449
X2.238Y-1.9949
X2.238Y-2.1917
X2.238Y-2.2417
X2.238Y-2.2917
X2.238Y-2.3417
X2.238Y-2.3917
X2.238Y-2.4417
X2.238Y-2.4917
X2.238Y-2.5417
X2.238Y-2.5917
X2.238Y-2.6417
X2.238Y-2.6917
X2.238Y-2.7417
X2.238Y-2.7917
X2.238Y-2.8417
X2.238Y-2.8917
X2.238Y-2.9417
X2.238Y-2.9917
X2.238Y-3.0417
X2.238Y-3.0917
X2.238Y-3.1417
X2.238Y-3.1917
X2.238Y-3.2417
X2.8255Y-0.9449
X2.8255Y-0.9949
X2.8255Y-1.0449
X2.8255Y-1.0949
X2.8255Y-1.1449
X2.8255Y-1.1949
X2.8255Y-1.2449
X2.8255Y-1.2949
X2.8255Y-1.3449
X2.8255Y-1.3949
X2.8255Y-1.4449
X2.8255Y-1.4949
X2.8255Y-1.5449
X2.8255Y-1.5949
X2.8255Y-1.6449
X2.8255Y-1.6949
X2.8255Y-1.7449
X2.8255Y-1.7949
X2.8255Y-1.8449
X2.8255Y-1.8949
X2.8255Y-1.9449
X2.8255Y-1.9949
X2.8255Y-2.1917
X2.8255Y-2.2417
X2.8255Y-2.2917
X2.8255Y-2.3417
X2.8255Y-2.3917
X2.8255Y-2.4417
X2.8255Y-2.4917
X2.8255Y-2.5417
X2.8255Y-2.5917
X2.8255Y-2.6417
X2.8255Y-2.6917
X2.8255Y-2.7417
X2.8255Y-2.7917
X2.8255Y-2.8417
X2.8255Y-2.8917
X2.8255Y-2.9417
X2.8255Y-2.9917
X2.8255Y-3.0417
X2.8255Y-3.0917
X2.8255Y-3.1417
X2.8255Y-3.1917
X2.8255Y-3.2417
X2.9042Y-0.9449
X2.9042Y-0.9949
X2.9042Y-1.0449
X2.9042Y-1.0949
X2.9042Y-1.1449
X2.9042Y-1.1949
X2.9042Y-1.2449
X2.9042Y-1.2949
X2.9042Y-1.3449
X2.9042Y-1.3949
X2.9042Y-1.4449
X2.9042Y-1.4949
X2.9042Y-1.5449
X2.9042Y-1.5949
X2.9042Y-1.6449
X2.9042Y-1.6949
X2.9042Y-1.7449
X2.9042Y-1.7949
X2.9042Y-1.8449
X2.9042Y-1.8949
X2.9042Y-1.9449
X2.9042Y-1.9949
X2.9042Y-2.1917
X2.9042Y-2.2417
X2.9042Y-2.2917
X2.9042Y-2.3417
X2.9042Y-2.3917
X2.9042Y-2.4417
X2.9042Y-2.4917
X2.9042Y-2.5417
X2.9042Y-2.5917
X2.9042Y-2.6417
X2.9042Y-2.6917
X2.9042Y-2.7417
X2.9042Y-2.7917
X2.9042Y-2.8417
X2.9042Y-2.8917
X2.9042Y-2.9417
X2.9042Y-2.9917
X2.9042Y-3.0417
X2.9042Y-3.0917
X2.9042Y-3.1417
X2.9042Y-3.1917
X2.9042Y-3.2417
X3.4917Y-0.9449
X3.4917Y-0.9949
X3.4917Y-1.0449
X3.4917Y-1.0949
X3.4917Y-1.1449
X3.4917Y-1.1949
X3.4917Y-1.2449
X3.4917Y-1.2949
X3.4917Y-1.3449
X3.4917Y-1.3949
X3.4917Y-1.4449
X3.4917Y-1.4949
X3.4917Y-1.5449
X3.4917Y-1.5949
X3.4917Y-1.6449
X3.4917Y-1.6949
X3.4917Y-1.7449
X3.4917Y-1.7949
X3.4917Y-1.8449
X3.4917Y-1.8949
X3.4917Y-1.9449
X3.4917Y-1.9949
X3.4917Y-2.1917
X3.4917Y-2.2417
X3.4917Y-2.2917
X3.4917Y-2.3417
X3.4917Y-2.3917
X3.4917Y-2.4417
X3.4917Y-2.4917
X3.4917Y-2.5417
X3.4917Y-2.5917
X3.4917Y-2.6417
X3.4917Y-2.6917
X3.4917Y-2.7417
X3.4917Y-2.7917
X3.4917Y-2.8417
X3.4917Y-2.8917
X3.4917Y-2.9417
X3.4917Y-2.9917
X3.4917Y-3.0417
X3.4917Y-3.0917
X3.4917Y-3.1417
X3.4917Y-3.1917
X3.4917Y-3.2417
X3.5705Y-0.9449
X3.5705Y-0.9949
X3.5705Y-1.0449
X3.5705Y-1.0949
X3.5705Y-1.1449
X3.5705Y-1.1949
X3.5705Y-1.2449
X3.5705Y-1.2949
X3.5705Y-1.3449
X3.5705Y-1.3949
X3.5705Y-1.4449
X3.5705Y-1.4949
X3.5705Y-1.5449
X3.5705Y-1.5949
X3.5705Y-1.6449
X3.5705Y-1.6949
X3.5705Y-1.7449
X3.5705Y-1.7949
X3.5705Y-1.8449
X3.5705Y-1.8949
X3.5705Y-1.9449
X3.5705Y-1.9949
X3.5705Y-2.1917
X3.5705Y-2.2417
X3.5705Y-2.2917
X3.5705Y-2.3417
X3.5705Y-2.3917
X3.5705Y-2.4417
X3.5705Y-2.4917
X3.5705Y-2.5417
X3.5705Y-2.5917
X3.5705Y-2.6417
X3.5705Y-2.6917
X3.5705Y-2.7417
X3.5705Y-2.7917
X3.5705Y-2.8417
X3.5705Y-2.8917
X3.5705Y-2.9417
X3.5705Y-2.9917
X3.5705Y-3.0417
X3.5705Y-3.0917
X3.5705Y-3.1417
X3.5705Y-3.1917
X3.5705Y-3.2417
X4.158Y-0.9449
X4.158Y-0.9949
X4.158Y-1.0449
X4.158Y-1.0949
X4.158Y-1.1449
X4.158Y-1.1949
X4.158Y-1.2449
X4.158Y-1.2949
X4.158Y-1.3449
X4.158Y-1.3949
X4.158Y-1.4449
X4.158Y-1.4949
X4.158Y-1.5449
X4.158Y-1.5949
X4.158Y-1.6449
X4.158Y-1.6949
X4.158Y-1.7449
X4.158Y-1.7949
X4.158Y-1.8449
X4.158Y-1.8949
X4.158Y-1.9449
X4.158Y-1.9949
X4.158Y-2.1917
X4.158Y-2.2417
X4.158Y-2.2917
X4.158Y-2.3417
X4.158Y-2.3917
X4.158Y-2.4417
X4.158Y-2.4917
X4.158Y-2.5417
X4.158Y-2.5917
X4.158Y-2.6417
X4.158Y-2.6917
X4.158Y-2.7417
X4.158Y-2.7917
X4.158Y-2.8417
X4.158Y-2.8917
X4.158Y-2.9417
X4.158Y-2.9917
X4.158Y-3.0417
X4.158Y-3.0917
X4.158Y-3.1417
X4.158Y-3.1917
X4.158Y-3.2417
T0
M30
