%TF.GenerationSoftware,KiCad,Pcbnew,(6.0.7)*%
%TF.CreationDate,2022-08-09T00:19:31-07:00*%
%TF.ProjectId,panelized-M27C322-to-KM23C32000AG-adapter,70616e65-6c69-47a6-9564-2d4d32374333,rev?*%
%TF.SameCoordinates,Original*%
%TF.FileFunction,Paste,Top*%
%TF.FilePolarity,Positive*%
%FSLAX46Y46*%
G04 Gerber Fmt 4.6, Leading zero omitted, Abs format (unit mm)*
G04 Created by KiCad (PCBNEW (6.0.7)) date 2022-08-09 00:19:31*
%MOMM*%
%LPD*%
G01*
G04 APERTURE LIST*
%ADD10R,2.100000X0.750000*%
G04 APERTURE END LIST*
D10*
%TO.C,J1*%
X45583500Y-24635000D03*
X45583500Y-25905000D03*
X45583500Y-27175000D03*
X45583500Y-28445000D03*
X45583500Y-29715000D03*
X45583500Y-30985000D03*
X45583500Y-32255000D03*
X45583500Y-33525000D03*
X45583500Y-34795000D03*
X45583500Y-36065000D03*
X45583500Y-37335000D03*
X45583500Y-38605000D03*
X45583500Y-39875000D03*
X45583500Y-41145000D03*
X45583500Y-42415000D03*
X45583500Y-43685000D03*
X45583500Y-44955000D03*
X45583500Y-46225000D03*
X45583500Y-47495000D03*
X45583500Y-48765000D03*
X45583500Y-50035000D03*
X49183500Y-50035000D03*
X49183500Y-48765000D03*
X49183500Y-47495000D03*
X49183500Y-46225000D03*
X49183500Y-44955000D03*
X49183500Y-43685000D03*
X49183500Y-42415000D03*
X49183500Y-41145000D03*
X49183500Y-39875000D03*
X49183500Y-38605000D03*
X49183500Y-37335000D03*
X49183500Y-36065000D03*
X49183500Y-34795000D03*
X49183500Y-33525000D03*
X49183500Y-32255000D03*
X49183500Y-30985000D03*
X49183500Y-29715000D03*
X49183500Y-28445000D03*
X49183500Y-27175000D03*
X49183500Y-25905000D03*
X49183500Y-24635000D03*
%TD*%
%TO.C,J1*%
X62506000Y-24635000D03*
X62506000Y-25905000D03*
X62506000Y-27175000D03*
X62506000Y-28445000D03*
X62506000Y-29715000D03*
X62506000Y-30985000D03*
X62506000Y-32255000D03*
X62506000Y-33525000D03*
X62506000Y-34795000D03*
X62506000Y-36065000D03*
X62506000Y-37335000D03*
X62506000Y-38605000D03*
X62506000Y-39875000D03*
X62506000Y-41145000D03*
X62506000Y-42415000D03*
X62506000Y-43685000D03*
X62506000Y-44955000D03*
X62506000Y-46225000D03*
X62506000Y-47495000D03*
X62506000Y-48765000D03*
X62506000Y-50035000D03*
X66106000Y-50035000D03*
X66106000Y-48765000D03*
X66106000Y-47495000D03*
X66106000Y-46225000D03*
X66106000Y-44955000D03*
X66106000Y-43685000D03*
X66106000Y-42415000D03*
X66106000Y-41145000D03*
X66106000Y-39875000D03*
X66106000Y-38605000D03*
X66106000Y-37335000D03*
X66106000Y-36065000D03*
X66106000Y-34795000D03*
X66106000Y-33525000D03*
X66106000Y-32255000D03*
X66106000Y-30985000D03*
X66106000Y-29715000D03*
X66106000Y-28445000D03*
X66106000Y-27175000D03*
X66106000Y-25905000D03*
X66106000Y-24635000D03*
%TD*%
%TO.C,J1*%
X62506000Y-56305000D03*
X62506000Y-57575000D03*
X62506000Y-58845000D03*
X62506000Y-60115000D03*
X62506000Y-61385000D03*
X62506000Y-62655000D03*
X62506000Y-63925000D03*
X62506000Y-65195000D03*
X62506000Y-66465000D03*
X62506000Y-67735000D03*
X62506000Y-69005000D03*
X62506000Y-70275000D03*
X62506000Y-71545000D03*
X62506000Y-72815000D03*
X62506000Y-74085000D03*
X62506000Y-75355000D03*
X62506000Y-76625000D03*
X62506000Y-77895000D03*
X62506000Y-79165000D03*
X62506000Y-80435000D03*
X62506000Y-81705000D03*
X66106000Y-81705000D03*
X66106000Y-80435000D03*
X66106000Y-79165000D03*
X66106000Y-77895000D03*
X66106000Y-76625000D03*
X66106000Y-75355000D03*
X66106000Y-74085000D03*
X66106000Y-72815000D03*
X66106000Y-71545000D03*
X66106000Y-70275000D03*
X66106000Y-69005000D03*
X66106000Y-67735000D03*
X66106000Y-66465000D03*
X66106000Y-65195000D03*
X66106000Y-63925000D03*
X66106000Y-62655000D03*
X66106000Y-61385000D03*
X66106000Y-60115000D03*
X66106000Y-58845000D03*
X66106000Y-57575000D03*
X66106000Y-56305000D03*
%TD*%
%TO.C,J1*%
X79428500Y-24635000D03*
X79428500Y-25905000D03*
X79428500Y-27175000D03*
X79428500Y-28445000D03*
X79428500Y-29715000D03*
X79428500Y-30985000D03*
X79428500Y-32255000D03*
X79428500Y-33525000D03*
X79428500Y-34795000D03*
X79428500Y-36065000D03*
X79428500Y-37335000D03*
X79428500Y-38605000D03*
X79428500Y-39875000D03*
X79428500Y-41145000D03*
X79428500Y-42415000D03*
X79428500Y-43685000D03*
X79428500Y-44955000D03*
X79428500Y-46225000D03*
X79428500Y-47495000D03*
X79428500Y-48765000D03*
X79428500Y-50035000D03*
X83028500Y-50035000D03*
X83028500Y-48765000D03*
X83028500Y-47495000D03*
X83028500Y-46225000D03*
X83028500Y-44955000D03*
X83028500Y-43685000D03*
X83028500Y-42415000D03*
X83028500Y-41145000D03*
X83028500Y-39875000D03*
X83028500Y-38605000D03*
X83028500Y-37335000D03*
X83028500Y-36065000D03*
X83028500Y-34795000D03*
X83028500Y-33525000D03*
X83028500Y-32255000D03*
X83028500Y-30985000D03*
X83028500Y-29715000D03*
X83028500Y-28445000D03*
X83028500Y-27175000D03*
X83028500Y-25905000D03*
X83028500Y-24635000D03*
%TD*%
%TO.C,J1*%
X96351000Y-24635000D03*
X96351000Y-25905000D03*
X96351000Y-27175000D03*
X96351000Y-28445000D03*
X96351000Y-29715000D03*
X96351000Y-30985000D03*
X96351000Y-32255000D03*
X96351000Y-33525000D03*
X96351000Y-34795000D03*
X96351000Y-36065000D03*
X96351000Y-37335000D03*
X96351000Y-38605000D03*
X96351000Y-39875000D03*
X96351000Y-41145000D03*
X96351000Y-42415000D03*
X96351000Y-43685000D03*
X96351000Y-44955000D03*
X96351000Y-46225000D03*
X96351000Y-47495000D03*
X96351000Y-48765000D03*
X96351000Y-50035000D03*
X99951000Y-50035000D03*
X99951000Y-48765000D03*
X99951000Y-47495000D03*
X99951000Y-46225000D03*
X99951000Y-44955000D03*
X99951000Y-43685000D03*
X99951000Y-42415000D03*
X99951000Y-41145000D03*
X99951000Y-39875000D03*
X99951000Y-38605000D03*
X99951000Y-37335000D03*
X99951000Y-36065000D03*
X99951000Y-34795000D03*
X99951000Y-33525000D03*
X99951000Y-32255000D03*
X99951000Y-30985000D03*
X99951000Y-29715000D03*
X99951000Y-28445000D03*
X99951000Y-27175000D03*
X99951000Y-25905000D03*
X99951000Y-24635000D03*
%TD*%
%TO.C,J1*%
X45583500Y-56305000D03*
X45583500Y-57575000D03*
X45583500Y-58845000D03*
X45583500Y-60115000D03*
X45583500Y-61385000D03*
X45583500Y-62655000D03*
X45583500Y-63925000D03*
X45583500Y-65195000D03*
X45583500Y-66465000D03*
X45583500Y-67735000D03*
X45583500Y-69005000D03*
X45583500Y-70275000D03*
X45583500Y-71545000D03*
X45583500Y-72815000D03*
X45583500Y-74085000D03*
X45583500Y-75355000D03*
X45583500Y-76625000D03*
X45583500Y-77895000D03*
X45583500Y-79165000D03*
X45583500Y-80435000D03*
X45583500Y-81705000D03*
X49183500Y-81705000D03*
X49183500Y-80435000D03*
X49183500Y-79165000D03*
X49183500Y-77895000D03*
X49183500Y-76625000D03*
X49183500Y-75355000D03*
X49183500Y-74085000D03*
X49183500Y-72815000D03*
X49183500Y-71545000D03*
X49183500Y-70275000D03*
X49183500Y-69005000D03*
X49183500Y-67735000D03*
X49183500Y-66465000D03*
X49183500Y-65195000D03*
X49183500Y-63925000D03*
X49183500Y-62655000D03*
X49183500Y-61385000D03*
X49183500Y-60115000D03*
X49183500Y-58845000D03*
X49183500Y-57575000D03*
X49183500Y-56305000D03*
%TD*%
%TO.C,J1*%
X79428500Y-56305000D03*
X79428500Y-57575000D03*
X79428500Y-58845000D03*
X79428500Y-60115000D03*
X79428500Y-61385000D03*
X79428500Y-62655000D03*
X79428500Y-63925000D03*
X79428500Y-65195000D03*
X79428500Y-66465000D03*
X79428500Y-67735000D03*
X79428500Y-69005000D03*
X79428500Y-70275000D03*
X79428500Y-71545000D03*
X79428500Y-72815000D03*
X79428500Y-74085000D03*
X79428500Y-75355000D03*
X79428500Y-76625000D03*
X79428500Y-77895000D03*
X79428500Y-79165000D03*
X79428500Y-80435000D03*
X79428500Y-81705000D03*
X83028500Y-81705000D03*
X83028500Y-80435000D03*
X83028500Y-79165000D03*
X83028500Y-77895000D03*
X83028500Y-76625000D03*
X83028500Y-75355000D03*
X83028500Y-74085000D03*
X83028500Y-72815000D03*
X83028500Y-71545000D03*
X83028500Y-70275000D03*
X83028500Y-69005000D03*
X83028500Y-67735000D03*
X83028500Y-66465000D03*
X83028500Y-65195000D03*
X83028500Y-63925000D03*
X83028500Y-62655000D03*
X83028500Y-61385000D03*
X83028500Y-60115000D03*
X83028500Y-58845000D03*
X83028500Y-57575000D03*
X83028500Y-56305000D03*
%TD*%
%TO.C,J1*%
X28661000Y-56305000D03*
X28661000Y-57575000D03*
X28661000Y-58845000D03*
X28661000Y-60115000D03*
X28661000Y-61385000D03*
X28661000Y-62655000D03*
X28661000Y-63925000D03*
X28661000Y-65195000D03*
X28661000Y-66465000D03*
X28661000Y-67735000D03*
X28661000Y-69005000D03*
X28661000Y-70275000D03*
X28661000Y-71545000D03*
X28661000Y-72815000D03*
X28661000Y-74085000D03*
X28661000Y-75355000D03*
X28661000Y-76625000D03*
X28661000Y-77895000D03*
X28661000Y-79165000D03*
X28661000Y-80435000D03*
X28661000Y-81705000D03*
X32261000Y-81705000D03*
X32261000Y-80435000D03*
X32261000Y-79165000D03*
X32261000Y-77895000D03*
X32261000Y-76625000D03*
X32261000Y-75355000D03*
X32261000Y-74085000D03*
X32261000Y-72815000D03*
X32261000Y-71545000D03*
X32261000Y-70275000D03*
X32261000Y-69005000D03*
X32261000Y-67735000D03*
X32261000Y-66465000D03*
X32261000Y-65195000D03*
X32261000Y-63925000D03*
X32261000Y-62655000D03*
X32261000Y-61385000D03*
X32261000Y-60115000D03*
X32261000Y-58845000D03*
X32261000Y-57575000D03*
X32261000Y-56305000D03*
%TD*%
%TO.C,J1*%
X28661000Y-24635000D03*
X28661000Y-25905000D03*
X28661000Y-27175000D03*
X28661000Y-28445000D03*
X28661000Y-29715000D03*
X28661000Y-30985000D03*
X28661000Y-32255000D03*
X28661000Y-33525000D03*
X28661000Y-34795000D03*
X28661000Y-36065000D03*
X28661000Y-37335000D03*
X28661000Y-38605000D03*
X28661000Y-39875000D03*
X28661000Y-41145000D03*
X28661000Y-42415000D03*
X28661000Y-43685000D03*
X28661000Y-44955000D03*
X28661000Y-46225000D03*
X28661000Y-47495000D03*
X28661000Y-48765000D03*
X28661000Y-50035000D03*
X32261000Y-50035000D03*
X32261000Y-48765000D03*
X32261000Y-47495000D03*
X32261000Y-46225000D03*
X32261000Y-44955000D03*
X32261000Y-43685000D03*
X32261000Y-42415000D03*
X32261000Y-41145000D03*
X32261000Y-39875000D03*
X32261000Y-38605000D03*
X32261000Y-37335000D03*
X32261000Y-36065000D03*
X32261000Y-34795000D03*
X32261000Y-33525000D03*
X32261000Y-32255000D03*
X32261000Y-30985000D03*
X32261000Y-29715000D03*
X32261000Y-28445000D03*
X32261000Y-27175000D03*
X32261000Y-25905000D03*
X32261000Y-24635000D03*
%TD*%
%TO.C,J1*%
X96351000Y-56305000D03*
X96351000Y-57575000D03*
X96351000Y-58845000D03*
X96351000Y-60115000D03*
X96351000Y-61385000D03*
X96351000Y-62655000D03*
X96351000Y-63925000D03*
X96351000Y-65195000D03*
X96351000Y-66465000D03*
X96351000Y-67735000D03*
X96351000Y-69005000D03*
X96351000Y-70275000D03*
X96351000Y-71545000D03*
X96351000Y-72815000D03*
X96351000Y-74085000D03*
X96351000Y-75355000D03*
X96351000Y-76625000D03*
X96351000Y-77895000D03*
X96351000Y-79165000D03*
X96351000Y-80435000D03*
X96351000Y-81705000D03*
X99951000Y-81705000D03*
X99951000Y-80435000D03*
X99951000Y-79165000D03*
X99951000Y-77895000D03*
X99951000Y-76625000D03*
X99951000Y-75355000D03*
X99951000Y-74085000D03*
X99951000Y-72815000D03*
X99951000Y-71545000D03*
X99951000Y-70275000D03*
X99951000Y-69005000D03*
X99951000Y-67735000D03*
X99951000Y-66465000D03*
X99951000Y-65195000D03*
X99951000Y-63925000D03*
X99951000Y-62655000D03*
X99951000Y-61385000D03*
X99951000Y-60115000D03*
X99951000Y-58845000D03*
X99951000Y-57575000D03*
X99951000Y-56305000D03*
%TD*%
M02*
