M48
; DRILL file {KiCad (6.0.7)} date Tue Aug  9 00:19:31 2022
; FORMAT={-:-/ absolute / inch / decimal}
; #@! TF.CreationDate,2022-08-09T00:19:31-07:00
; #@! TF.GenerationSoftware,Kicad,Pcbnew,(6.0.7)
; #@! TF.FileFunction,NonPlated,1,2,NPTH
FMAT,2
INCH
; #@! TA.AperFunction,NonPlated,NPTH,ComponentDrill
T1C0.0197
; #@! TA.AperFunction,NonPlated,NPTH,ComponentDrill
T2C0.0454
%
G90
G05
T1
X0.5906Y-0.9055
X0.5906Y-3.2811
X0.6187Y-0.9055
X0.6187Y-3.2811
X0.6468Y-0.9055
X0.6468Y-3.2811
X0.6749Y-0.9055
X0.6749Y-3.2811
X0.703Y-0.9055
X0.703Y-3.2811
X0.7312Y-0.9055
X0.7312Y-3.2811
X0.7593Y-0.9055
X0.7593Y-3.2811
X0.7874Y-0.9055
X0.7874Y-3.2811
X0.9055Y-0.5906
X0.9055Y-0.6187
X0.9055Y-0.6468
X0.9055Y-0.6749
X0.9055Y-0.703
X0.9055Y-0.7312
X0.9055Y-0.7593
X0.9055Y-0.7874
X0.9055Y-3.3992
X0.9055Y-3.4273
X0.9055Y-3.4555
X0.9055Y-3.4836
X0.9055Y-3.5117
X0.9055Y-3.5398
X0.9055Y-3.5679
X0.9055Y-3.5961
X1.0418Y-0.9055
X1.0418Y-2.0343
X1.0418Y-2.1524
X1.0418Y-3.2811
X1.0704Y-0.9055
X1.0704Y-2.0343
X1.0704Y-2.1524
X1.0704Y-3.2811
X1.099Y-0.9055
X1.099Y-2.0343
X1.099Y-2.1524
X1.099Y-3.2811
X1.1277Y-0.9055
X1.1277Y-2.0343
X1.1277Y-2.1524
X1.1277Y-3.2811
X1.1563Y-0.9055
X1.1563Y-2.0343
X1.1563Y-2.1524
X1.1563Y-3.2811
X1.1849Y-0.9055
X1.1849Y-2.0343
X1.1849Y-2.1524
X1.1849Y-3.2811
X1.2136Y-0.9055
X1.2136Y-2.0343
X1.2136Y-2.1524
X1.2136Y-3.2811
X1.2422Y-0.9055
X1.2422Y-2.0343
X1.2422Y-2.1524
X1.2422Y-3.2811
X1.2708Y-0.9055
X1.2708Y-2.0343
X1.2708Y-2.1524
X1.2708Y-3.2811
X1.2995Y-0.9055
X1.2995Y-2.0343
X1.2995Y-2.1524
X1.2995Y-3.2811
X1.3281Y-0.9055
X1.3281Y-2.0343
X1.3281Y-2.1524
X1.3281Y-3.2811
X1.3567Y-0.9055
X1.3567Y-2.0343
X1.3567Y-2.1524
X1.3567Y-3.2811
X1.708Y-0.9055
X1.708Y-2.0343
X1.708Y-2.1524
X1.708Y-3.2811
X1.7367Y-0.9055
X1.7367Y-2.0343
X1.7367Y-2.1524
X1.7367Y-3.2811
X1.7653Y-0.9055
X1.7653Y-2.0343
X1.7653Y-2.1524
X1.7653Y-3.2811
X1.7939Y-0.9055
X1.7939Y-2.0343
X1.7939Y-2.1524
X1.7939Y-3.2811
X1.8226Y-0.9055
X1.8226Y-2.0343
X1.8226Y-2.1524
X1.8226Y-3.2811
X1.8512Y-0.9055
X1.8512Y-2.0343
X1.8512Y-2.1524
X1.8512Y-3.2811
X1.8798Y-0.9055
X1.8798Y-2.0343
X1.8798Y-2.1524
X1.8798Y-3.2811
X1.9085Y-0.9055
X1.9085Y-2.0343
X1.9085Y-2.1524
X1.9085Y-3.2811
X1.9371Y-0.9055
X1.9371Y-2.0343
X1.9371Y-2.1524
X1.9371Y-3.2811
X1.9657Y-0.9055
X1.9657Y-2.0343
X1.9657Y-2.1524
X1.9657Y-3.2811
X1.9943Y-0.9055
X1.9943Y-2.0343
X1.9943Y-2.1524
X1.9943Y-3.2811
X2.023Y-0.9055
X2.023Y-2.0343
X2.023Y-2.1524
X2.023Y-3.2811
X2.3743Y-0.9055
X2.3743Y-2.0343
X2.3743Y-2.1524
X2.3743Y-3.2811
X2.4029Y-0.9055
X2.4029Y-2.0343
X2.4029Y-2.1524
X2.4029Y-3.2811
X2.4315Y-0.9055
X2.4315Y-2.0343
X2.4315Y-2.1524
X2.4315Y-3.2811
X2.4602Y-0.9055
X2.4602Y-2.0343
X2.4602Y-2.1524
X2.4602Y-3.2811
X2.4888Y-0.9055
X2.4888Y-2.0343
X2.4888Y-2.1524
X2.4888Y-3.2811
X2.5174Y-0.9055
X2.5174Y-2.0343
X2.5174Y-2.1524
X2.5174Y-3.2811
X2.5461Y-0.9055
X2.5461Y-2.0343
X2.5461Y-2.1524
X2.5461Y-3.2811
X2.5747Y-0.9055
X2.5747Y-2.0343
X2.5747Y-2.1524
X2.5747Y-3.2811
X2.6033Y-0.9055
X2.6033Y-2.0343
X2.6033Y-2.1524
X2.6033Y-3.2811
X2.632Y-0.9055
X2.632Y-2.0343
X2.632Y-2.1524
X2.632Y-3.2811
X2.6606Y-0.9055
X2.6606Y-2.0343
X2.6606Y-2.1524
X2.6606Y-3.2811
X2.6892Y-0.9055
X2.6892Y-2.0343
X2.6892Y-2.1524
X2.6892Y-3.2811
X3.0405Y-0.9055
X3.0405Y-2.0343
X3.0405Y-2.1524
X3.0405Y-3.2811
X3.0691Y-0.9055
X3.0691Y-2.0343
X3.0691Y-2.1524
X3.0691Y-3.2811
X3.0978Y-0.9055
X3.0978Y-2.0343
X3.0978Y-2.1524
X3.0978Y-3.2811
X3.1264Y-0.9055
X3.1264Y-2.0343
X3.1264Y-2.1524
X3.1264Y-3.2811
X3.155Y-0.9055
X3.155Y-2.0343
X3.155Y-2.1524
X3.155Y-3.2811
X3.1837Y-0.9055
X3.1837Y-2.0343
X3.1837Y-2.1524
X3.1837Y-3.2811
X3.2123Y-0.9055
X3.2123Y-2.0343
X3.2123Y-2.1524
X3.2123Y-3.2811
X3.2409Y-0.9055
X3.2409Y-2.0343
X3.2409Y-2.1524
X3.2409Y-3.2811
X3.2696Y-0.9055
X3.2696Y-2.0343
X3.2696Y-2.1524
X3.2696Y-3.2811
X3.2982Y-0.9055
X3.2982Y-2.0343
X3.2982Y-2.1524
X3.2982Y-3.2811
X3.3268Y-0.9055
X3.3268Y-2.0343
X3.3268Y-2.1524
X3.3268Y-3.2811
X3.3555Y-0.9055
X3.3555Y-2.0343
X3.3555Y-2.1524
X3.3555Y-3.2811
X3.7067Y-0.9055
X3.7067Y-2.0343
X3.7067Y-2.1524
X3.7067Y-3.2811
X3.7354Y-0.9055
X3.7354Y-2.0343
X3.7354Y-2.1524
X3.7354Y-3.2811
X3.764Y-0.9055
X3.764Y-2.0343
X3.764Y-2.1524
X3.764Y-3.2811
X3.7926Y-0.9055
X3.7926Y-2.0343
X3.7926Y-2.1524
X3.7926Y-3.2811
X3.8213Y-0.9055
X3.8213Y-2.0343
X3.8213Y-2.1524
X3.8213Y-3.2811
X3.8499Y-0.9055
X3.8499Y-2.0343
X3.8499Y-2.1524
X3.8499Y-3.2811
X3.8785Y-0.9055
X3.8785Y-2.0343
X3.8785Y-2.1524
X3.8785Y-3.2811
X3.9072Y-0.9055
X3.9072Y-2.0343
X3.9072Y-2.1524
X3.9072Y-3.2811
X3.9358Y-0.9055
X3.9358Y-2.0343
X3.9358Y-2.1524
X3.9358Y-3.2811
X3.9644Y-0.9055
X3.9644Y-2.0343
X3.9644Y-2.1524
X3.9644Y-3.2811
X3.9931Y-0.9055
X3.9931Y-2.0343
X3.9931Y-2.1524
X3.9931Y-3.2811
X4.0217Y-0.9055
X4.0217Y-2.0343
X4.0217Y-2.1524
X4.0217Y-3.2811
X4.158Y-0.5906
X4.158Y-0.6187
X4.158Y-0.6468
X4.158Y-0.6749
X4.158Y-0.703
X4.158Y-0.7312
X4.158Y-0.7593
X4.158Y-0.7874
X4.158Y-3.3992
X4.158Y-3.4273
X4.158Y-3.4555
X4.158Y-3.4836
X4.158Y-3.5117
X4.158Y-3.5398
X4.158Y-3.5679
X4.158Y-3.5961
X4.2761Y-0.9055
X4.2761Y-3.2811
X4.3042Y-0.9055
X4.3042Y-3.2811
X4.3323Y-0.9055
X4.3323Y-3.2811
X4.3604Y-0.9055
X4.3604Y-3.2811
X4.3886Y-0.9055
X4.3886Y-3.2811
X4.4167Y-0.9055
X4.4167Y-3.2811
X4.4448Y-0.9055
X4.4448Y-3.2811
X4.4729Y-0.9055
X4.4729Y-3.2811
T2
X0.748Y-0.7224
X0.748Y-3.4642
X4.3155Y-0.7224
X4.3155Y-3.4642
T0
M30
