%TF.GenerationSoftware,KiCad,Pcbnew,(6.0.7)*%
%TF.CreationDate,2022-08-07T18:47:51-07:00*%
%TF.ProjectId,M27C322-to-KM23C32000AG-adapter,4d323743-3332-4322-9d74-6f2d4b4d3233,rev?*%
%TF.SameCoordinates,Original*%
%TF.FileFunction,Copper,L2,Bot*%
%TF.FilePolarity,Positive*%
%FSLAX46Y46*%
G04 Gerber Fmt 4.6, Leading zero omitted, Abs format (unit mm)*
G04 Created by KiCad (PCBNEW (6.0.7)) date 2022-08-07 18:47:51*
%MOMM*%
%LPD*%
G01*
G04 APERTURE LIST*
G04 Aperture macros list*
%AMFreePoly0*
4,1,21,0.066987,0.448222,0.190096,0.411405,0.297922,0.341515,0.318615,0.317500,0.635000,0.317500,0.635000,-0.317500,0.317723,-0.317500,0.289490,-0.348692,0.179987,-0.415926,0.056016,-0.449725,-0.072458,-0.447370,-0.195108,-0.409052,-0.302073,-0.337850,-0.319179,-0.317500,-0.635000,-0.317500,-0.635000,0.317500,-0.318129,0.317500,-0.293728,0.345129,-0.185055,0.413696,-0.061506,0.449007,
0.066987,0.448222,0.066987,0.448222,$1*%
G04 Aperture macros list end*
%TA.AperFunction,CastellatedPad*%
%ADD10FreePoly0,180.000000*%
%TD*%
G04 APERTURE END LIST*
D10*
%TO.P,U1,1,NC*%
%TO.N,unconnected-(U1-Pad1)*%
X141359000Y-68335000D03*
%TO.P,U1,2,A18*%
%TO.N,/A18*%
X141359000Y-69605000D03*
%TO.P,U1,3,A17*%
%TO.N,/A17*%
X141359000Y-70875000D03*
%TO.P,U1,4,A7*%
%TO.N,/A7*%
X141359000Y-72145000D03*
%TO.P,U1,5,A6*%
%TO.N,/A6*%
X141359000Y-73415000D03*
%TO.P,U1,6,A5*%
%TO.N,/A5*%
X141359000Y-74685000D03*
%TO.P,U1,7,A4*%
%TO.N,/A4*%
X141359000Y-75955000D03*
%TO.P,U1,8,A3*%
%TO.N,/A3*%
X141359000Y-77225000D03*
%TO.P,U1,9,A2*%
%TO.N,/A2*%
X141359000Y-78495000D03*
%TO.P,U1,10,A1*%
%TO.N,/A1*%
X141359000Y-79765000D03*
%TO.P,U1,11,A0*%
%TO.N,/A0*%
X141359000Y-81035000D03*
%TO.P,U1,12,~{E}*%
%TO.N,/~{CE}*%
X141359000Y-82305000D03*
%TO.P,U1,13,GND*%
%TO.N,/VSS*%
X141359000Y-83575000D03*
%TO.P,U1,14,~{GVPP}*%
%TO.N,/~{OE}*%
X141359000Y-84845000D03*
%TO.P,U1,15,D0*%
%TO.N,/D0*%
X141359000Y-86115000D03*
%TO.P,U1,16,D8*%
%TO.N,/D8*%
X141359000Y-87385000D03*
%TO.P,U1,17,D1*%
%TO.N,/D1*%
X141359000Y-88655000D03*
%TO.P,U1,18,D9*%
%TO.N,/D9*%
X141359000Y-89925000D03*
%TO.P,U1,19,D2*%
%TO.N,/D2*%
X141359000Y-91195000D03*
%TO.P,U1,20,D10*%
%TO.N,/D10*%
X141359000Y-92465000D03*
%TO.P,U1,21,D3*%
%TO.N,/D3*%
X141359000Y-93735000D03*
%TO.P,U1,22,D11*%
%TO.N,/D11*%
X141359000Y-95005000D03*
%TO.P,U1,23,VCC*%
%TO.N,/VCC*%
X156281500Y-95005000D03*
%TO.P,U1,24,D4*%
%TO.N,/D4*%
X156281500Y-93735000D03*
%TO.P,U1,25,D12*%
%TO.N,/D12*%
X156281500Y-92465000D03*
%TO.P,U1,26,D5*%
%TO.N,/D5*%
X156281500Y-91195000D03*
%TO.P,U1,27,D13*%
%TO.N,/D13*%
X156281500Y-89925000D03*
%TO.P,U1,28,D6*%
%TO.N,/D6*%
X156281500Y-88655000D03*
%TO.P,U1,29,D14*%
%TO.N,/D14*%
X156281500Y-87385000D03*
%TO.P,U1,30,D7*%
%TO.N,/D7*%
X156281500Y-86115000D03*
%TO.P,U1,31,D15*%
%TO.N,/D15*%
X156281500Y-84845000D03*
%TO.P,U1,32,GND*%
%TO.N,/VSS*%
X156281500Y-83575000D03*
%TO.P,U1,33,BHE*%
%TO.N,unconnected-(U1-Pad33)*%
X156281500Y-82305000D03*
%TO.P,U1,34,A16*%
%TO.N,/A16*%
X156281500Y-81035000D03*
%TO.P,U1,35,A15*%
%TO.N,/A15*%
X156281500Y-79765000D03*
%TO.P,U1,36,A14*%
%TO.N,/A14*%
X156281500Y-78495000D03*
%TO.P,U1,37,A13*%
%TO.N,/A13*%
X156281500Y-77225000D03*
%TO.P,U1,38,A12*%
%TO.N,/A12*%
X156281500Y-75955000D03*
%TO.P,U1,39,A11*%
%TO.N,/A11*%
X156281500Y-74685000D03*
%TO.P,U1,40,A10*%
%TO.N,/A10*%
X156281500Y-73415000D03*
%TO.P,U1,41,A9*%
%TO.N,/A9*%
X156281500Y-72145000D03*
%TO.P,U1,42,A8*%
%TO.N,/A8*%
X156281500Y-70875000D03*
%TO.P,U1,43,A19*%
%TO.N,/A19*%
X156281500Y-69605000D03*
%TO.P,U1,44,A20*%
%TO.N,/A20*%
X156281500Y-68335000D03*
%TD*%
M02*
