%TF.GenerationSoftware,KiCad,Pcbnew,(6.0.7)*%
%TF.CreationDate,2022-08-07T18:47:51-07:00*%
%TF.ProjectId,M27C322-to-KM23C32000AG-adapter,4d323743-3332-4322-9d74-6f2d4b4d3233,rev?*%
%TF.SameCoordinates,Original*%
%TF.FileFunction,Legend,Bot*%
%TF.FilePolarity,Positive*%
%FSLAX46Y46*%
G04 Gerber Fmt 4.6, Leading zero omitted, Abs format (unit mm)*
G04 Created by KiCad (PCBNEW (6.0.7)) date 2022-08-07 18:47:51*
%MOMM*%
%LPD*%
G01*
G04 APERTURE LIST*
G04 Aperture macros list*
%AMFreePoly0*
4,1,43,0.067453,0.524421,0.088820,0.521227,0.211929,0.484410,0.231542,0.475348,0.339368,0.405458,0.352846,0.393700,0.635000,0.393700,0.683980,0.375873,0.710042,0.330732,0.711200,0.317500,0.711200,-0.317500,0.693373,-0.366480,0.648232,-0.392542,0.635000,-0.393700,0.351531,-0.393700,0.345985,-0.399827,0.329361,-0.413629,0.219858,-0.480863,0.200030,-0.489443,0.076059,-0.523242,
0.054619,-0.525912,-0.073855,-0.523557,-0.095181,-0.520103,-0.217831,-0.481785,-0.237332,-0.472484,-0.344297,-0.401282,-0.352777,-0.393700,-0.635000,-0.393700,-0.683980,-0.375873,-0.710042,-0.330732,-0.711200,-0.317500,-0.711200,0.317500,-0.693373,0.366480,-0.648232,0.392542,-0.635000,0.393700,-0.352495,0.393700,-0.350843,0.395571,-0.334389,0.409574,-0.225716,0.478141,-0.205995,0.486962,
-0.082446,0.522273,-0.061040,0.525206,0.067453,0.524421,0.067453,0.524421,$1*%
G04 Aperture macros list end*
%ADD10C,0.225000*%
%ADD11FreePoly0,180.000000*%
G04 APERTURE END LIST*
D10*
X147572642Y-74841428D02*
X148301214Y-74841428D01*
X148386928Y-74798571D01*
X148429785Y-74755714D01*
X148472642Y-74670000D01*
X148472642Y-74541428D01*
X148429785Y-74455714D01*
X148129785Y-74841428D02*
X148172642Y-74755714D01*
X148172642Y-74584285D01*
X148129785Y-74498571D01*
X148086928Y-74455714D01*
X148001214Y-74412857D01*
X147744071Y-74412857D01*
X147658357Y-74455714D01*
X147615500Y-74498571D01*
X147572642Y-74584285D01*
X147572642Y-74755714D01*
X147615500Y-74841428D01*
X148172642Y-75270000D02*
X147572642Y-75270000D01*
X147272642Y-75270000D02*
X147315500Y-75227142D01*
X147358357Y-75270000D01*
X147315500Y-75312857D01*
X147272642Y-75270000D01*
X147358357Y-75270000D01*
X147572642Y-75570000D02*
X147572642Y-75912857D01*
X147272642Y-75698571D02*
X148044071Y-75698571D01*
X148129785Y-75741428D01*
X148172642Y-75827142D01*
X148172642Y-75912857D01*
X148172642Y-76212857D02*
X147272642Y-76212857D01*
X148172642Y-76598571D02*
X147701214Y-76598571D01*
X147615500Y-76555714D01*
X147572642Y-76470000D01*
X147572642Y-76341428D01*
X147615500Y-76255714D01*
X147658357Y-76212857D01*
X147572642Y-77412857D02*
X148172642Y-77412857D01*
X147572642Y-77027142D02*
X148044071Y-77027142D01*
X148129785Y-77070000D01*
X148172642Y-77155714D01*
X148172642Y-77284285D01*
X148129785Y-77370000D01*
X148086928Y-77412857D01*
X148172642Y-77841428D02*
X147272642Y-77841428D01*
X147615500Y-77841428D02*
X147572642Y-77927142D01*
X147572642Y-78098571D01*
X147615500Y-78184285D01*
X147658357Y-78227142D01*
X147744071Y-78270000D01*
X148001214Y-78270000D01*
X148086928Y-78227142D01*
X148129785Y-78184285D01*
X148172642Y-78098571D01*
X148172642Y-77927142D01*
X148129785Y-77841428D01*
X148086928Y-78655714D02*
X148129785Y-78698571D01*
X148172642Y-78655714D01*
X148129785Y-78612857D01*
X148086928Y-78655714D01*
X148172642Y-78655714D01*
X148129785Y-79470000D02*
X148172642Y-79384285D01*
X148172642Y-79212857D01*
X148129785Y-79127142D01*
X148086928Y-79084285D01*
X148001214Y-79041428D01*
X147744071Y-79041428D01*
X147658357Y-79084285D01*
X147615500Y-79127142D01*
X147572642Y-79212857D01*
X147572642Y-79384285D01*
X147615500Y-79470000D01*
X148172642Y-79984285D02*
X148129785Y-79898571D01*
X148086928Y-79855714D01*
X148001214Y-79812857D01*
X147744071Y-79812857D01*
X147658357Y-79855714D01*
X147615500Y-79898571D01*
X147572642Y-79984285D01*
X147572642Y-80112857D01*
X147615500Y-80198571D01*
X147658357Y-80241428D01*
X147744071Y-80284285D01*
X148001214Y-80284285D01*
X148086928Y-80241428D01*
X148129785Y-80198571D01*
X148172642Y-80112857D01*
X148172642Y-79984285D01*
X148172642Y-80670000D02*
X147572642Y-80670000D01*
X147658357Y-80670000D02*
X147615500Y-80712857D01*
X147572642Y-80798571D01*
X147572642Y-80927142D01*
X147615500Y-81012857D01*
X147701214Y-81055714D01*
X148172642Y-81055714D01*
X147701214Y-81055714D02*
X147615500Y-81098571D01*
X147572642Y-81184285D01*
X147572642Y-81312857D01*
X147615500Y-81398571D01*
X147701214Y-81441428D01*
X148172642Y-81441428D01*
X147229785Y-82512857D02*
X148386928Y-81741428D01*
X147572642Y-82812857D02*
X148172642Y-82812857D01*
X147658357Y-82812857D02*
X147615500Y-82855714D01*
X147572642Y-82941428D01*
X147572642Y-83070000D01*
X147615500Y-83155714D01*
X147701214Y-83198571D01*
X148172642Y-83198571D01*
X148172642Y-83627142D02*
X147572642Y-83627142D01*
X147272642Y-83627142D02*
X147315500Y-83584285D01*
X147358357Y-83627142D01*
X147315500Y-83670000D01*
X147272642Y-83627142D01*
X147358357Y-83627142D01*
X148172642Y-84055714D02*
X147272642Y-84055714D01*
X147829785Y-84141428D02*
X148172642Y-84398571D01*
X147572642Y-84398571D02*
X147915500Y-84055714D01*
X148172642Y-84784285D02*
X147572642Y-84784285D01*
X147272642Y-84784285D02*
X147315500Y-84741428D01*
X147358357Y-84784285D01*
X147315500Y-84827142D01*
X147272642Y-84784285D01*
X147358357Y-84784285D01*
X147572642Y-85084285D02*
X147572642Y-85427142D01*
X147272642Y-85212857D02*
X148044071Y-85212857D01*
X148129785Y-85255714D01*
X148172642Y-85341428D01*
X148172642Y-85427142D01*
X148172642Y-86112857D02*
X147701214Y-86112857D01*
X147615500Y-86070000D01*
X147572642Y-85984285D01*
X147572642Y-85812857D01*
X147615500Y-85727142D01*
X148129785Y-86112857D02*
X148172642Y-86027142D01*
X148172642Y-85812857D01*
X148129785Y-85727142D01*
X148044071Y-85684285D01*
X147958357Y-85684285D01*
X147872642Y-85727142D01*
X147829785Y-85812857D01*
X147829785Y-86027142D01*
X147786928Y-86112857D01*
X148172642Y-86670000D02*
X148129785Y-86584285D01*
X148044071Y-86541428D01*
X147272642Y-86541428D01*
X148172642Y-87012857D02*
X147572642Y-87012857D01*
X147272642Y-87012857D02*
X147315500Y-86970000D01*
X147358357Y-87012857D01*
X147315500Y-87055714D01*
X147272642Y-87012857D01*
X147358357Y-87012857D01*
X147572642Y-87312857D02*
X147572642Y-87655714D01*
X147272642Y-87441428D02*
X148044071Y-87441428D01*
X148129785Y-87484285D01*
X148172642Y-87570000D01*
X148172642Y-87655714D01*
X148172642Y-88341428D02*
X147701214Y-88341428D01*
X147615500Y-88298571D01*
X147572642Y-88212857D01*
X147572642Y-88041428D01*
X147615500Y-87955714D01*
X148129785Y-88341428D02*
X148172642Y-88255714D01*
X148172642Y-88041428D01*
X148129785Y-87955714D01*
X148044071Y-87912857D01*
X147958357Y-87912857D01*
X147872642Y-87955714D01*
X147829785Y-88041428D01*
X147829785Y-88255714D01*
X147786928Y-88341428D01*
X147229785Y-89412857D02*
X148386928Y-88641428D01*
X149621642Y-68841428D02*
X148721642Y-68841428D01*
X149364500Y-69141428D01*
X148721642Y-69441428D01*
X149621642Y-69441428D01*
X148807357Y-69827142D02*
X148764500Y-69870000D01*
X148721642Y-69955714D01*
X148721642Y-70170000D01*
X148764500Y-70255714D01*
X148807357Y-70298571D01*
X148893071Y-70341428D01*
X148978785Y-70341428D01*
X149107357Y-70298571D01*
X149621642Y-69784285D01*
X149621642Y-70341428D01*
X148721642Y-70641428D02*
X148721642Y-71241428D01*
X149621642Y-70855714D01*
X149535928Y-72098571D02*
X149578785Y-72055714D01*
X149621642Y-71927142D01*
X149621642Y-71841428D01*
X149578785Y-71712857D01*
X149493071Y-71627142D01*
X149407357Y-71584285D01*
X149235928Y-71541428D01*
X149107357Y-71541428D01*
X148935928Y-71584285D01*
X148850214Y-71627142D01*
X148764500Y-71712857D01*
X148721642Y-71841428D01*
X148721642Y-71927142D01*
X148764500Y-72055714D01*
X148807357Y-72098571D01*
X148721642Y-72398571D02*
X148721642Y-72955714D01*
X149064500Y-72655714D01*
X149064500Y-72784285D01*
X149107357Y-72870000D01*
X149150214Y-72912857D01*
X149235928Y-72955714D01*
X149450214Y-72955714D01*
X149535928Y-72912857D01*
X149578785Y-72870000D01*
X149621642Y-72784285D01*
X149621642Y-72527142D01*
X149578785Y-72441428D01*
X149535928Y-72398571D01*
X148807357Y-73298571D02*
X148764500Y-73341428D01*
X148721642Y-73427142D01*
X148721642Y-73641428D01*
X148764500Y-73727142D01*
X148807357Y-73770000D01*
X148893071Y-73812857D01*
X148978785Y-73812857D01*
X149107357Y-73770000D01*
X149621642Y-73255714D01*
X149621642Y-73812857D01*
X148807357Y-74155714D02*
X148764500Y-74198571D01*
X148721642Y-74284285D01*
X148721642Y-74498571D01*
X148764500Y-74584285D01*
X148807357Y-74627142D01*
X148893071Y-74670000D01*
X148978785Y-74670000D01*
X149107357Y-74627142D01*
X149621642Y-74112857D01*
X149621642Y-74670000D01*
X149278785Y-75055714D02*
X149278785Y-75741428D01*
X149021642Y-76041428D02*
X149021642Y-76384285D01*
X148721642Y-76170000D02*
X149493071Y-76170000D01*
X149578785Y-76212857D01*
X149621642Y-76298571D01*
X149621642Y-76384285D01*
X149621642Y-76812857D02*
X149578785Y-76727142D01*
X149535928Y-76684285D01*
X149450214Y-76641428D01*
X149193071Y-76641428D01*
X149107357Y-76684285D01*
X149064500Y-76727142D01*
X149021642Y-76812857D01*
X149021642Y-76941428D01*
X149064500Y-77027142D01*
X149107357Y-77070000D01*
X149193071Y-77112857D01*
X149450214Y-77112857D01*
X149535928Y-77070000D01*
X149578785Y-77027142D01*
X149621642Y-76941428D01*
X149621642Y-76812857D01*
X149278785Y-77498571D02*
X149278785Y-78184285D01*
X149621642Y-78612857D02*
X148721642Y-78612857D01*
X149621642Y-79127142D02*
X149107357Y-78741428D01*
X148721642Y-79127142D02*
X149235928Y-78612857D01*
X149621642Y-79512857D02*
X148721642Y-79512857D01*
X149364500Y-79812857D01*
X148721642Y-80112857D01*
X149621642Y-80112857D01*
X148807357Y-80498571D02*
X148764500Y-80541428D01*
X148721642Y-80627142D01*
X148721642Y-80841428D01*
X148764500Y-80927142D01*
X148807357Y-80970000D01*
X148893071Y-81012857D01*
X148978785Y-81012857D01*
X149107357Y-80970000D01*
X149621642Y-80455714D01*
X149621642Y-81012857D01*
X148721642Y-81312857D02*
X148721642Y-81870000D01*
X149064500Y-81570000D01*
X149064500Y-81698571D01*
X149107357Y-81784285D01*
X149150214Y-81827142D01*
X149235928Y-81870000D01*
X149450214Y-81870000D01*
X149535928Y-81827142D01*
X149578785Y-81784285D01*
X149621642Y-81698571D01*
X149621642Y-81441428D01*
X149578785Y-81355714D01*
X149535928Y-81312857D01*
X149535928Y-82770000D02*
X149578785Y-82727142D01*
X149621642Y-82598571D01*
X149621642Y-82512857D01*
X149578785Y-82384285D01*
X149493071Y-82298571D01*
X149407357Y-82255714D01*
X149235928Y-82212857D01*
X149107357Y-82212857D01*
X148935928Y-82255714D01*
X148850214Y-82298571D01*
X148764500Y-82384285D01*
X148721642Y-82512857D01*
X148721642Y-82598571D01*
X148764500Y-82727142D01*
X148807357Y-82770000D01*
X148721642Y-83070000D02*
X148721642Y-83627142D01*
X149064500Y-83327142D01*
X149064500Y-83455714D01*
X149107357Y-83541428D01*
X149150214Y-83584285D01*
X149235928Y-83627142D01*
X149450214Y-83627142D01*
X149535928Y-83584285D01*
X149578785Y-83541428D01*
X149621642Y-83455714D01*
X149621642Y-83198571D01*
X149578785Y-83112857D01*
X149535928Y-83070000D01*
X148807357Y-83970000D02*
X148764500Y-84012857D01*
X148721642Y-84098571D01*
X148721642Y-84312857D01*
X148764500Y-84398571D01*
X148807357Y-84441428D01*
X148893071Y-84484285D01*
X148978785Y-84484285D01*
X149107357Y-84441428D01*
X149621642Y-83927142D01*
X149621642Y-84484285D01*
X148721642Y-85041428D02*
X148721642Y-85127142D01*
X148764500Y-85212857D01*
X148807357Y-85255714D01*
X148893071Y-85298571D01*
X149064500Y-85341428D01*
X149278785Y-85341428D01*
X149450214Y-85298571D01*
X149535928Y-85255714D01*
X149578785Y-85212857D01*
X149621642Y-85127142D01*
X149621642Y-85041428D01*
X149578785Y-84955714D01*
X149535928Y-84912857D01*
X149450214Y-84870000D01*
X149278785Y-84827142D01*
X149064500Y-84827142D01*
X148893071Y-84870000D01*
X148807357Y-84912857D01*
X148764500Y-84955714D01*
X148721642Y-85041428D01*
X148721642Y-85898571D02*
X148721642Y-85984285D01*
X148764500Y-86069999D01*
X148807357Y-86112857D01*
X148893071Y-86155714D01*
X149064500Y-86198571D01*
X149278785Y-86198571D01*
X149450214Y-86155714D01*
X149535928Y-86112857D01*
X149578785Y-86069999D01*
X149621642Y-85984285D01*
X149621642Y-85898571D01*
X149578785Y-85812857D01*
X149535928Y-85769999D01*
X149450214Y-85727142D01*
X149278785Y-85684285D01*
X149064500Y-85684285D01*
X148893071Y-85727142D01*
X148807357Y-85769999D01*
X148764500Y-85812857D01*
X148721642Y-85898571D01*
X148721642Y-86755714D02*
X148721642Y-86841428D01*
X148764500Y-86927142D01*
X148807357Y-86969999D01*
X148893071Y-87012857D01*
X149064500Y-87055714D01*
X149278785Y-87055714D01*
X149450214Y-87012857D01*
X149535928Y-86969999D01*
X149578785Y-86927142D01*
X149621642Y-86841428D01*
X149621642Y-86755714D01*
X149578785Y-86669999D01*
X149535928Y-86627142D01*
X149450214Y-86584285D01*
X149278785Y-86541428D01*
X149064500Y-86541428D01*
X148893071Y-86584285D01*
X148807357Y-86627142D01*
X148764500Y-86669999D01*
X148721642Y-86755714D01*
X149364500Y-87398571D02*
X149364500Y-87827142D01*
X149621642Y-87312857D02*
X148721642Y-87612857D01*
X149621642Y-87912857D01*
X148764500Y-88684285D02*
X148721642Y-88598571D01*
X148721642Y-88469999D01*
X148764500Y-88341428D01*
X148850214Y-88255714D01*
X148935928Y-88212857D01*
X149107357Y-88169999D01*
X149235928Y-88169999D01*
X149407357Y-88212857D01*
X149493071Y-88255714D01*
X149578785Y-88341428D01*
X149621642Y-88469999D01*
X149621642Y-88555714D01*
X149578785Y-88684285D01*
X149535928Y-88727142D01*
X149235928Y-88727142D01*
X149235928Y-88555714D01*
X149278785Y-89112857D02*
X149278785Y-89798571D01*
X149621642Y-90612857D02*
X149150214Y-90612857D01*
X149064500Y-90569999D01*
X149021642Y-90484285D01*
X149021642Y-90312857D01*
X149064500Y-90227142D01*
X149578785Y-90612857D02*
X149621642Y-90527142D01*
X149621642Y-90312857D01*
X149578785Y-90227142D01*
X149493071Y-90184285D01*
X149407357Y-90184285D01*
X149321642Y-90227142D01*
X149278785Y-90312857D01*
X149278785Y-90527142D01*
X149235928Y-90612857D01*
X149621642Y-91427142D02*
X148721642Y-91427142D01*
X149578785Y-91427142D02*
X149621642Y-91341428D01*
X149621642Y-91169999D01*
X149578785Y-91084285D01*
X149535928Y-91041428D01*
X149450214Y-90998571D01*
X149193071Y-90998571D01*
X149107357Y-91041428D01*
X149064500Y-91084285D01*
X149021642Y-91169999D01*
X149021642Y-91341428D01*
X149064500Y-91427142D01*
X149621642Y-92241428D02*
X149150214Y-92241428D01*
X149064500Y-92198571D01*
X149021642Y-92112857D01*
X149021642Y-91941428D01*
X149064500Y-91855714D01*
X149578785Y-92241428D02*
X149621642Y-92155714D01*
X149621642Y-91941428D01*
X149578785Y-91855714D01*
X149493071Y-91812857D01*
X149407357Y-91812857D01*
X149321642Y-91855714D01*
X149278785Y-91941428D01*
X149278785Y-92155714D01*
X149235928Y-92241428D01*
X149021642Y-92669999D02*
X149921642Y-92669999D01*
X149064500Y-92669999D02*
X149021642Y-92755714D01*
X149021642Y-92927142D01*
X149064500Y-93012857D01*
X149107357Y-93055714D01*
X149193071Y-93098571D01*
X149450214Y-93098571D01*
X149535928Y-93055714D01*
X149578785Y-93012857D01*
X149621642Y-92927142D01*
X149621642Y-92755714D01*
X149578785Y-92669999D01*
X149021642Y-93355714D02*
X149021642Y-93698571D01*
X148721642Y-93484285D02*
X149493071Y-93484285D01*
X149578785Y-93527142D01*
X149621642Y-93612857D01*
X149621642Y-93698571D01*
X149578785Y-94341428D02*
X149621642Y-94255714D01*
X149621642Y-94084285D01*
X149578785Y-93998571D01*
X149493071Y-93955714D01*
X149150214Y-93955714D01*
X149064500Y-93998571D01*
X149021642Y-94084285D01*
X149021642Y-94255714D01*
X149064500Y-94341428D01*
X149150214Y-94384285D01*
X149235928Y-94384285D01*
X149321642Y-93955714D01*
X149621642Y-94769999D02*
X149021642Y-94769999D01*
X149193071Y-94769999D02*
X149107357Y-94812857D01*
X149064500Y-94855714D01*
X149021642Y-94941428D01*
X149021642Y-95027142D01*
%LPC*%
D11*
%TO.C,U1*%
X141359000Y-68335000D03*
X141359000Y-69605000D03*
X141359000Y-70875000D03*
X141359000Y-72145000D03*
X141359000Y-73415000D03*
X141359000Y-74685000D03*
X141359000Y-75955000D03*
X141359000Y-77225000D03*
X141359000Y-78495000D03*
X141359000Y-79765000D03*
X141359000Y-81035000D03*
X141359000Y-82305000D03*
X141359000Y-83575000D03*
X141359000Y-84845000D03*
X141359000Y-86115000D03*
X141359000Y-87385000D03*
X141359000Y-88655000D03*
X141359000Y-89925000D03*
X141359000Y-91195000D03*
X141359000Y-92465000D03*
X141359000Y-93735000D03*
X141359000Y-95005000D03*
X156281500Y-95005000D03*
X156281500Y-93735000D03*
X156281500Y-92465000D03*
X156281500Y-91195000D03*
X156281500Y-89925000D03*
X156281500Y-88655000D03*
X156281500Y-87385000D03*
X156281500Y-86115000D03*
X156281500Y-84845000D03*
X156281500Y-83575000D03*
X156281500Y-82305000D03*
X156281500Y-81035000D03*
X156281500Y-79765000D03*
X156281500Y-78495000D03*
X156281500Y-77225000D03*
X156281500Y-75955000D03*
X156281500Y-74685000D03*
X156281500Y-73415000D03*
X156281500Y-72145000D03*
X156281500Y-70875000D03*
X156281500Y-69605000D03*
X156281500Y-68335000D03*
%TD*%
M02*
