M48
; DRILL file {KiCad (6.0.7)} date Sun Aug  7 04:40:04 2022
; FORMAT={-:-/ absolute / inch / decimal}
; #@! TF.CreationDate,2022-08-07T04:40:04-07:00
; #@! TF.GenerationSoftware,Kicad,Pcbnew,(6.0.7)
; #@! TF.FileFunction,Plated,1,2,PTH
FMAT,2
INCH
; #@! TA.AperFunction,Plated,PTH,ComponentDrill
T1C0.0197
%
G90
G05
T1
X5.5653Y-2.6904
X5.5653Y-2.7404
X5.5653Y-2.7904
X5.5653Y-2.8404
X5.5653Y-2.8904
X5.5653Y-2.9404
X5.5653Y-2.9904
X5.5653Y-3.0404
X5.5653Y-3.0904
X5.5653Y-3.1404
X5.5653Y-3.1904
X5.5653Y-3.2404
X5.5653Y-3.2904
X5.5653Y-3.3404
X5.5653Y-3.3904
X5.5653Y-3.4404
X5.5653Y-3.4904
X5.5653Y-3.5404
X5.5653Y-3.5904
X5.5653Y-3.6404
X5.5653Y-3.6904
X5.5653Y-3.7404
X6.1528Y-2.6904
X6.1528Y-2.7404
X6.1528Y-2.7904
X6.1528Y-2.8404
X6.1528Y-2.8904
X6.1528Y-2.9404
X6.1528Y-2.9904
X6.1528Y-3.0404
X6.1528Y-3.0904
X6.1528Y-3.1404
X6.1528Y-3.1904
X6.1528Y-3.2404
X6.1528Y-3.2904
X6.1528Y-3.3404
X6.1528Y-3.3904
X6.1528Y-3.4404
X6.1528Y-3.4904
X6.1528Y-3.5404
X6.1528Y-3.5904
X6.1528Y-3.6404
X6.1528Y-3.6904
X6.1528Y-3.7404
T0
M30
