%TF.GenerationSoftware,KiCad,Pcbnew,(6.0.7)*%
%TF.CreationDate,2022-08-07T04:40:04-07:00*%
%TF.ProjectId,SOP44-to-DIP-adapter,534f5034-342d-4746-9f2d-4449502d6164,rev?*%
%TF.SameCoordinates,Original*%
%TF.FileFunction,Paste,Top*%
%TF.FilePolarity,Positive*%
%FSLAX46Y46*%
G04 Gerber Fmt 4.6, Leading zero omitted, Abs format (unit mm)*
G04 Created by KiCad (PCBNEW (6.0.7)) date 2022-08-07 04:40:04*
%MOMM*%
%LPD*%
G01*
G04 APERTURE LIST*
%ADD10R,2.100000X0.750000*%
G04 APERTURE END LIST*
D10*
%TO.C,J1*%
X147020000Y-68970000D03*
X147020000Y-70240000D03*
X147020000Y-71510000D03*
X147020000Y-72780000D03*
X147020000Y-74050000D03*
X147020000Y-75320000D03*
X147020000Y-76590000D03*
X147020000Y-77860000D03*
X147020000Y-79130000D03*
X147020000Y-80400000D03*
X147020000Y-81670000D03*
X147020000Y-82940000D03*
X147020000Y-84210000D03*
X147020000Y-85480000D03*
X147020000Y-86750000D03*
X147020000Y-88020000D03*
X147020000Y-89290000D03*
X147020000Y-90560000D03*
X147020000Y-91830000D03*
X147020000Y-93100000D03*
X147020000Y-94370000D03*
X150620000Y-94370000D03*
X150620000Y-93100000D03*
X150620000Y-91830000D03*
X150620000Y-90560000D03*
X150620000Y-89290000D03*
X150620000Y-88020000D03*
X150620000Y-86750000D03*
X150620000Y-85480000D03*
X150620000Y-84210000D03*
X150620000Y-82940000D03*
X150620000Y-81670000D03*
X150620000Y-80400000D03*
X150620000Y-79130000D03*
X150620000Y-77860000D03*
X150620000Y-76590000D03*
X150620000Y-75320000D03*
X150620000Y-74050000D03*
X150620000Y-72780000D03*
X150620000Y-71510000D03*
X150620000Y-70240000D03*
X150620000Y-68970000D03*
%TD*%
M02*
