%TF.GenerationSoftware,KiCad,Pcbnew,(6.0.7)*%
%TF.CreationDate,2022-08-07T04:40:04-07:00*%
%TF.ProjectId,SOP44-to-DIP-adapter,534f5034-342d-4746-9f2d-4449502d6164,rev?*%
%TF.SameCoordinates,Original*%
%TF.FileFunction,Copper,L1,Top*%
%TF.FilePolarity,Positive*%
%FSLAX46Y46*%
G04 Gerber Fmt 4.6, Leading zero omitted, Abs format (unit mm)*
G04 Created by KiCad (PCBNEW (6.0.7)) date 2022-08-07 04:40:04*
%MOMM*%
%LPD*%
G01*
G04 APERTURE LIST*
G04 Aperture macros list*
%AMFreePoly0*
4,1,21,0.066987,0.448222,0.190096,0.411405,0.297922,0.341515,0.318615,0.317500,0.635000,0.317500,0.635000,-0.317500,0.317723,-0.317500,0.289490,-0.348692,0.179987,-0.415926,0.056016,-0.449725,-0.072458,-0.447370,-0.195108,-0.409052,-0.302073,-0.337850,-0.319179,-0.317500,-0.635000,-0.317500,-0.635000,0.317500,-0.318129,0.317500,-0.293728,0.345129,-0.185055,0.413696,-0.061506,0.449007,
0.066987,0.448222,0.066987,0.448222,$1*%
G04 Aperture macros list end*
%TA.AperFunction,CastellatedPad*%
%ADD10FreePoly0,180.000000*%
%TD*%
%TA.AperFunction,SMDPad,CuDef*%
%ADD11R,2.100000X0.750000*%
%TD*%
%TA.AperFunction,Conductor*%
%ADD12C,0.250000*%
%TD*%
%TA.AperFunction,Conductor*%
%ADD13C,0.600000*%
%TD*%
G04 APERTURE END LIST*
D10*
%TO.P,U1,1,NC*%
%TO.N,unconnected-(U1-Pad1)*%
X141359000Y-68335000D03*
%TO.P,U1,2,A18*%
%TO.N,/A18*%
X141359000Y-69605000D03*
%TO.P,U1,3,A17*%
%TO.N,/A17*%
X141359000Y-70875000D03*
%TO.P,U1,4,A7*%
%TO.N,/A7*%
X141359000Y-72145000D03*
%TO.P,U1,5,A6*%
%TO.N,/A6*%
X141359000Y-73415000D03*
%TO.P,U1,6,A5*%
%TO.N,/A5*%
X141359000Y-74685000D03*
%TO.P,U1,7,A4*%
%TO.N,/A4*%
X141359000Y-75955000D03*
%TO.P,U1,8,A3*%
%TO.N,/A3*%
X141359000Y-77225000D03*
%TO.P,U1,9,A2*%
%TO.N,/A2*%
X141359000Y-78495000D03*
%TO.P,U1,10,A1*%
%TO.N,/A1*%
X141359000Y-79765000D03*
%TO.P,U1,11,A0*%
%TO.N,/A0*%
X141359000Y-81035000D03*
%TO.P,U1,12,~{E}*%
%TO.N,/~{CE}*%
X141359000Y-82305000D03*
%TO.P,U1,13,GND*%
%TO.N,/VSS*%
X141359000Y-83575000D03*
%TO.P,U1,14,~{GVPP}*%
%TO.N,/~{OE}*%
X141359000Y-84845000D03*
%TO.P,U1,15,D0*%
%TO.N,/D0*%
X141359000Y-86115000D03*
%TO.P,U1,16,D8*%
%TO.N,/D8*%
X141359000Y-87385000D03*
%TO.P,U1,17,D1*%
%TO.N,/D1*%
X141359000Y-88655000D03*
%TO.P,U1,18,D9*%
%TO.N,/D9*%
X141359000Y-89925000D03*
%TO.P,U1,19,D2*%
%TO.N,/D2*%
X141359000Y-91195000D03*
%TO.P,U1,20,D10*%
%TO.N,/D10*%
X141359000Y-92465000D03*
%TO.P,U1,21,D3*%
%TO.N,/D3*%
X141359000Y-93735000D03*
%TO.P,U1,22,D11*%
%TO.N,/D11*%
X141359000Y-95005000D03*
%TO.P,U1,23,VCC*%
%TO.N,/VCC*%
X156281500Y-95005000D03*
%TO.P,U1,24,D4*%
%TO.N,/D4*%
X156281500Y-93735000D03*
%TO.P,U1,25,D12*%
%TO.N,/D12*%
X156281500Y-92465000D03*
%TO.P,U1,26,D5*%
%TO.N,/D5*%
X156281500Y-91195000D03*
%TO.P,U1,27,D13*%
%TO.N,/D13*%
X156281500Y-89925000D03*
%TO.P,U1,28,D6*%
%TO.N,/D6*%
X156281500Y-88655000D03*
%TO.P,U1,29,D14*%
%TO.N,/D14*%
X156281500Y-87385000D03*
%TO.P,U1,30,D7*%
%TO.N,/D7*%
X156281500Y-86115000D03*
%TO.P,U1,31,D15*%
%TO.N,/D15*%
X156281500Y-84845000D03*
%TO.P,U1,32,GND*%
%TO.N,/VSS*%
X156281500Y-83575000D03*
%TO.P,U1,33,BHE*%
%TO.N,unconnected-(U1-Pad33)*%
X156281500Y-82305000D03*
%TO.P,U1,34,A16*%
%TO.N,/A16*%
X156281500Y-81035000D03*
%TO.P,U1,35,A15*%
%TO.N,/A15*%
X156281500Y-79765000D03*
%TO.P,U1,36,A14*%
%TO.N,/A14*%
X156281500Y-78495000D03*
%TO.P,U1,37,A13*%
%TO.N,/A13*%
X156281500Y-77225000D03*
%TO.P,U1,38,A12*%
%TO.N,/A12*%
X156281500Y-75955000D03*
%TO.P,U1,39,A11*%
%TO.N,/A11*%
X156281500Y-74685000D03*
%TO.P,U1,40,A10*%
%TO.N,/A10*%
X156281500Y-73415000D03*
%TO.P,U1,41,A9*%
%TO.N,/A9*%
X156281500Y-72145000D03*
%TO.P,U1,42,A8*%
%TO.N,/A8*%
X156281500Y-70875000D03*
%TO.P,U1,43,A19*%
%TO.N,/A19*%
X156281500Y-69605000D03*
%TO.P,U1,44,A20*%
%TO.N,/A20*%
X156281500Y-68335000D03*
%TD*%
D11*
%TO.P,J1,1,Pin_1*%
%TO.N,/A18*%
X147020000Y-68970000D03*
%TO.P,J1,2,Pin_2*%
%TO.N,/A17*%
X147020000Y-70240000D03*
%TO.P,J1,3,Pin_3*%
%TO.N,/A7*%
X147020000Y-71510000D03*
%TO.P,J1,4,Pin_4*%
%TO.N,/A6*%
X147020000Y-72780000D03*
%TO.P,J1,5,Pin_5*%
%TO.N,/A5*%
X147020000Y-74050000D03*
%TO.P,J1,6,Pin_6*%
%TO.N,/A4*%
X147020000Y-75320000D03*
%TO.P,J1,7,Pin_7*%
%TO.N,/A3*%
X147020000Y-76590000D03*
%TO.P,J1,8,Pin_8*%
%TO.N,/A2*%
X147020000Y-77860000D03*
%TO.P,J1,9,Pin_9*%
%TO.N,/A1*%
X147020000Y-79130000D03*
%TO.P,J1,10,Pin_10*%
%TO.N,/A0*%
X147020000Y-80400000D03*
%TO.P,J1,11,Pin_11*%
%TO.N,/~{CE}*%
X147020000Y-81670000D03*
%TO.P,J1,12,Pin_12*%
%TO.N,/VSS*%
X147020000Y-82940000D03*
%TO.P,J1,13,Pin_13*%
%TO.N,/~{OE}*%
X147020000Y-84210000D03*
%TO.P,J1,14,Pin_14*%
%TO.N,/D0*%
X147020000Y-85480000D03*
%TO.P,J1,15,Pin_15*%
%TO.N,/D8*%
X147020000Y-86750000D03*
%TO.P,J1,16,Pin_16*%
%TO.N,/D1*%
X147020000Y-88020000D03*
%TO.P,J1,17,Pin_17*%
%TO.N,/D9*%
X147020000Y-89290000D03*
%TO.P,J1,18,Pin_18*%
%TO.N,/D2*%
X147020000Y-90560000D03*
%TO.P,J1,19,Pin_19*%
%TO.N,/D10*%
X147020000Y-91830000D03*
%TO.P,J1,20,Pin_20*%
%TO.N,/D3*%
X147020000Y-93100000D03*
%TO.P,J1,21,Pin_21*%
%TO.N,/D11*%
X147020000Y-94370000D03*
%TO.P,J1,22,Pin_22*%
%TO.N,/VCC*%
X150620000Y-94370000D03*
%TO.P,J1,23,Pin_23*%
%TO.N,/D4*%
X150620000Y-93100000D03*
%TO.P,J1,24,Pin_24*%
%TO.N,/D12*%
X150620000Y-91830000D03*
%TO.P,J1,25,Pin_25*%
%TO.N,/D5*%
X150620000Y-90560000D03*
%TO.P,J1,26,Pin_26*%
%TO.N,/D13*%
X150620000Y-89290000D03*
%TO.P,J1,27,Pin_27*%
%TO.N,/D6*%
X150620000Y-88020000D03*
%TO.P,J1,28,Pin_28*%
%TO.N,/D14*%
X150620000Y-86750000D03*
%TO.P,J1,29,Pin_29*%
%TO.N,/D7*%
X150620000Y-85480000D03*
%TO.P,J1,30,Pin_30*%
%TO.N,/D15*%
X150620000Y-84210000D03*
%TO.P,J1,31,Pin_31*%
%TO.N,/VSS*%
X150620000Y-82940000D03*
%TO.P,J1,32,Pin_32*%
%TO.N,/A20*%
X150620000Y-81670000D03*
%TO.P,J1,33,Pin_33*%
%TO.N,/A16*%
X150620000Y-80400000D03*
%TO.P,J1,34,Pin_34*%
%TO.N,/A15*%
X150620000Y-79130000D03*
%TO.P,J1,35,Pin_35*%
%TO.N,/A14*%
X150620000Y-77860000D03*
%TO.P,J1,36,Pin_36*%
%TO.N,/A13*%
X150620000Y-76590000D03*
%TO.P,J1,37,Pin_37*%
%TO.N,/A12*%
X150620000Y-75320000D03*
%TO.P,J1,38,Pin_38*%
%TO.N,/A11*%
X150620000Y-74050000D03*
%TO.P,J1,39,Pin_39*%
%TO.N,/A10*%
X150620000Y-72780000D03*
%TO.P,J1,40,Pin_40*%
%TO.N,/A9*%
X150620000Y-71510000D03*
%TO.P,J1,41,Pin_41*%
%TO.N,/A8*%
X150620000Y-70240000D03*
%TO.P,J1,42,Pin_42*%
%TO.N,/A19*%
X150620000Y-68970000D03*
%TD*%
D12*
%TO.N,/A20*%
X155655000Y-68120000D02*
X155875000Y-68340000D01*
X149497700Y-68120000D02*
X155655000Y-68120000D01*
X148810000Y-68807700D02*
X149497700Y-68120000D01*
X148810000Y-81670000D02*
X148810000Y-68807700D01*
X150620000Y-81670000D02*
X148810000Y-81670000D01*
%TO.N,/A19*%
X152630100Y-69605000D02*
X156281500Y-69605000D01*
X151995100Y-68970000D02*
X152630100Y-69605000D01*
X150620000Y-68970000D02*
X151995100Y-68970000D01*
%TO.N,/A8*%
X152630100Y-70875000D02*
X156281500Y-70875000D01*
X151995100Y-70240000D02*
X152630100Y-70875000D01*
X150620000Y-70240000D02*
X151995100Y-70240000D01*
%TO.N,/A9*%
X152630100Y-72145000D02*
X156281500Y-72145000D01*
X151995100Y-71510000D02*
X152630100Y-72145000D01*
X150620000Y-71510000D02*
X151995100Y-71510000D01*
%TO.N,/A10*%
X152630100Y-73415000D02*
X156281500Y-73415000D01*
X151995100Y-72780000D02*
X152630100Y-73415000D01*
X150620000Y-72780000D02*
X151995100Y-72780000D01*
%TO.N,/A11*%
X152630100Y-74685000D02*
X156281500Y-74685000D01*
X151995100Y-74050000D02*
X152630100Y-74685000D01*
X150620000Y-74050000D02*
X151995100Y-74050000D01*
%TO.N,/A12*%
X152630100Y-75955000D02*
X156281500Y-75955000D01*
X151995100Y-75320000D02*
X152630100Y-75955000D01*
X150620000Y-75320000D02*
X151995100Y-75320000D01*
%TO.N,/A13*%
X152630100Y-77225000D02*
X156281500Y-77225000D01*
X151995100Y-76590000D02*
X152630100Y-77225000D01*
X150620000Y-76590000D02*
X151995100Y-76590000D01*
%TO.N,/A14*%
X152630100Y-78495000D02*
X156281500Y-78495000D01*
X151995100Y-77860000D02*
X152630100Y-78495000D01*
X150620000Y-77860000D02*
X151995100Y-77860000D01*
%TO.N,/A15*%
X152630100Y-79765000D02*
X156281500Y-79765000D01*
X151995100Y-79130000D02*
X152630100Y-79765000D01*
X150620000Y-79130000D02*
X151995100Y-79130000D01*
%TO.N,/A16*%
X152630100Y-81035000D02*
X156281500Y-81035000D01*
X151995100Y-80400000D02*
X152630100Y-81035000D01*
X150620000Y-80400000D02*
X151995100Y-80400000D01*
%TO.N,/D15*%
X152630100Y-84845000D02*
X156281500Y-84845000D01*
X151995100Y-84210000D02*
X152630100Y-84845000D01*
X150620000Y-84210000D02*
X151995100Y-84210000D01*
%TO.N,/D7*%
X152630100Y-86115000D02*
X156281500Y-86115000D01*
X151995100Y-85480000D02*
X152630100Y-86115000D01*
X150620000Y-85480000D02*
X151995100Y-85480000D01*
%TO.N,/D14*%
X152630100Y-87385000D02*
X156281500Y-87385000D01*
X151995100Y-86750000D02*
X152630100Y-87385000D01*
X150620000Y-86750000D02*
X151995100Y-86750000D01*
%TO.N,/D6*%
X152630100Y-88655000D02*
X156281500Y-88655000D01*
X151995100Y-88020000D02*
X152630100Y-88655000D01*
X150620000Y-88020000D02*
X151995100Y-88020000D01*
%TO.N,/D13*%
X152630100Y-89925000D02*
X156281500Y-89925000D01*
X151995100Y-89290000D02*
X152630100Y-89925000D01*
X150620000Y-89290000D02*
X151995100Y-89290000D01*
%TO.N,/D5*%
X152630100Y-91195000D02*
X156281500Y-91195000D01*
X151995100Y-90560000D02*
X152630100Y-91195000D01*
X150620000Y-90560000D02*
X151995100Y-90560000D01*
%TO.N,/D12*%
X152630100Y-92465000D02*
X156281500Y-92465000D01*
X151995100Y-91830000D02*
X152630100Y-92465000D01*
X150620000Y-91830000D02*
X151995100Y-91830000D01*
%TO.N,/D4*%
X152630100Y-93735000D02*
X156281500Y-93735000D01*
X151995100Y-93100000D02*
X152630100Y-93735000D01*
X150620000Y-93100000D02*
X151995100Y-93100000D01*
D13*
%TO.N,/VCC*%
X152630100Y-95005000D02*
X156281500Y-95005000D01*
X151995100Y-94370000D02*
X152630100Y-95005000D01*
X150620000Y-94370000D02*
X151995100Y-94370000D01*
D12*
%TO.N,/D11*%
X145009900Y-95005000D02*
X141359000Y-95005000D01*
X145644900Y-94370000D02*
X145009900Y-95005000D01*
X147020000Y-94370000D02*
X145644900Y-94370000D01*
%TO.N,/D3*%
X145009900Y-93735000D02*
X141359000Y-93735000D01*
X145644900Y-93100000D02*
X145009900Y-93735000D01*
X147020000Y-93100000D02*
X145644900Y-93100000D01*
%TO.N,/D10*%
X145009900Y-92465000D02*
X141359000Y-92465000D01*
X145644900Y-91830000D02*
X145009900Y-92465000D01*
X147020000Y-91830000D02*
X145644900Y-91830000D01*
%TO.N,/D2*%
X145009900Y-91195000D02*
X141359000Y-91195000D01*
X145644900Y-90560000D02*
X145009900Y-91195000D01*
X147020000Y-90560000D02*
X145644900Y-90560000D01*
%TO.N,/D9*%
X145009900Y-89925000D02*
X141359000Y-89925000D01*
X145644900Y-89290000D02*
X145009900Y-89925000D01*
X147020000Y-89290000D02*
X145644900Y-89290000D01*
%TO.N,/D1*%
X145009900Y-88655000D02*
X141359000Y-88655000D01*
X145644900Y-88020000D02*
X145009900Y-88655000D01*
X147020000Y-88020000D02*
X145644900Y-88020000D01*
%TO.N,/D8*%
X145009900Y-87385000D02*
X141359000Y-87385000D01*
X145644900Y-86750000D02*
X145009900Y-87385000D01*
X147020000Y-86750000D02*
X145644900Y-86750000D01*
%TO.N,/D0*%
X145009900Y-86115000D02*
X141359000Y-86115000D01*
X145644900Y-85480000D02*
X145009900Y-86115000D01*
X147020000Y-85480000D02*
X145644900Y-85480000D01*
%TO.N,/~{OE}*%
X145009900Y-84845000D02*
X141359000Y-84845000D01*
X145644900Y-84210000D02*
X145009900Y-84845000D01*
X147020000Y-84210000D02*
X145644900Y-84210000D01*
D13*
%TO.N,/VSS*%
X145009900Y-83575000D02*
X141359000Y-83575000D01*
X145644900Y-82940000D02*
X145009900Y-83575000D01*
X147020000Y-82940000D02*
X145644900Y-82940000D01*
X150620000Y-82940000D02*
X147020000Y-82940000D01*
X152630100Y-83575000D02*
X156281500Y-83575000D01*
X151995100Y-82940000D02*
X152630100Y-83575000D01*
X150620000Y-82940000D02*
X151995100Y-82940000D01*
D12*
%TO.N,/~{CE}*%
X145009900Y-82305000D02*
X141359000Y-82305000D01*
X145644900Y-81670000D02*
X145009900Y-82305000D01*
X147020000Y-81670000D02*
X145644900Y-81670000D01*
%TO.N,/A0*%
X145009900Y-81035000D02*
X141359000Y-81035000D01*
X145644900Y-80400000D02*
X145009900Y-81035000D01*
X147020000Y-80400000D02*
X145644900Y-80400000D01*
%TO.N,/A1*%
X145009900Y-79765000D02*
X141359000Y-79765000D01*
X145644900Y-79130000D02*
X145009900Y-79765000D01*
X147020000Y-79130000D02*
X145644900Y-79130000D01*
%TO.N,/A2*%
X145009900Y-78495000D02*
X141359000Y-78495000D01*
X145644900Y-77860000D02*
X145009900Y-78495000D01*
X147020000Y-77860000D02*
X145644900Y-77860000D01*
%TO.N,/A3*%
X145009900Y-77225000D02*
X141359000Y-77225000D01*
X145644900Y-76590000D02*
X145009900Y-77225000D01*
X147020000Y-76590000D02*
X145644900Y-76590000D01*
%TO.N,/A4*%
X145009900Y-75955000D02*
X141359000Y-75955000D01*
X145644900Y-75320000D02*
X145009900Y-75955000D01*
X147020000Y-75320000D02*
X145644900Y-75320000D01*
%TO.N,/A5*%
X145009900Y-74685000D02*
X141359000Y-74685000D01*
X145644900Y-74050000D02*
X145009900Y-74685000D01*
X147020000Y-74050000D02*
X145644900Y-74050000D01*
%TO.N,/A6*%
X145009900Y-73415000D02*
X141359000Y-73415000D01*
X145644900Y-72780000D02*
X145009900Y-73415000D01*
X147020000Y-72780000D02*
X145644900Y-72780000D01*
%TO.N,/A7*%
X145009900Y-72145000D02*
X141359000Y-72145000D01*
X145644900Y-71510000D02*
X145009900Y-72145000D01*
X147020000Y-71510000D02*
X145644900Y-71510000D01*
%TO.N,/A17*%
X145009900Y-70875000D02*
X141359000Y-70875000D01*
X145644900Y-70240000D02*
X145009900Y-70875000D01*
X147020000Y-70240000D02*
X145644900Y-70240000D01*
%TO.N,/A18*%
X145009900Y-69605000D02*
X141359000Y-69605000D01*
X145644900Y-68970000D02*
X145009900Y-69605000D01*
X147020000Y-68970000D02*
X145644900Y-68970000D01*
%TD*%
M02*
