%TF.GenerationSoftware,KiCad,Pcbnew,(6.0.7)*%
%TF.CreationDate,2022-08-07T18:45:19-07:00*%
%TF.ProjectId,DIP42-adapter,44495034-322d-4616-9461-707465722e6b,rev?*%
%TF.SameCoordinates,Original*%
%TF.FileFunction,Copper,L1,Top*%
%TF.FilePolarity,Positive*%
%FSLAX46Y46*%
G04 Gerber Fmt 4.6, Leading zero omitted, Abs format (unit mm)*
G04 Created by KiCad (PCBNEW (6.0.7)) date 2022-08-07 18:45:19*
%MOMM*%
%LPD*%
G01*
G04 APERTURE LIST*
%TA.AperFunction,ComponentPad*%
%ADD10R,1.000000X1.000000*%
%TD*%
%TA.AperFunction,ComponentPad*%
%ADD11O,1.000000X1.000000*%
%TD*%
%TA.AperFunction,ComponentPad*%
%ADD12R,1.700000X1.700000*%
%TD*%
%TA.AperFunction,ComponentPad*%
%ADD13O,1.700000X1.700000*%
%TD*%
%TA.AperFunction,Conductor*%
%ADD14C,0.350000*%
%TD*%
G04 APERTURE END LIST*
D10*
%TO.P,U1,1,Pin_1*%
%TO.N,Net-(U1-Pad1)*%
X143890000Y-68210000D03*
D11*
%TO.P,U1,2,Pin_2*%
%TO.N,Net-(U1-Pad2)*%
X143890000Y-69480000D03*
%TO.P,U1,3,Pin_3*%
%TO.N,Net-(U1-Pad3)*%
X143890000Y-70750000D03*
%TO.P,U1,4,Pin_4*%
%TO.N,Net-(U1-Pad4)*%
X143890000Y-72020000D03*
%TO.P,U1,5,Pin_5*%
%TO.N,Net-(U1-Pad5)*%
X143890000Y-73290000D03*
%TO.P,U1,6,Pin_6*%
%TO.N,Net-(U1-Pad6)*%
X143890000Y-74560000D03*
%TO.P,U1,7,Pin_7*%
%TO.N,Net-(U1-Pad7)*%
X143890000Y-75830000D03*
%TO.P,U1,8,Pin_8*%
%TO.N,Net-(U1-Pad8)*%
X143890000Y-77100000D03*
%TO.P,U1,9,Pin_9*%
%TO.N,Net-(U1-Pad9)*%
X143890000Y-78370000D03*
%TO.P,U1,10,Pin_10*%
%TO.N,Net-(U1-Pad10)*%
X143890000Y-79640000D03*
%TO.P,U1,11,Pin_11*%
%TO.N,Net-(U1-Pad11)*%
X143890000Y-80910000D03*
%TO.P,U1,12,Pin_12*%
%TO.N,Net-(U1-Pad12)*%
X143890000Y-82180000D03*
%TO.P,U1,13,Pin_13*%
%TO.N,Net-(U1-Pad13)*%
X143890000Y-83450000D03*
%TO.P,U1,14,Pin_14*%
%TO.N,Net-(U1-Pad14)*%
X143890000Y-84720000D03*
%TO.P,U1,15,Pin_15*%
%TO.N,Net-(U1-Pad15)*%
X143890000Y-85990000D03*
%TO.P,U1,16,Pin_16*%
%TO.N,Net-(U1-Pad16)*%
X143890000Y-87260000D03*
%TO.P,U1,17,Pin_17*%
%TO.N,Net-(U1-Pad17)*%
X143890000Y-88530000D03*
%TO.P,U1,18,Pin_18*%
%TO.N,Net-(U1-Pad18)*%
X143890000Y-89800000D03*
%TO.P,U1,19,Pin_19*%
%TO.N,Net-(U1-Pad19)*%
X143890000Y-91070000D03*
%TO.P,U1,20,Pin_20*%
%TO.N,Net-(U1-Pad20)*%
X143890000Y-92340000D03*
%TO.P,U1,21,Pin_21*%
%TO.N,Net-(U1-Pad21)*%
X143890000Y-93610000D03*
%TO.P,U1,22,Pin_22*%
%TO.N,Net-(U1-Pad22)*%
X145160000Y-93610000D03*
%TO.P,U1,23,Pin_23*%
%TO.N,Net-(U1-Pad23)*%
X145160000Y-92340000D03*
%TO.P,U1,24,Pin_24*%
%TO.N,Net-(U1-Pad24)*%
X145160000Y-91070000D03*
%TO.P,U1,25,Pin_25*%
%TO.N,Net-(U1-Pad25)*%
X145160000Y-89800000D03*
%TO.P,U1,26,Pin_26*%
%TO.N,Net-(U1-Pad26)*%
X145160000Y-88530000D03*
%TO.P,U1,27,Pin_27*%
%TO.N,Net-(U1-Pad27)*%
X145160000Y-87260000D03*
%TO.P,U1,28,Pin_28*%
%TO.N,Net-(U1-Pad28)*%
X145160000Y-85990000D03*
%TO.P,U1,29,Pin_29*%
%TO.N,Net-(U1-Pad29)*%
X145160000Y-84720000D03*
%TO.P,U1,30,Pin_30*%
%TO.N,Net-(U1-Pad30)*%
X145160000Y-83450000D03*
%TO.P,U1,31,Pin_31*%
%TO.N,Net-(U1-Pad31)*%
X145160000Y-82180000D03*
%TO.P,U1,32,Pin_32*%
%TO.N,Net-(U1-Pad32)*%
X145160000Y-80910000D03*
%TO.P,U1,33,Pin_33*%
%TO.N,Net-(U1-Pad33)*%
X145160000Y-79640000D03*
%TO.P,U1,34,Pin_34*%
%TO.N,Net-(U1-Pad34)*%
X145160000Y-78370000D03*
%TO.P,U1,35,Pin_35*%
%TO.N,Net-(U1-Pad35)*%
X145160000Y-77100000D03*
%TO.P,U1,36,Pin_36*%
%TO.N,Net-(U1-Pad36)*%
X145160000Y-75830000D03*
%TO.P,U1,37,Pin_37*%
%TO.N,Net-(U1-Pad37)*%
X145160000Y-74560000D03*
%TO.P,U1,38,Pin_38*%
%TO.N,Net-(U1-Pad38)*%
X145160000Y-73290000D03*
%TO.P,U1,39,Pin_39*%
%TO.N,Net-(U1-Pad39)*%
X145160000Y-72020000D03*
%TO.P,U1,40,Pin_40*%
%TO.N,Net-(U1-Pad40)*%
X145160000Y-70750000D03*
%TO.P,U1,41,Pin_41*%
%TO.N,Net-(U1-Pad41)*%
X145160000Y-69480000D03*
%TO.P,U1,42,Pin_42*%
%TO.N,Net-(U1-Pad42)*%
X145160000Y-68210000D03*
%TD*%
D12*
%TO.P,U2,1,A18*%
%TO.N,Net-(U1-Pad1)*%
X136842000Y-55508000D03*
D13*
%TO.P,U2,2,A17*%
%TO.N,Net-(U1-Pad2)*%
X136842000Y-58048000D03*
%TO.P,U2,3,A7*%
%TO.N,Net-(U1-Pad3)*%
X136842000Y-60588000D03*
%TO.P,U2,4,A6*%
%TO.N,Net-(U1-Pad4)*%
X136842000Y-63128000D03*
%TO.P,U2,5,A5*%
%TO.N,Net-(U1-Pad5)*%
X136842000Y-65668000D03*
%TO.P,U2,6,A4*%
%TO.N,Net-(U1-Pad6)*%
X136842000Y-68208000D03*
%TO.P,U2,7,A3*%
%TO.N,Net-(U1-Pad7)*%
X136842000Y-70748000D03*
%TO.P,U2,8,A2*%
%TO.N,Net-(U1-Pad8)*%
X136842000Y-73288000D03*
%TO.P,U2,9,A1*%
%TO.N,Net-(U1-Pad9)*%
X136842000Y-75828000D03*
%TO.P,U2,10,A0*%
%TO.N,Net-(U1-Pad10)*%
X136842000Y-78368000D03*
%TO.P,U2,11,~{E}*%
%TO.N,Net-(U1-Pad11)*%
X136842000Y-80908000D03*
%TO.P,U2,12,GND*%
%TO.N,Net-(U1-Pad12)*%
X136842000Y-83448000D03*
%TO.P,U2,13,~{GVPP}*%
%TO.N,Net-(U1-Pad13)*%
X136842000Y-85988000D03*
%TO.P,U2,14,D0*%
%TO.N,Net-(U1-Pad14)*%
X136842000Y-88528000D03*
%TO.P,U2,15,D8*%
%TO.N,Net-(U1-Pad15)*%
X136842000Y-91068000D03*
%TO.P,U2,16,D1*%
%TO.N,Net-(U1-Pad16)*%
X136842000Y-93608000D03*
%TO.P,U2,17,D9*%
%TO.N,Net-(U1-Pad17)*%
X136842000Y-96148000D03*
%TO.P,U2,18,D2*%
%TO.N,Net-(U1-Pad18)*%
X136842000Y-98688000D03*
%TO.P,U2,19,D10*%
%TO.N,Net-(U1-Pad19)*%
X136842000Y-101228000D03*
%TO.P,U2,20,D3*%
%TO.N,Net-(U1-Pad20)*%
X136842000Y-103768000D03*
%TO.P,U2,21,D11*%
%TO.N,Net-(U1-Pad21)*%
X136842000Y-106308000D03*
%TO.P,U2,22,VCC*%
%TO.N,Net-(U1-Pad22)*%
X152082000Y-106308000D03*
%TO.P,U2,23,D4*%
%TO.N,Net-(U1-Pad23)*%
X152082000Y-103768000D03*
%TO.P,U2,24,D12*%
%TO.N,Net-(U1-Pad24)*%
X152082000Y-101228000D03*
%TO.P,U2,25,D5*%
%TO.N,Net-(U1-Pad25)*%
X152082000Y-98688000D03*
%TO.P,U2,26,D13*%
%TO.N,Net-(U1-Pad26)*%
X152082000Y-96148000D03*
%TO.P,U2,27,D6*%
%TO.N,Net-(U1-Pad27)*%
X152082000Y-93608000D03*
%TO.P,U2,28,D14*%
%TO.N,Net-(U1-Pad28)*%
X152082000Y-91068000D03*
%TO.P,U2,29,D7*%
%TO.N,Net-(U1-Pad29)*%
X152082000Y-88528000D03*
%TO.P,U2,30,D15*%
%TO.N,Net-(U1-Pad30)*%
X152082000Y-85988000D03*
%TO.P,U2,31,GND*%
%TO.N,Net-(U1-Pad31)*%
X152082000Y-83448000D03*
%TO.P,U2,32,A20*%
%TO.N,Net-(U1-Pad32)*%
X152082000Y-80908000D03*
%TO.P,U2,33,A16*%
%TO.N,Net-(U1-Pad33)*%
X152082000Y-78368000D03*
%TO.P,U2,34,A15*%
%TO.N,Net-(U1-Pad34)*%
X152082000Y-75828000D03*
%TO.P,U2,35,A14*%
%TO.N,Net-(U1-Pad35)*%
X152082000Y-73288000D03*
%TO.P,U2,36,A13*%
%TO.N,Net-(U1-Pad36)*%
X152082000Y-70748000D03*
%TO.P,U2,37,A12*%
%TO.N,Net-(U1-Pad37)*%
X152082000Y-68208000D03*
%TO.P,U2,38,A11*%
%TO.N,Net-(U1-Pad38)*%
X152082000Y-65668000D03*
%TO.P,U2,39,A10*%
%TO.N,Net-(U1-Pad39)*%
X152082000Y-63128000D03*
%TO.P,U2,40,A9*%
%TO.N,Net-(U1-Pad40)*%
X152082000Y-60588000D03*
%TO.P,U2,41,A8*%
%TO.N,Net-(U1-Pad41)*%
X152082000Y-58048000D03*
%TO.P,U2,42,A19*%
%TO.N,Net-(U1-Pad42)*%
X152082000Y-55508000D03*
%TD*%
D14*
%TO.N,Net-(U1-Pad1)*%
X137128000Y-55508000D02*
X143890000Y-62270000D01*
X136968000Y-55508000D02*
X137128000Y-55508000D01*
X143890000Y-62270000D02*
X143890000Y-68210000D01*
%TO.N,Net-(U1-Pad2)*%
X136968000Y-58058000D02*
X136968000Y-58048000D01*
X143510000Y-69480000D02*
X142730000Y-68700000D01*
X142730000Y-68700000D02*
X142730000Y-63820000D01*
X142730000Y-63820000D02*
X136968000Y-58058000D01*
X143890000Y-69480000D02*
X143510000Y-69480000D01*
%TO.N,Net-(U1-Pad3)*%
X143890000Y-70750000D02*
X143710000Y-70750000D01*
X143710000Y-70750000D02*
X141810000Y-68850000D01*
X141810000Y-68850000D02*
X141810000Y-65270000D01*
X137128000Y-60588000D02*
X136968000Y-60588000D01*
X141810000Y-65270000D02*
X137128000Y-60588000D01*
%TO.N,Net-(U1-Pad4)*%
X136968000Y-63248000D02*
X139240000Y-65520000D01*
X136968000Y-63128000D02*
X136968000Y-63248000D01*
X139240000Y-67370000D02*
X143890000Y-72020000D01*
X139240000Y-65520000D02*
X139240000Y-67370000D01*
%TO.N,Net-(U1-Pad5)*%
X136968000Y-65668000D02*
X136968000Y-66280500D01*
X136968000Y-66280500D02*
X142972500Y-72285000D01*
X142972500Y-72372500D02*
X143890000Y-73290000D01*
X142972500Y-72285000D02*
X142972500Y-72372500D01*
%TO.N,Net-(U1-Pad6)*%
X137538000Y-68208000D02*
X143890000Y-74560000D01*
X136968000Y-68208000D02*
X137538000Y-68208000D01*
%TO.N,Net-(U1-Pad7)*%
X136968000Y-70748000D02*
X137957900Y-70748000D01*
X143039900Y-75830000D02*
X143890000Y-75830000D01*
X137957900Y-70748000D02*
X143039900Y-75830000D01*
%TO.N,Net-(U1-Pad8)*%
X143890000Y-77100000D02*
X142320000Y-77100000D01*
X142320000Y-77100000D02*
X138508000Y-73288000D01*
X138508000Y-73288000D02*
X136968000Y-73288000D01*
%TO.N,Net-(U1-Pad9)*%
X138168100Y-75828000D02*
X140710100Y-78370000D01*
X140710100Y-78370000D02*
X143890000Y-78370000D01*
X136968000Y-75828000D02*
X138168100Y-75828000D01*
%TO.N,Net-(U1-Pad10)*%
X138168100Y-78368000D02*
X139440100Y-79640000D01*
X139440100Y-79640000D02*
X143890000Y-79640000D01*
X136968000Y-78368000D02*
X138168100Y-78368000D01*
%TO.N,Net-(U1-Pad11)*%
X143890000Y-80910000D02*
X143039900Y-80910000D01*
X136968000Y-80908000D02*
X143037900Y-80908000D01*
X143037900Y-80908000D02*
X143039900Y-80910000D01*
%TO.N,Net-(U1-Pad12)*%
X136968000Y-83448000D02*
X138168100Y-83448000D01*
X138168100Y-83448000D02*
X139436100Y-82180000D01*
X139436100Y-82180000D02*
X143890000Y-82180000D01*
%TO.N,Net-(U1-Pad13)*%
X138168100Y-85988000D02*
X140706100Y-83450000D01*
X140706100Y-83450000D02*
X143890000Y-83450000D01*
X136968000Y-85988000D02*
X138168100Y-85988000D01*
%TO.N,Net-(U1-Pad14)*%
X143890000Y-84720000D02*
X141976100Y-84720000D01*
X136968000Y-88528000D02*
X138168100Y-88528000D01*
X141976100Y-84720000D02*
X138168100Y-88528000D01*
%TO.N,Net-(U1-Pad15)*%
X137652000Y-91068000D02*
X142730000Y-85990000D01*
X136968000Y-91068000D02*
X137652000Y-91068000D01*
X142730000Y-85990000D02*
X143890000Y-85990000D01*
%TO.N,Net-(U1-Pad16)*%
X136968000Y-93608000D02*
X136968000Y-93331900D01*
X143039900Y-87260000D02*
X143890000Y-87260000D01*
X136968000Y-93331900D02*
X143039900Y-87260000D01*
%TO.N,Net-(U1-Pad17)*%
X143590000Y-88530000D02*
X143890000Y-88530000D01*
X136968000Y-96102000D02*
X138540000Y-94530000D01*
X138540000Y-93580000D02*
X143590000Y-88530000D01*
X138540000Y-94530000D02*
X138540000Y-93580000D01*
X136968000Y-96148000D02*
X136968000Y-96102000D01*
%TO.N,Net-(U1-Pad18)*%
X139260000Y-94330000D02*
X139260000Y-95920000D01*
X139260000Y-95920000D02*
X136968000Y-98212000D01*
X143790000Y-89800000D02*
X139260000Y-94330000D01*
X143890000Y-89800000D02*
X143790000Y-89800000D01*
X136968000Y-98212000D02*
X136968000Y-98688000D01*
%TO.N,Net-(U1-Pad19)*%
X139900000Y-94820000D02*
X143650000Y-91070000D01*
X143650000Y-91070000D02*
X143890000Y-91070000D01*
X139900000Y-98810000D02*
X139900000Y-94820000D01*
X136968000Y-101228000D02*
X137482000Y-101228000D01*
X137482000Y-101228000D02*
X139900000Y-98810000D01*
%TO.N,Net-(U1-Pad20)*%
X143630000Y-92340000D02*
X141110000Y-94860000D01*
X143890000Y-92340000D02*
X143630000Y-92340000D01*
X136968000Y-103592000D02*
X136968000Y-103768000D01*
X141110000Y-94860000D02*
X141110000Y-99450000D01*
X141110000Y-99450000D02*
X136968000Y-103592000D01*
%TO.N,Net-(U1-Pad21)*%
X143890000Y-99640000D02*
X143890000Y-93610000D01*
X137222000Y-106308000D02*
X143890000Y-99640000D01*
X136968000Y-106308000D02*
X137222000Y-106308000D01*
%TO.N,Net-(U1-Pad22)*%
X152082000Y-106308000D02*
X151828000Y-106308000D01*
X151828000Y-106308000D02*
X145160000Y-99640000D01*
X145160000Y-99640000D02*
X145160000Y-93610000D01*
%TO.N,Net-(U1-Pad23)*%
X145420000Y-92340000D02*
X147940000Y-94860000D01*
X147940000Y-94860000D02*
X147940000Y-99450000D01*
X152082000Y-103592000D02*
X152082000Y-103768000D01*
X147940000Y-99450000D02*
X152082000Y-103592000D01*
X145160000Y-92340000D02*
X145420000Y-92340000D01*
%TO.N,Net-(U1-Pad24)*%
X149150000Y-94820000D02*
X145400000Y-91070000D01*
X151568000Y-101228000D02*
X149150000Y-98810000D01*
X149150000Y-98810000D02*
X149150000Y-94820000D01*
X145400000Y-91070000D02*
X145160000Y-91070000D01*
X152082000Y-101228000D02*
X151568000Y-101228000D01*
%TO.N,Net-(U1-Pad25)*%
X145160000Y-89800000D02*
X145260000Y-89800000D01*
X149790000Y-94330000D02*
X149790000Y-95920000D01*
X149790000Y-95920000D02*
X152082000Y-98212000D01*
X152082000Y-98212000D02*
X152082000Y-98688000D01*
X145260000Y-89800000D02*
X149790000Y-94330000D01*
%TO.N,Net-(U1-Pad26)*%
X150510000Y-94530000D02*
X150510000Y-93580000D01*
X152082000Y-96102000D02*
X150510000Y-94530000D01*
X150510000Y-93580000D02*
X145460000Y-88530000D01*
X152082000Y-96148000D02*
X152082000Y-96102000D01*
X145460000Y-88530000D02*
X145160000Y-88530000D01*
%TO.N,Net-(U1-Pad27)*%
X152082000Y-93608000D02*
X152082000Y-93331900D01*
X146010100Y-87260000D02*
X145160000Y-87260000D01*
X152082000Y-93331900D02*
X146010100Y-87260000D01*
%TO.N,Net-(U1-Pad28)*%
X151398000Y-91068000D02*
X146320000Y-85990000D01*
X146320000Y-85990000D02*
X145160000Y-85990000D01*
X152082000Y-91068000D02*
X151398000Y-91068000D01*
%TO.N,Net-(U1-Pad29)*%
X147073900Y-84720000D02*
X150881900Y-88528000D01*
X145160000Y-84720000D02*
X147073900Y-84720000D01*
X152082000Y-88528000D02*
X150881900Y-88528000D01*
%TO.N,Net-(U1-Pad30)*%
X150881900Y-85988000D02*
X148343900Y-83450000D01*
X148343900Y-83450000D02*
X145160000Y-83450000D01*
X152082000Y-85988000D02*
X150881900Y-85988000D01*
%TO.N,Net-(U1-Pad31)*%
X150881900Y-83448000D02*
X149613900Y-82180000D01*
X152082000Y-83448000D02*
X150881900Y-83448000D01*
X149613900Y-82180000D02*
X145160000Y-82180000D01*
%TO.N,Net-(U1-Pad32)*%
X146012100Y-80908000D02*
X146010100Y-80910000D01*
X152082000Y-80908000D02*
X146012100Y-80908000D01*
X145160000Y-80910000D02*
X146010100Y-80910000D01*
%TO.N,Net-(U1-Pad33)*%
X150881900Y-78368000D02*
X149609900Y-79640000D01*
X152082000Y-78368000D02*
X150881900Y-78368000D01*
X149609900Y-79640000D02*
X145160000Y-79640000D01*
%TO.N,Net-(U1-Pad34)*%
X150881900Y-75828000D02*
X148339900Y-78370000D01*
X148339900Y-78370000D02*
X145160000Y-78370000D01*
X152082000Y-75828000D02*
X150881900Y-75828000D01*
%TO.N,Net-(U1-Pad35)*%
X145160000Y-77100000D02*
X146730000Y-77100000D01*
X150542000Y-73288000D02*
X152082000Y-73288000D01*
X146730000Y-77100000D02*
X150542000Y-73288000D01*
%TO.N,Net-(U1-Pad36)*%
X146010100Y-75830000D02*
X145160000Y-75830000D01*
X151092100Y-70748000D02*
X146010100Y-75830000D01*
X152082000Y-70748000D02*
X151092100Y-70748000D01*
%TO.N,Net-(U1-Pad37)*%
X152082000Y-68208000D02*
X151512000Y-68208000D01*
X151512000Y-68208000D02*
X145160000Y-74560000D01*
%TO.N,Net-(U1-Pad38)*%
X146077500Y-72285000D02*
X146077500Y-72372500D01*
X152082000Y-66280500D02*
X146077500Y-72285000D01*
X152082000Y-65668000D02*
X152082000Y-66280500D01*
X146077500Y-72372500D02*
X145160000Y-73290000D01*
%TO.N,Net-(U1-Pad39)*%
X152082000Y-63248000D02*
X149810000Y-65520000D01*
X149810000Y-67370000D02*
X145160000Y-72020000D01*
X152082000Y-63128000D02*
X152082000Y-63248000D01*
X149810000Y-65520000D02*
X149810000Y-67370000D01*
%TO.N,Net-(U1-Pad40)*%
X147270000Y-68640000D02*
X147270000Y-65380000D01*
X152062000Y-60588000D02*
X152082000Y-60588000D01*
X147270000Y-65380000D02*
X152062000Y-60588000D01*
X145160000Y-70750000D02*
X147270000Y-68640000D01*
%TO.N,Net-(U1-Pad41)*%
X145160000Y-69480000D02*
X145430000Y-69480000D01*
X146320000Y-63820000D02*
X152082000Y-58058000D01*
X145430000Y-69480000D02*
X146320000Y-68590000D01*
X152082000Y-58058000D02*
X152082000Y-58048000D01*
X146320000Y-68590000D02*
X146320000Y-63820000D01*
%TO.N,Net-(U1-Pad42)*%
X151922000Y-55508000D02*
X145160000Y-62270000D01*
X152082000Y-55508000D02*
X151922000Y-55508000D01*
X145160000Y-62270000D02*
X145160000Y-68210000D01*
%TD*%
M02*
