%TF.GenerationSoftware,KiCad,Pcbnew,(6.0.7)*%
%TF.CreationDate,2022-08-07T18:45:19-07:00*%
%TF.ProjectId,DIP42-adapter,44495034-322d-4616-9461-707465722e6b,rev?*%
%TF.SameCoordinates,Original*%
%TF.FileFunction,Soldermask,Bot*%
%TF.FilePolarity,Negative*%
%FSLAX46Y46*%
G04 Gerber Fmt 4.6, Leading zero omitted, Abs format (unit mm)*
G04 Created by KiCad (PCBNEW (6.0.7)) date 2022-08-07 18:45:19*
%MOMM*%
%LPD*%
G01*
G04 APERTURE LIST*
%ADD10R,1.000000X1.000000*%
%ADD11O,1.000000X1.000000*%
%ADD12R,1.700000X1.700000*%
%ADD13O,1.700000X1.700000*%
G04 APERTURE END LIST*
D10*
%TO.C,U1*%
X143890000Y-68210000D03*
D11*
X143890000Y-69480000D03*
X143890000Y-70750000D03*
X143890000Y-72020000D03*
X143890000Y-73290000D03*
X143890000Y-74560000D03*
X143890000Y-75830000D03*
X143890000Y-77100000D03*
X143890000Y-78370000D03*
X143890000Y-79640000D03*
X143890000Y-80910000D03*
X143890000Y-82180000D03*
X143890000Y-83450000D03*
X143890000Y-84720000D03*
X143890000Y-85990000D03*
X143890000Y-87260000D03*
X143890000Y-88530000D03*
X143890000Y-89800000D03*
X143890000Y-91070000D03*
X143890000Y-92340000D03*
X143890000Y-93610000D03*
X145160000Y-93610000D03*
X145160000Y-92340000D03*
X145160000Y-91070000D03*
X145160000Y-89800000D03*
X145160000Y-88530000D03*
X145160000Y-87260000D03*
X145160000Y-85990000D03*
X145160000Y-84720000D03*
X145160000Y-83450000D03*
X145160000Y-82180000D03*
X145160000Y-80910000D03*
X145160000Y-79640000D03*
X145160000Y-78370000D03*
X145160000Y-77100000D03*
X145160000Y-75830000D03*
X145160000Y-74560000D03*
X145160000Y-73290000D03*
X145160000Y-72020000D03*
X145160000Y-70750000D03*
X145160000Y-69480000D03*
X145160000Y-68210000D03*
%TD*%
D12*
%TO.C,U2*%
X136842000Y-55508000D03*
D13*
X136842000Y-58048000D03*
X136842000Y-60588000D03*
X136842000Y-63128000D03*
X136842000Y-65668000D03*
X136842000Y-68208000D03*
X136842000Y-70748000D03*
X136842000Y-73288000D03*
X136842000Y-75828000D03*
X136842000Y-78368000D03*
X136842000Y-80908000D03*
X136842000Y-83448000D03*
X136842000Y-85988000D03*
X136842000Y-88528000D03*
X136842000Y-91068000D03*
X136842000Y-93608000D03*
X136842000Y-96148000D03*
X136842000Y-98688000D03*
X136842000Y-101228000D03*
X136842000Y-103768000D03*
X136842000Y-106308000D03*
X152082000Y-106308000D03*
X152082000Y-103768000D03*
X152082000Y-101228000D03*
X152082000Y-98688000D03*
X152082000Y-96148000D03*
X152082000Y-93608000D03*
X152082000Y-91068000D03*
X152082000Y-88528000D03*
X152082000Y-85988000D03*
X152082000Y-83448000D03*
X152082000Y-80908000D03*
X152082000Y-78368000D03*
X152082000Y-75828000D03*
X152082000Y-73288000D03*
X152082000Y-70748000D03*
X152082000Y-68208000D03*
X152082000Y-65668000D03*
X152082000Y-63128000D03*
X152082000Y-60588000D03*
X152082000Y-58048000D03*
X152082000Y-55508000D03*
%TD*%
M02*
