M48
; DRILL file {KiCad (6.0.7)} date Sun Aug  7 18:45:19 2022
; FORMAT={-:-/ absolute / inch / decimal}
; #@! TF.CreationDate,2022-08-07T18:45:19-07:00
; #@! TF.GenerationSoftware,Kicad,Pcbnew,(6.0.7)
; #@! TF.FileFunction,Plated,1,2,PTH
FMAT,2
INCH
; #@! TA.AperFunction,Plated,PTH,ComponentDrill
T1C0.0256
; #@! TA.AperFunction,Plated,PTH,ComponentDrill
T2C0.0394
%
G90
G05
T1
X5.665Y-2.6854
X5.665Y-2.7354
X5.665Y-2.7854
X5.665Y-2.8354
X5.665Y-2.8854
X5.665Y-2.9354
X5.665Y-2.9854
X5.665Y-3.0354
X5.665Y-3.0854
X5.665Y-3.1354
X5.665Y-3.1854
X5.665Y-3.2354
X5.665Y-3.2854
X5.665Y-3.3354
X5.665Y-3.3854
X5.665Y-3.4354
X5.665Y-3.4854
X5.665Y-3.5354
X5.665Y-3.5854
X5.665Y-3.6354
X5.665Y-3.6854
X5.715Y-2.6854
X5.715Y-2.7354
X5.715Y-2.7854
X5.715Y-2.8354
X5.715Y-2.8854
X5.715Y-2.9354
X5.715Y-2.9854
X5.715Y-3.0354
X5.715Y-3.0854
X5.715Y-3.1354
X5.715Y-3.1854
X5.715Y-3.2354
X5.715Y-3.2854
X5.715Y-3.3354
X5.715Y-3.3854
X5.715Y-3.4354
X5.715Y-3.4854
X5.715Y-3.5354
X5.715Y-3.5854
X5.715Y-3.6354
X5.715Y-3.6854
T2
X5.3875Y-2.1854
X5.3875Y-2.2854
X5.3875Y-2.3854
X5.3875Y-2.4854
X5.3875Y-2.5854
X5.3875Y-2.6854
X5.3875Y-2.7854
X5.3875Y-2.8854
X5.3875Y-2.9854
X5.3875Y-3.0854
X5.3875Y-3.1854
X5.3875Y-3.2854
X5.3875Y-3.3854
X5.3875Y-3.4854
X5.3875Y-3.5854
X5.3875Y-3.6854
X5.3875Y-3.7854
X5.3875Y-3.8854
X5.3875Y-3.9854
X5.3875Y-4.0854
X5.3875Y-4.1854
X5.9875Y-2.1854
X5.9875Y-2.2854
X5.9875Y-2.3854
X5.9875Y-2.4854
X5.9875Y-2.5854
X5.9875Y-2.6854
X5.9875Y-2.7854
X5.9875Y-2.8854
X5.9875Y-2.9854
X5.9875Y-3.0854
X5.9875Y-3.1854
X5.9875Y-3.2854
X5.9875Y-3.3854
X5.9875Y-3.4854
X5.9875Y-3.5854
X5.9875Y-3.6854
X5.9875Y-3.7854
X5.9875Y-3.8854
X5.9875Y-3.9854
X5.9875Y-4.0854
X5.9875Y-4.1854
T0
M30
